<?xml version="1.0" encoding="UTF-8" standalone="no"?><svg xmlns="http://www.w3.org/2000/svg" xmlns:xlink="http://www.w3.org/1999/xlink" contentScriptType="application/ecmascript" contentStyleType="text/css" height="290px" preserveAspectRatio="none" style="width:476px;height:290px;" version="1.1" viewBox="0 0 476 290" width="476px" zoomAndPan="magnify"><defs><filter height="300%" id="f10dal6fp8atz9" width="300%" x="-1" y="-1"><feGaussianBlur result="blurOut" stdDeviation="2.0"/><feColorMatrix in="blurOut" result="blurOut2" type="matrix" values="0 0 0 0 0 0 0 0 0 0 0 0 0 0 0 0 0 0 .4 0"/><feOffset dx="4.0" dy="4.0" in="blurOut2" result="blurOut3"/><feBlend in="SourceGraphic" in2="blurOut3" mode="normal"/></filter></defs><g><text fill="#000000" font-family="sans-serif" font-size="18" lengthAdjust="spacingAndGlyphs" textLength="258" x="102.5" y="17.4023">US 7 - Domain Model Excerpt</text><!--MD5=[02e4b9b7573f1156f41e60aa5b4e25a4]
class Company--><rect codeLine="8" fill="#FEFECE" filter="url(#f10dal6fp8atz9)" height="52.9551" id="Company" style="stroke: #A80036; stroke-width: 1.5;" width="86" x="7" y="60.6992"/><ellipse cx="22" cy="76.6992" fill="#ADD1B2" rx="11" ry="11" style="stroke: #A80036; stroke-width: 1.0;"/><path d="M24.4731,82.8423 Q23.8921,83.1411 23.2529,83.2905 Q22.6138,83.4399 21.9082,83.4399 Q19.4014,83.4399 18.0815,81.7881 Q16.7617,80.1362 16.7617,77.0151 Q16.7617,73.8857 18.0815,72.2339 Q19.4014,70.582 21.9082,70.582 Q22.6138,70.582 23.2612,70.7314 Q23.9087,70.8809 24.4731,71.1797 L24.4731,73.9023 Q23.8423,73.3213 23.2488,73.0515 Q22.6553,72.7817 22.0244,72.7817 Q20.6797,72.7817 19.9949,73.8484 Q19.3101,74.915 19.3101,77.0151 Q19.3101,79.1069 19.9949,80.1736 Q20.6797,81.2402 22.0244,81.2402 Q22.6553,81.2402 23.2488,80.9705 Q23.8423,80.7007 24.4731,80.1196 Z " fill="#000000"/><text fill="#000000" font-family="sans-serif" font-size="12" lengthAdjust="spacingAndGlyphs" textLength="54" x="36" y="81.2344">Company</text><line style="stroke: #A80036; stroke-width: 1.5;" x1="8" x2="92" y1="92.6992" y2="92.6992"/><text fill="#000000" font-family="sans-serif" font-size="11" lengthAdjust="spacingAndGlyphs" textLength="69" x="13" y="107.334">-designation</text><!--MD5=[12e90e92236ca84f203192a07d84ec5e]
class OrganizationRole--><rect codeLine="12" fill="#FEFECE" filter="url(#f10dal6fp8atz9)" height="52.9551" id="OrganizationRole" style="stroke: #A80036; stroke-width: 1.5;" width="130" x="23" y="223.1992"/><ellipse cx="38" cy="239.1992" fill="#ADD1B2" rx="11" ry="11" style="stroke: #A80036; stroke-width: 1.0;"/><path d="M40.4731,245.3423 Q39.8921,245.6411 39.2529,245.7905 Q38.6138,245.9399 37.9082,245.9399 Q35.4014,245.9399 34.0815,244.2881 Q32.7617,242.6362 32.7617,239.5151 Q32.7617,236.3857 34.0815,234.7339 Q35.4014,233.082 37.9082,233.082 Q38.6138,233.082 39.2612,233.2314 Q39.9087,233.3809 40.4731,233.6797 L40.4731,236.4023 Q39.8423,235.8213 39.2488,235.5515 Q38.6553,235.2817 38.0244,235.2817 Q36.6797,235.2817 35.9949,236.3484 Q35.3101,237.415 35.3101,239.5151 Q35.3101,241.6069 35.9949,242.6736 Q36.6797,243.7402 38.0244,243.7402 Q38.6553,243.7402 39.2488,243.4705 Q39.8423,243.2007 40.4731,242.6196 Z " fill="#000000"/><text fill="#000000" font-family="sans-serif" font-size="12" lengthAdjust="spacingAndGlyphs" textLength="98" x="52" y="243.7344">OrganizationRole</text><line style="stroke: #A80036; stroke-width: 1.5;" x1="24" x2="152" y1="255.1992" y2="255.1992"/><text fill="#000000" font-family="sans-serif" font-size="11" lengthAdjust="spacingAndGlyphs" textLength="67" x="29" y="269.834">-description</text><!--MD5=[7421f545a0d8420c5bec41e74b387d9c]
class Employee--><rect codeLine="16" fill="#FEFECE" filter="url(#f10dal6fp8atz9)" height="117.7305" id="Employee" style="stroke: #A80036; stroke-width: 1.5;" width="95" x="188.5" y="28.1992"/><ellipse cx="206.65" cy="44.1992" fill="#ADD1B2" rx="11" ry="11" style="stroke: #A80036; stroke-width: 1.0;"/><path d="M209.1231,50.3423 Q208.5421,50.6411 207.9029,50.7905 Q207.2638,50.9399 206.5582,50.9399 Q204.0514,50.9399 202.7315,49.2881 Q201.4117,47.6362 201.4117,44.5151 Q201.4117,41.3857 202.7315,39.7339 Q204.0514,38.082 206.5582,38.082 Q207.2638,38.082 207.9112,38.2314 Q208.5587,38.3809 209.1231,38.6797 L209.1231,41.4023 Q208.4923,40.8213 207.8988,40.5515 Q207.3053,40.2817 206.6744,40.2817 Q205.3297,40.2817 204.6449,41.3484 Q203.9601,42.415 203.9601,44.5151 Q203.9601,46.6069 204.6449,47.6736 Q205.3297,48.7402 206.6744,48.7402 Q207.3053,48.7402 207.8988,48.4705 Q208.4923,48.2007 209.1231,47.6196 Z " fill="#000000"/><text fill="#000000" font-family="sans-serif" font-size="12" lengthAdjust="spacingAndGlyphs" textLength="56" x="221.35" y="48.7344">Employee</text><line style="stroke: #A80036; stroke-width: 1.5;" x1="189.5" x2="282.5" y1="60.1992" y2="60.1992"/><text fill="#000000" font-family="sans-serif" font-size="11" lengthAdjust="spacingAndGlyphs" textLength="16" x="194.5" y="74.834">-id</text><text fill="#000000" font-family="sans-serif" font-size="11" lengthAdjust="spacingAndGlyphs" textLength="35" x="194.5" y="87.7891">-name</text><text fill="#000000" font-family="sans-serif" font-size="11" lengthAdjust="spacingAndGlyphs" textLength="49" x="194.5" y="100.7441">-address</text><text fill="#000000" font-family="sans-serif" font-size="11" lengthAdjust="spacingAndGlyphs" textLength="83" x="194.5" y="113.6992">-phoneNumber</text><text fill="#000000" font-family="sans-serif" font-size="11" lengthAdjust="spacingAndGlyphs" textLength="79" x="194.5" y="126.6543">-emailAddress</text><text fill="#000000" font-family="sans-serif" font-size="11" lengthAdjust="spacingAndGlyphs" textLength="53" x="194.5" y="139.6094">-socCode</text><!--MD5=[7d96fd15f3014691d2fcaf89c5791e2a]
class SpecialistDoctor--><rect codeLine="25" fill="#FEFECE" filter="url(#f10dal6fp8atz9)" height="52.9551" id="SpecialistDoctor" style="stroke: #A80036; stroke-width: 1.5;" width="127" x="226.5" y="223.1992"/><ellipse cx="243.3" cy="239.1992" fill="#ADD1B2" rx="11" ry="11" style="stroke: #A80036; stroke-width: 1.0;"/><path d="M245.7731,245.3423 Q245.1921,245.6411 244.5529,245.7905 Q243.9138,245.9399 243.2082,245.9399 Q240.7014,245.9399 239.3815,244.2881 Q238.0617,242.6362 238.0617,239.5151 Q238.0617,236.3857 239.3815,234.7339 Q240.7014,233.082 243.2082,233.082 Q243.9138,233.082 244.5612,233.2314 Q245.2087,233.3809 245.7731,233.6797 L245.7731,236.4023 Q245.1423,235.8213 244.5488,235.5515 Q243.9553,235.2817 243.3244,235.2817 Q241.9797,235.2817 241.2949,236.3484 Q240.6101,237.415 240.6101,239.5151 Q240.6101,241.6069 241.2949,242.6736 Q241.9797,243.7402 243.3244,243.7402 Q243.9553,243.7402 244.5488,243.4705 Q245.1423,243.2007 245.7731,242.6196 Z " fill="#000000"/><text fill="#000000" font-family="sans-serif" font-size="12" lengthAdjust="spacingAndGlyphs" textLength="91" x="257.7" y="243.7344">SpecialistDoctor</text><line style="stroke: #A80036; stroke-width: 1.5;" x1="227.5" x2="352.5" y1="255.1992" y2="255.1992"/><text fill="#000000" font-family="sans-serif" font-size="11" lengthAdjust="spacingAndGlyphs" textLength="115" x="232.5" y="269.834">-doctorIndexNumber</text><!--MD5=[3fd616f346a44cd59a91eb10b19e157c]
class User--><rect codeLine="29" fill="#FEFECE" filter="url(#f10dal6fp8atz9)" height="78.8652" id="User" style="stroke: #A80036; stroke-width: 1.5;" width="70" x="392" y="47.6992"/><ellipse cx="412.4" cy="63.6992" fill="#ADD1B2" rx="11" ry="11" style="stroke: #A80036; stroke-width: 1.0;"/><path d="M414.8731,69.8423 Q414.2921,70.1411 413.6529,70.2905 Q413.0138,70.4399 412.3082,70.4399 Q409.8014,70.4399 408.4815,68.7881 Q407.1617,67.1362 407.1617,64.0151 Q407.1617,60.8857 408.4815,59.2339 Q409.8014,57.582 412.3082,57.582 Q413.0138,57.582 413.6612,57.7314 Q414.3087,57.8809 414.8731,58.1797 L414.8731,60.9023 Q414.2423,60.3213 413.6488,60.0515 Q413.0553,59.7817 412.4244,59.7817 Q411.0797,59.7817 410.3949,60.8484 Q409.7101,61.915 409.7101,64.0151 Q409.7101,66.1069 410.3949,67.1736 Q411.0797,68.2402 412.4244,68.2402 Q413.0553,68.2402 413.6488,67.9705 Q414.2423,67.7007 414.8731,67.1196 Z " fill="#000000"/><text fill="#000000" font-family="sans-serif" font-size="12" lengthAdjust="spacingAndGlyphs" textLength="26" x="427.6" y="68.2344">User</text><line style="stroke: #A80036; stroke-width: 1.5;" x1="393" x2="461" y1="79.6992" y2="79.6992"/><text fill="#000000" font-family="sans-serif" font-size="11" lengthAdjust="spacingAndGlyphs" textLength="35" x="398" y="94.334">-name</text><text fill="#000000" font-family="sans-serif" font-size="11" lengthAdjust="spacingAndGlyphs" textLength="34" x="398" y="107.2891">-email</text><text fill="#000000" font-family="sans-serif" font-size="11" lengthAdjust="spacingAndGlyphs" textLength="58" x="398" y="120.2441">-password</text><!--MD5=[9abf40ff36e4aa94ac761b2803c1dce8]
link Company to OrganizationRole--><path codeLine="36" d="M44.48,113.9292 C40.94,135.6292 38.44,167.2192 47,193.1992 C50.52,203.8992 56.99,214.2192 63.76,222.9992 " fill="none" id="Company-OrganizationRole" style="stroke: #A80036; stroke-width: 1.0;"/><polygon fill="#000000" points="52.8703,189.7782,54.1899,180.3596,48.4018,181.3827,52.8703,189.7782" style="stroke: #000000; stroke-width: 1.0;"/><text fill="#000000" font-family="sans-serif" font-size="13" lengthAdjust="spacingAndGlyphs" textLength="85" x="61" y="189.7676">comprehends</text><text fill="#000000" font-family="sans-serif" font-size="13" lengthAdjust="spacingAndGlyphs" textLength="8" x="34.3975" y="134.0243">1</text><text fill="#000000" font-family="sans-serif" font-size="13" lengthAdjust="spacingAndGlyphs" textLength="6" x="51.1203" y="212.2747">*</text><!--MD5=[09366576ee87d48d594df10cacc83f45]
link Company to Employee--><path codeLine="37" d="M93.14,87.1992 C121.58,87.1992 158.85,87.1992 188.19,87.1992 " fill="none" id="Company-Employee" style="stroke: #A80036; stroke-width: 1.0;"/><polygon fill="#000000" points="120.25,75.8545,111.2049,72.9156,111.2049,78.7934,120.25,75.8545" style="stroke: #000000; stroke-width: 1.0;"/><text fill="#000000" font-family="sans-serif" font-size="13" lengthAdjust="spacingAndGlyphs" textLength="46" x="124.25" y="80.7676">employ</text><text fill="#000000" font-family="sans-serif" font-size="13" lengthAdjust="spacingAndGlyphs" textLength="8" x="100.9476" y="83.5548">1</text><text fill="#000000" font-family="sans-serif" font-size="13" lengthAdjust="spacingAndGlyphs" textLength="6" x="174.4097" y="83.6636">*</text><!--MD5=[241b49406f7a05442b1e788ffaf3787c]
link Employee to OrganizationRole--><path codeLine="38" d="M191.8,146.3592 C179.14,162.0192 164.96,178.6392 151,193.1992 C141.11,203.5092 129.56,214.0592 119.07,223.1492 " fill="none" id="Employee-OrganizationRole" style="stroke: #A80036; stroke-width: 1.0;"/><polygon fill="#000000" points="166.5617,188.4847,174.9154,183.9386,170.6478,179.8966,166.5617,188.4847" style="stroke: #000000; stroke-width: 1.0;"/><text fill="#000000" font-family="sans-serif" font-size="13" lengthAdjust="spacingAndGlyphs" textLength="62" x="179" y="189.7676">has/plays</text><text fill="#000000" font-family="sans-serif" font-size="13" lengthAdjust="spacingAndGlyphs" textLength="6" x="180.3425" y="166.6687">*</text><text fill="#000000" font-family="sans-serif" font-size="13" lengthAdjust="spacingAndGlyphs" textLength="8" x="117.6683" y="212.4612">1</text><!--MD5=[372bd27a178b4208a6d241b4516ac7e6]
reverse link Employee to SpecialistDoctor--><path codeLine="40" d="M264.39,165.5492 C265.63,169.1492 266.84,172.7092 268,176.1992 C273.16,191.6692 278.48,209.1692 282.6,223.0892 " fill="none" id="Employee-backto-SpecialistDoctor" style="stroke: #A80036; stroke-width: 1.0;"/><polygon fill="none" points="257.64,167.4592,257.62,146.2692,270.85,162.8192,257.64,167.4592" style="stroke: #A80036; stroke-width: 1.0;"/><!--MD5=[22fb9506fac029fc1d2ae00f0eb8d606]
link Employee to User--><path codeLine="42" d="M283.7,87.1992 C317.29,87.1992 361.51,87.1992 391.9,87.1992 " fill="none" id="Employee-User" style="stroke: #A80036; stroke-width: 1.0;"/><polygon fill="#000000" points="310.75,75.8545,301.7049,72.9156,301.7049,78.7934,310.75,75.8545" style="stroke: #000000; stroke-width: 1.0;"/><text fill="#000000" font-family="sans-serif" font-size="13" lengthAdjust="spacingAndGlyphs" textLength="59" x="314.75" y="80.7676">relates to</text><text fill="#000000" font-family="sans-serif" font-size="13" lengthAdjust="spacingAndGlyphs" textLength="24" x="291.3491" y="100.7657">0..1</text><text fill="#000000" font-family="sans-serif" font-size="13" lengthAdjust="spacingAndGlyphs" textLength="8" x="375.8356" y="83.2666">1</text><!--MD5=[18029dbe2a9abaacfa72d9641f063376]
@startuml

skinparam classAttributeIconSize 0
hide methods
title
US 7 - Domain Model Excerpt
end title

class Company {
-designation
}

class OrganizationRole {
-description
}

class Employee {
-id
-name
-address
-phoneNumber
-emailAddress
-socCode
}

class SpecialistDoctor {
-doctorIndexNumber
}

class User {
-name
-email
-password
}


Company "1" - - "*" OrganizationRole: comprehends >
Company "1" -right- - "*" Employee: employ >
Employee "*" -down- "1" OrganizationRole: has/plays >

Employee <|- - SpecialistDoctor

User "1" - -left- "0..1" Employee: relates to <

@enduml

PlantUML version 1.2020.20(Sat Nov 21 10:02:45 WET 2020)
(GPL source distribution)
Java Runtime: OpenJDK Runtime Environment
JVM: OpenJDK 64-Bit Server VM
Default Encoding: UTF-8
Language: en
Country: PT
--></g></svg>