<?xml version="1.0" encoding="UTF-8" standalone="no"?><svg xmlns="http://www.w3.org/2000/svg" xmlns:xlink="http://www.w3.org/1999/xlink" contentScriptType="application/ecmascript" contentStyleType="text/css" height="666px" preserveAspectRatio="none" style="width:759px;height:666px;" version="1.1" viewBox="0 0 759 666" width="759px" zoomAndPan="magnify"><defs><filter height="300%" id="fgz7ibppt95pr" width="300%" x="-1" y="-1"><feGaussianBlur result="blurOut" stdDeviation="2.0"/><feColorMatrix in="blurOut" result="blurOut2" type="matrix" values="0 0 0 0 0 0 0 0 0 0 0 0 0 0 0 0 0 0 .4 0"/><feOffset dx="4.0" dy="4.0" in="blurOut2" result="blurOut3"/><feBlend in="SourceGraphic" in2="blurOut3" mode="normal"/></filter></defs><g><!--MD5=[40234b73d5d8aaff9d8bbea28535733d]
class MedicalLabTechnicianUI--><rect codeLine="2" fill="#FEFECE" filter="url(#fgz7ibppt95pr)" height="48" id="MedicalLabTechnicianUI" style="stroke:#A80036;stroke-width:1.5;" width="167" x="313" y="7"/><ellipse cx="328" cy="23" fill="#ADD1B2" rx="11" ry="11" style="stroke:#A80036;stroke-width:1.0;"/><path d="M330,19.5 Q330.2031,19 330.4375,18.75 Q330.6719,18.5 330.9375,18.5 Q331.4063,18.5 331.7031,18.7813 Q332,19.0625 332,19.7188 L332,21.2813 Q332,21.9375 331.7188,22.2188 Q331.4375,22.5 331,22.5 Q330.6094,22.5 330.3594,22.3281 Q330.1094,22.1563 330,21.7031 Q329.9531,21.3906 329.7813,21.2188 Q329.4688,20.8906 328.9063,20.7031 Q328.3438,20.5 327.7813,20.5 Q327.0781,20.5 326.4844,20.7813 Q325.9063,21.0625 325.4531,21.6875 Q325,22.3125 325,23.1719 L325,24.0938 Q325,25.125 325.8438,25.8125 Q326.6875,26.5 328.1875,26.5 Q329.0781,26.5 329.7031,26.2969 Q330.0625,26.1875 330.4688,25.8281 Q330.7344,25.625 330.875,25.5625 Q331.0156,25.5 331.1875,25.5 Q331.5156,25.5 331.75,25.7656 Q332,26.0156 332,26.375 Q332,26.7188 331.6563,27.125 Q331.1563,27.7188 330.3594,28.0469 Q329.3125,28.5 328.0313,28.5 Q326.5313,28.5 325.3281,27.9063 Q324.3594,27.4375 323.6719,26.4219 Q323,25.4063 323,24.2031 L323,23.1094 Q323,21.8594 323.5938,20.7656 Q324.2031,19.6719 325.25,19.0938 Q326.3125,18.5 327.5,18.5 Q328.2188,18.5 328.8438,18.75 Q329.4688,19 330,19.5 Z " fill="#000000"/><text fill="#000000" font-family="sans-serif" font-size="12" lengthAdjust="spacing" textLength="135" x="342" y="27.9102">MedicalLabTechnicianUI</text><line style="stroke:#A80036;stroke-width:1.5;" x1="314" x2="479" y1="39" y2="39"/><line style="stroke:#A80036;stroke-width:1.5;" x1="314" x2="479" y1="47" y2="47"/><!--MD5=[ff9048b0af8773ba8157d9ee4c2e0bd6]
class RegisterSampleController--><rect codeLine="5" fill="#FEFECE" filter="url(#fgz7ibppt95pr)" height="103.3438" id="RegisterSampleController" style="stroke:#A80036;stroke-width:1.5;" width="176" x="308.5" y="115"/><ellipse cx="323.5" cy="131" fill="#ADD1B2" rx="11" ry="11" style="stroke:#A80036;stroke-width:1.0;"/><path d="M325.5,127.5 Q325.7031,127 325.9375,126.75 Q326.1719,126.5 326.4375,126.5 Q326.9063,126.5 327.2031,126.7813 Q327.5,127.0625 327.5,127.7188 L327.5,129.2813 Q327.5,129.9375 327.2188,130.2188 Q326.9375,130.5 326.5,130.5 Q326.1094,130.5 325.8594,130.3281 Q325.6094,130.1563 325.5,129.7031 Q325.4531,129.3906 325.2813,129.2188 Q324.9688,128.8906 324.4063,128.7031 Q323.8438,128.5 323.2813,128.5 Q322.5781,128.5 321.9844,128.7813 Q321.4063,129.0625 320.9531,129.6875 Q320.5,130.3125 320.5,131.1719 L320.5,132.0938 Q320.5,133.125 321.3438,133.8125 Q322.1875,134.5 323.6875,134.5 Q324.5781,134.5 325.2031,134.2969 Q325.5625,134.1875 325.9688,133.8281 Q326.2344,133.625 326.375,133.5625 Q326.5156,133.5 326.6875,133.5 Q327.0156,133.5 327.25,133.7656 Q327.5,134.0156 327.5,134.375 Q327.5,134.7188 327.1563,135.125 Q326.6563,135.7188 325.8594,136.0469 Q324.8125,136.5 323.5313,136.5 Q322.0313,136.5 320.8281,135.9063 Q319.8594,135.4375 319.1719,134.4219 Q318.5,133.4063 318.5,132.2031 L318.5,131.1094 Q318.5,129.8594 319.0938,128.7656 Q319.7031,127.6719 320.75,127.0938 Q321.8125,126.5 323,126.5 Q323.7188,126.5 324.3438,126.75 Q324.9688,127 325.5,127.5 Z " fill="#000000"/><text fill="#000000" font-family="sans-serif" font-size="12" lengthAdjust="spacing" textLength="144" x="337.5" y="135.9102">RegisterSampleController</text><line style="stroke:#A80036;stroke-width:1.5;" x1="309.5" x2="483.5" y1="147" y2="147"/><line style="stroke:#A80036;stroke-width:1.5;" x1="309.5" x2="483.5" y1="155" y2="155"/><ellipse cx="319.5" cy="166" fill="#84BE84" rx="3" ry="3" style="stroke:#038048;stroke-width:1.0;"/><text fill="#000000" font-family="sans-serif" font-size="11" lengthAdjust="spacing" textLength="102" x="328.5" y="170.4189">getTestsRegistered()</text><ellipse cx="319.5" cy="179.8359" fill="#84BE84" rx="3" ry="3" style="stroke:#038048;stroke-width:1.0;"/><text fill="#000000" font-family="sans-serif" font-size="11" lengthAdjust="spacing" textLength="50" x="328.5" y="184.2549">getTests()</text><ellipse cx="319.5" cy="193.6719" fill="#84BE84" rx="3" ry="3" style="stroke:#038048;stroke-width:1.0;"/><text fill="#000000" font-family="sans-serif" font-size="11" lengthAdjust="spacing" textLength="74" x="328.5" y="198.0908">createSample()</text><ellipse cx="319.5" cy="207.5078" fill="#84BE84" rx="3" ry="3" style="stroke:#038048;stroke-width:1.0;"/><text fill="#000000" font-family="sans-serif" font-size="11" lengthAdjust="spacing" textLength="82" x="328.5" y="211.9268">addTestSample()</text><!--MD5=[02e4b9b7573f1156f41e60aa5b4e25a4]
class Company--><rect codeLine="12" fill="#FEFECE" filter="url(#fgz7ibppt95pr)" height="61.8359" id="Company" style="stroke:#A80036;stroke-width:1.5;" width="85" x="7" y="292"/><ellipse cx="22" cy="308" fill="#ADD1B2" rx="11" ry="11" style="stroke:#A80036;stroke-width:1.0;"/><path d="M24,304.5 Q24.2031,304 24.4375,303.75 Q24.6719,303.5 24.9375,303.5 Q25.4063,303.5 25.7031,303.7813 Q26,304.0625 26,304.7188 L26,306.2813 Q26,306.9375 25.7188,307.2188 Q25.4375,307.5 25,307.5 Q24.6094,307.5 24.3594,307.3281 Q24.1094,307.1563 24,306.7031 Q23.9531,306.3906 23.7813,306.2188 Q23.4688,305.8906 22.9063,305.7031 Q22.3438,305.5 21.7813,305.5 Q21.0781,305.5 20.4844,305.7813 Q19.9063,306.0625 19.4531,306.6875 Q19,307.3125 19,308.1719 L19,309.0938 Q19,310.125 19.8438,310.8125 Q20.6875,311.5 22.1875,311.5 Q23.0781,311.5 23.7031,311.2969 Q24.0625,311.1875 24.4688,310.8281 Q24.7344,310.625 24.875,310.5625 Q25.0156,310.5 25.1875,310.5 Q25.5156,310.5 25.75,310.7656 Q26,311.0156 26,311.375 Q26,311.7188 25.6563,312.125 Q25.1563,312.7188 24.3594,313.0469 Q23.3125,313.5 22.0313,313.5 Q20.5313,313.5 19.3281,312.9063 Q18.3594,312.4375 17.6719,311.4219 Q17,310.4063 17,309.2031 L17,308.1094 Q17,306.8594 17.5938,305.7656 Q18.2031,304.6719 19.25,304.0938 Q20.3125,303.5 21.5,303.5 Q22.2188,303.5 22.8438,303.75 Q23.4688,304 24,304.5 Z " fill="#000000"/><text fill="#000000" font-family="sans-serif" font-size="12" lengthAdjust="spacing" textLength="53" x="36" y="312.9102">Company</text><line style="stroke:#A80036;stroke-width:1.5;" x1="8" x2="91" y1="324" y2="324"/><rect fill="none" height="6" style="stroke:#C82930;stroke-width:1.0;" width="6" x="15" y="332"/><text fill="#000000" font-family="sans-serif" font-size="11" lengthAdjust="spacing" textLength="55" x="27" y="339.4189">designation</text><line style="stroke:#A80036;stroke-width:1.5;" x1="8" x2="91" y1="345.8359" y2="345.8359"/><!--MD5=[0f6f7964b844a64b0496af0dda7914bd]
class TestStore--><rect codeLine="16" fill="#FEFECE" filter="url(#fgz7ibppt95pr)" height="89.5078" id="TestStore" style="stroke:#A80036;stroke-width:1.5;" width="107" x="127" y="278"/><ellipse cx="151.9" cy="294" fill="#ADD1B2" rx="11" ry="11" style="stroke:#A80036;stroke-width:1.0;"/><path d="M153.9,290.5 Q154.1031,290 154.3375,289.75 Q154.5719,289.5 154.8375,289.5 Q155.3063,289.5 155.6031,289.7813 Q155.9,290.0625 155.9,290.7188 L155.9,292.2813 Q155.9,292.9375 155.6188,293.2188 Q155.3375,293.5 154.9,293.5 Q154.5094,293.5 154.2594,293.3281 Q154.0094,293.1563 153.9,292.7031 Q153.8531,292.3906 153.6813,292.2188 Q153.3688,291.8906 152.8063,291.7031 Q152.2438,291.5 151.6813,291.5 Q150.9781,291.5 150.3844,291.7813 Q149.8063,292.0625 149.3531,292.6875 Q148.9,293.3125 148.9,294.1719 L148.9,295.0938 Q148.9,296.125 149.7438,296.8125 Q150.5875,297.5 152.0875,297.5 Q152.9781,297.5 153.6031,297.2969 Q153.9625,297.1875 154.3688,296.8281 Q154.6344,296.625 154.775,296.5625 Q154.9156,296.5 155.0875,296.5 Q155.4156,296.5 155.65,296.7656 Q155.9,297.0156 155.9,297.375 Q155.9,297.7188 155.5563,298.125 Q155.0563,298.7188 154.2594,299.0469 Q153.2125,299.5 151.9313,299.5 Q150.4313,299.5 149.2281,298.9063 Q148.2594,298.4375 147.5719,297.4219 Q146.9,296.4063 146.9,295.2031 L146.9,294.1094 Q146.9,292.8594 147.4938,291.7656 Q148.1031,290.6719 149.15,290.0938 Q150.2125,289.5 151.4,289.5 Q152.1188,289.5 152.7438,289.75 Q153.3688,290 153.9,290.5 Z " fill="#000000"/><text fill="#000000" font-family="sans-serif" font-size="12" lengthAdjust="spacing" textLength="53" x="168.1" y="298.9102">TestStore</text><line style="stroke:#A80036;stroke-width:1.5;" x1="128" x2="233" y1="310" y2="310"/><line style="stroke:#A80036;stroke-width:1.5;" x1="128" x2="233" y1="318" y2="318"/><ellipse cx="138" cy="329" fill="#84BE84" rx="3" ry="3" style="stroke:#038048;stroke-width:1.0;"/><text fill="#000000" font-family="sans-serif" font-size="11" lengthAdjust="spacing" textLength="68" x="147" y="333.4189">getTests(test)</text><ellipse cx="138" cy="342.8359" fill="#84BE84" rx="3" ry="3" style="stroke:#038048;stroke-width:1.0;"/><text fill="#000000" font-family="sans-serif" font-size="11" lengthAdjust="spacing" textLength="81" x="147" y="347.2549">showTests(test)</text><ellipse cx="138" cy="356.6719" fill="#84BE84" rx="3" ry="3" style="stroke:#038048;stroke-width:1.0;"/><text fill="#000000" font-family="sans-serif" font-size="11" lengthAdjust="spacing" textLength="65" x="147" y="361.0908">addTest(test)</text><!--MD5=[fcd6df96e169c9fc6403c4dc9bdb4d83]
class SampleStore--><rect codeLine="22" fill="#FEFECE" filter="url(#fgz7ibppt95pr)" height="75.6719" id="SampleStore" style="stroke:#A80036;stroke-width:1.5;" width="112" x="340.5" y="285"/><ellipse cx="359.1" cy="301" fill="#ADD1B2" rx="11" ry="11" style="stroke:#A80036;stroke-width:1.0;"/><path d="M361.1,297.5 Q361.3031,297 361.5375,296.75 Q361.7719,296.5 362.0375,296.5 Q362.5063,296.5 362.8031,296.7813 Q363.1,297.0625 363.1,297.7188 L363.1,299.2813 Q363.1,299.9375 362.8188,300.2188 Q362.5375,300.5 362.1,300.5 Q361.7094,300.5 361.4594,300.3281 Q361.2094,300.1563 361.1,299.7031 Q361.0531,299.3906 360.8813,299.2188 Q360.5688,298.8906 360.0063,298.7031 Q359.4438,298.5 358.8813,298.5 Q358.1781,298.5 357.5844,298.7813 Q357.0063,299.0625 356.5531,299.6875 Q356.1,300.3125 356.1,301.1719 L356.1,302.0938 Q356.1,303.125 356.9438,303.8125 Q357.7875,304.5 359.2875,304.5 Q360.1781,304.5 360.8031,304.2969 Q361.1625,304.1875 361.5688,303.8281 Q361.8344,303.625 361.975,303.5625 Q362.1156,303.5 362.2875,303.5 Q362.6156,303.5 362.85,303.7656 Q363.1,304.0156 363.1,304.375 Q363.1,304.7188 362.7563,305.125 Q362.2563,305.7188 361.4594,306.0469 Q360.4125,306.5 359.1313,306.5 Q357.6313,306.5 356.4281,305.9063 Q355.4594,305.4375 354.7719,304.4219 Q354.1,303.4063 354.1,302.2031 L354.1,301.1094 Q354.1,299.8594 354.6938,298.7656 Q355.3031,297.6719 356.35,297.0938 Q357.4125,296.5 358.6,296.5 Q359.3188,296.5 359.9438,296.75 Q360.5688,297 361.1,297.5 Z " fill="#000000"/><text fill="#000000" font-family="sans-serif" font-size="12" lengthAdjust="spacing" textLength="72" x="373.9" y="305.9102">SampleStore</text><line style="stroke:#A80036;stroke-width:1.5;" x1="341.5" x2="451.5" y1="317" y2="317"/><line style="stroke:#A80036;stroke-width:1.5;" x1="341.5" x2="451.5" y1="325" y2="325"/><ellipse cx="351.5" cy="336" fill="#84BE84" rx="3" ry="3" style="stroke:#038048;stroke-width:1.0;"/><text fill="#000000" font-family="sans-serif" font-size="11" lengthAdjust="spacing" textLength="67" x="360.5" y="340.4189">addSample(s)</text><ellipse cx="351.5" cy="349.8359" fill="#84BE84" rx="3" ry="3" style="stroke:#038048;stroke-width:1.0;"/><text fill="#000000" font-family="sans-serif" font-size="11" lengthAdjust="spacing" textLength="86" x="360.5" y="354.2549">validateSample(s)</text><!--MD5=[144698ec4d0188f6929a3b58a3eeb1f6]
class TestMapper--><rect codeLine="27" fill="#FEFECE" filter="url(#fgz7ibppt95pr)" height="61.8359" id="TestMapper" style="stroke:#A80036;stroke-width:1.5;" width="97" x="488" y="292"/><ellipse cx="503" cy="308" fill="#ADD1B2" rx="11" ry="11" style="stroke:#A80036;stroke-width:1.0;"/><path d="M505,304.5 Q505.2031,304 505.4375,303.75 Q505.6719,303.5 505.9375,303.5 Q506.4063,303.5 506.7031,303.7813 Q507,304.0625 507,304.7188 L507,306.2813 Q507,306.9375 506.7188,307.2188 Q506.4375,307.5 506,307.5 Q505.6094,307.5 505.3594,307.3281 Q505.1094,307.1563 505,306.7031 Q504.9531,306.3906 504.7813,306.2188 Q504.4688,305.8906 503.9063,305.7031 Q503.3438,305.5 502.7813,305.5 Q502.0781,305.5 501.4844,305.7813 Q500.9063,306.0625 500.4531,306.6875 Q500,307.3125 500,308.1719 L500,309.0938 Q500,310.125 500.8438,310.8125 Q501.6875,311.5 503.1875,311.5 Q504.0781,311.5 504.7031,311.2969 Q505.0625,311.1875 505.4688,310.8281 Q505.7344,310.625 505.875,310.5625 Q506.0156,310.5 506.1875,310.5 Q506.5156,310.5 506.75,310.7656 Q507,311.0156 507,311.375 Q507,311.7188 506.6563,312.125 Q506.1563,312.7188 505.3594,313.0469 Q504.3125,313.5 503.0313,313.5 Q501.5313,313.5 500.3281,312.9063 Q499.3594,312.4375 498.6719,311.4219 Q498,310.4063 498,309.2031 L498,308.1094 Q498,306.8594 498.5938,305.7656 Q499.2031,304.6719 500.25,304.0938 Q501.3125,303.5 502.5,303.5 Q503.2188,303.5 503.8438,303.75 Q504.4688,304 505,304.5 Z " fill="#000000"/><text fill="#000000" font-family="sans-serif" font-size="12" lengthAdjust="spacing" textLength="65" x="517" y="312.9102">TestMapper</text><line style="stroke:#A80036;stroke-width:1.5;" x1="489" x2="584" y1="324" y2="324"/><line style="stroke:#A80036;stroke-width:1.5;" x1="489" x2="584" y1="332" y2="332"/><ellipse cx="499" cy="343" fill="#84BE84" rx="3" ry="3" style="stroke:#038048;stroke-width:1.0;"/><text fill="#000000" font-family="sans-serif" font-size="11" lengthAdjust="spacing" textLength="56" x="508" y="347.4189">toDTO(test)</text><!--MD5=[9fb704ffefcaf68bf1a361787afa998b]
class TestDTO--><rect codeLine="31" fill="#FEFECE" filter="url(#fgz7ibppt95pr)" height="61.8359" id="TestDTO" style="stroke:#A80036;stroke-width:1.5;" width="81" x="542" y="448.5"/><ellipse cx="557" cy="464.5" fill="#ADD1B2" rx="11" ry="11" style="stroke:#A80036;stroke-width:1.0;"/><path d="M559,461 Q559.2031,460.5 559.4375,460.25 Q559.6719,460 559.9375,460 Q560.4063,460 560.7031,460.2813 Q561,460.5625 561,461.2188 L561,462.7813 Q561,463.4375 560.7188,463.7188 Q560.4375,464 560,464 Q559.6094,464 559.3594,463.8281 Q559.1094,463.6563 559,463.2031 Q558.9531,462.8906 558.7813,462.7188 Q558.4688,462.3906 557.9063,462.2031 Q557.3438,462 556.7813,462 Q556.0781,462 555.4844,462.2813 Q554.9063,462.5625 554.4531,463.1875 Q554,463.8125 554,464.6719 L554,465.5938 Q554,466.625 554.8438,467.3125 Q555.6875,468 557.1875,468 Q558.0781,468 558.7031,467.7969 Q559.0625,467.6875 559.4688,467.3281 Q559.7344,467.125 559.875,467.0625 Q560.0156,467 560.1875,467 Q560.5156,467 560.75,467.2656 Q561,467.5156 561,467.875 Q561,468.2188 560.6563,468.625 Q560.1563,469.2188 559.3594,469.5469 Q558.3125,470 557.0313,470 Q555.5313,470 554.3281,469.4063 Q553.3594,468.9375 552.6719,467.9219 Q552,466.9063 552,465.7031 L552,464.6094 Q552,463.3594 552.5938,462.2656 Q553.2031,461.1719 554.25,460.5938 Q555.3125,460 556.5,460 Q557.2188,460 557.8438,460.25 Q558.4688,460.5 559,461 Z " fill="#000000"/><text fill="#000000" font-family="sans-serif" font-size="12" lengthAdjust="spacing" textLength="49" x="571" y="469.4102">TestDTO</text><line style="stroke:#A80036;stroke-width:1.5;" x1="543" x2="622" y1="480.5" y2="480.5"/><rect fill="none" height="6" style="stroke:#C82930;stroke-width:1.0;" width="6" x="550" y="488.5"/><text fill="#000000" font-family="sans-serif" font-size="11" lengthAdjust="spacing" textLength="43" x="562" y="495.9189">nhsCode</text><line style="stroke:#A80036;stroke-width:1.5;" x1="543" x2="622" y1="502.3359" y2="502.3359"/><!--MD5=[df38be88ccee13e832d6fafd6288a4ca]
class Test--><rect codeLine="35" fill="#FEFECE" filter="url(#fgz7ibppt95pr)" height="103.3438" id="Test" style="stroke:#A80036;stroke-width:1.5;" width="93" x="241" y="428"/><ellipse cx="272.65" cy="444" fill="#ADD1B2" rx="11" ry="11" style="stroke:#A80036;stroke-width:1.0;"/><path d="M274.65,440.5 Q274.8531,440 275.0875,439.75 Q275.3219,439.5 275.5875,439.5 Q276.0563,439.5 276.3531,439.7813 Q276.65,440.0625 276.65,440.7188 L276.65,442.2813 Q276.65,442.9375 276.3688,443.2188 Q276.0875,443.5 275.65,443.5 Q275.2594,443.5 275.0094,443.3281 Q274.7594,443.1563 274.65,442.7031 Q274.6031,442.3906 274.4313,442.2188 Q274.1188,441.8906 273.5563,441.7031 Q272.9938,441.5 272.4313,441.5 Q271.7281,441.5 271.1344,441.7813 Q270.5563,442.0625 270.1031,442.6875 Q269.65,443.3125 269.65,444.1719 L269.65,445.0938 Q269.65,446.125 270.4938,446.8125 Q271.3375,447.5 272.8375,447.5 Q273.7281,447.5 274.3531,447.2969 Q274.7125,447.1875 275.1188,446.8281 Q275.3844,446.625 275.525,446.5625 Q275.6656,446.5 275.8375,446.5 Q276.1656,446.5 276.4,446.7656 Q276.65,447.0156 276.65,447.375 Q276.65,447.7188 276.3063,448.125 Q275.8063,448.7188 275.0094,449.0469 Q273.9625,449.5 272.6813,449.5 Q271.1813,449.5 269.9781,448.9063 Q269.0094,448.4375 268.3219,447.4219 Q267.65,446.4063 267.65,445.2031 L267.65,444.1094 Q267.65,442.8594 268.2438,441.7656 Q268.8531,440.6719 269.9,440.0938 Q270.9625,439.5 272.15,439.5 Q272.8688,439.5 273.4938,439.75 Q274.1188,440 274.65,440.5 Z " fill="#000000"/><text fill="#000000" font-family="sans-serif" font-size="12" lengthAdjust="spacing" textLength="24" x="290.35" y="448.9102">Test</text><line style="stroke:#A80036;stroke-width:1.5;" x1="242" x2="333" y1="460" y2="460"/><rect fill="none" height="6" style="stroke:#C82930;stroke-width:1.0;" width="6" x="249" y="468"/><text fill="#000000" font-family="sans-serif" font-size="11" lengthAdjust="spacing" textLength="43" x="261" y="475.4189">nhsCode</text><rect fill="none" height="6" style="stroke:#C82930;stroke-width:1.0;" width="6" x="249" y="481.8359"/><text fill="#000000" font-family="sans-serif" font-size="11" lengthAdjust="spacing" textLength="24" x="261" y="489.2549">code</text><rect fill="none" height="6" style="stroke:#C82930;stroke-width:1.0;" width="6" x="249" y="495.6719"/><text fill="#000000" font-family="sans-serif" font-size="11" lengthAdjust="spacing" textLength="53" x="261" y="503.0908">description</text><line style="stroke:#A80036;stroke-width:1.5;" x1="242" x2="333" y1="509.5078" y2="509.5078"/><ellipse cx="252" cy="520.5078" fill="#84BE84" rx="3" ry="3" style="stroke:#038048;stroke-width:1.0;"/><text fill="#000000" font-family="sans-serif" font-size="11" lengthAdjust="spacing" textLength="67" x="261" y="524.9268">getNhsCode()</text><!--MD5=[68767c78be08caa96780c014af9fbeaa]
class API--><rect codeLine="42" fill="#FEFECE" filter="url(#fgz7ibppt95pr)" height="48" id="API" style="stroke:#A80036;stroke-width:1.5;" width="50" x="620.5" y="299"/><ellipse cx="635.5" cy="315" fill="#ADD1B2" rx="11" ry="11" style="stroke:#A80036;stroke-width:1.0;"/><path d="M637.5,311.5 Q637.7031,311 637.9375,310.75 Q638.1719,310.5 638.4375,310.5 Q638.9063,310.5 639.2031,310.7813 Q639.5,311.0625 639.5,311.7188 L639.5,313.2813 Q639.5,313.9375 639.2188,314.2188 Q638.9375,314.5 638.5,314.5 Q638.1094,314.5 637.8594,314.3281 Q637.6094,314.1563 637.5,313.7031 Q637.4531,313.3906 637.2813,313.2188 Q636.9688,312.8906 636.4063,312.7031 Q635.8438,312.5 635.2813,312.5 Q634.5781,312.5 633.9844,312.7813 Q633.4063,313.0625 632.9531,313.6875 Q632.5,314.3125 632.5,315.1719 L632.5,316.0938 Q632.5,317.125 633.3438,317.8125 Q634.1875,318.5 635.6875,318.5 Q636.5781,318.5 637.2031,318.2969 Q637.5625,318.1875 637.9688,317.8281 Q638.2344,317.625 638.375,317.5625 Q638.5156,317.5 638.6875,317.5 Q639.0156,317.5 639.25,317.7656 Q639.5,318.0156 639.5,318.375 Q639.5,318.7188 639.1563,319.125 Q638.6563,319.7188 637.8594,320.0469 Q636.8125,320.5 635.5313,320.5 Q634.0313,320.5 632.8281,319.9063 Q631.8594,319.4375 631.1719,318.4219 Q630.5,317.4063 630.5,316.2031 L630.5,315.1094 Q630.5,313.8594 631.0938,312.7656 Q631.7031,311.6719 632.75,311.0938 Q633.8125,310.5 635,310.5 Q635.7188,310.5 636.3438,310.75 Q636.9688,311 637.5,311.5 Z " fill="#000000"/><text fill="#000000" font-family="sans-serif" font-size="12" lengthAdjust="spacing" textLength="18" x="649.5" y="319.9102">API</text><line style="stroke:#A80036;stroke-width:1.5;" x1="621.5" x2="669.5" y1="331" y2="331"/><line style="stroke:#A80036;stroke-width:1.5;" x1="621.5" x2="669.5" y1="339" y2="339"/><!--MD5=[9681492165142af2a4a3a169d90ee8d4]
class Sample--><rect codeLine="44" fill="#FEFECE" filter="url(#fgz7ibppt95pr)" height="61.8359" id="Sample" style="stroke:#A80036;stroke-width:1.5;" width="103" x="624" y="591"/><ellipse cx="651.6" cy="607" fill="#ADD1B2" rx="11" ry="11" style="stroke:#A80036;stroke-width:1.0;"/><path d="M653.6,603.5 Q653.8031,603 654.0375,602.75 Q654.2719,602.5 654.5375,602.5 Q655.0063,602.5 655.3031,602.7813 Q655.6,603.0625 655.6,603.7188 L655.6,605.2813 Q655.6,605.9375 655.3188,606.2188 Q655.0375,606.5 654.6,606.5 Q654.2094,606.5 653.9594,606.3281 Q653.7094,606.1563 653.6,605.7031 Q653.5531,605.3906 653.3813,605.2188 Q653.0688,604.8906 652.5063,604.7031 Q651.9438,604.5 651.3813,604.5 Q650.6781,604.5 650.0844,604.7813 Q649.5063,605.0625 649.0531,605.6875 Q648.6,606.3125 648.6,607.1719 L648.6,608.0938 Q648.6,609.125 649.4438,609.8125 Q650.2875,610.5 651.7875,610.5 Q652.6781,610.5 653.3031,610.2969 Q653.6625,610.1875 654.0688,609.8281 Q654.3344,609.625 654.475,609.5625 Q654.6156,609.5 654.7875,609.5 Q655.1156,609.5 655.35,609.7656 Q655.6,610.0156 655.6,610.375 Q655.6,610.7188 655.2563,611.125 Q654.7563,611.7188 653.9594,612.0469 Q652.9125,612.5 651.6313,612.5 Q650.1313,612.5 648.9281,611.9063 Q647.9594,611.4375 647.2719,610.4219 Q646.6,609.4063 646.6,608.2031 L646.6,607.1094 Q646.6,605.8594 647.1938,604.7656 Q647.8031,603.6719 648.85,603.0938 Q649.9125,602.5 651.1,602.5 Q651.8188,602.5 652.4438,602.75 Q653.0688,603 653.6,603.5 Z " fill="#000000"/><text fill="#000000" font-family="sans-serif" font-size="12" lengthAdjust="spacing" textLength="43" x="668.4" y="611.9102">Sample</text><line style="stroke:#A80036;stroke-width:1.5;" x1="625" x2="726" y1="623" y2="623"/><rect fill="none" height="6" style="stroke:#C82930;stroke-width:1.0;" width="6" x="632" y="631"/><text fill="#000000" font-family="sans-serif" font-size="11" lengthAdjust="spacing" textLength="77" x="644" y="638.4189">barcodeNumber</text><line style="stroke:#A80036;stroke-width:1.5;" x1="625" x2="726" y1="644.8359" y2="644.8359"/><!--MD5=[2f0cd5265e99592469ed81bf8c141e48]
link MedicalLabTechnicianUI to RegisterSampleController--><path codeLine="48" d="M396.5,55.25 C396.5,70.28 396.5,90.51 396.5,109.53 " fill="none" id="MedicalLabTechnicianUI-to-RegisterSampleController" style="stroke:#A80036;stroke-width:1.0;stroke-dasharray:7.0,7.0;"/><polygon fill="#A80036" points="396.5,114.86,400.5,105.86,396.5,109.86,392.5,105.86,396.5,114.86" style="stroke:#A80036;stroke-width:1.0;"/><!--MD5=[ab13a8d5860e9e24e960ec1f7bafa782]
link RegisterSampleController to SampleStore--><path codeLine="50" d="M396.5,218.09 C396.5,237.88 396.5,260.33 396.5,279.28 " fill="none" id="RegisterSampleController-to-SampleStore" style="stroke:#A80036;stroke-width:1.0;stroke-dasharray:7.0,7.0;"/><polygon fill="#A80036" points="396.5,284.53,400.5,275.53,396.5,279.53,392.5,275.53,396.5,284.53" style="stroke:#A80036;stroke-width:1.0;"/><!--MD5=[087583eb9f7d6f630307a2c35bbd1fe8]
link RegisterSampleController to Company--><path codeLine="51" d="M308.44,194.62 C250.24,214.17 173.22,243.18 109.5,278 C103.63,281.21 97.68,284.92 91.92,288.8 " fill="none" id="RegisterSampleController-to-Company" style="stroke:#A80036;stroke-width:1.0;stroke-dasharray:7.0,7.0;"/><polygon fill="#A80036" points="87.56,291.79,97.2454,290.0031,91.6848,288.964,92.7238,283.4034,87.56,291.79" style="stroke:#A80036;stroke-width:1.0;"/><!--MD5=[dd5c70c01b6eb42c87ed879b93d2b6e4]
link RegisterSampleController to TestMapper--><path codeLine="52" d="M442.34,218.09 C463.06,240.96 487,267.37 505.56,287.85 " fill="none" id="RegisterSampleController-to-TestMapper" style="stroke:#A80036;stroke-width:1.0;stroke-dasharray:7.0,7.0;"/><polygon fill="#A80036" points="508.96,291.6,505.8747,282.2469,505.6002,287.8971,499.95,287.6226,508.96,291.6" style="stroke:#A80036;stroke-width:1.0;"/><!--MD5=[b1ab02ff215671da741a5b46b30612bb]
link RegisterSampleController to Test--><path codeLine="53" d="M356.16,218.1 C343.61,236.1 330.88,257.11 322.5,278 C303.77,324.7 295.04,381.49 290.99,422.69 " fill="none" id="RegisterSampleController-to-Test" style="stroke:#A80036;stroke-width:1.0;stroke-dasharray:7.0,7.0;"/><polygon fill="#A80036" points="290.5,427.89,295.3318,419.3078,290.972,422.9123,287.3675,418.5526,290.5,427.89" style="stroke:#A80036;stroke-width:1.0;"/><!--MD5=[68d132ec9fbf124f2e9d9fcb1e2a648a]
link RegisterSampleController to TestStore--><path codeLine="54" d="M325.77,218.09 C297.51,238.3 265.37,261.3 238.51,280.51 " fill="none" id="RegisterSampleController-to-TestStore" style="stroke:#A80036;stroke-width:1.0;stroke-dasharray:7.0,7.0;"/><polygon fill="#A80036" points="234.25,283.55,243.9012,281.5866,238.3225,280.6492,239.2599,275.0706,234.25,283.55" style="stroke:#A80036;stroke-width:1.0;"/><!--MD5=[d56b57ef02fa08176e8a8a37d4ecdb92]
link RegisterSampleController to API--><path codeLine="55" d="M484.73,207.38 C522.59,226.34 566.33,250.81 602.5,278 C609.15,283 615.73,289.02 621.67,294.99 " fill="none" id="RegisterSampleController-to-API" style="stroke:#A80036;stroke-width:1.0;stroke-dasharray:7.0,7.0;"/><polygon fill="#A80036" points="625.28,298.69,621.8748,289.4485,621.7948,295.1048,616.1385,295.0248,625.28,298.69" style="stroke:#A80036;stroke-width:1.0;"/><!--MD5=[fca5f2ea3f5ee27b453a67821cf477a4]
link RegisterSampleController to Sample--><path codeLine="56" d="M484.61,174.87 C552.52,185.7 642.23,212.39 687.5,278 C752.63,372.4 713.04,518.76 689.38,585.57 " fill="none" id="RegisterSampleController-to-Sample" style="stroke:#A80036;stroke-width:1.0;stroke-dasharray:7.0,7.0;"/><polygon fill="#A80036" points="687.56,590.63,694.3567,583.5023,689.2435,585.9219,686.8238,580.8087,687.56,590.63" style="stroke:#A80036;stroke-width:1.0;"/><!--MD5=[f6fda4afaf882dd39139bcbf06c50c8c]
link TestMapper to TestDTO--><path codeLine="58" d="M545.48,354.16 C553.11,379.78 564.07,416.59 572.08,443.51 " fill="none" id="TestMapper-to-TestDTO" style="stroke:#A80036;stroke-width:1.0;stroke-dasharray:7.0,7.0;"/><polygon fill="#A80036" points="573.54,448.42,574.7986,438.6519,572.1098,443.6289,567.1328,440.9402,573.54,448.42" style="stroke:#A80036;stroke-width:1.0;"/><!--MD5=[8d9a2c3ea1bf73d8d45b939465e53fff]
link TestMapper to Test--><path codeLine="59" d="M491.23,354.04 C483.99,358.76 476.56,363.54 469.5,368 C425.65,395.7 375.2,426.22 338.56,448.16 " fill="none" id="TestMapper-to-Test" style="stroke:#A80036;stroke-width:1.0;stroke-dasharray:7.0,7.0;"/><polygon fill="#A80036" points="334.16,450.79,343.9372,449.6039,338.4512,448.2238,339.8313,442.7379,334.16,450.79" style="stroke:#A80036;stroke-width:1.0;"/><!--MD5=[a18add441ea4ce7c187b18eac885172a]
link TestDTO to Sample--><path codeLine="61" d="M602.45,510.64 C617.22,532.96 637.37,563.4 652.77,586.65 " fill="none" id="TestDTO-to-Sample" style="stroke:#A80036;stroke-width:1.0;stroke-dasharray:7.0,7.0;"/><polygon fill="#A80036" points="655.58,590.91,653.9313,581.2001,652.8131,586.7454,647.2678,585.6272,655.58,590.91" style="stroke:#A80036;stroke-width:1.0;"/><!--MD5=[7f6cf7f175eae0af66201860de5de971]
link Company to TestStore--><path codeLine="63" d="M92.23,323 C102.02,323 111.8,323 121.59,323 " fill="none" id="Company-to-TestStore" style="stroke:#A80036;stroke-width:1.0;"/><polygon fill="#A80036" points="126.71,323,117.71,319,121.71,323,117.71,327,126.71,323" style="stroke:#A80036;stroke-width:1.0;"/><!--MD5=[b0f4f6db8206580012ef9cd998ed01c5]
link TestStore to Test--><path codeLine="64" d="M211.16,368.27 C223.06,385.45 236.81,405.31 249.34,423.4 " fill="none" id="TestStore-to-Test" style="stroke:#A80036;stroke-width:1.0;"/><polygon fill="#A80036" points="252.5,427.96,250.6519,418.2861,249.648,423.8532,244.081,422.8493,252.5,427.96" style="stroke:#A80036;stroke-width:1.0;"/><!--MD5=[54ec43d9912551419afb5d042e2a9b5b]
@startuml

class MedicalLabTechnicianUI{
}

class RegisterSampleController{
+getTestsRegistered()
+getTests()
+createSample()
+addTestSample()
}

class Company{
-designation
}

class TestStore{
+getTests(test)
+showTests(test)
+addTest(test)
}

class SampleStore{
+addSample(s)
+validateSample(s)
}

class TestMapper{
+toDTO(test)
}

class TestDTO{
-nhsCode
}

class Test{
-nhsCode
-code
-description
+getNhsCode()
}

class API{}

class Sample{
-barcodeNumber
}

MedicalLabTechnicianUI ..> RegisterSampleController

RegisterSampleController ..> SampleStore
RegisterSampleController ..> Company
RegisterSampleController ..> TestMapper
RegisterSampleController ..> Test
RegisterSampleController ..> TestStore
RegisterSampleController ..> API
RegisterSampleController ..> Sample

TestMapper ..> TestDTO
TestMapper ..> Test

TestDTO ..> Sample

Company -> TestStore
TestStore -> Test

@enduml

PlantUML version 1.2021.5(Sun Apr 25 12:20:28 BST 2021)
(GPL source distribution)
Java Runtime: OpenJDK Runtime Environment
JVM: Dynamic Code Evolution 64-Bit Server VM
Default Encoding: Cp1252
Language: pt
Country: PT
--></g></svg>