<?xml version="1.0" encoding="UTF-8" standalone="no"?><svg xmlns="http://www.w3.org/2000/svg" xmlns:xlink="http://www.w3.org/1999/xlink" contentScriptType="application/ecmascript" contentStyleType="text/css" height="1460px" preserveAspectRatio="none" style="width:791px;height:1460px;" version="1.1" viewBox="0 0 791 1460" width="791px" zoomAndPan="magnify"><defs><filter height="300%" id="fr38dh069fnpf" width="300%" x="-1" y="-1"><feGaussianBlur result="blurOut" stdDeviation="2.0"/><feColorMatrix in="blurOut" result="blurOut2" type="matrix" values="0 0 0 0 0 0 0 0 0 0 0 0 0 0 0 0 0 0 .4 0"/><feOffset dx="4.0" dy="4.0" in="blurOut2" result="blurOut3"/><feBlend in="SourceGraphic" in2="blurOut3" mode="normal"/></filter></defs><g><!--MD5=[5aa47fd7ee03a674c38a8ec64629ba08]
cluster ManyLabsApp--><rect fill="#FFFFFF" filter="url(#fr38dh069fnpf)" height="1441" style="stroke:#000000;stroke-width:1.5;" width="314" x="272" y="7"/><text fill="#000000" font-family="sans-serif" font-size="14" font-weight="bold" lengthAdjust="spacingAndGlyphs" textLength="109" x="374.5" y="21.9951">ManyLabsApp</text><ellipse cx="428.8859" cy="49.9772" fill="#FEFECE" filter="url(#fr38dh069fnpf)" rx="67.8859" ry="15.9772" style="stroke:#A80036;stroke-width:1.5;"/><text fill="#000000" font-family="sans-serif" font-size="14" lengthAdjust="spacingAndGlyphs" textLength="101" x="378.3859" y="54.6256">Register Client</text><ellipse cx="428.8859" cy="116.9772" fill="#FEFECE" filter="url(#fr38dh069fnpf)" rx="67.8859" ry="15.9772" style="stroke:#A80036;stroke-width:1.5;"/><text fill="#000000" font-family="sans-serif" font-size="14" lengthAdjust="spacingAndGlyphs" textLength="101" x="378.3859" y="121.6256">Edit client data</text><ellipse cx="428.8339" cy="183.0668" fill="#FEFECE" filter="url(#fr38dh069fnpf)" rx="63.3339" ry="15.0668" style="stroke:#A80036;stroke-width:1.5;"/><text fill="#000000" font-family="sans-serif" font-size="14" lengthAdjust="spacingAndGlyphs" textLength="89" x="384.3339" y="187.7152">Register test</text><ellipse cx="428.7526" cy="249.8505" fill="#FEFECE" filter="url(#fr38dh069fnpf)" rx="72.2526" ry="16.8505" style="stroke:#A80036;stroke-width:1.5;"/><text fill="#000000" font-family="sans-serif" font-size="14" lengthAdjust="spacingAndGlyphs" textLength="112" x="372.7526" y="254.499">Record samples</text><ellipse cx="428.9975" cy="384.8995" fill="#FEFECE" filter="url(#fr38dh069fnpf)" rx="67.4975" ry="15.8995" style="stroke:#A80036;stroke-width:1.5;"/><text fill="#000000" font-family="sans-serif" font-size="14" lengthAdjust="spacingAndGlyphs" textLength="100" x="378.9975" y="389.5479">Check Results</text><ellipse cx="428.8859" cy="317.9772" fill="#FEFECE" filter="url(#fr38dh069fnpf)" rx="67.8859" ry="15.9772" style="stroke:#A80036;stroke-width:1.5;"/><text fill="#000000" font-family="sans-serif" font-size="14" lengthAdjust="spacingAndGlyphs" textLength="101" x="378.3859" y="322.6256">Record results</text><ellipse cx="428.9597" cy="452.0919" fill="#FEFECE" filter="url(#fr38dh069fnpf)" rx="65.9597" ry="15.5919" style="stroke:#A80036;stroke-width:1.5;"/><text fill="#000000" font-family="sans-serif" font-size="14" lengthAdjust="spacingAndGlyphs" textLength="96" x="380.9597" y="456.7404">Record report</text><ellipse cx="428.8004" cy="528.0601" fill="#FEFECE" filter="url(#fr38dh069fnpf)" rx="113.3004" ry="25.0601" style="stroke:#A80036;stroke-width:1.5;"/><text fill="#000000" font-family="sans-serif" font-size="14" lengthAdjust="spacingAndGlyphs" textLength="205" x="326.3004" y="532.7085">Validate results and diagnosis</text><ellipse cx="428.8859" cy="603.9772" fill="#FEFECE" filter="url(#fr38dh069fnpf)" rx="67.8859" ry="15.9772" style="stroke:#A80036;stroke-width:1.5;"/><text fill="#000000" font-family="sans-serif" font-size="14" lengthAdjust="spacingAndGlyphs" textLength="101" x="378.3859" y="608.6256">Access results</text><ellipse cx="429.0557" cy="999.9111" fill="#FEFECE" filter="url(#fr38dh069fnpf)" rx="110.0557" ry="24.4111" style="stroke:#A80036;stroke-width:1.5;"/><text fill="#000000" font-family="sans-serif" font-size="14" lengthAdjust="spacingAndGlyphs" textLength="198" x="330.0557" y="1004.5596">Create New Employee Profile</text><ellipse cx="429.1693" cy="1081.1339" fill="#FEFECE" filter="url(#fr38dh069fnpf)" rx="93.6693" ry="21.1339" style="stroke:#A80036;stroke-width:1.5;"/><text fill="#000000" font-family="sans-serif" font-size="14" lengthAdjust="spacingAndGlyphs" textLength="162" x="348.1693" y="1085.7823">Modify Employee profile</text><ellipse cx="429.0368" cy="1156.8074" fill="#FEFECE" filter="url(#fr38dh069fnpf)" rx="87.0368" ry="19.8074" style="stroke:#A80036;stroke-width:1.5;"/><text fill="#000000" font-family="sans-serif" font-size="14" lengthAdjust="spacingAndGlyphs" textLength="147" x="355.5368" y="1161.4558">Specify new test type</text><ellipse cx="428.9496" cy="1235.9899" fill="#FEFECE" filter="url(#fr38dh069fnpf)" rx="105.4496" ry="23.4899" style="stroke:#A80036;stroke-width:1.5;"/><text fill="#000000" font-family="sans-serif" font-size="14" lengthAdjust="spacingAndGlyphs" textLength="188" x="334.9496" y="1240.6384">Specify new test parameter</text><ellipse cx="428.7717" cy="682.0543" fill="#FEFECE" filter="url(#fr38dh069fnpf)" rx="120.7717" ry="26.5543" style="stroke:#A80036;stroke-width:1.5;"/><text fill="#000000" font-family="sans-serif" font-size="14" lengthAdjust="spacingAndGlyphs" textLength="221" x="318.2717" y="686.7028">Specify new parameter category</text><ellipse cx="428.8359" cy="768.9672" fill="#FEFECE" filter="url(#fr38dh069fnpf)" rx="112.8359" ry="24.9672" style="stroke:#A80036;stroke-width:1.5;"/><text fill="#000000" font-family="sans-serif" font-size="14" lengthAdjust="spacingAndGlyphs" textLength="204" x="326.8359" y="773.6156">Change test reference values</text><ellipse cx="428.9095" cy="851.0819" fill="#FEFECE" filter="url(#fr38dh069fnpf)" rx="95.9095" ry="21.5819" style="stroke:#A80036;stroke-width:1.5;"/><text fill="#000000" font-family="sans-serif" font-size="14" lengthAdjust="spacingAndGlyphs" textLength="167" x="345.4095" y="855.7303">Edit Parameter Category</text><ellipse cx="429.1456" cy="924.0291" fill="#FEFECE" filter="url(#fr38dh069fnpf)" rx="70.6456" ry="16.5291" style="stroke:#A80036;stroke-width:1.5;"/><text fill="#000000" font-family="sans-serif" font-size="14" lengthAdjust="spacingAndGlyphs" textLength="108" x="375.1456" y="928.6776">Edit type of test</text><ellipse cx="429.1177" cy="1417.1235" fill="#FEFECE" filter="url(#fr38dh069fnpf)" rx="103.6177" ry="23.1235" style="stroke:#A80036;stroke-width:1.5;"/><text fill="#000000" font-family="sans-serif" font-size="14" lengthAdjust="spacingAndGlyphs" textLength="184" x="337.1177" y="1421.772">Generate Covid-19 reports</text><ellipse cx="428.8078" cy="1327.1616" fill="#FEFECE" filter="url(#fr38dh069fnpf)" rx="148.8078" ry="32.1616" style="stroke:#A80036;stroke-width:1.5;"/><text fill="#000000" font-family="sans-serif" font-size="14" lengthAdjust="spacingAndGlyphs" textLength="280" x="288.8078" y="1331.81">Generate Statistics of Internal Processes</text><!--MD5=[87a04b683345c3cce94ac9a6e159ab2f]
entity Receptionist--><ellipse cx="113" cy="73" fill="#FEFECE" filter="url(#fr38dh069fnpf)" rx="8" ry="8" style="stroke:#A80036;stroke-width:1.5;"/><path d="M113,81 L113,108 M100,89 L126,89 M113,108 L100,123 M113,108 L126,123 " fill="none" filter="url(#fr38dh069fnpf)" style="stroke:#A80036;stroke-width:1.5;"/><text fill="#000000" font-family="sans-serif" font-size="14" lengthAdjust="spacingAndGlyphs" textLength="87" x="69.5" y="141.4951">Receptionist</text><!--MD5=[e7d38603a700bedb049d1f5e1789c8aa]
entity MLT--><ellipse cx="113" cy="189" fill="#FEFECE" filter="url(#fr38dh069fnpf)" rx="8" ry="8" style="stroke:#A80036;stroke-width:1.5;"/><path d="M113,197 L113,224 M100,205 L126,205 M113,224 L100,239 M113,224 L126,239 " fill="none" filter="url(#fr38dh069fnpf)" style="stroke:#A80036;stroke-width:1.5;"/><text fill="#000000" font-family="sans-serif" font-size="14" lengthAdjust="spacingAndGlyphs" textLength="159" x="33.5" y="257.4951">Medical Lab Technician</text><!--MD5=[234b11d210a3d78b3bcac40f493e1b07]
entity CCT--><ellipse cx="113" cy="305" fill="#FEFECE" filter="url(#fr38dh069fnpf)" rx="8" ry="8" style="stroke:#A80036;stroke-width:1.5;"/><path d="M113,313 L113,340 M100,321 L126,321 M113,340 L100,355 M113,340 L126,355 " fill="none" filter="url(#fr38dh069fnpf)" style="stroke:#A80036;stroke-width:1.5;"/><text fill="#000000" font-family="sans-serif" font-size="14" lengthAdjust="spacingAndGlyphs" textLength="214" x="6" y="373.4951">Clinical Chemistry Technologist</text><!--MD5=[f0e91d5aa74c2411969e7ef072c6f268]
entity SD--><ellipse cx="113" cy="421" fill="#FEFECE" filter="url(#fr38dh069fnpf)" rx="8" ry="8" style="stroke:#A80036;stroke-width:1.5;"/><path d="M113,429 L113,456 M100,437 L126,437 M113,456 L100,471 M113,456 L126,471 " fill="none" filter="url(#fr38dh069fnpf)" style="stroke:#A80036;stroke-width:1.5;"/><text fill="#000000" font-family="sans-serif" font-size="14" lengthAdjust="spacingAndGlyphs" textLength="116" x="55" y="489.4951">Specialist Doctor</text><!--MD5=[b0100dfa164aec77c855c16afe11d7ec]
entity LC--><ellipse cx="113" cy="537" fill="#FEFECE" filter="url(#fr38dh069fnpf)" rx="8" ry="8" style="stroke:#A80036;stroke-width:1.5;"/><path d="M113,545 L113,572 M100,553 L126,553 M113,572 L100,587 M113,572 L126,587 " fill="none" filter="url(#fr38dh069fnpf)" style="stroke:#A80036;stroke-width:1.5;"/><text fill="#000000" font-family="sans-serif" font-size="14" lengthAdjust="spacingAndGlyphs" textLength="157" x="34.5" y="605.4951">Laboratory Coordinator</text><!--MD5=[97ab183161fd5d1db7fba7485cf76add]
entity Admin--><ellipse cx="711" cy="931" fill="#FEFECE" filter="url(#fr38dh069fnpf)" rx="8" ry="8" style="stroke:#A80036;stroke-width:1.5;"/><path d="M711,939 L711,966 M698,947 L724,947 M711,966 L698,981 M711,966 L724,981 " fill="none" filter="url(#fr38dh069fnpf)" style="stroke:#A80036;stroke-width:1.5;"/><text fill="#000000" font-family="sans-serif" font-size="14" lengthAdjust="spacingAndGlyphs" textLength="146" x="638" y="999.4951">System Administrator</text><!--MD5=[0ba5ee7700168656dc1b457c6fe9fdac]
entity Client--><ellipse cx="711" cy="573" fill="#FEFECE" filter="url(#fr38dh069fnpf)" rx="8" ry="8" style="stroke:#A80036;stroke-width:1.5;"/><path d="M711,581 L711,608 M698,589 L724,589 M711,608 L698,623 M711,608 L724,623 " fill="none" filter="url(#fr38dh069fnpf)" style="stroke:#A80036;stroke-width:1.5;"/><text fill="#000000" font-family="sans-serif" font-size="14" lengthAdjust="spacingAndGlyphs" textLength="39" x="691.5" y="641.4951">Client</text><!--MD5=[52244217770951987a130bd5b09c96eb]
entity Time--><ellipse cx="113" cy="1341" fill="#FEFECE" filter="url(#fr38dh069fnpf)" rx="8" ry="8" style="stroke:#A80036;stroke-width:1.5;"/><path d="M113,1349 L113,1376 M100,1357 L126,1357 M113,1376 L100,1391 M113,1376 L126,1391 " fill="none" filter="url(#fr38dh069fnpf)" style="stroke:#A80036;stroke-width:1.5;"/><text fill="#000000" font-family="sans-serif" font-size="14" lengthAdjust="spacingAndGlyphs" textLength="90" x="68" y="1409.4951">System/Time</text><!--MD5=[2b45617c0549490b7c6f8746acf02284]
link Receptionist to Register Client--><path d="M156.6067,96.5482 C211.6925,87.1348 306.7627,70.8886 368.7568,60.2947 " fill="none" id="Receptionist-to-Register Client" style="stroke:#A80036;stroke-width:1.0;"/><polygon fill="#A80036" points="373.9051,59.4149,364.3599,56.9882,368.9766,60.2572,365.7076,64.8739,373.9051,59.4149" style="stroke:#A80036;stroke-width:1.0;"/><!--MD5=[77fa00d7a04f158da391876d18b87f6e]
link Receptionist to Edit client data--><path d="M156.6067,105.7939 C208.2342,107.9179 294.9832,111.4867 356.7077,114.026 " fill="none" id="Receptionist-to-Edit client data" style="stroke:#A80036;stroke-width:1.0;"/><polygon fill="#A80036" points="361.8528,114.2376,353.025,109.8707,356.857,114.0319,352.6958,117.8639,361.8528,114.2376" style="stroke:#A80036;stroke-width:1.0;"/><!--MD5=[4baf46e1f5f8e3e6b0ad81e752020039]
link Receptionist to Register test--><path d="M156.6299,117.5728 C188.4446,127.237 232.686,140.1958 272,150 C305.722,158.4097 343.8708,166.4614 374.1191,172.5062 " fill="none" id="Receptionist-to-Register test" style="stroke:#A80036;stroke-width:1.0;"/><polygon fill="#A80036" points="379.2871,173.5348,371.2412,167.8547,374.3833,172.5586,369.6794,175.7007,379.2871,173.5348" style="stroke:#A80036;stroke-width:1.0;"/><!--MD5=[d7e60d915a2ec94eb52f8be26c31ae9e]
link MLT to Record samples--><path d="M192.7401,227.5703 C243.1184,232.353 307.698,238.484 356.6035,243.1269 " fill="none" id="MLT-to-Record samples" style="stroke:#A80036;stroke-width:1.0;"/><polygon fill="#A80036" points="361.5856,243.5999,353.0041,238.7669,356.608,243.1272,352.2477,246.7311,361.5856,243.5999" style="stroke:#A80036;stroke-width:1.0;"/><!--MD5=[dcc25382a20848415585d7dd048d8dcd]
link MLT to Check Results--><path d="M192.5949,257.7485 C202.2906,263.8748 211.6915,270.6496 220,278 C249.8348,304.3941 238.7361,329.0848 272,351 C297.2128,367.6109 329.179,376.253 357.6775,380.6956 " fill="none" id="MLT-to-Check Results" style="stroke:#A80036;stroke-width:1.0;"/><polygon fill="#A80036" points="362.956,381.4772,354.639,376.202,358.0099,380.7448,353.4671,384.1157,362.956,381.4772" style="stroke:#A80036;stroke-width:1.0;"/><!--MD5=[c08a9ebe08d64377a3b84292f28095a7]
link CCT to Record results--><path d="M220.4241,329.8809 C265.6303,327.3059 317.0115,324.3791 357.465,322.0748 " fill="none" id="CCT-to-Record results" style="stroke:#A80036;stroke-width:1.0;"/><polygon fill="#A80036" points="362.8463,321.7683,353.6333,318.2867,357.8544,322.0527,354.0884,326.2738,362.8463,321.7683" style="stroke:#A80036;stroke-width:1.0;"/><!--MD5=[f73a845d5491d351341384928bcb9264]
link CCT to Check Results--><path d="M220.4241,352.6575 C269.4254,360.2558 325.6821,368.9792 367.4123,375.45 " fill="none" id="CCT-to-Check Results" style="stroke:#A80036;stroke-width:1.0;"/><polygon fill="#A80036" points="372.4279,376.2277,364.1471,370.8959,367.4869,375.4615,362.9213,378.8014,372.4279,376.2277" style="stroke:#A80036;stroke-width:1.0;"/><!--MD5=[081bbdb48422dc36e05b71e7a50c66b2]
link SD to Record report--><path d="M171.3275,452 C223.9524,452 301.511,452 357.7808,452 " fill="none" id="SD-to-Record report" style="stroke:#A80036;stroke-width:1.0;"/><polygon fill="#A80036" points="362.8162,452,353.8162,448,357.8162,452,353.8162,456,362.8162,452" style="stroke:#A80036;stroke-width:1.0;"/><!--MD5=[940a6be1b51fd554833ed818b68dd7dc]
link SD to Check Results--><path d="M171.3275,439.6331 C229.0591,427.3925 316.7983,408.7896 373.5183,396.7635 " fill="none" id="SD-to-Check Results" style="stroke:#A80036;stroke-width:1.0;"/><polygon fill="#A80036" points="378.5675,395.693,368.9335,393.6468,373.6762,396.7301,370.593,401.4728,378.5675,395.693" style="stroke:#A80036;stroke-width:1.0;"/><!--MD5=[3b2d689992772c884db719094539be9b]
link LC to Validate results and diagnosis--><path d="M191.5184,558.061 C231.9995,552.9368 281.8929,546.6212 325.4821,541.1035 " fill="none" id="LC-to-Validate results and diagnosis" style="stroke:#A80036;stroke-width:1.0;"/><polygon fill="#A80036" points="330.4928,540.4693,321.0617,537.6314,325.5324,541.0973,322.0665,545.568,330.4928,540.4693" style="stroke:#A80036;stroke-width:1.0;"/><!--MD5=[cabaf551dce4bb009748c3d765f39040]
link LC to Check Results--><path d="M191.6634,532.0839 C201.8369,525.5688 211.6152,518.1989 220,510 C253.3056,477.4329 234.4281,446.536 272,419 C296.3529,401.1521 328.1864,392.3192 356.8182,388.0685 " fill="none" id="LC-to-Check Results" style="stroke:#A80036;stroke-width:1.0;"/><polygon fill="#A80036" points="362.1246,387.3269,352.6575,384.6113,357.1727,388.019,353.765,392.5342,362.1246,387.3269" style="stroke:#A80036;stroke-width:1.0;"/><!--MD5=[ea0a11f2c830fbbf636e1ecce5fd6a2e]
reverse link Access results to Client--><path d="M502.5386,604 C565.7603,604 652.6568,604 691.2054,604 " fill="none" id="Access results-backto-Client" style="stroke:#A80036;stroke-width:1.0;"/><polygon fill="#A80036" points="497.2643,604,506.2643,608,502.2643,604,506.2643,600,497.2643,604" style="stroke:#A80036;stroke-width:1.0;"/><!--MD5=[d3b04a26b35b062c93ff8f596cdb86ca]
reverse link Create New Employee Profile to Admin--><path d="M528.5714,986.5826 C564.5436,981.7353 604.4639,976.3559 637.7667,971.8683 " fill="none" id="Create New Employee Profile-backto-Admin" style="stroke:#A80036;stroke-width:1.0;"/><polygon fill="#A80036" points="523.294,987.2937,532.7476,990.056,528.2492,986.626,531.6792,982.1276,523.294,987.2937" style="stroke:#A80036;stroke-width:1.0;"/><!--MD5=[164a9850d53e3d22003228a4b0d63874]
reverse link Modify Employee profile to Admin--><path d="M507.6025,1066.7591 C533.1853,1060.7433 561.3308,1052.6165 586,1042 C610.2584,1031.5603 635.1303,1016.6555 656.2353,1002.5348 " fill="none" id="Modify Employee profile-backto-Admin" style="stroke:#A80036;stroke-width:1.0;"/><polygon fill="#A80036" points="502.5219,1067.9342,512.1918,1069.8032,507.3933,1066.8075,510.3891,1062.009,502.5219,1067.9342" style="stroke:#A80036;stroke-width:1.0;"/><!--MD5=[ae5ee1234a8ed749ef8d4fc3410b8a2e]
reverse link Specify new test type to Admin--><path d="M512.6862,1147.3446 C537.6587,1141.7544 564.1685,1132.9296 586,1119 C631.3789,1090.0459 667.513,1038.856 689.0326,1002.8156 " fill="none" id="Specify new test type-backto-Admin" style="stroke:#A80036;stroke-width:1.0;"/><polygon fill="#A80036" points="507.714,1148.4201,517.3563,1150.4268,512.601,1147.363,515.6648,1142.6077,507.714,1148.4201" style="stroke:#A80036;stroke-width:1.0;"/><!--MD5=[c3c263b2983eddbc7d5b1f8d39c05d0c]
reverse link Specify new test parameter to Admin--><path d="M526.0404,1223.1404 C547.3659,1216.9024 568.7152,1207.6658 586,1194 C648.6279,1144.485 683.9556,1054.6778 700.1019,1002.5143 " fill="none" id="Specify new test parameter-backto-Admin" style="stroke:#A80036;stroke-width:1.0;"/><polygon fill="#A80036" points="521.204,1224.5049,530.952,1225.9107,526.0161,1223.1472,528.7797,1218.2113,521.204,1224.5049" style="stroke:#A80036;stroke-width:1.0;"/><!--MD5=[cd7cabd9f8d9492bd205a4142fb4aa65]
reverse link Specify new parameter category to Admin--><path d="M533.8518,698.6002 C552.55,704.9771 570.8644,713.7986 586,726 C649.1685,776.9227 684.3864,868.5074 700.3487,921.3653 " fill="none" id="Specify new parameter category-backto-Admin" style="stroke:#A80036;stroke-width:1.0;"/><polygon fill="#A80036" points="529.0914,697.031,536.3866,703.6476,533.84,698.5964,538.8913,696.0498,529.0914,697.031" style="stroke:#A80036;stroke-width:1.0;"/><!--MD5=[70aec4ccdf649185a6e4e5fe1eaeaee7]
reverse link Change test reference values to Admin--><path d="M525.2233,785.4397 C546.2936,791.6806 567.7375,800.2507 586,812 C629.19,839.7868 665.0386,887.2188 687.1088,921.3126 " fill="none" id="Change test reference values-backto-Admin" style="stroke:#A80036;stroke-width:1.0;"/><polygon fill="#A80036" points="520.1648,783.9832,527.7065,790.3174,524.9696,785.3667,529.9202,782.6298,520.1648,783.9832" style="stroke:#A80036;stroke-width:1.0;"/><!--MD5=[f24a015f032e40d4a1a6289a6ffa518e]
reverse link Edit Parameter ParameterCategory to Admin--><path d="M507.6946,866.0121 C533.1594,872.0607 561.2117,880.012 586,890 C607.1385,898.5174 629.0437,910.0773 648.4993,921.4403 " fill="none" id="Edit Parameter Category-backto-Admin" style="stroke:#A80036;stroke-width:1.0;"/><polygon fill="#A80036" points="502.6379,864.8277,510.4885,870.7748,507.5061,865.968,512.313,862.9856,502.6379,864.8277" style="stroke:#A80036;stroke-width:1.0;"/><!--MD5=[e1bbafe00f092723b364a563bc9630e6]
reverse link Edit type of test to Admin--><path d="M495.3445,932.94 C538.1512,938.7083 593.8586,946.215 637.931,952.1538 " fill="none" id="Edit type of test-backto-Admin" style="stroke:#A80036;stroke-width:1.0;"/><polygon fill="#A80036" points="490.1898,932.2454,498.575,937.4114,495.145,932.9131,499.6434,929.4831,490.1898,932.2454" style="stroke:#A80036;stroke-width:1.0;"/><!--MD5=[41073721dbc814a0f862a2505bd611af]
link Time to Generate Covid-19 reports--><path d="M158.2751,1378.4474 C204.5765,1385.041 277.8267,1395.4722 336.4636,1403.8223 " fill="none" id="Time-to-Generate Covid-19 reports" style="stroke:#A80036;stroke-width:1.0;"/><polygon fill="#A80036" points="341.7317,1404.5725,333.3856,1399.3435,336.7817,1403.8675,332.2576,1407.2636,341.7317,1404.5725" style="stroke:#A80036;stroke-width:1.0;"/><!--MD5=[2c22984e32d6d394903d1a81fea7383f]
link Time to Generate Statistics of Internal Processes--><path d="M158.2751,1365.5526 C195.2332,1360.2896 249.3612,1352.5815 299.5222,1345.4383 " fill="none" id="Time-to-Generate Statistics of Internal Processes" style="stroke:#A80036;stroke-width:1.0;"/><polygon fill="#A80036" points="304.6754,1344.7045,295.2013,1342.0134,299.7254,1345.4095,296.3293,1349.9335,304.6754,1344.7045" style="stroke:#A80036;stroke-width:1.0;"/><!--MD5=[bc9ebec25e3e48ee9cb726596139a8c9]
@startuml
left to right direction
skinparam packageStyle rectangle
actor Receptionist 
actor "Medical Lab Technician" as MLT
actor "Clinical Chemistry Technologist" as CCT
actor "Specialist Doctor" as SD
actor "Laboratory Coordinator" as LC
actor "System Administrator" as Admin
actor Client
actor "System/Time" as Time


rectangle ManyLabsApp {
Receptionist - ->  (Register Client)
Receptionist - -> (Edit client data)
Receptionist - -> (Register test)
MLT - -> (Record samples)
MLT - -> (Check Results)
CCT - -> (Record results)
CCT - -> (Check Results)
SD - -> (Record report)
SD - -> (Check Results)
LC - -> (Validate results and diagnosis)
LC - -> (Check Results)
(Access results) <- - Client
(Create New Employee Profile) <- - Admin
(Modify Employee profile) <- - Admin
(Specify new test type) <- - Admin
(Specify new test parameter) <- - Admin
(Specify new parameter category) <- - Admin
(Change test reference values) <- - Admin
(Edit Parameter ParameterCategory) <- - Admin
(Edit type of test) <- - Admin
Time - -> (Generate Covid-19 reports)
Time - -> (Generate Statistics of Internal Processes)

}
@enduml

PlantUML version 1.2020.22(Sun Dec 06 09:36:27 UTC 2020)
(GPL source distribution)
Java Runtime: OpenJDK Runtime Environment
JVM: OpenJDK 64-Bit Server VM
Default Encoding: UTF-8
Language: en
Country: US
--></g></svg>