<?xml version="1.0" encoding="UTF-8" standalone="no"?><svg xmlns="http://www.w3.org/2000/svg" xmlns:xlink="http://www.w3.org/1999/xlink" contentScriptType="application/ecmascript" contentStyleType="text/css" height="547px" preserveAspectRatio="none" style="width:1156px;height:547px;" version="1.1" viewBox="0 0 1156 547" width="1156px" zoomAndPan="magnify"><defs><filter height="300%" id="f1b1g844hqz6hc" width="300%" x="-1" y="-1"><feGaussianBlur result="blurOut" stdDeviation="2.0"/><feColorMatrix in="blurOut" result="blurOut2" type="matrix" values="0 0 0 0 0 0 0 0 0 0 0 0 0 0 0 0 0 0 .4 0"/><feOffset dx="4.0" dy="4.0" in="blurOut2" result="blurOut3"/><feBlend in="SourceGraphic" in2="blurOut3" mode="normal"/></filter></defs><g><!--MD5=[b4d3d50c0abf08df45181fececb9f04d]
class Store--><rect codeLine="1" fill="#FEFECE" filter="url(#f1b1g844hqz6hc)" height="73.6094" id="Store" style="stroke:#A80036;stroke-width:1.5;" width="139" x="196.5" y="249"/><ellipse cx="244.75" cy="265" fill="#ADD1B2" rx="11" ry="11" style="stroke:#A80036;stroke-width:1.0;"/><path d="M247.7188,270.6406 Q247.1406,270.9375 246.5,271.0781 Q245.8594,271.2344 245.1563,271.2344 Q242.6563,271.2344 241.3281,269.5938 Q240.0156,267.9375 240.0156,264.8125 Q240.0156,261.6875 241.3281,260.0313 Q242.6563,258.375 245.1563,258.375 Q245.8594,258.375 246.5,258.5313 Q247.1563,258.6875 247.7188,258.9844 L247.7188,261.7031 Q247.0938,261.125 246.5,260.8594 Q245.9063,260.5781 245.2813,260.5781 Q243.9375,260.5781 243.25,261.6563 Q242.5625,262.7188 242.5625,264.8125 Q242.5625,266.9063 243.25,267.9844 Q243.9375,269.0469 245.2813,269.0469 Q245.9063,269.0469 246.5,268.7813 Q247.0938,268.5 247.7188,267.9219 L247.7188,270.6406 Z " fill="#000000"/><text fill="#000000" font-family="sans-serif" font-size="12" lengthAdjust="spacingAndGlyphs" textLength="34" x="265.25" y="269.1543">Store</text><line style="stroke:#A80036;stroke-width:1.5;" x1="197.5" x2="334.5" y1="281" y2="281"/><line style="stroke:#A80036;stroke-width:1.5;" x1="197.5" x2="334.5" y1="289" y2="289"/><ellipse cx="207.5" cy="300" fill="#84BE84" rx="3" ry="3" style="stroke:#038048;stroke-width:1.0;"/><text fill="#000000" font-family="sans-serif" font-size="11" lengthAdjust="spacingAndGlyphs" textLength="113" x="216.5" y="303.2104">CreateEmployee(...)</text><ellipse cx="207.5" cy="312.8047" fill="#84BE84" rx="3" ry="3" style="stroke:#038048;stroke-width:1.0;"/><text fill="#000000" font-family="sans-serif" font-size="11" lengthAdjust="spacingAndGlyphs" textLength="108" x="216.5" y="316.0151">ValidateEmployee()</text><!--MD5=[7421f545a0d8420c5bec41e74b387d9c]
class Employee--><rect codeLine="8" fill="#FEFECE" filter="url(#f1b1g844hqz6hc)" height="150.4375" id="Employee" style="stroke:#A80036;stroke-width:1.5;" width="518" x="7" y="383"/><ellipse cx="231.75" cy="399" fill="#ADD1B2" rx="11" ry="11" style="stroke:#A80036;stroke-width:1.0;"/><path d="M234.7188,404.6406 Q234.1406,404.9375 233.5,405.0781 Q232.8594,405.2344 232.1563,405.2344 Q229.6563,405.2344 228.3281,403.5938 Q227.0156,401.9375 227.0156,398.8125 Q227.0156,395.6875 228.3281,394.0313 Q229.6563,392.375 232.1563,392.375 Q232.8594,392.375 233.5,392.5313 Q234.1563,392.6875 234.7188,392.9844 L234.7188,395.7031 Q234.0938,395.125 233.5,394.8594 Q232.9063,394.5781 232.2813,394.5781 Q230.9375,394.5781 230.25,395.6563 Q229.5625,396.7188 229.5625,398.8125 Q229.5625,400.9063 230.25,401.9844 Q230.9375,403.0469 232.2813,403.0469 Q232.9063,403.0469 233.5,402.7813 Q234.0938,402.5 234.7188,401.9219 L234.7188,404.6406 Z " fill="#000000"/><text fill="#000000" font-family="sans-serif" font-size="12" lengthAdjust="spacingAndGlyphs" textLength="60" x="252.25" y="403.1543">Employee</text><line style="stroke:#A80036;stroke-width:1.5;" x1="8" x2="524" y1="415" y2="415"/><rect fill="none" height="6" style="stroke:#C82930;stroke-width:1.0;" width="6" x="15" y="423"/><text fill="#000000" font-family="sans-serif" font-size="11" lengthAdjust="spacingAndGlyphs" textLength="66" x="27" y="429.2104">EmployeeID</text><rect fill="none" height="6" style="stroke:#C82930;stroke-width:1.0;" width="6" x="15" y="435.8047"/><text fill="#000000" font-family="sans-serif" font-size="11" lengthAdjust="spacingAndGlyphs" textLength="95" x="27" y="442.0151">OrganizationRole</text><rect fill="none" height="6" style="stroke:#C82930;stroke-width:1.0;" width="6" x="15" y="448.6094"/><text fill="#000000" font-family="sans-serif" font-size="11" lengthAdjust="spacingAndGlyphs" textLength="33" x="27" y="454.8198">Name</text><rect fill="none" height="6" style="stroke:#C82930;stroke-width:1.0;" width="6" x="15" y="461.4141"/><text fill="#000000" font-family="sans-serif" font-size="11" lengthAdjust="spacingAndGlyphs" textLength="47" x="27" y="467.6245">Address</text><rect fill="none" height="6" style="stroke:#C82930;stroke-width:1.0;" width="6" x="15" y="474.2188"/><text fill="#000000" font-family="sans-serif" font-size="11" lengthAdjust="spacingAndGlyphs" textLength="80" x="27" y="480.4292">PhoneNumber</text><rect fill="none" height="6" style="stroke:#C82930;stroke-width:1.0;" width="6" x="15" y="487.0234"/><text fill="#000000" font-family="sans-serif" font-size="11" lengthAdjust="spacingAndGlyphs" textLength="35" x="27" y="493.2339">E-mail</text><rect fill="none" height="6" style="stroke:#C82930;stroke-width:1.0;" width="6" x="15" y="499.8281"/><text fill="#000000" font-family="sans-serif" font-size="11" lengthAdjust="spacingAndGlyphs" textLength="25" x="27" y="506.0386">SOC</text><line style="stroke:#A80036;stroke-width:1.5;" x1="8" x2="524" y1="512.6328" y2="512.6328"/><ellipse cx="18" cy="523.6328" fill="#84BE84" rx="3" ry="3" style="stroke:#038048;stroke-width:1.0;"/><text fill="#000000" font-family="sans-serif" font-size="11" lengthAdjust="spacingAndGlyphs" textLength="492" x="27" y="526.8433">Employee(EmployeeID, OrganizationRole, Name, Address, PhoneNumber, E-mail, SOC)</text><!--MD5=[7d96fd15f3014691d2fcaf89c5791e2a]
class SpecialistDoctor--><rect codeLine="22" fill="#FEFECE" filter="url(#f1b1g844hqz6hc)" height="73.6094" id="SpecialistDoctor" style="stroke:#A80036;stroke-width:1.5;" width="582" x="560" y="421"/><ellipse cx="795.75" cy="437" fill="#ADD1B2" rx="11" ry="11" style="stroke:#A80036;stroke-width:1.0;"/><path d="M798.7188,442.6406 Q798.1406,442.9375 797.5,443.0781 Q796.8594,443.2344 796.1563,443.2344 Q793.6563,443.2344 792.3281,441.5938 Q791.0156,439.9375 791.0156,436.8125 Q791.0156,433.6875 792.3281,432.0313 Q793.6563,430.375 796.1563,430.375 Q796.8594,430.375 797.5,430.5313 Q798.1563,430.6875 798.7188,430.9844 L798.7188,433.7031 Q798.0938,433.125 797.5,432.8594 Q796.9063,432.5781 796.2813,432.5781 Q794.9375,432.5781 794.25,433.6563 Q793.5625,434.7188 793.5625,436.8125 Q793.5625,438.9063 794.25,439.9844 Q794.9375,441.0469 796.2813,441.0469 Q796.9063,441.0469 797.5,440.7813 Q798.0938,440.5 798.7188,439.9219 L798.7188,442.6406 Z " fill="#000000"/><text fill="#000000" font-family="sans-serif" font-size="12" lengthAdjust="spacingAndGlyphs" textLength="102" x="816.25" y="441.1543">SpecialistDoctor</text><line style="stroke:#A80036;stroke-width:1.5;" x1="561" x2="1141" y1="453" y2="453"/><rect fill="none" height="6" style="stroke:#C82930;stroke-width:1.0;" width="6" x="568" y="461"/><text fill="#000000" font-family="sans-serif" font-size="11" lengthAdjust="spacingAndGlyphs" textLength="23" x="580" y="467.2104">DIN;</text><line style="stroke:#A80036;stroke-width:1.5;" x1="561" x2="1141" y1="473.8047" y2="473.8047"/><ellipse cx="571" cy="484.8047" fill="#84BE84" rx="3" ry="3" style="stroke:#038048;stroke-width:1.0;"/><text fill="#000000" font-family="sans-serif" font-size="11" lengthAdjust="spacingAndGlyphs" textLength="556" x="580" y="488.0151">SpecialistDoctor(EmployeeID, OrganizationRole, Name, Address, PhoneNumber, E-mail, SOC, DIN)</text><!--MD5=[be8824f3bfb393c5e5bcc35b042bc2db]
class CreateEmployeeController--><rect codeLine="27" fill="#FEFECE" filter="url(#f1b1g844hqz6hc)" height="73.6094" id="CreateEmployeeController" style="stroke:#A80036;stroke-width:1.5;" width="195" x="168.5" y="115"/><ellipse cx="183.5" cy="131" fill="#ADD1B2" rx="11" ry="11" style="stroke:#A80036;stroke-width:1.0;"/><path d="M186.4688,136.6406 Q185.8906,136.9375 185.25,137.0781 Q184.6094,137.2344 183.9063,137.2344 Q181.4063,137.2344 180.0781,135.5938 Q178.7656,133.9375 178.7656,130.8125 Q178.7656,127.6875 180.0781,126.0313 Q181.4063,124.375 183.9063,124.375 Q184.6094,124.375 185.25,124.5313 Q185.9063,124.6875 186.4688,124.9844 L186.4688,127.7031 Q185.8438,127.125 185.25,126.8594 Q184.6563,126.5781 184.0313,126.5781 Q182.6875,126.5781 182,127.6563 Q181.3125,128.7188 181.3125,130.8125 Q181.3125,132.9063 182,133.9844 Q182.6875,135.0469 184.0313,135.0469 Q184.6563,135.0469 185.25,134.7813 Q185.8438,134.5 186.4688,133.9219 L186.4688,136.6406 Z " fill="#000000"/><text fill="#000000" font-family="sans-serif" font-size="12" lengthAdjust="spacingAndGlyphs" textLength="163" x="197.5" y="135.1543">CreateEmployeeController</text><line style="stroke:#A80036;stroke-width:1.5;" x1="169.5" x2="362.5" y1="147" y2="147"/><line style="stroke:#A80036;stroke-width:1.5;" x1="169.5" x2="362.5" y1="155" y2="155"/><ellipse cx="179.5" cy="166" fill="#84BE84" rx="3" ry="3" style="stroke:#038048;stroke-width:1.0;"/><text fill="#000000" font-family="sans-serif" font-size="11" lengthAdjust="spacingAndGlyphs" textLength="117" x="188.5" y="169.2104">CreateEmployee(....)</text><ellipse cx="179.5" cy="178.8047" fill="#84BE84" rx="3" ry="3" style="stroke:#038048;stroke-width:1.0;"/><text fill="#000000" font-family="sans-serif" font-size="11" lengthAdjust="spacingAndGlyphs" textLength="36" x="188.5" y="182.0151">Save()</text><!--MD5=[67de922c3cb216337ce05d80892b06aa]
class CreateEmployeeUI--><rect fill="#FEFECE" filter="url(#f1b1g844hqz6hc)" height="48" id="CreateEmployeeUI" style="stroke:#A80036;stroke-width:1.5;" width="146" x="193" y="7"/><ellipse cx="208" cy="23" fill="#ADD1B2" rx="11" ry="11" style="stroke:#A80036;stroke-width:1.0;"/><path d="M210.9688,28.6406 Q210.3906,28.9375 209.75,29.0781 Q209.1094,29.2344 208.4063,29.2344 Q205.9063,29.2344 204.5781,27.5938 Q203.2656,25.9375 203.2656,22.8125 Q203.2656,19.6875 204.5781,18.0313 Q205.9063,16.375 208.4063,16.375 Q209.1094,16.375 209.75,16.5313 Q210.4063,16.6875 210.9688,16.9844 L210.9688,19.7031 Q210.3438,19.125 209.75,18.8594 Q209.1563,18.5781 208.5313,18.5781 Q207.1875,18.5781 206.5,19.6563 Q205.8125,20.7188 205.8125,22.8125 Q205.8125,24.9063 206.5,25.9844 Q207.1875,27.0469 208.5313,27.0469 Q209.1563,27.0469 209.75,26.7813 Q210.3438,26.5 210.9688,25.9219 L210.9688,28.6406 Z " fill="#000000"/><text fill="#000000" font-family="sans-serif" font-size="12" lengthAdjust="spacingAndGlyphs" textLength="114" x="222" y="27.1543">CreateEmployeeUI</text><line style="stroke:#A80036;stroke-width:1.5;" x1="194" x2="338" y1="39" y2="39"/><line style="stroke:#A80036;stroke-width:1.5;" x1="194" x2="338" y1="47" y2="47"/><!--MD5=[013802062880aae1c87dbce689bd3f0b]
link CreateEmployeeUI to CreateEmployeeController--><path codeLine="33" d="M266,55.1953 C266,72.299 266,95.5458 266,114.9716 " fill="none" id="CreateEmployeeUI-CreateEmployeeController" style="stroke:#A80036;stroke-width:1.0;stroke-dasharray:7.0,7.0;"/><!--MD5=[25c4f9eabcdb9118188a3ebbdee7abd9]
link CreateEmployeeController to Store--><path codeLine="34" d="M266,189.3265 C266,207.9122 266,230.3155 266,248.8737 " fill="none" id="CreateEmployeeController-Store" style="stroke:#A80036;stroke-width:1.0;stroke-dasharray:7.0,7.0;"/><!--MD5=[99719ceeae6d3e125b4f7a43d6a03f96]
link Store to Employee--><path codeLine="35" d="M266,323.3214 C266,340.8094 266,362.3016 266,382.9395 " fill="none" id="Store-Employee" style="stroke:#A80036;stroke-width:1.0;stroke-dasharray:7.0,7.0;"/><!--MD5=[372bd27a178b4208a6d241b4516ac7e6]
reverse link Employee to SpecialistDoctor--><path codeLine="36" d="M530.2293,458 C540.077,458 549.9246,458 559.7723,458 " fill="none" id="Employee-backto-SpecialistDoctor" style="stroke:#A80036;stroke-width:1.0;"/><polygon fill="#A80036" points="525.0796,458,534.0796,462,530.0796,458,534.0796,454,525.0796,458" style="stroke:#A80036;stroke-width:1.0;"/><!--MD5=[50e7fc805033c6ef1847040e8b11ab22]
@startuml
class Store {
  
  +CreateEmployee(...)
  +ValidateEmployee()
  
}

class Employee {
  -EmployeeID
  -OrganizationRole
  -Name
  -Address
  -PhoneNumber
  -E-mail
  -SOC
  
  +Employee(EmployeeID, OrganizationRole, Name, Address, PhoneNumber, E-mail, SOC)


}

class SpecialistDoctor{
  -DIN;
  +SpecialistDoctor(EmployeeID, OrganizationRole, Name, Address, PhoneNumber, E-mail, SOC, DIN)
  }

Class CreateEmployeeController{
  +CreateEmployee(....)
  +Save()
}


CreateEmployeeUI .. CreateEmployeeController
CreateEmployeeController .. Store
Store .. Employee
Employee <- SpecialistDoctor
@enduml

PlantUML version 1.2020.22(Sun Dec 06 09:36:27 UTC 2020)
(GPL source distribution)
Java Runtime: OpenJDK Runtime Environment
JVM: OpenJDK 64-Bit Server VM
Default Encoding: UTF-8
Language: en
Country: US
--></g></svg>