<?xml version="1.0" encoding="UTF-8" standalone="no"?><svg xmlns="http://www.w3.org/2000/svg" xmlns:xlink="http://www.w3.org/1999/xlink" contentScriptType="application/ecmascript" contentStyleType="text/css" height="146px" preserveAspectRatio="none" style="width:553px;height:146px;" version="1.1" viewBox="0 0 553 146" width="553px" zoomAndPan="magnify"><defs><filter height="300%" id="f10nyedigbbivl" width="300%" x="-1" y="-1"><feGaussianBlur result="blurOut" stdDeviation="2.0"/><feColorMatrix in="blurOut" result="blurOut2" type="matrix" values="0 0 0 0 0 0 0 0 0 0 0 0 0 0 0 0 0 0 .4 0"/><feOffset dx="4.0" dy="4.0" in="blurOut2" result="blurOut3"/><feBlend in="SourceGraphic" in2="blurOut3" mode="normal"/></filter></defs><g><!--MD5=[36afb6bbd95a8ac778c4537c55a683d5]
class ParameterCategory--><rect codeLine="8" fill="#FEFECE" filter="url(#f10nyedigbbivl)" height="78.4141" id="ParameterCategory" style="stroke:#A80036;stroke-width:1.5;" width="158" x="381.5" y="53.711"/><ellipse cx="396.5" cy="69.711" fill="#ADD1B2" rx="11" ry="11" style="stroke:#A80036;stroke-width:1.0;"/><path d="M399.4688,75.3516 Q398.8906,75.6485 398.25,75.7891 Q397.6094,75.9454 396.9063,75.9454 Q394.4063,75.9454 393.0781,74.3048 Q391.7656,72.6485 391.7656,69.5235 Q391.7656,66.3985 393.0781,64.7423 Q394.4063,63.086 396.9063,63.086 Q397.6094,63.086 398.25,63.2423 Q398.9063,63.3985 399.4688,63.6954 L399.4688,66.4141 Q398.8438,65.836 398.25,65.5704 Q397.6563,65.2891 397.0313,65.2891 Q395.6875,65.2891 395,66.3673 Q394.3125,67.4298 394.3125,69.5235 Q394.3125,71.6173 395,72.6954 Q395.6875,73.7579 397.0313,73.7579 Q397.6563,73.7579 398.25,73.4923 Q398.8438,73.211 399.4688,72.6329 L399.4688,75.3516 Z " fill="#000000"/><text fill="#000000" font-family="sans-serif" font-size="12" lengthAdjust="spacingAndGlyphs" textLength="126" x="410.5" y="73.8653">Parameter Category</text><line style="stroke:#A80036;stroke-width:1.5;" x1="382.5" x2="538.5" y1="85.711" y2="85.711"/><text fill="#000000" font-family="sans-serif" font-size="11" lengthAdjust="spacingAndGlyphs" textLength="36" x="387.5" y="99.9214">-name</text><text fill="#000000" font-family="sans-serif" font-size="11" lengthAdjust="spacingAndGlyphs" textLength="67" x="387.5" y="112.7261">-description</text><text fill="#000000" font-family="sans-serif" font-size="11" lengthAdjust="spacingAndGlyphs" textLength="31" x="387.5" y="125.5308">-code</text><!--MD5=[da547346deef918ea16944ba046651ef]
class Administrator--><rect codeLine="5" fill="#FEFECE" filter="url(#f10nyedigbbivl)" height="40" id="Administrator" style="stroke:#A80036;stroke-width:1.5;" width="116" x="168.5" y="72.711"/><ellipse cx="183.5" cy="88.711" fill="#ADD1B2" rx="11" ry="11" style="stroke:#A80036;stroke-width:1.0;"/><path d="M186.4688,94.3516 Q185.8906,94.6485 185.25,94.7891 Q184.6094,94.9454 183.9063,94.9454 Q181.4063,94.9454 180.0781,93.3048 Q178.7656,91.6485 178.7656,88.5235 Q178.7656,85.3985 180.0781,83.7423 Q181.4063,82.086 183.9063,82.086 Q184.6094,82.086 185.25,82.2423 Q185.9063,82.3985 186.4688,82.6954 L186.4688,85.4141 Q185.8438,84.836 185.25,84.5704 Q184.6563,84.2891 184.0313,84.2891 Q182.6875,84.2891 182,85.3673 Q181.3125,86.4298 181.3125,88.5235 Q181.3125,90.6173 182,91.6954 Q182.6875,92.7579 184.0313,92.7579 Q184.6563,92.7579 185.25,92.4923 Q185.8438,92.211 186.4688,91.6329 L186.4688,94.3516 Z " fill="#000000"/><text fill="#000000" font-family="sans-serif" font-size="12" lengthAdjust="spacingAndGlyphs" textLength="84" x="197.5" y="92.8653">Administrator</text><line style="stroke:#A80036;stroke-width:1.5;" x1="169.5" x2="283.5" y1="104.711" y2="104.711"/><!--MD5=[02e4b9b7573f1156f41e60aa5b4e25a4]
class Company--><rect codeLine="15" fill="#FEFECE" filter="url(#f10nyedigbbivl)" height="52.8047" id="Company" style="stroke:#A80036;stroke-width:1.5;" width="89" x="7" y="66.211"/><ellipse cx="22" cy="82.211" fill="#ADD1B2" rx="11" ry="11" style="stroke:#A80036;stroke-width:1.0;"/><path d="M24.9688,87.8516 Q24.3906,88.1485 23.75,88.2891 Q23.1094,88.4454 22.4063,88.4454 Q19.9063,88.4454 18.5781,86.8048 Q17.2656,85.1485 17.2656,82.0235 Q17.2656,78.8985 18.5781,77.2423 Q19.9063,75.586 22.4063,75.586 Q23.1094,75.586 23.75,75.7423 Q24.4063,75.8985 24.9688,76.1954 L24.9688,78.9141 Q24.3438,78.336 23.75,78.0704 Q23.1563,77.7891 22.5313,77.7891 Q21.1875,77.7891 20.5,78.8673 Q19.8125,79.9298 19.8125,82.0235 Q19.8125,84.1173 20.5,85.1954 Q21.1875,86.2579 22.5313,86.2579 Q23.1563,86.2579 23.75,85.9923 Q24.3438,85.711 24.9688,85.1329 L24.9688,87.8516 Z " fill="#000000"/><text fill="#000000" font-family="sans-serif" font-size="12" lengthAdjust="spacingAndGlyphs" textLength="57" x="36" y="86.3653">Company</text><line style="stroke:#A80036;stroke-width:1.5;" x1="8" x2="95" y1="98.211" y2="98.211"/><text fill="#000000" font-family="sans-serif" font-size="11" lengthAdjust="spacingAndGlyphs" textLength="70" x="13" y="112.4214">-designation</text><!--MD5=[93b4f25fb503a8e0e9a46b1d30ff3f44]
link Company to ParameterCategory--><path codeLine="19" d="M96.1254,66.9317 C129.0274,49.4753 175.5257,27.9667 219.5,18.711 C279.89,6 346.8664,29.7396 394.854,53.6332 " fill="none" id="Company-ParameterCategory" style="stroke:#A80036;stroke-width:1.0;"/><polygon fill="#000000" points="229.4951,15.055,220.3282,12.5213,220.5896,18.3933,229.4951,15.055" style="stroke:#000000;stroke-width:1.0;"/><text fill="#000000" font-family="sans-serif" font-size="13" lengthAdjust="spacingAndGlyphs" textLength="23" x="233.5" y="19.7779">has</text><text fill="#000000" font-family="sans-serif" font-size="13" lengthAdjust="spacingAndGlyphs" textLength="8" x="103.8751" y="58.7209">1</text><text fill="#000000" font-family="sans-serif" font-size="13" lengthAdjust="spacingAndGlyphs" textLength="23" x="358.5945" y="42.6704">0..*</text><!--MD5=[eaea43e34e45c5b9d20b595fc78f1f20]
link Company to Administrator--><path codeLine="20" d="M96.1127,92.711 C118.0874,92.711 144.8566,92.711 168.4089,92.711 " fill="none" id="Company-Administrator" style="stroke:#A80036;stroke-width:1.0;"/><polygon fill="#000000" points="123.25,81.2774,114.2049,78.3385,114.2049,84.2163,123.25,81.2774" style="stroke:#000000;stroke-width:1.0;"/><text fill="#000000" font-family="sans-serif" font-size="13" lengthAdjust="spacingAndGlyphs" textLength="23" x="127.25" y="85.7779">has</text><text fill="#000000" font-family="sans-serif" font-size="13" lengthAdjust="spacingAndGlyphs" textLength="8" x="103.8603" y="88.6087">1</text><text fill="#000000" font-family="sans-serif" font-size="13" lengthAdjust="spacingAndGlyphs" textLength="23" x="137.3624" y="105.6528">1..*</text><!--MD5=[7144ffdeebbe38808f7fb2ce8ac24f7d]
link Administrator to ParameterCategory--><path codeLine="21" d="M284.6434,92.711 C313.8802,92.711 349.7471,92.711 381.4465,92.711 " fill="none" id="Administrator-ParameterCategory" style="stroke:#A80036;stroke-width:1.0;"/><polygon fill="#000000" points="311.5,81.2774,302.4549,78.3385,302.4549,84.2163,311.5,81.2774" style="stroke:#000000;stroke-width:1.0;"/><text fill="#000000" font-family="sans-serif" font-size="13" lengthAdjust="spacingAndGlyphs" textLength="48" x="315.5" y="85.7779">creates</text><text fill="#000000" font-family="sans-serif" font-size="13" lengthAdjust="spacingAndGlyphs" textLength="8" x="292.6055" y="88.8255">1</text><text fill="#000000" font-family="sans-serif" font-size="13" lengthAdjust="spacingAndGlyphs" textLength="23" x="350.3816" y="105.4333">1..*</text><!--MD5=[ad1b53d9382f34da4fe6ecffcf414861]
@startuml
skinparam classAttributeIconSize 0
hide empty methods
class ParameterCategory as "Parameter Category"

class Administrator {
}

class ParameterCategory {
  -name
  -description
  -code
}


class Company {
  -designation
}

Company "1" - "0..*" ParameterCategory : has >
Company "1" - "1..*" Administrator : has >
Administrator "1" - "1..*" ParameterCategory : creates >
@enduml

PlantUML version 1.2020.22(Sun Dec 06 09:36:27 UTC 2020)
(GPL source distribution)
Java Runtime: OpenJDK Runtime Environment
JVM: OpenJDK 64-Bit Server VM
Default Encoding: UTF-8
Language: en
Country: US
--></g></svg>