<?xml version="1.0" encoding="UTF-8" standalone="no"?><svg xmlns="http://www.w3.org/2000/svg" xmlns:xlink="http://www.w3.org/1999/xlink" contentScriptType="application/ecmascript" contentStyleType="text/css" height="367px" preserveAspectRatio="none" style="width:412px;height:367px;" version="1.1" viewBox="0 0 412 367" width="412px" zoomAndPan="magnify"><defs><filter height="300%" id="frtge1b3ukdds" width="300%" x="-1" y="-1"><feGaussianBlur result="blurOut" stdDeviation="2.0"/><feColorMatrix in="blurOut" result="blurOut2" type="matrix" values="0 0 0 0 0 0 0 0 0 0 0 0 0 0 0 0 0 0 .4 0"/><feOffset dx="4.0" dy="4.0" in="blurOut2" result="blurOut3"/><feBlend in="SourceGraphic" in2="blurOut3" mode="normal"/></filter></defs><g><line style="stroke:#A80036;stroke-width:1.0;stroke-dasharray:5.0,5.0;" x1="53" x2="53" y1="88.2969" y2="283.0938"/><line style="stroke:#A80036;stroke-width:1.0;stroke-dasharray:5.0,5.0;" x1="367" x2="367" y1="88.2969" y2="283.0938"/><text fill="#000000" font-family="sans-serif" font-size="14" lengthAdjust="spacingAndGlyphs" textLength="91" x="5" y="84.9951">Administrator</text><ellipse cx="53.5" cy="15" fill="#FEFECE" filter="url(#frtge1b3ukdds)" rx="8" ry="8" style="stroke:#A80036;stroke-width:2.0;"/><path d="M53.5,23 L53.5,50 M40.5,31 L66.5,31 M53.5,50 L40.5,65 M53.5,50 L66.5,65 " fill="none" filter="url(#frtge1b3ukdds)" style="stroke:#A80036;stroke-width:2.0;"/><text fill="#000000" font-family="sans-serif" font-size="14" lengthAdjust="spacingAndGlyphs" textLength="91" x="5" y="295.0889">Administrator</text><ellipse cx="53.5" cy="308.3906" fill="#FEFECE" filter="url(#frtge1b3ukdds)" rx="8" ry="8" style="stroke:#A80036;stroke-width:2.0;"/><path d="M53.5,316.3906 L53.5,343.3906 M40.5,324.3906 L66.5,324.3906 M53.5,343.3906 L40.5,358.3906 M53.5,343.3906 L66.5,358.3906 " fill="none" filter="url(#frtge1b3ukdds)" style="stroke:#A80036;stroke-width:2.0;"/><rect fill="#FEFECE" filter="url(#frtge1b3ukdds)" height="30.2969" style="stroke:#A80036;stroke-width:1.5;" width="65" x="333" y="53"/><text fill="#000000" font-family="sans-serif" font-size="14" lengthAdjust="spacingAndGlyphs" textLength="51" x="340" y="72.9951">System</text><rect fill="#FEFECE" filter="url(#frtge1b3ukdds)" height="30.2969" style="stroke:#A80036;stroke-width:1.5;" width="65" x="333" y="282.0938"/><text fill="#000000" font-family="sans-serif" font-size="14" lengthAdjust="spacingAndGlyphs" textLength="51" x="340" y="302.0889">System</text><polygon fill="#A80036" points="355.5,115.4297,365.5,119.4297,355.5,123.4297,359.5,119.4297" style="stroke:#A80036;stroke-width:1.0;"/><line style="stroke:#A80036;stroke-width:1.0;" x1="53.5" x2="361.5" y1="119.4297" y2="119.4297"/><text fill="#000000" font-family="sans-serif" font-size="13" font-weight="bold" lengthAdjust="spacingAndGlyphs" textLength="9" x="60.5" y="114.3638">1</text><text fill="#000000" font-family="sans-serif" font-size="13" lengthAdjust="spacingAndGlyphs" textLength="198" x="73.5" y="114.3638">starts new parameter category</text><polygon fill="#A80036" points="64.5,144.5625,54.5,148.5625,64.5,152.5625,60.5,148.5625" style="stroke:#A80036;stroke-width:1.0;"/><line style="stroke:#A80036;stroke-width:1.0;stroke-dasharray:2.0,2.0;" x1="58.5" x2="366.5" y1="148.5625" y2="148.5625"/><text fill="#000000" font-family="sans-serif" font-size="13" font-weight="bold" lengthAdjust="spacingAndGlyphs" textLength="9" x="70.5" y="143.4966">2</text><text fill="#000000" font-family="sans-serif" font-size="13" lengthAdjust="spacingAndGlyphs" textLength="277" x="83.5" y="143.4966">requests data (i.e. code, description, nhsId)</text><polygon fill="#A80036" points="355.5,173.6953,365.5,177.6953,355.5,181.6953,359.5,177.6953" style="stroke:#A80036;stroke-width:1.0;"/><line style="stroke:#A80036;stroke-width:1.0;" x1="53.5" x2="361.5" y1="177.6953" y2="177.6953"/><text fill="#000000" font-family="sans-serif" font-size="13" font-weight="bold" lengthAdjust="spacingAndGlyphs" textLength="9" x="60.5" y="172.6294">3</text><text fill="#000000" font-family="sans-serif" font-size="13" lengthAdjust="spacingAndGlyphs" textLength="137" x="73.5" y="172.6294">types requested data</text><polygon fill="#A80036" points="64.5,202.8281,54.5,206.8281,64.5,210.8281,60.5,206.8281" style="stroke:#A80036;stroke-width:1.0;"/><line style="stroke:#A80036;stroke-width:1.0;stroke-dasharray:2.0,2.0;" x1="58.5" x2="366.5" y1="206.8281" y2="206.8281"/><text fill="#000000" font-family="sans-serif" font-size="13" font-weight="bold" lengthAdjust="spacingAndGlyphs" textLength="9" x="70.5" y="201.7622">4</text><text fill="#000000" font-family="sans-serif" font-size="13" lengthAdjust="spacingAndGlyphs" textLength="269" x="83.5" y="201.7622">shows the data and requests confirmation</text><polygon fill="#A80036" points="355.5,231.9609,365.5,235.9609,355.5,239.9609,359.5,235.9609" style="stroke:#A80036;stroke-width:1.0;"/><line style="stroke:#A80036;stroke-width:1.0;" x1="53.5" x2="361.5" y1="235.9609" y2="235.9609"/><text fill="#000000" font-family="sans-serif" font-size="13" font-weight="bold" lengthAdjust="spacingAndGlyphs" textLength="9" x="60.5" y="230.895">5</text><text fill="#000000" font-family="sans-serif" font-size="13" lengthAdjust="spacingAndGlyphs" textLength="113" x="73.5" y="230.895">confirms the data</text><polygon fill="#A80036" points="64.5,261.0938,54.5,265.0938,64.5,269.0938,60.5,265.0938" style="stroke:#A80036;stroke-width:1.0;"/><line style="stroke:#A80036;stroke-width:1.0;stroke-dasharray:2.0,2.0;" x1="58.5" x2="366.5" y1="265.0938" y2="265.0938"/><text fill="#000000" font-family="sans-serif" font-size="13" font-weight="bold" lengthAdjust="spacingAndGlyphs" textLength="9" x="70.5" y="260.0278">6</text><text fill="#000000" font-family="sans-serif" font-size="13" lengthAdjust="spacingAndGlyphs" textLength="168" x="83.5" y="260.0278">informs operation success</text><!--MD5=[8bda4bcc49a56d8bdf8f7bb9c11c0bf3]
@startuml
autonumber
Actor Administrator

Administrator -> System: starts new parameter category
System - -> Administrator: requests data (i.e. code, description, nhsId)

Administrator -> System: types requested data
System - -> Administrator: shows the data and requests confirmation

Administrator -> System: confirms the data
System - -> Administrator: informs operation success
@enduml

PlantUML version 1.2020.22(Sun Dec 06 09:36:27 UTC 2020)
(GPL source distribution)
Java Runtime: OpenJDK Runtime Environment
JVM: OpenJDK 64-Bit Server VM
Default Encoding: UTF-8
Language: en
Country: US
--></g></svg>