<?xml version="1.0" encoding="UTF-8" standalone="no"?><svg xmlns="http://www.w3.org/2000/svg" xmlns:xlink="http://www.w3.org/1999/xlink" contentScriptType="application/ecmascript" contentStyleType="text/css" height="776px" preserveAspectRatio="none" style="width:936px;height:776px;" version="1.1" viewBox="0 0 936 776" width="936px" zoomAndPan="magnify"><defs><filter height="300%" id="f1rf51dpg3kf6y" width="300%" x="-1" y="-1"><feGaussianBlur result="blurOut" stdDeviation="2.0"/><feColorMatrix in="blurOut" result="blurOut2" type="matrix" values="0 0 0 0 0 0 0 0 0 0 0 0 0 0 0 0 0 0 .4 0"/><feOffset dx="4.0" dy="4.0" in="blurOut2" result="blurOut3"/><feBlend in="SourceGraphic" in2="blurOut3" mode="normal"/></filter></defs><g><!--MD5=[02e4b9b7573f1156f41e60aa5b4e25a4]
class Company--><rect codeLine="3" fill="#FEFECE" filter="url(#f1rf51dpg3kf6y)" height="73.6094" id="Company" style="stroke:#A80036;stroke-width:1.5;" width="110" x="391" y="318.5"/><ellipse cx="415.45" cy="334.5" fill="#ADD1B2" rx="11" ry="11" style="stroke:#A80036;stroke-width:1.0;"/><path d="M418.4188,340.1406 Q417.8406,340.4375 417.2,340.5781 Q416.5594,340.7344 415.8563,340.7344 Q413.3563,340.7344 412.0281,339.0938 Q410.7156,337.4375 410.7156,334.3125 Q410.7156,331.1875 412.0281,329.5313 Q413.3563,327.875 415.8563,327.875 Q416.5594,327.875 417.2,328.0313 Q417.8563,328.1875 418.4188,328.4844 L418.4188,331.2031 Q417.7938,330.625 417.2,330.3594 Q416.6063,330.0781 415.9813,330.0781 Q414.6375,330.0781 413.95,331.1563 Q413.2625,332.2188 413.2625,334.3125 Q413.2625,336.4063 413.95,337.4844 Q414.6375,338.5469 415.9813,338.5469 Q416.6063,338.5469 417.2,338.2813 Q417.7938,338 418.4188,337.4219 L418.4188,340.1406 Z " fill="#000000"/><text fill="#000000" font-family="sans-serif" font-size="12" lengthAdjust="spacingAndGlyphs" textLength="57" x="431.55" y="338.6543">Company</text><line style="stroke:#A80036;stroke-width:1.5;" x1="392" x2="500" y1="350.5" y2="350.5"/><text fill="#000000" font-family="sans-serif" font-size="11" lengthAdjust="spacingAndGlyphs" textLength="70" x="397" y="364.7104">-designation</text><line style="stroke:#A80036;stroke-width:1.5;" x1="392" x2="500" y1="371.3047" y2="371.3047"/><text fill="#000000" font-family="sans-serif" font-size="11" lengthAdjust="spacingAndGlyphs" textLength="98" x="397" y="385.5151">+getClientStore()</text><!--MD5=[ed6624c6556d5e7b1bd23032162d20b7]
class Client--><rect codeLine="9" fill="#FEFECE" filter="url(#f1rf51dpg3kf6y)" height="188.8516" id="Client" style="stroke:#A80036;stroke-width:1.5;" width="110" x="788" y="261"/><ellipse cx="822.35" cy="277" fill="#ADD1B2" rx="11" ry="11" style="stroke:#A80036;stroke-width:1.0;"/><path d="M825.3188,282.6406 Q824.7406,282.9375 824.1,283.0781 Q823.4594,283.2344 822.7563,283.2344 Q820.2563,283.2344 818.9281,281.5938 Q817.6156,279.9375 817.6156,276.8125 Q817.6156,273.6875 818.9281,272.0313 Q820.2563,270.375 822.7563,270.375 Q823.4594,270.375 824.1,270.5313 Q824.7563,270.6875 825.3188,270.9844 L825.3188,273.7031 Q824.6938,273.125 824.1,272.8594 Q823.5063,272.5781 822.8813,272.5781 Q821.5375,272.5781 820.85,273.6563 Q820.1625,274.7188 820.1625,276.8125 Q820.1625,278.9063 820.85,279.9844 Q821.5375,281.0469 822.8813,281.0469 Q823.5063,281.0469 824.1,280.7813 Q824.6938,280.5 825.3188,279.9219 L825.3188,282.6406 Z " fill="#000000"/><text fill="#000000" font-family="sans-serif" font-size="12" lengthAdjust="spacingAndGlyphs" textLength="35" x="840.65" y="281.1543">Client</text><line style="stroke:#A80036;stroke-width:1.5;" x1="789" x2="897" y1="293" y2="293"/><text fill="#000000" font-family="sans-serif" font-size="11" lengthAdjust="spacingAndGlyphs" textLength="36" x="794" y="307.2104">-name</text><text fill="#000000" font-family="sans-serif" font-size="11" lengthAdjust="spacingAndGlyphs" textLength="23" x="794" y="320.0151">-ccn</text><text fill="#000000" font-family="sans-serif" font-size="11" lengthAdjust="spacingAndGlyphs" textLength="70" x="794" y="332.8198">-nhsNumber</text><text fill="#000000" font-family="sans-serif" font-size="11" lengthAdjust="spacingAndGlyphs" textLength="56" x="794" y="345.6245">-birthDate</text><text fill="#000000" font-family="sans-serif" font-size="11" lengthAdjust="spacingAndGlyphs" textLength="24" x="794" y="358.4292">-sex</text><text fill="#000000" font-family="sans-serif" font-size="11" lengthAdjust="spacingAndGlyphs" textLength="22" x="794" y="371.2339">-TIN</text><text fill="#000000" font-family="sans-serif" font-size="11" lengthAdjust="spacingAndGlyphs" textLength="84" x="794" y="384.0386">-phoneNumber</text><text fill="#000000" font-family="sans-serif" font-size="11" lengthAdjust="spacingAndGlyphs" textLength="35" x="794" y="396.8433">-email</text><line style="stroke:#A80036;stroke-width:1.5;" x1="789" x2="897" y1="403.4375" y2="403.4375"/><text fill="#000000" font-family="sans-serif" font-size="11" lengthAdjust="spacingAndGlyphs" textLength="98" x="794" y="417.6479">+Client(clientDto)</text><text fill="#000000" font-family="sans-serif" font-size="11" lengthAdjust="spacingAndGlyphs" textLength="68" x="794" y="430.4526">+getName()</text><text fill="#000000" font-family="sans-serif" font-size="11" lengthAdjust="spacingAndGlyphs" textLength="66" x="794" y="443.2573">+getEmail()</text><!--MD5=[1a7fda4a36185bcd740bdf14b2b3a45e]
class RegisterClientController--><rect codeLine="24" fill="#FEFECE" filter="url(#f1rf51dpg3kf6y)" height="86.4141" id="RegisterClientController" style="stroke:#A80036;stroke-width:1.5;" width="180" x="645" y="115"/><ellipse cx="660" cy="131" fill="#ADD1B2" rx="11" ry="11" style="stroke:#A80036;stroke-width:1.0;"/><path d="M662.9688,136.6406 Q662.3906,136.9375 661.75,137.0781 Q661.1094,137.2344 660.4063,137.2344 Q657.9063,137.2344 656.5781,135.5938 Q655.2656,133.9375 655.2656,130.8125 Q655.2656,127.6875 656.5781,126.0313 Q657.9063,124.375 660.4063,124.375 Q661.1094,124.375 661.75,124.5313 Q662.4063,124.6875 662.9688,124.9844 L662.9688,127.7031 Q662.3438,127.125 661.75,126.8594 Q661.1563,126.5781 660.5313,126.5781 Q659.1875,126.5781 658.5,127.6563 Q657.8125,128.7188 657.8125,130.8125 Q657.8125,132.9063 658.5,133.9844 Q659.1875,135.0469 660.5313,135.0469 Q661.1563,135.0469 661.75,134.7813 Q662.3438,134.5 662.9688,133.9219 L662.9688,136.6406 Z " fill="#000000"/><text fill="#000000" font-family="sans-serif" font-size="12" lengthAdjust="spacingAndGlyphs" textLength="148" x="674" y="135.1543">RegisterClientController</text><line style="stroke:#A80036;stroke-width:1.5;" x1="646" x2="824" y1="147" y2="147"/><line style="stroke:#A80036;stroke-width:1.5;" x1="646" x2="824" y1="155" y2="155"/><text fill="#000000" font-family="sans-serif" font-size="11" lengthAdjust="spacingAndGlyphs" textLength="134" x="651" y="169.2104">+createClient(clientDto)</text><text fill="#000000" font-family="sans-serif" font-size="11" lengthAdjust="spacingAndGlyphs" textLength="79" x="651" y="182.0151">+showClient()</text><text fill="#000000" font-family="sans-serif" font-size="11" lengthAdjust="spacingAndGlyphs" textLength="70" x="651" y="194.8198">+addClient()</text><!--MD5=[55cb992be19579b505cea3c5691093cb]
class ClientStore--><rect codeLine="30" fill="#FEFECE" filter="url(#f1rf51dpg3kf6y)" height="112.0234" id="ClientStore" style="stroke:#A80036;stroke-width:1.5;" width="146" x="536" y="299.5"/><ellipse cx="571.25" cy="315.5" fill="#ADD1B2" rx="11" ry="11" style="stroke:#A80036;stroke-width:1.0;"/><path d="M574.2188,321.1406 Q573.6406,321.4375 573,321.5781 Q572.3594,321.7344 571.6563,321.7344 Q569.1563,321.7344 567.8281,320.0938 Q566.5156,318.4375 566.5156,315.3125 Q566.5156,312.1875 567.8281,310.5313 Q569.1563,308.875 571.6563,308.875 Q572.3594,308.875 573,309.0313 Q573.6563,309.1875 574.2188,309.4844 L574.2188,312.2031 Q573.5938,311.625 573,311.3594 Q572.4063,311.0781 571.7813,311.0781 Q570.4375,311.0781 569.75,312.1563 Q569.0625,313.2188 569.0625,315.3125 Q569.0625,317.4063 569.75,318.4844 Q570.4375,319.5469 571.7813,319.5469 Q572.4063,319.5469 573,319.2813 Q573.5938,319 574.2188,318.4219 L574.2188,321.1406 Z " fill="#000000"/><text fill="#000000" font-family="sans-serif" font-size="12" lengthAdjust="spacingAndGlyphs" textLength="69" x="589.75" y="319.6543">ClientStore</text><line style="stroke:#A80036;stroke-width:1.5;" x1="537" x2="681" y1="331.5" y2="331.5"/><line style="stroke:#A80036;stroke-width:1.5;" x1="537" x2="681" y1="339.5" y2="339.5"/><text fill="#000000" font-family="sans-serif" font-size="11" lengthAdjust="spacingAndGlyphs" textLength="134" x="542" y="353.7104">+createClient(clientDto)</text><text fill="#000000" font-family="sans-serif" font-size="11" lengthAdjust="spacingAndGlyphs" textLength="99" x="542" y="366.5151">+validateClient(c)</text><text fill="#000000" font-family="sans-serif" font-size="11" lengthAdjust="spacingAndGlyphs" textLength="85" x="542" y="379.3198">+showClient(c)</text><text fill="#000000" font-family="sans-serif" font-size="11" lengthAdjust="spacingAndGlyphs" textLength="76" x="542" y="392.1245">+addClient(c)</text><text fill="#000000" font-family="sans-serif" font-size="11" lengthAdjust="spacingAndGlyphs" textLength="95" x="542" y="404.9292">-registerClient(c)</text><!--MD5=[687b2867e958f9e5343032874922dbed]
class ClientDto--><rect codeLine="38" fill="#FEFECE" filter="url(#f1rf51dpg3kf6y)" height="252.875" id="ClientDto" style="stroke:#A80036;stroke-width:1.5;" width="127" x="785.5" y="510"/><ellipse cx="817.6" cy="526" fill="#ADD1B2" rx="11" ry="11" style="stroke:#A80036;stroke-width:1.0;"/><path d="M820.5688,531.6406 Q819.9906,531.9375 819.35,532.0781 Q818.7094,532.2344 818.0063,532.2344 Q815.5063,532.2344 814.1781,530.5938 Q812.8656,528.9375 812.8656,525.8125 Q812.8656,522.6875 814.1781,521.0313 Q815.5063,519.375 818.0063,519.375 Q818.7094,519.375 819.35,519.5313 Q820.0063,519.6875 820.5688,519.9844 L820.5688,522.7031 Q819.9438,522.125 819.35,521.8594 Q818.7563,521.5781 818.1313,521.5781 Q816.7875,521.5781 816.1,522.6563 Q815.4125,523.7188 815.4125,525.8125 Q815.4125,527.9063 816.1,528.9844 Q816.7875,530.0469 818.1313,530.0469 Q818.7563,530.0469 819.35,529.7813 Q819.9438,529.5 820.5688,528.9219 L820.5688,531.6406 Z " fill="#000000"/><text fill="#000000" font-family="sans-serif" font-size="12" lengthAdjust="spacingAndGlyphs" textLength="57" x="835.4" y="530.1543">ClientDto</text><line style="stroke:#A80036;stroke-width:1.5;" x1="786.5" x2="911.5" y1="542" y2="542"/><text fill="#000000" font-family="sans-serif" font-size="11" lengthAdjust="spacingAndGlyphs" textLength="36" x="791.5" y="556.2104">-name</text><text fill="#000000" font-family="sans-serif" font-size="11" lengthAdjust="spacingAndGlyphs" textLength="23" x="791.5" y="569.0151">-ccn</text><text fill="#000000" font-family="sans-serif" font-size="11" lengthAdjust="spacingAndGlyphs" textLength="70" x="791.5" y="581.8198">-nhsNumber</text><text fill="#000000" font-family="sans-serif" font-size="11" lengthAdjust="spacingAndGlyphs" textLength="56" x="791.5" y="594.6245">-birthDate</text><text fill="#000000" font-family="sans-serif" font-size="11" lengthAdjust="spacingAndGlyphs" textLength="24" x="791.5" y="607.4292">-sex</text><text fill="#000000" font-family="sans-serif" font-size="11" lengthAdjust="spacingAndGlyphs" textLength="22" x="791.5" y="620.2339">-TIN</text><text fill="#000000" font-family="sans-serif" font-size="11" lengthAdjust="spacingAndGlyphs" textLength="84" x="791.5" y="633.0386">-phoneNumber</text><text fill="#000000" font-family="sans-serif" font-size="11" lengthAdjust="spacingAndGlyphs" textLength="35" x="791.5" y="645.8433">-email</text><line style="stroke:#A80036;stroke-width:1.5;" x1="786.5" x2="911.5" y1="652.4375" y2="652.4375"/><text fill="#000000" font-family="sans-serif" font-size="11" lengthAdjust="spacingAndGlyphs" textLength="68" x="791.5" y="666.6479">+getName()</text><text fill="#000000" font-family="sans-serif" font-size="11" lengthAdjust="spacingAndGlyphs" textLength="56" x="791.5" y="679.4526">+getCcn()</text><text fill="#000000" font-family="sans-serif" font-size="11" lengthAdjust="spacingAndGlyphs" textLength="102" x="791.5" y="692.2573">+getNhsNumber()</text><text fill="#000000" font-family="sans-serif" font-size="11" lengthAdjust="spacingAndGlyphs" textLength="88" x="791.5" y="705.062">+getBirthDate()</text><text fill="#000000" font-family="sans-serif" font-size="11" lengthAdjust="spacingAndGlyphs" textLength="56" x="791.5" y="717.8667">+getSex()</text><text fill="#000000" font-family="sans-serif" font-size="11" lengthAdjust="spacingAndGlyphs" textLength="52" x="791.5" y="730.6714">+getTin()</text><text fill="#000000" font-family="sans-serif" font-size="11" lengthAdjust="spacingAndGlyphs" textLength="115" x="791.5" y="743.4761">+getPhoneNumber()</text><text fill="#000000" font-family="sans-serif" font-size="11" lengthAdjust="spacingAndGlyphs" textLength="66" x="791.5" y="756.2808">+getEmail()</text><!--MD5=[9a2889027d1a5f59ee05c53124f224f8]
class PasswordGenerator--><rect codeLine="58" fill="#FEFECE" filter="url(#f1rf51dpg3kf6y)" height="60.8047" id="PasswordGenerator" style="stroke:#A80036;stroke-width:1.5;" width="182" x="7" y="606"/><ellipse cx="33.7" cy="622" fill="#ADD1B2" rx="11" ry="11" style="stroke:#A80036;stroke-width:1.0;"/><path d="M36.6688,627.6406 Q36.0906,627.9375 35.45,628.0781 Q34.8094,628.2344 34.1063,628.2344 Q31.6063,628.2344 30.2781,626.5938 Q28.9656,624.9375 28.9656,621.8125 Q28.9656,618.6875 30.2781,617.0313 Q31.6063,615.375 34.1063,615.375 Q34.8094,615.375 35.45,615.5313 Q36.1063,615.6875 36.6688,615.9844 L36.6688,618.7031 Q36.0438,618.125 35.45,617.8594 Q34.8563,617.5781 34.2313,617.5781 Q32.8875,617.5781 32.2,618.6563 Q31.5125,619.7188 31.5125,621.8125 Q31.5125,623.9063 32.2,624.9844 Q32.8875,626.0469 34.2313,626.0469 Q34.8563,626.0469 35.45,625.7813 Q36.0438,625.5 36.6688,624.9219 L36.6688,627.6406 Z " fill="#000000"/><text fill="#000000" font-family="sans-serif" font-size="12" lengthAdjust="spacingAndGlyphs" textLength="124" x="50.3" y="626.1543">PasswordGenerator</text><line style="stroke:#A80036;stroke-width:1.5;" x1="8" x2="188" y1="638" y2="638"/><line style="stroke:#A80036;stroke-width:1.5;" x1="8" x2="188" y1="646" y2="646"/><text fill="#000000" font-family="sans-serif" font-size="11" lengthAdjust="spacingAndGlyphs" textLength="170" x="13" y="660.2104">+generateRandomPassword()</text><!--MD5=[6b9c87d147b597fd90aaec39e153c56a]
class EmailNotificationSender--><rect codeLine="62" fill="#FEFECE" filter="url(#f1rf51dpg3kf6y)" height="60.8047" id="EmailNotificationSender" style="stroke:#A80036;stroke-width:1.5;" width="208" x="224" y="606"/><ellipse cx="251.15" cy="622" fill="#ADD1B2" rx="11" ry="11" style="stroke:#A80036;stroke-width:1.0;"/><path d="M254.1188,627.6406 Q253.5406,627.9375 252.9,628.0781 Q252.2594,628.2344 251.5563,628.2344 Q249.0563,628.2344 247.7281,626.5938 Q246.4156,624.9375 246.4156,621.8125 Q246.4156,618.6875 247.7281,617.0313 Q249.0563,615.375 251.5563,615.375 Q252.2594,615.375 252.9,615.5313 Q253.5563,615.6875 254.1188,615.9844 L254.1188,618.7031 Q253.4938,618.125 252.9,617.8594 Q252.3063,617.5781 251.6813,617.5781 Q250.3375,617.5781 249.65,618.6563 Q248.9625,619.7188 248.9625,621.8125 Q248.9625,623.9063 249.65,624.9844 Q250.3375,626.0469 251.6813,626.0469 Q252.3063,626.0469 252.9,625.7813 Q253.4938,625.5 254.1188,624.9219 L254.1188,627.6406 Z " fill="#000000"/><text fill="#000000" font-family="sans-serif" font-size="12" lengthAdjust="spacingAndGlyphs" textLength="149" x="267.85" y="626.1543">EmailNotificationSender</text><line style="stroke:#A80036;stroke-width:1.5;" x1="225" x2="431" y1="638" y2="638"/><line style="stroke:#A80036;stroke-width:1.5;" x1="225" x2="431" y1="646" y2="646"/><text fill="#000000" font-family="sans-serif" font-size="11" lengthAdjust="spacingAndGlyphs" textLength="196" x="230" y="660.2104">+writePasswordToFile(email, pwd)</text><!--MD5=[8ae808d068a8995f06b9b3ec51357f0b]
class AuthFacade--><rect codeLine="66" fill="#FEFECE" filter="url(#f1rf51dpg3kf6y)" height="73.6094" id="AuthFacade" style="stroke:#A80036;stroke-width:1.5;" width="283" x="467.5" y="599.5"/><ellipse cx="567.25" cy="615.5" fill="#ADD1B2" rx="11" ry="11" style="stroke:#A80036;stroke-width:1.0;"/><path d="M570.2188,621.1406 Q569.6406,621.4375 569,621.5781 Q568.3594,621.7344 567.6563,621.7344 Q565.1563,621.7344 563.8281,620.0938 Q562.5156,618.4375 562.5156,615.3125 Q562.5156,612.1875 563.8281,610.5313 Q565.1563,608.875 567.6563,608.875 Q568.3594,608.875 569,609.0313 Q569.6563,609.1875 570.2188,609.4844 L570.2188,612.2031 Q569.5938,611.625 569,611.3594 Q568.4063,611.0781 567.7813,611.0781 Q566.4375,611.0781 565.75,612.1563 Q565.0625,613.2188 565.0625,615.3125 Q565.0625,617.4063 565.75,618.4844 Q566.4375,619.5469 567.7813,619.5469 Q568.4063,619.5469 569,619.2813 Q569.5938,619 570.2188,618.4219 L570.2188,621.1406 Z " fill="#000000"/><text fill="#000000" font-family="sans-serif" font-size="12" lengthAdjust="spacingAndGlyphs" textLength="75" x="587.75" y="619.6543">AuthFacade</text><line style="stroke:#A80036;stroke-width:1.5;" x1="468.5" x2="749.5" y1="631.5" y2="631.5"/><line style="stroke:#A80036;stroke-width:1.5;" x1="468.5" x2="749.5" y1="639.5" y2="639.5"/><text fill="#000000" font-family="sans-serif" font-size="11" lengthAdjust="spacingAndGlyphs" textLength="78" x="473.5" y="653.7104">+existsUser()</text><text fill="#000000" font-family="sans-serif" font-size="11" lengthAdjust="spacingAndGlyphs" textLength="271" x="473.5" y="666.5151">+addUserWithRole(name, email, pwd, "CLIENT")</text><!--MD5=[71152100d89f377ebd8dc97f1c2b0d02]
class RegisterClientUI--><rect fill="#FEFECE" filter="url(#f1rf51dpg3kf6y)" height="48" id="RegisterClientUI" style="stroke:#A80036;stroke-width:1.5;" width="131" x="777.5" y="7"/><ellipse cx="792.5" cy="23" fill="#ADD1B2" rx="11" ry="11" style="stroke:#A80036;stroke-width:1.0;"/><path d="M795.4688,28.6406 Q794.8906,28.9375 794.25,29.0781 Q793.6094,29.2344 792.9063,29.2344 Q790.4063,29.2344 789.0781,27.5938 Q787.7656,25.9375 787.7656,22.8125 Q787.7656,19.6875 789.0781,18.0313 Q790.4063,16.375 792.9063,16.375 Q793.6094,16.375 794.25,16.5313 Q794.9063,16.6875 795.4688,16.9844 L795.4688,19.7031 Q794.8438,19.125 794.25,18.8594 Q793.6563,18.5781 793.0313,18.5781 Q791.6875,18.5781 791,19.6563 Q790.3125,20.7188 790.3125,22.8125 Q790.3125,24.9063 791,25.9844 Q791.6875,27.0469 793.0313,27.0469 Q793.6563,27.0469 794.25,26.7813 Q794.8438,26.5 795.4688,25.9219 L795.4688,28.6406 Z " fill="#000000"/><text fill="#000000" font-family="sans-serif" font-size="12" lengthAdjust="spacingAndGlyphs" textLength="99" x="806.5" y="27.1543">RegisterClientUI</text><line style="stroke:#A80036;stroke-width:1.5;" x1="778.5" x2="907.5" y1="39" y2="39"/><line style="stroke:#A80036;stroke-width:1.5;" x1="778.5" x2="907.5" y1="47" y2="47"/><!--MD5=[473e8457e67812dc5a1d0a1d0ba84c01]
link RegisterClientUI to ClientDto--><path codeLine="71" d="M853.2954,55.2627 C870.2084,96.5818 903.1767,183.6551 915,261 C927.6931,344.0354 929.2169,367.2118 915,450 C911.9049,468.0235 907.2423,486.6173 901.798,504.7646 " fill="none" id="RegisterClientUI-to-ClientDto" style="stroke:#A80036;stroke-width:1.0;stroke-dasharray:7.0,7.0;"/><polygon fill="#A80036" points="900.2424,509.8704,906.6919,502.427,901.6997,505.0875,899.0392,500.0953,900.2424,509.8704" style="stroke:#A80036;stroke-width:1.0;"/><!--MD5=[198be3749d42ca56b2a20022cdc44bdd]
link RegisterClientController to Company--><path codeLine="72" d="M644.996,189.3812 C603.6479,206.5233 555.5707,230.5282 518,261 C499.8358,275.7321 483.637,295.9534 471.2261,313.911 " fill="none" id="RegisterClientController-to-Company" style="stroke:#A80036;stroke-width:1.0;stroke-dasharray:7.0,7.0;"/><polygon fill="#A80036" points="468.1536,318.423,476.5256,313.2355,470.9679,314.2902,469.9132,308.7326,468.1536,318.423" style="stroke:#A80036;stroke-width:1.0;"/><!--MD5=[69c3f71db636118ab704b44af4e3729e]
link RegisterClientController to ClientDto--><path codeLine="73" d="M736.396,201.2664 C739.1094,258.9065 747.031,363.6524 770,450 C774.7923,468.0157 780.9878,486.568 787.7997,504.6621 " fill="none" id="RegisterClientController-to-ClientDto" style="stroke:#A80036;stroke-width:1.0;stroke-dasharray:7.0,7.0;"/><polygon fill="#A80036" points="789.7368,509.7525,790.2744,499.9183,787.9585,505.0794,782.7974,502.7636,789.7368,509.7525" style="stroke:#A80036;stroke-width:1.0;"/><!--MD5=[a11230341c8e65219708844feaa40162]
link Company to ClientStore--><path codeLine="74" d="M501.0762,355.5 C510.8888,355.5 520.7015,355.5 530.5141,355.5 " fill="none" id="Company-to-ClientStore" style="stroke:#A80036;stroke-width:1.0;"/><polygon fill="#A80036" points="535.6455,355.5,526.6455,351.5,530.6455,355.5,526.6455,359.5,535.6455,355.5" style="stroke:#A80036;stroke-width:1.0;"/><!--MD5=[d7b4833b41cd7105a6e4e2821986b1d7]
link ClientStore to ClientDto--><path codeLine="75" d="M668.2089,411.7659 C709.6818,451.3926 759.2069,499.229 768,510 C772.7569,515.8268 777.4701,521.9465 782.0891,528.2191 " fill="none" id="ClientStore-to-ClientDto" style="stroke:#A80036;stroke-width:1.0;stroke-dasharray:7.0,7.0;"/><polygon fill="#A80036" points="785.2712,532.5843,783.2018,522.9553,782.3258,528.5439,776.7372,527.6679,785.2712,532.5843" style="stroke:#A80036;stroke-width:1.0;"/><!--MD5=[1d934105a045dbf126514c6917bd5072]
link ClientStore to Client--><path codeLine="76" d="M682.125,355.5 C715.5293,355.5 748.9337,355.5 782.338,355.5 " fill="none" id="ClientStore-to-Client" style="stroke:#A80036;stroke-width:1.0;"/><polygon fill="#A80036" points="787.6992,355.5,778.6992,351.5,782.6992,355.5,778.6992,359.5,787.6992,355.5" style="stroke:#A80036;stroke-width:1.0;"/><!--MD5=[97e4e73c3e1725a415143b4e60cdc700]
link ClientStore to PasswordGenerator--><path codeLine="77" d="M565.6273,411.8278 C551.8753,426.2878 535.6171,440.4414 518,450 C393.8847,517.3421 328.0444,438.9737 206,510 C168.1767,532.0121 137.2871,572.2934 118.3768,601.5001 " fill="none" id="ClientStore-to-PasswordGenerator" style="stroke:#A80036;stroke-width:1.0;stroke-dasharray:7.0,7.0;"/><polygon fill="#A80036" points="115.6743,605.7254,123.8934,600.2989,118.3684,601.5133,117.154,595.9883,115.6743,605.7254" style="stroke:#A80036;stroke-width:1.0;"/><!--MD5=[e583e17ee46d3b1d778ad87273809b4c]
link ClientStore to EmailNotificationSender--><path codeLine="78" d="M556.3263,411.7064 C543.9484,424.4902 530.6682,437.8719 518,450 C488.8862,477.8726 479.1243,482.1384 450,510 C418.374,540.2547 383.8855,576.3216 359.6721,602.188 " fill="none" id="ClientStore-to-EmailNotificationSender" style="stroke:#A80036;stroke-width:1.0;stroke-dasharray:7.0,7.0;"/><polygon fill="#A80036" points="356.1757,605.9284,365.2436,602.0849,359.59,602.2757,359.3993,596.622,356.1757,605.9284" style="stroke:#A80036;stroke-width:1.0;"/><!--MD5=[f8bd89e10615b5e5f22d4bd50c99347c]
link ClientStore to AuthFacade--><path codeLine="79" d="M609,411.6892 C609,465.4661 609,545.393 609,594.0444 " fill="none" id="ClientStore-to-AuthFacade" style="stroke:#A80036;stroke-width:1.0;stroke-dasharray:7.0,7.0;"/><polygon fill="#A80036" points="609,599.2352,613,590.2352,609,594.2352,605,590.2352,609,599.2352" style="stroke:#A80036;stroke-width:1.0;"/><!--MD5=[120038331a7bd148c1f741667ba33922]
link Client to ClientDto--><path codeLine="80" d="M845.023,450.242 C845.3961,467.7186 845.7919,486.2556 846.1836,504.5964 " fill="none" id="Client-to-ClientDto" style="stroke:#A80036;stroke-width:1.0;stroke-dasharray:7.0,7.0;"/><polygon fill="#A80036" points="846.2939,509.7632,850.1006,500.6798,846.187,504.7643,842.1025,500.8507,846.2939,509.7632" style="stroke:#A80036;stroke-width:1.0;"/><!--MD5=[d17ba2de69bcbdc84560ba08c091bb6c]
link RegisterClientController to ClientStore--><path codeLine="81" d="M707.3488,201.3422 C689.8111,228.8318 666.8699,264.7913 647.5562,295.0647 " fill="none" id="RegisterClientController-to-ClientStore" style="stroke:#A80036;stroke-width:1.0;stroke-dasharray:7.0,7.0;"/><polygon fill="#A80036" points="644.734,299.4884,652.9467,294.0522,647.4231,295.2731,646.2022,289.7496,644.734,299.4884" style="stroke:#A80036;stroke-width:1.0;"/><!--MD5=[ed103a8ea2b4d350bb3452ad82ebe4da]
link RegisterClientController to Client--><path codeLine="82" d="M758.7011,201.3422 C767.6487,217.7049 778.2374,237.0684 788.8345,256.4474 " fill="none" id="RegisterClientController-to-Client" style="stroke:#A80036;stroke-width:1.0;stroke-dasharray:7.0,7.0;"/><polygon fill="#A80036" points="791.2384,260.8433,790.4297,251.0277,788.8394,256.4564,783.4107,254.8661,791.2384,260.8433" style="stroke:#A80036;stroke-width:1.0;"/><!--MD5=[98d2d934d445daef8d5bcbeea20c1f70]
link RegisterClientUI to RegisterClientController--><path codeLine="83" d="M822.4318,55.1867 C809.1176,70.8432 791.333,91.7565 775.2807,110.6329 " fill="none" id="RegisterClientUI-to-RegisterClientController" style="stroke:#A80036;stroke-width:1.0;stroke-dasharray:7.0,7.0;"/><polygon fill="#A80036" points="771.671,114.8776,780.5486,110.6128,774.9101,111.0686,774.4542,105.4302,771.671,114.8776" style="stroke:#A80036;stroke-width:1.0;"/><!--MD5=[8d6348ecda01341f5e919655806e3ff7]
@startuml
skinparam classAttributeIconSize 0

class Company {
  -designation
  
  +getClientStore()
}

class Client {
  -name
  -ccn
  -nhsNumber
  -birthDate
  -sex
  -TIN
  -phoneNumber
  -email
  
  +Client(clientDto)
  +getName()
  +getEmail()
}

class RegisterClientController {
  +createClient(clientDto)
  +showClient()
  +addClient()
}

class ClientStore {
  +createClient(clientDto)
  +validateClient(c)
  +showClient(c)
  +addClient(c)
  -registerClient(c)
}

class ClientDto {
  -name
  -ccn
  -nhsNumber
  -birthDate
  -sex
  -TIN
  -phoneNumber
  -email
  
  +getName()
  +getCcn()
  +getNhsNumber()
  +getBirthDate()
  +getSex()
  +getTin()
  +getPhoneNumber()
  +getEmail()
}

class PasswordGenerator {
  +generateRandomPassword()
}

class EmailNotificationSender {
  +writePasswordToFile(email, pwd)
}

class AuthFacade {
  +existsUser()
  +addUserWithRole(name, email, pwd, "CLIENT")
}

RegisterClientUI ..> ClientDto
RegisterClientController ..> Company
RegisterClientController ..> ClientDto
Company -> ClientStore
ClientStore ..> ClientDto
ClientStore -> Client
ClientStore ..> PasswordGenerator
ClientStore ..> EmailNotificationSender
ClientStore ..> AuthFacade
Client ..> ClientDto
RegisterClientController ..> ClientStore
RegisterClientController ..> Client
RegisterClientUI ..> RegisterClientController
@enduml

PlantUML version 1.2020.22(Sun Dec 06 09:36:27 UTC 2020)
(GPL source distribution)
Java Runtime: OpenJDK Runtime Environment
JVM: OpenJDK 64-Bit Server VM
Default Encoding: UTF-8
Language: en
Country: US
--></g></svg>