<?xml version="1.0" encoding="UTF-8" standalone="no"?><svg xmlns="http://www.w3.org/2000/svg" xmlns:xlink="http://www.w3.org/1999/xlink" contentScriptType="application/ecmascript" contentStyleType="text/css" height="367px" preserveAspectRatio="none" style="width:678px;height:367px;" version="1.1" viewBox="0 0 678 367" width="678px" zoomAndPan="magnify"><defs><filter height="300%" id="fbsucgm7i7ysg" width="300%" x="-1" y="-1"><feGaussianBlur result="blurOut" stdDeviation="2.0"/><feColorMatrix in="blurOut" result="blurOut2" type="matrix" values="0 0 0 0 0 0 0 0 0 0 0 0 0 0 0 0 0 0 .4 0"/><feOffset dx="4.0" dy="4.0" in="blurOut2" result="blurOut3"/><feBlend in="SourceGraphic" in2="blurOut3" mode="normal"/></filter></defs><g><line style="stroke:#A80036;stroke-width:1.0;stroke-dasharray:5.0,5.0;" x1="51" x2="51" y1="88.2969" y2="283.0938"/><line style="stroke:#A80036;stroke-width:1.0;stroke-dasharray:5.0,5.0;" x1="633" x2="633" y1="88.2969" y2="283.0938"/><text fill="#000000" font-family="sans-serif" font-size="14" lengthAdjust="spacingAndGlyphs" textLength="87" x="5" y="84.9951">Receptionist</text><ellipse cx="51.5" cy="15" fill="#FEFECE" filter="url(#fbsucgm7i7ysg)" rx="8" ry="8" style="stroke:#A80036;stroke-width:2.0;"/><path d="M51.5,23 L51.5,50 M38.5,31 L64.5,31 M51.5,50 L38.5,65 M51.5,50 L64.5,65 " fill="none" filter="url(#fbsucgm7i7ysg)" style="stroke:#A80036;stroke-width:2.0;"/><text fill="#000000" font-family="sans-serif" font-size="14" lengthAdjust="spacingAndGlyphs" textLength="87" x="5" y="295.0889">Receptionist</text><ellipse cx="51.5" cy="308.3906" fill="#FEFECE" filter="url(#fbsucgm7i7ysg)" rx="8" ry="8" style="stroke:#A80036;stroke-width:2.0;"/><path d="M51.5,316.3906 L51.5,343.3906 M38.5,324.3906 L64.5,324.3906 M51.5,343.3906 L38.5,358.3906 M51.5,343.3906 L64.5,358.3906 " fill="none" filter="url(#fbsucgm7i7ysg)" style="stroke:#A80036;stroke-width:2.0;"/><rect fill="#FEFECE" filter="url(#fbsucgm7i7ysg)" height="30.2969" style="stroke:#A80036;stroke-width:1.5;" width="65" x="599" y="53"/><text fill="#000000" font-family="sans-serif" font-size="14" lengthAdjust="spacingAndGlyphs" textLength="51" x="606" y="72.9951">System</text><rect fill="#FEFECE" filter="url(#fbsucgm7i7ysg)" height="30.2969" style="stroke:#A80036;stroke-width:1.5;" width="65" x="599" y="282.0938"/><text fill="#000000" font-family="sans-serif" font-size="14" lengthAdjust="spacingAndGlyphs" textLength="51" x="606" y="302.0889">System</text><polygon fill="#A80036" points="621.5,115.4297,631.5,119.4297,621.5,123.4297,625.5,119.4297" style="stroke:#A80036;stroke-width:1.0;"/><line style="stroke:#A80036;stroke-width:1.0;" x1="51.5" x2="627.5" y1="119.4297" y2="119.4297"/><text fill="#000000" font-family="sans-serif" font-size="13" font-weight="bold" lengthAdjust="spacingAndGlyphs" textLength="9" x="58.5" y="114.3638">1</text><text fill="#000000" font-family="sans-serif" font-size="13" lengthAdjust="spacingAndGlyphs" textLength="104" x="71.5" y="114.3638">starts new client</text><polygon fill="#A80036" points="62.5,144.5625,52.5,148.5625,62.5,152.5625,58.5,148.5625" style="stroke:#A80036;stroke-width:1.0;"/><line style="stroke:#A80036;stroke-width:1.0;stroke-dasharray:2.0,2.0;" x1="56.5" x2="632.5" y1="148.5625" y2="148.5625"/><text fill="#000000" font-family="sans-serif" font-size="13" font-weight="bold" lengthAdjust="spacingAndGlyphs" textLength="9" x="68.5" y="143.4966">2</text><text fill="#000000" font-family="sans-serif" font-size="13" lengthAdjust="spacingAndGlyphs" textLength="545" x="81.5" y="143.4966">requests data (i.e. ccn, nhsNumber, birthDate, sex, TIN, phoneNumber, email, name)</text><polygon fill="#A80036" points="621.5,173.6953,631.5,177.6953,621.5,181.6953,625.5,177.6953" style="stroke:#A80036;stroke-width:1.0;"/><line style="stroke:#A80036;stroke-width:1.0;" x1="51.5" x2="627.5" y1="177.6953" y2="177.6953"/><text fill="#000000" font-family="sans-serif" font-size="13" font-weight="bold" lengthAdjust="spacingAndGlyphs" textLength="9" x="58.5" y="172.6294">3</text><text fill="#000000" font-family="sans-serif" font-size="13" lengthAdjust="spacingAndGlyphs" textLength="137" x="71.5" y="172.6294">types requested data</text><polygon fill="#A80036" points="62.5,202.8281,52.5,206.8281,62.5,210.8281,58.5,206.8281" style="stroke:#A80036;stroke-width:1.0;"/><line style="stroke:#A80036;stroke-width:1.0;stroke-dasharray:2.0,2.0;" x1="56.5" x2="632.5" y1="206.8281" y2="206.8281"/><text fill="#000000" font-family="sans-serif" font-size="13" font-weight="bold" lengthAdjust="spacingAndGlyphs" textLength="9" x="68.5" y="201.7622">4</text><text fill="#000000" font-family="sans-serif" font-size="13" lengthAdjust="spacingAndGlyphs" textLength="269" x="81.5" y="201.7622">shows the data and requests confirmation</text><polygon fill="#A80036" points="621.5,231.9609,631.5,235.9609,621.5,239.9609,625.5,235.9609" style="stroke:#A80036;stroke-width:1.0;"/><line style="stroke:#A80036;stroke-width:1.0;" x1="51.5" x2="627.5" y1="235.9609" y2="235.9609"/><text fill="#000000" font-family="sans-serif" font-size="13" font-weight="bold" lengthAdjust="spacingAndGlyphs" textLength="9" x="58.5" y="230.895">5</text><text fill="#000000" font-family="sans-serif" font-size="13" lengthAdjust="spacingAndGlyphs" textLength="113" x="71.5" y="230.895">confirms the data</text><polygon fill="#A80036" points="62.5,261.0938,52.5,265.0938,62.5,269.0938,58.5,265.0938" style="stroke:#A80036;stroke-width:1.0;"/><line style="stroke:#A80036;stroke-width:1.0;stroke-dasharray:2.0,2.0;" x1="56.5" x2="632.5" y1="265.0938" y2="265.0938"/><text fill="#000000" font-family="sans-serif" font-size="13" font-weight="bold" lengthAdjust="spacingAndGlyphs" textLength="9" x="68.5" y="260.0278">6</text><text fill="#000000" font-family="sans-serif" font-size="13" lengthAdjust="spacingAndGlyphs" textLength="168" x="81.5" y="260.0278">informs operation success</text><!--MD5=[f2e963826a8c3878b0a5e257faab722b]
@startuml
autonumber

Actor Receptionist

Receptionist -> System: starts new client
System - -> Receptionist: requests data (i.e. ccn, nhsNumber, birthDate, sex, TIN, phoneNumber, email, name)

Receptionist -> System: types requested data
System - -> Receptionist: shows the data and requests confirmation

Receptionist -> System: confirms the data
System - -> Receptionist: informs operation success
@enduml

PlantUML version 1.2020.22(Sun Dec 06 09:36:27 UTC 2020)
(GPL source distribution)
Java Runtime: OpenJDK Runtime Environment
JVM: OpenJDK 64-Bit Server VM
Default Encoding: UTF-8
Language: en
Country: US
--></g></svg>