<?xml version="1.0" encoding="UTF-8" standalone="no"?><svg xmlns="http://www.w3.org/2000/svg" xmlns:xlink="http://www.w3.org/1999/xlink" contentScriptType="application/ecmascript" contentStyleType="text/css" height="210px" preserveAspectRatio="none" style="width:677px;height:210px;" version="1.1" viewBox="0 0 677 210" width="677px" zoomAndPan="magnify"><defs><filter height="300%" id="f1xuxyfq1xms65" width="300%" x="-1" y="-1"><feGaussianBlur result="blurOut" stdDeviation="2.0"/><feColorMatrix in="blurOut" result="blurOut2" type="matrix" values="0 0 0 0 0 0 0 0 0 0 0 0 0 0 0 0 0 0 .4 0"/><feOffset dx="4.0" dy="4.0" in="blurOut2" result="blurOut3"/><feBlend in="SourceGraphic" in2="blurOut3" mode="normal"/></filter></defs><g><!--MD5=[3fd616f346a44cd59a91eb10b19e157c]
class User--><rect codeLine="4" fill="#FEFECE" filter="url(#f1xuxyfq1xms65)" height="78.4141" id="User" style="stroke:#A80036;stroke-width:1.5;" width="72" x="591.5" y="85.5659"/><ellipse cx="611.45" cy="101.5659" fill="#ADD1B2" rx="11" ry="11" style="stroke:#A80036;stroke-width:1.0;"/><path d="M614.4188,107.2065 Q613.8406,107.5034 613.2,107.644 Q612.5594,107.8003 611.8563,107.8003 Q609.3563,107.8003 608.0281,106.1597 Q606.7156,104.5034 606.7156,101.3784 Q606.7156,98.2534 608.0281,96.5972 Q609.3563,94.9409 611.8563,94.9409 Q612.5594,94.9409 613.2,95.0972 Q613.8563,95.2534 614.4188,95.5503 L614.4188,98.269 Q613.7938,97.6909 613.2,97.4253 Q612.6063,97.144 611.9813,97.144 Q610.6375,97.144 609.95,98.2222 Q609.2625,99.2847 609.2625,101.3784 Q609.2625,103.4722 609.95,104.5503 Q610.6375,105.6128 611.9813,105.6128 Q612.6063,105.6128 613.2,105.3472 Q613.7938,105.0659 614.4188,104.4878 L614.4188,107.2065 Z " fill="#000000"/><text fill="#000000" font-family="sans-serif" font-size="12" lengthAdjust="spacingAndGlyphs" textLength="29" x="626.55" y="105.7202">User</text><line style="stroke:#A80036;stroke-width:1.5;" x1="592.5" x2="662.5" y1="117.5659" y2="117.5659"/><text fill="#000000" font-family="sans-serif" font-size="11" lengthAdjust="spacingAndGlyphs" textLength="36" x="597.5" y="131.7764">-name</text><text fill="#000000" font-family="sans-serif" font-size="11" lengthAdjust="spacingAndGlyphs" textLength="35" x="597.5" y="144.5811">-email</text><text fill="#000000" font-family="sans-serif" font-size="11" lengthAdjust="spacingAndGlyphs" textLength="60" x="597.5" y="157.3857">-password</text><!--MD5=[ed6624c6556d5e7b1bd23032162d20b7]
class Client--><rect codeLine="10" fill="#FEFECE" filter="url(#f1xuxyfq1xms65)" height="142.4375" id="Client" style="stroke:#A80036;stroke-width:1.5;" width="96" x="384.5" y="53.5659"/><ellipse cx="412.55" cy="69.5659" fill="#ADD1B2" rx="11" ry="11" style="stroke:#A80036;stroke-width:1.0;"/><path d="M415.5188,75.2065 Q414.9406,75.5034 414.3,75.644 Q413.6594,75.8003 412.9563,75.8003 Q410.4563,75.8003 409.1281,74.1597 Q407.8156,72.5034 407.8156,69.3784 Q407.8156,66.2534 409.1281,64.5972 Q410.4563,62.9409 412.9563,62.9409 Q413.6594,62.9409 414.3,63.0972 Q414.9563,63.2534 415.5188,63.5503 L415.5188,66.269 Q414.8938,65.6909 414.3,65.4253 Q413.7063,65.144 413.0813,65.144 Q411.7375,65.144 411.05,66.2222 Q410.3625,67.2847 410.3625,69.3784 Q410.3625,71.4722 411.05,72.5503 Q411.7375,73.6128 413.0813,73.6128 Q413.7063,73.6128 414.3,73.3472 Q414.8938,73.0659 415.5188,72.4878 L415.5188,75.2065 Z " fill="#000000"/><text fill="#000000" font-family="sans-serif" font-size="12" lengthAdjust="spacingAndGlyphs" textLength="35" x="429.45" y="73.7202">Client</text><line style="stroke:#A80036;stroke-width:1.5;" x1="385.5" x2="479.5" y1="85.5659" y2="85.5659"/><text fill="#000000" font-family="sans-serif" font-size="11" lengthAdjust="spacingAndGlyphs" textLength="36" x="390.5" y="99.7764">-name</text><text fill="#000000" font-family="sans-serif" font-size="11" lengthAdjust="spacingAndGlyphs" textLength="23" x="390.5" y="112.5811">-ccn</text><text fill="#000000" font-family="sans-serif" font-size="11" lengthAdjust="spacingAndGlyphs" textLength="70" x="390.5" y="125.3857">-nhsNumber</text><text fill="#000000" font-family="sans-serif" font-size="11" lengthAdjust="spacingAndGlyphs" textLength="18" x="390.5" y="138.1904">-tin</text><text fill="#000000" font-family="sans-serif" font-size="11" lengthAdjust="spacingAndGlyphs" textLength="56" x="390.5" y="150.9951">-birthDate</text><text fill="#000000" font-family="sans-serif" font-size="11" lengthAdjust="spacingAndGlyphs" textLength="24" x="390.5" y="163.7998">-sex</text><text fill="#000000" font-family="sans-serif" font-size="11" lengthAdjust="spacingAndGlyphs" textLength="84" x="390.5" y="176.6045">-phoneNumber</text><text fill="#000000" font-family="sans-serif" font-size="11" lengthAdjust="spacingAndGlyphs" textLength="35" x="390.5" y="189.4092">-email</text><!--MD5=[03960189e81aa2c066c762ffabbee709]
class Receptionist--><rect codeLine="21" fill="#FEFECE" filter="url(#f1xuxyfq1xms65)" height="40" id="Receptionist" style="stroke:#A80036;stroke-width:1.5;" width="110" x="168.5" y="104.5659"/><ellipse cx="183.5" cy="120.5659" fill="#ADD1B2" rx="11" ry="11" style="stroke:#A80036;stroke-width:1.0;"/><path d="M186.4688,126.2065 Q185.8906,126.5034 185.25,126.644 Q184.6094,126.8003 183.9063,126.8003 Q181.4063,126.8003 180.0781,125.1597 Q178.7656,123.5034 178.7656,120.3784 Q178.7656,117.2534 180.0781,115.5972 Q181.4063,113.9409 183.9063,113.9409 Q184.6094,113.9409 185.25,114.0972 Q185.9063,114.2534 186.4688,114.5503 L186.4688,117.269 Q185.8438,116.6909 185.25,116.4253 Q184.6563,116.144 184.0313,116.144 Q182.6875,116.144 182,117.2222 Q181.3125,118.2847 181.3125,120.3784 Q181.3125,122.4722 182,123.5503 Q182.6875,124.6128 184.0313,124.6128 Q184.6563,124.6128 185.25,124.3472 Q185.8438,124.0659 186.4688,123.4878 L186.4688,126.2065 Z " fill="#000000"/><text fill="#000000" font-family="sans-serif" font-size="12" lengthAdjust="spacingAndGlyphs" textLength="78" x="197.5" y="124.7202">Receptionist</text><line style="stroke:#A80036;stroke-width:1.5;" x1="169.5" x2="277.5" y1="136.5659" y2="136.5659"/><!--MD5=[02e4b9b7573f1156f41e60aa5b4e25a4]
class Company--><rect codeLine="25" fill="#FEFECE" filter="url(#f1xuxyfq1xms65)" height="52.8047" id="Company" style="stroke:#A80036;stroke-width:1.5;" width="89" x="7" y="98.0659"/><ellipse cx="22" cy="114.0659" fill="#ADD1B2" rx="11" ry="11" style="stroke:#A80036;stroke-width:1.0;"/><path d="M24.9688,119.7065 Q24.3906,120.0034 23.75,120.144 Q23.1094,120.3003 22.4063,120.3003 Q19.9063,120.3003 18.5781,118.6597 Q17.2656,117.0034 17.2656,113.8784 Q17.2656,110.7534 18.5781,109.0972 Q19.9063,107.4409 22.4063,107.4409 Q23.1094,107.4409 23.75,107.5972 Q24.4063,107.7534 24.9688,108.0503 L24.9688,110.769 Q24.3438,110.1909 23.75,109.9253 Q23.1563,109.644 22.5313,109.644 Q21.1875,109.644 20.5,110.7222 Q19.8125,111.7847 19.8125,113.8784 Q19.8125,115.9722 20.5,117.0503 Q21.1875,118.1128 22.5313,118.1128 Q23.1563,118.1128 23.75,117.8472 Q24.3438,117.5659 24.9688,116.9878 L24.9688,119.7065 Z " fill="#000000"/><text fill="#000000" font-family="sans-serif" font-size="12" lengthAdjust="spacingAndGlyphs" textLength="57" x="36" y="118.2202">Company</text><line style="stroke:#A80036;stroke-width:1.5;" x1="8" x2="95" y1="130.0659" y2="130.0659"/><text fill="#000000" font-family="sans-serif" font-size="11" lengthAdjust="spacingAndGlyphs" textLength="70" x="13" y="144.2764">-designation</text><!--MD5=[6eee883fdf517d3604e8bd0f2058e9aa]
link Company to Client--><path codeLine="29" d="M77.6819,97.8675 C115.7733,62.3746 189.4748,6.1439 258.5,24.5659 C304.4507,36.8296 350.8685,64.4458 384.1912,87.5558 " fill="none" id="Company-Client" style="stroke:#A80036;stroke-width:1.0;"/><polygon fill="#000000" points="230.4972,14.9642,221.3584,12.3311,221.556,18.2056,230.4972,14.9642" style="stroke:#000000;stroke-width:1.0;"/><text fill="#000000" font-family="sans-serif" font-size="13" lengthAdjust="spacingAndGlyphs" textLength="23" x="234.5" y="19.6328">has</text><text fill="#000000" font-family="sans-serif" font-size="13" lengthAdjust="spacingAndGlyphs" textLength="8" x="74.8115" y="87.064">1</text><text fill="#000000" font-family="sans-serif" font-size="13" lengthAdjust="spacingAndGlyphs" textLength="23" x="353.5282" y="78.9003">0..*</text><!--MD5=[5448e79142bdfcbfebd9929e0faf45a6]
link Company to Receptionist--><path codeLine="30" d="M96.242,124.5659 C118.2396,124.5659 144.957,124.5659 168.2212,124.5659 " fill="none" id="Company-Receptionist" style="stroke:#A80036;stroke-width:1.0;"/><polygon fill="#000000" points="123.25,113.1323,114.2049,110.1934,114.2049,116.0713,123.25,113.1323" style="stroke:#000000;stroke-width:1.0;"/><text fill="#000000" font-family="sans-serif" font-size="13" lengthAdjust="spacingAndGlyphs" textLength="23" x="127.25" y="117.6328">has</text><text fill="#000000" font-family="sans-serif" font-size="13" lengthAdjust="spacingAndGlyphs" textLength="8" x="104.0103" y="120.4636">1</text><text fill="#000000" font-family="sans-serif" font-size="13" lengthAdjust="spacingAndGlyphs" textLength="23" x="137.4999" y="137.5077">0..*</text><!--MD5=[9a8dc34b38f85b9f3fcdb440f4bffc6a]
link Client to User--><path codeLine="31" d="M480.7023,124.5659 C514.9884,124.5659 560.3117,124.5659 591.4783,124.5659 " fill="none" id="Client-User" style="stroke:#A80036;stroke-width:1.0;"/><polygon fill="#000000" points="508,113.1323,498.9549,110.1934,498.9549,116.0713,508,113.1323" style="stroke:#000000;stroke-width:1.0;"/><text fill="#000000" font-family="sans-serif" font-size="13" lengthAdjust="spacingAndGlyphs" textLength="61" x="512" y="117.6328">relates to</text><text fill="#000000" font-family="sans-serif" font-size="13" lengthAdjust="spacingAndGlyphs" textLength="24" x="488.4157" y="137.5742">0..1</text><text fill="#000000" font-family="sans-serif" font-size="13" lengthAdjust="spacingAndGlyphs" textLength="8" x="575.599" y="120.1286">1</text><!--MD5=[6a35157f4c730bda767e7c9f1b8b7f73]
link Receptionist to Client--><path codeLine="32" d="M278.6857,124.5659 C311.581,124.5659 352.9355,124.5659 384.4774,124.5659 " fill="none" id="Receptionist-Client" style="stroke:#A80036;stroke-width:1.0;"/><polygon fill="#000000" points="306,113.1323,296.9549,110.1934,296.9549,116.0713,306,113.1323" style="stroke:#000000;stroke-width:1.0;"/><text fill="#000000" font-family="sans-serif" font-size="13" lengthAdjust="spacingAndGlyphs" textLength="56" x="310" y="117.6328">registers</text><text fill="#000000" font-family="sans-serif" font-size="13" lengthAdjust="spacingAndGlyphs" textLength="8" x="286.6388" y="120.6339">1</text><text fill="#000000" font-family="sans-serif" font-size="13" lengthAdjust="spacingAndGlyphs" textLength="23" x="353.4791" y="137.6202">1..*</text><!--MD5=[05192ec988c2c26f3581a44f251e73e7]
@startuml
skinparam classAttributeIconSize 0
hide empty methods

class User {
  -name
  -email
  -password
}

class Client {
  -name
  -ccn
  -nhsNumber
  -tin
  -birthDate
  -sex
  -phoneNumber
  -email
}

class Receptionist {
}


class Company {
  -designation
}

Company "1" - "0..*" Client : has >
Company "1" - "0..*" Receptionist : has >
Client "0..1" - "1" User : relates to >
Receptionist "1" - "1..*" Client : registers >
@enduml

PlantUML version 1.2020.22(Sun Dec 06 09:36:27 UTC 2020)
(GPL source distribution)
Java Runtime: OpenJDK Runtime Environment
JVM: OpenJDK 64-Bit Server VM
Default Encoding: UTF-8
Language: en
Country: US
--></g></svg>