<?xml version="1.0" encoding="UTF-8" standalone="no"?><svg xmlns="http://www.w3.org/2000/svg" xmlns:xlink="http://www.w3.org/1999/xlink" contentScriptType="application/ecmascript" contentStyleType="text/css" height="662px" preserveAspectRatio="none" style="width:905px;height:662px;" version="1.1" viewBox="0 0 905 662" width="905px" zoomAndPan="magnify"><defs><filter height="300%" id="f1mb3npp9uifkt" width="300%" x="-1" y="-1"><feGaussianBlur result="blurOut" stdDeviation="2.0"/><feColorMatrix in="blurOut" result="blurOut2" type="matrix" values="0 0 0 0 0 0 0 0 0 0 0 0 0 0 0 0 0 0 .4 0"/><feOffset dx="4.0" dy="4.0" in="blurOut2" result="blurOut3"/><feBlend in="SourceGraphic" in2="blurOut3" mode="normal"/></filter></defs><g><!--MD5=[9681dc6e01e10c6b4fe06895ae94f592]
cluster UI--><polygon fill="#FFFFFF" filter="url(#f1mb3npp9uifkt)" points="126,6,147,6,154,28.2969,402,28.2969,402,210,126,210,126,6" style="stroke:#000000;stroke-width:1.5;"/><line style="stroke:#000000;stroke-width:1.5;" x1="126" x2="154" y1="28.2969" y2="28.2969"/><text fill="#000000" font-family="sans-serif" font-size="14" font-weight="bold" lengthAdjust="spacingAndGlyphs" textLength="15" x="130" y="20.9951">UI</text><!--MD5=[1f2cfc53d9d308f53762fd0fcbaa4873]
cluster Controller--><polygon fill="#FFFFFF" filter="url(#f1mb3npp9uifkt)" points="421,114,506,114,513,136.2969,643,136.2969,643,210,421,210,421,114" style="stroke:#000000;stroke-width:1.5;"/><line style="stroke:#000000;stroke-width:1.5;" x1="421" x2="513" y1="136.2969" y2="136.2969"/><text fill="#000000" font-family="sans-serif" font-size="14" font-weight="bold" lengthAdjust="spacingAndGlyphs" textLength="79" x="425" y="128.9951">Controller</text><!--MD5=[121a8bf1197281ab89ed693fab589f94]
cluster Domain--><polygon fill="#FFFFFF" filter="url(#f1mb3npp9uifkt)" points="16,486,80,486,87,508.2969,888,508.2969,888,655,16,655,16,486" style="stroke:#000000;stroke-width:1.5;"/><line style="stroke:#000000;stroke-width:1.5;" x1="16" x2="87" y1="508.2969" y2="508.2969"/><text fill="#000000" font-family="sans-serif" font-size="14" font-weight="bold" lengthAdjust="spacingAndGlyphs" textLength="58" x="20" y="500.9951">Domain</text><!--MD5=[15636c1ca4a123c16a2a1a8e90aca7a9]
cluster Model--><polygon fill="#FFFFFF" filter="url(#f1mb3npp9uifkt)" points="411,513,464,513,471,535.2969,880,535.2969,880,647,411,647,411,513" style="stroke:#000000;stroke-width:1.5;"/><line style="stroke:#000000;stroke-width:1.5;" x1="411" x2="471" y1="535.2969" y2="535.2969"/><text fill="#000000" font-family="sans-serif" font-size="14" font-weight="bold" lengthAdjust="spacingAndGlyphs" textLength="47" x="415" y="527.9951">Model</text><!--MD5=[8dd535d56cd4cf7faf64fdd082ba836e]
cluster Stores--><polygon fill="#FFFFFF" filter="url(#f1mb3npp9uifkt)" points="24,525.5,82,525.5,89,547.7969,392,547.7969,392,634.5,24,634.5,24,525.5" style="stroke:#000000;stroke-width:1.5;"/><line style="stroke:#000000;stroke-width:1.5;" x1="24" x2="89" y1="547.7969" y2="547.7969"/><text fill="#000000" font-family="sans-serif" font-size="14" font-weight="bold" lengthAdjust="spacingAndGlyphs" textLength="52" x="28" y="540.4951">Stores</text><!--MD5=[32ff0bc6350c7c18bc045f793eb2f657]
cluster Mapper--><polygon fill="#FFFFFF" filter="url(#f1mb3npp9uifkt)" points="635,369,700,369,707,391.2969,869,391.2969,869,478,635,478,635,369" style="stroke:#000000;stroke-width:1.5;"/><line style="stroke:#000000;stroke-width:1.5;" x1="635" x2="707" y1="391.2969" y2="391.2969"/><text fill="#000000" font-family="sans-serif" font-size="14" font-weight="bold" lengthAdjust="spacingAndGlyphs" textLength="59" x="639" y="383.9951">Mapper</text><!--MD5=[7b8bc9ee8bb84b99fb3a3f9477c19238]
cluster DTO--><polygon fill="#FFFFFF" filter="url(#f1mb3npp9uifkt)" points="606,235,645,235,652,257.2969,860,257.2969,860,344,606,344,606,235" style="stroke:#000000;stroke-width:1.5;"/><line style="stroke:#000000;stroke-width:1.5;" x1="606" x2="652" y1="257.2969" y2="257.2969"/><text fill="#000000" font-family="sans-serif" font-size="14" font-weight="bold" lengthAdjust="spacingAndGlyphs" textLength="33" x="610" y="249.9951">DTO</text><!--MD5=[d77386df0ab152061918b4652af9ba57]
class RegisterTestUI--><rect codeLine="5" fill="#FEFECE" filter="url(#f1mb3npp9uifkt)" height="60.8047" id="RegisterTestUI" style="stroke:#A80036;stroke-width:1.5;" width="259" x="134.5" y="141"/><ellipse cx="214.25" cy="157" fill="#ADD1B2" rx="11" ry="11" style="stroke:#A80036;stroke-width:1.0;"/><path d="M217.2188,162.6406 Q216.6406,162.9375 216,163.0781 Q215.3594,163.2344 214.6563,163.2344 Q212.1563,163.2344 210.8281,161.5938 Q209.5156,159.9375 209.5156,156.8125 Q209.5156,153.6875 210.8281,152.0313 Q212.1563,150.375 214.6563,150.375 Q215.3594,150.375 216,150.5313 Q216.6563,150.6875 217.2188,150.9844 L217.2188,153.7031 Q216.5938,153.125 216,152.8594 Q215.4063,152.5781 214.7813,152.5781 Q213.4375,152.5781 212.75,153.6563 Q212.0625,154.7188 212.0625,156.8125 Q212.0625,158.9063 212.75,159.9844 Q213.4375,161.0469 214.7813,161.0469 Q215.4063,161.0469 216,160.7813 Q216.5938,160.5 217.2188,159.9219 L217.2188,162.6406 Z " fill="#000000"/><text fill="#000000" font-family="sans-serif" font-size="12" lengthAdjust="spacingAndGlyphs" textLength="91" x="234.75" y="161.1543">RegisterTestUI</text><line style="stroke:#A80036;stroke-width:1.5;" x1="135.5" x2="392.5" y1="173" y2="173"/><line style="stroke:#A80036;stroke-width:1.5;" x1="135.5" x2="392.5" y1="181" y2="181"/><text fill="#000000" font-family="sans-serif" font-size="11" lengthAdjust="spacingAndGlyphs" textLength="247" x="140.5" y="195.2104">RegisterTestUI(clinicalAnalysisLaboratoryId)</text><!--MD5=[91012a2032740e46788958c8ec68e4dc]
class ReceptionistUI--><rect codeLine="9" fill="#FEFECE" filter="url(#f1mb3npp9uifkt)" height="48" id="ReceptionistUI" style="stroke:#A80036;stroke-width:1.5;" width="122" x="237" y="33"/><ellipse cx="252" cy="49" fill="#ADD1B2" rx="11" ry="11" style="stroke:#A80036;stroke-width:1.0;"/><path d="M254.9688,54.6406 Q254.3906,54.9375 253.75,55.0781 Q253.1094,55.2344 252.4063,55.2344 Q249.9063,55.2344 248.5781,53.5938 Q247.2656,51.9375 247.2656,48.8125 Q247.2656,45.6875 248.5781,44.0313 Q249.9063,42.375 252.4063,42.375 Q253.1094,42.375 253.75,42.5313 Q254.4063,42.6875 254.9688,42.9844 L254.9688,45.7031 Q254.3438,45.125 253.75,44.8594 Q253.1563,44.5781 252.5313,44.5781 Q251.1875,44.5781 250.5,45.6563 Q249.8125,46.7188 249.8125,48.8125 Q249.8125,50.9063 250.5,51.9844 Q251.1875,53.0469 252.5313,53.0469 Q253.1563,53.0469 253.75,52.7813 Q254.3438,52.5 254.9688,51.9219 L254.9688,54.6406 Z " fill="#000000"/><text fill="#000000" font-family="sans-serif" font-size="12" lengthAdjust="spacingAndGlyphs" textLength="90" x="266" y="53.1543">ReceptionistUI</text><line style="stroke:#A80036;stroke-width:1.5;" x1="238" x2="358" y1="65" y2="65"/><line style="stroke:#A80036;stroke-width:1.5;" x1="238" x2="358" y1="73" y2="73"/><!--MD5=[e84c9b6ecea418676e70c8ed8f67e363]
class ReceptionistController--><rect codeLine="16" fill="#FEFECE" filter="url(#f1mb3npp9uifkt)" height="60.8047" id="ReceptionistController" style="stroke:#A80036;stroke-width:1.5;" width="206" x="429" y="141"/><ellipse cx="459.75" cy="157" fill="#ADD1B2" rx="11" ry="11" style="stroke:#A80036;stroke-width:1.0;"/><path d="M462.7188,162.6406 Q462.1406,162.9375 461.5,163.0781 Q460.8594,163.2344 460.1563,163.2344 Q457.6563,163.2344 456.3281,161.5938 Q455.0156,159.9375 455.0156,156.8125 Q455.0156,153.6875 456.3281,152.0313 Q457.6563,150.375 460.1563,150.375 Q460.8594,150.375 461.5,150.5313 Q462.1563,150.6875 462.7188,150.9844 L462.7188,153.7031 Q462.0938,153.125 461.5,152.8594 Q460.9063,152.5781 460.2813,152.5781 Q458.9375,152.5781 458.25,153.6563 Q457.5625,154.7188 457.5625,156.8125 Q457.5625,158.9063 458.25,159.9844 Q458.9375,161.0469 460.2813,161.0469 Q460.9063,161.0469 461.5,160.7813 Q462.0938,160.5 462.7188,159.9219 L462.7188,162.6406 Z " fill="#000000"/><text fill="#000000" font-family="sans-serif" font-size="12" lengthAdjust="spacingAndGlyphs" textLength="139" x="477.25" y="161.1543">ReceptionistController</text><line style="stroke:#A80036;stroke-width:1.5;" x1="430" x2="634" y1="173" y2="173"/><line style="stroke:#A80036;stroke-width:1.5;" x1="430" x2="634" y1="181" y2="181"/><text fill="#000000" font-family="sans-serif" font-size="11" lengthAdjust="spacingAndGlyphs" textLength="194" x="435" y="195.2104">+getClinicalAnalysisLaboratories()</text><!--MD5=[1934a092c0e7d4da7dc7075b6f4b6b03]
class ClinicalAnalysisLaboratory--><rect codeLine="25" fill="#FEFECE" filter="url(#f1mb3npp9uifkt)" height="99.2188" id="ClinicalAnalysisLaboratory" style="stroke:#A80036;stroke-width:1.5;" width="192" x="680" y="540"/><ellipse cx="695" cy="556" fill="#ADD1B2" rx="11" ry="11" style="stroke:#A80036;stroke-width:1.0;"/><path d="M697.9688,561.6406 Q697.3906,561.9375 696.75,562.0781 Q696.1094,562.2344 695.4063,562.2344 Q692.9063,562.2344 691.5781,560.5938 Q690.2656,558.9375 690.2656,555.8125 Q690.2656,552.6875 691.5781,551.0313 Q692.9063,549.375 695.4063,549.375 Q696.1094,549.375 696.75,549.5313 Q697.4063,549.6875 697.9688,549.9844 L697.9688,552.7031 Q697.3438,552.125 696.75,551.8594 Q696.1563,551.5781 695.5313,551.5781 Q694.1875,551.5781 693.5,552.6563 Q692.8125,553.7188 692.8125,555.8125 Q692.8125,557.9063 693.5,558.9844 Q694.1875,560.0469 695.5313,560.0469 Q696.1563,560.0469 696.75,559.7813 Q697.3438,559.5 697.9688,558.9219 L697.9688,561.6406 Z " fill="#000000"/><text fill="#000000" font-family="sans-serif" font-size="12" lengthAdjust="spacingAndGlyphs" textLength="160" x="709" y="560.1543">ClinicalAnalysisLaboratory</text><line style="stroke:#A80036;stroke-width:1.5;" x1="681" x2="871" y1="572" y2="572"/><text fill="#000000" font-family="sans-serif" font-size="11" lengthAdjust="spacingAndGlyphs" textLength="36" x="686" y="586.2104">-name</text><text fill="#000000" font-family="sans-serif" font-size="11" lengthAdjust="spacingAndGlyphs" textLength="72" x="686" y="599.0151">-laboratoryId</text><line style="stroke:#A80036;stroke-width:1.5;" x1="681" x2="871" y1="605.6094" y2="605.6094"/><text fill="#000000" font-family="sans-serif" font-size="11" lengthAdjust="spacingAndGlyphs" textLength="68" x="686" y="619.8198">+getName()</text><text fill="#000000" font-family="sans-serif" font-size="11" lengthAdjust="spacingAndGlyphs" textLength="106" x="686" y="632.6245">+getLaboratoryId()</text><!--MD5=[02e4b9b7573f1156f41e60aa5b4e25a4]
class Company--><rect codeLine="33" fill="#FEFECE" filter="url(#f1mb3npp9uifkt)" height="60.8047" id="Company" style="stroke:#A80036;stroke-width:1.5;" width="226" x="419" y="559"/><ellipse cx="499.25" cy="575" fill="#ADD1B2" rx="11" ry="11" style="stroke:#A80036;stroke-width:1.0;"/><path d="M502.2188,580.6406 Q501.6406,580.9375 501,581.0781 Q500.3594,581.2344 499.6563,581.2344 Q497.1563,581.2344 495.8281,579.5938 Q494.5156,577.9375 494.5156,574.8125 Q494.5156,571.6875 495.8281,570.0313 Q497.1563,568.375 499.6563,568.375 Q500.3594,568.375 501,568.5313 Q501.6563,568.6875 502.2188,568.9844 L502.2188,571.7031 Q501.5938,571.125 501,570.8594 Q500.4063,570.5781 499.7813,570.5781 Q498.4375,570.5781 497.75,571.6563 Q497.0625,572.7188 497.0625,574.8125 Q497.0625,576.9063 497.75,577.9844 Q498.4375,579.0469 499.7813,579.0469 Q500.4063,579.0469 501,578.7813 Q501.5938,578.5 502.2188,577.9219 L502.2188,580.6406 Z " fill="#000000"/><text fill="#000000" font-family="sans-serif" font-size="12" lengthAdjust="spacingAndGlyphs" textLength="57" x="519.75" y="579.1543">Company</text><line style="stroke:#A80036;stroke-width:1.5;" x1="420" x2="644" y1="591" y2="591"/><line style="stroke:#A80036;stroke-width:1.5;" x1="420" x2="644" y1="599" y2="599"/><text fill="#000000" font-family="sans-serif" font-size="11" lengthAdjust="spacingAndGlyphs" textLength="214" x="425" y="613.2104">+getClinicalAnalysisLaboratoryStore()</text><!--MD5=[438281daef332c5ccec4fb6cf3747e9a]
class ClinicalAnalysisLaboratoryStore--><rect codeLine="40" fill="#FEFECE" filter="url(#f1mb3npp9uifkt)" height="73.6094" id="ClinicalAnalysisLaboratoryStore" style="stroke:#A80036;stroke-width:1.5;" width="351" x="32.5" y="552.5"/><ellipse cx="106.75" cy="568.5" fill="#ADD1B2" rx="11" ry="11" style="stroke:#A80036;stroke-width:1.0;"/><path d="M109.7188,574.1406 Q109.1406,574.4375 108.5,574.5781 Q107.8594,574.7344 107.1563,574.7344 Q104.6563,574.7344 103.3281,573.0938 Q102.0156,571.4375 102.0156,568.3125 Q102.0156,565.1875 103.3281,563.5313 Q104.6563,561.875 107.1563,561.875 Q107.8594,561.875 108.5,562.0313 Q109.1563,562.1875 109.7188,562.4844 L109.7188,565.2031 Q109.0938,564.625 108.5,564.3594 Q107.9063,564.0781 107.2813,564.0781 Q105.9375,564.0781 105.25,565.1563 Q104.5625,566.2188 104.5625,568.3125 Q104.5625,570.4063 105.25,571.4844 Q105.9375,572.5469 107.2813,572.5469 Q107.9063,572.5469 108.5,572.2813 Q109.0938,572 109.7188,571.4219 L109.7188,574.1406 Z " fill="#000000"/><text fill="#000000" font-family="sans-serif" font-size="12" lengthAdjust="spacingAndGlyphs" textLength="194" x="127.25" y="572.6543">ClinicalAnalysisLaboratoryStore</text><line style="stroke:#A80036;stroke-width:1.5;" x1="33.5" x2="382.5" y1="584.5" y2="584.5"/><line style="stroke:#A80036;stroke-width:1.5;" x1="33.5" x2="382.5" y1="592.5" y2="592.5"/><text fill="#000000" font-family="sans-serif" font-size="11" lengthAdjust="spacingAndGlyphs" textLength="194" x="38.5" y="606.7104">+getClinicalAnalysisLaboratories()</text><text fill="#000000" font-family="sans-serif" font-size="11" lengthAdjust="spacingAndGlyphs" textLength="339" x="38.5" y="619.5151">+getClinicalAnalysisLaboratory(clinicalAnalysisLaboratoryId)</text><!--MD5=[f2ede7b09882d90d79047a5fe779fb67]
class ClinicalAnalysisLaboratoryDTO--><rect codeLine="51" fill="#FEFECE" filter="url(#f1mb3npp9uifkt)" height="73.6094" id="ClinicalAnalysisLaboratoryDTO" style="stroke:#A80036;stroke-width:1.5;" width="217" x="643.5" y="396"/><ellipse cx="658.5" cy="412" fill="#ADD1B2" rx="11" ry="11" style="stroke:#A80036;stroke-width:1.0;"/><path d="M661.4688,417.6406 Q660.8906,417.9375 660.25,418.0781 Q659.6094,418.2344 658.9063,418.2344 Q656.4063,418.2344 655.0781,416.5938 Q653.7656,414.9375 653.7656,411.8125 Q653.7656,408.6875 655.0781,407.0313 Q656.4063,405.375 658.9063,405.375 Q659.6094,405.375 660.25,405.5313 Q660.9063,405.6875 661.4688,405.9844 L661.4688,408.7031 Q660.8438,408.125 660.25,407.8594 Q659.6563,407.5781 659.0313,407.5781 Q657.6875,407.5781 657,408.6563 Q656.3125,409.7188 656.3125,411.8125 Q656.3125,413.9063 657,414.9844 Q657.6875,416.0469 659.0313,416.0469 Q659.6563,416.0469 660.25,415.7813 Q660.8438,415.5 661.4688,414.9219 L661.4688,417.6406 Z " fill="#000000"/><text fill="#000000" font-family="sans-serif" font-size="12" lengthAdjust="spacingAndGlyphs" textLength="185" x="672.5" y="416.1543">ClinicalAnalysisLaboratoryDTO</text><line style="stroke:#A80036;stroke-width:1.5;" x1="644.5" x2="859.5" y1="428" y2="428"/><text fill="#000000" font-family="sans-serif" font-size="11" lengthAdjust="spacingAndGlyphs" textLength="36" x="649.5" y="442.2104">-name</text><text fill="#000000" font-family="sans-serif" font-size="11" lengthAdjust="spacingAndGlyphs" textLength="72" x="649.5" y="455.0151">-laboratoryId</text><line style="stroke:#A80036;stroke-width:1.5;" x1="644.5" x2="859.5" y1="461.6094" y2="461.6094"/><!--MD5=[17fe4c0ca596c5ee4277d552a2bb53ec]
class ClinicalAnalysisLaboratoryMapper--><rect codeLine="58" fill="#FEFECE" filter="url(#f1mb3npp9uifkt)" height="73.6094" id="ClinicalAnalysisLaboratoryMapper" style="stroke:#A80036;stroke-width:1.5;" width="239" x="613.5" y="262"/><ellipse cx="628.5" cy="278" fill="#ADD1B2" rx="11" ry="11" style="stroke:#A80036;stroke-width:1.0;"/><path d="M631.4688,283.6406 Q630.8906,283.9375 630.25,284.0781 Q629.6094,284.2344 628.9063,284.2344 Q626.4063,284.2344 625.0781,282.5938 Q623.7656,280.9375 623.7656,277.8125 Q623.7656,274.6875 625.0781,273.0313 Q626.4063,271.375 628.9063,271.375 Q629.6094,271.375 630.25,271.5313 Q630.9063,271.6875 631.4688,271.9844 L631.4688,274.7031 Q630.8438,274.125 630.25,273.8594 Q629.6563,273.5781 629.0313,273.5781 Q627.6875,273.5781 627,274.6563 Q626.3125,275.7188 626.3125,277.8125 Q626.3125,279.9063 627,280.9844 Q627.6875,282.0469 629.0313,282.0469 Q629.6563,282.0469 630.25,281.7813 Q630.8438,281.5 631.4688,280.9219 L631.4688,283.6406 Z " fill="#000000"/><text fill="#000000" font-family="sans-serif" font-size="12" lengthAdjust="spacingAndGlyphs" textLength="207" x="642.5" y="282.1543">ClinicalAnalysisLaboratoryMapper</text><line style="stroke:#A80036;stroke-width:1.5;" x1="614.5" x2="851.5" y1="294" y2="294"/><line style="stroke:#A80036;stroke-width:1.5;" x1="614.5" x2="851.5" y1="302" y2="302"/><text fill="#000000" font-family="sans-serif" font-size="11" lengthAdjust="spacingAndGlyphs" textLength="198" x="619.5" y="316.2104">+toDTO(clinicalAnalysisLaboratory)</text><text fill="#000000" font-family="sans-serif" font-size="11" lengthAdjust="spacingAndGlyphs" textLength="209" x="619.5" y="329.0151">+toDTO(clinicalAnalysisLaboratories)</text><!--MD5=[a48e58bc0a2a21bbbc34324cdf983961]
reverse link ClinicalAnalysisLaboratoryStore to Company--><path codeLine="64" d="M388.8542,589.5 C398.8911,589.5 408.9281,589.5 418.9651,589.5 " fill="none" id="ClinicalAnalysisLaboratoryStore-backto-Company" style="stroke:#A80036;stroke-width:1.0;"/><polygon fill="#A80036" points="383.6055,589.5,392.6055,593.5,388.6055,589.5,392.6055,585.5,383.6055,589.5" style="stroke:#A80036;stroke-width:1.0;"/><!--MD5=[d028f4f7f1f53987d870c3730ea355de]
link ReceptionistUI to RegisterTestUI--><path codeLine="65" d="M290.8725,81.003 C286.1379,96.9472 279.84,118.1566 274.5312,136.0347 " fill="none" id="ReceptionistUI-to-RegisterTestUI" style="stroke:#A80036;stroke-width:1.0;stroke-dasharray:7.0,7.0;"/><polygon fill="#A80036" points="273.0622,140.9818,279.4586,133.4928,274.4855,136.1887,271.7896,131.2155,273.0622,140.9818" style="stroke:#A80036;stroke-width:1.0;"/><!--MD5=[3a190f84d8333dcabf43e1e18fec2e5f]
link ReceptionistUI to ReceptionistController--><path codeLine="66" d="M347.0541,81.003 C381.3099,97.7649 427.4576,120.3457 465.0857,138.7577 " fill="none" id="ReceptionistUI-to-ReceptionistController" style="stroke:#A80036;stroke-width:1.0;stroke-dasharray:7.0,7.0;"/><polygon fill="#A80036" points="469.6309,140.9818,463.3051,133.433,465.1398,138.7841,459.7887,140.6188,469.6309,140.9818" style="stroke:#A80036;stroke-width:1.0;"/><!--MD5=[9b963cb600672b9eace1de13c1e63ba4]
link ReceptionistController to Company--><path codeLine="67" d="M532,202.2365 C532,277.8767 532,472.7541 532,553.5631 " fill="none" id="ReceptionistController-to-Company" style="stroke:#A80036;stroke-width:1.0;stroke-dasharray:7.0,7.0;"/><polygon fill="#A80036" points="532,558.7184,536,549.7184,532,553.7184,528,549.7184,532,558.7184" style="stroke:#A80036;stroke-width:1.0;"/><!--MD5=[0a2d11f511b1aa6567dc4c6d60fe3dc2]
link ReceptionistController to ClinicalAnalysisLaboratoryStore--><path codeLine="68" d="M508.1755,202.2365 C450.8336,276.2147 305.0856,464.2475 240.1105,548.0735 " fill="none" id="ReceptionistController-to-ClinicalAnalysisLaboratoryStore" style="stroke:#A80036;stroke-width:1.0;stroke-dasharray:7.0,7.0;"/><polygon fill="#A80036" points="236.8897,552.2287,245.5649,547.5661,239.9529,548.2769,239.2421,542.6649,236.8897,552.2287" style="stroke:#A80036;stroke-width:1.0;"/><!--MD5=[f648ab6c012e7a9f5e97054566cd956c]
link ReceptionistController to ClinicalAnalysisLaboratoryMapper--><path codeLine="69" d="M580.1445,202.0394 C607.1545,219.1726 641.1643,240.746 670.2424,259.1911 " fill="none" id="ReceptionistController-to-ClinicalAnalysisLaboratoryMapper" style="stroke:#A80036;stroke-width:1.0;stroke-dasharray:7.0,7.0;"/><polygon fill="#A80036" points="674.4954,261.8888,669.0383,253.69,670.2733,259.2104,664.7529,260.4454,674.4954,261.8888" style="stroke:#A80036;stroke-width:1.0;"/><!--MD5=[0883f0204777d2b70d64271e12381109]
link ClinicalAnalysisLaboratoryMapper to ClinicalAnalysisLaboratoryDTO--><path codeLine="70" d="M738.2926,336.3265 C740.6808,353.1698 743.5136,373.1485 745.9823,390.5591 " fill="none" id="ClinicalAnalysisLaboratoryMapper-to-ClinicalAnalysisLaboratoryDTO" style="stroke:#A80036;stroke-width:1.0;stroke-dasharray:7.0,7.0;"/><polygon fill="#A80036" points="746.7358,395.8737,749.4326,386.4013,746.0338,390.9232,741.5118,387.5244,746.7358,395.8737" style="stroke:#A80036;stroke-width:1.0;"/><!--MD5=[29213cf39b2aaeee52e783c50b2af014]
link ClinicalAnalysisLaboratoryDTO to ClinicalAnalysisLaboratory--><path codeLine="71" d="M757.6877,470.0883 C760.652,489.4185 764.3349,513.4336 767.6188,534.8475 " fill="none" id="ClinicalAnalysisLaboratoryDTO-to-ClinicalAnalysisLaboratory" style="stroke:#A80036;stroke-width:1.0;stroke-dasharray:7.0,7.0;"/><polygon fill="#A80036" points="768.4003,539.9438,770.9896,530.4414,767.6423,535.0016,763.0821,531.6542,768.4003,539.9438" style="stroke:#A80036;stroke-width:1.0;"/><!--MD5=[484db625f5763a93a7f675ce6cab4441]
@startuml
skinparam classAttributeIconSize 0

package UI{
  
class RegisterTestUI{
  RegisterTestUI(clinicalAnalysisLaboratoryId)
}

class ReceptionistUI{
}

  }

package Controller{
  
class ReceptionistController{
  +getClinicalAnalysisLaboratories()
}

}

package Domain{
  package Model{
    
    class ClinicalAnalysisLaboratory{
      -name
      -laboratoryId
  
      +getName()
      +getLaboratoryId()
    }

    class Company{
      +getClinicalAnalysisLaboratoryStore()
    }
    
  }
  
  package Stores{
      class ClinicalAnalysisLaboratoryStore{
        +getClinicalAnalysisLaboratories()
        +getClinicalAnalysisLaboratory(clinicalAnalysisLaboratoryId)
  }
}

  
  }
  

package Mapper{
class ClinicalAnalysisLaboratoryDTO{
  -name
  -laboratoryId
}
}

package DTO{
class ClinicalAnalysisLaboratoryMapper{
  +toDTO(clinicalAnalysisLaboratory)
  +toDTO(clinicalAnalysisLaboratories)
}
}

Company -l- -> ClinicalAnalysisLaboratoryStore
ReceptionistUI ..> RegisterTestUI 
ReceptionistUI ..> ReceptionistController
ReceptionistController ..> Company
ReceptionistController ..> ClinicalAnalysisLaboratoryStore
ReceptionistController ..> ClinicalAnalysisLaboratoryMapper
ClinicalAnalysisLaboratoryMapper ..> ClinicalAnalysisLaboratoryDTO
ClinicalAnalysisLaboratoryDTO ..> ClinicalAnalysisLaboratory
@enduml

PlantUML version 1.2020.22(Sun Dec 06 09:36:27 UTC 2020)
(GPL source distribution)
Java Runtime: OpenJDK Runtime Environment
JVM: OpenJDK 64-Bit Server VM
Default Encoding: UTF-8
Language: en
Country: US
--></g></svg>