<?xml version="1.0" encoding="UTF-8" standalone="no"?><svg xmlns="http://www.w3.org/2000/svg" xmlns:xlink="http://www.w3.org/1999/xlink" contentScriptType="application/ecmascript" contentStyleType="text/css" height="835px" preserveAspectRatio="none" style="width:443px;height:835px;" version="1.1" viewBox="0 0 443 835" width="443.75px" zoomAndPan="magnify"><defs><filter height="300%" id="f1etupoux2c2zy" width="300%" x="-1" y="-1"><feGaussianBlur result="blurOut" stdDeviation="2.5"/><feColorMatrix in="blurOut" result="blurOut2" type="matrix" values="0 0 0 0 0 0 0 0 0 0 0 0 0 0 0 0 0 0 .4 0"/><feOffset dx="5.0" dy="5.0" in="blurOut2" result="blurOut3"/><feBlend in="SourceGraphic" in2="blurOut3" mode="normal"/></filter></defs><g><!--MD5=[02e4b9b7573f1156f41e60aa5b4e25a4]
class Company--><rect codeLine="3" fill="#FEFECE" filter="url(#f1etupoux2c2zy)" height="77.2949" id="Company" style="stroke:#A80036;stroke-width:1.875;" width="106.25" x="40.625" y="287.5"/><ellipse cx="59.375" cy="307.5" fill="#ADD1B2" rx="13.75" ry="13.75" style="stroke:#A80036;stroke-width:1.25;"/><path d="M61.875,303.125 Q62.1289,302.5 62.4219,302.1875 Q62.7148,301.875 63.0469,301.875 Q63.6328,301.875 64.0039,302.2266 Q64.375,302.5781 64.375,303.3984 L64.375,305.3516 Q64.375,306.1719 64.0234,306.5234 Q63.6719,306.875 63.125,306.875 Q62.6367,306.875 62.3242,306.6602 Q62.0117,306.4453 61.875,305.8789 Q61.8164,305.4883 61.6016,305.2734 Q61.2109,304.8633 60.5078,304.6289 Q59.8047,304.375 59.1016,304.375 Q58.2227,304.375 57.4805,304.7266 Q56.7578,305.0781 56.1914,305.8594 Q55.625,306.6406 55.625,307.7148 L55.625,308.8672 Q55.625,310.1563 56.6797,311.0156 Q57.7344,311.875 59.6094,311.875 Q60.7227,311.875 61.5039,311.6211 Q61.9531,311.4844 62.4609,311.0352 Q62.793,310.7813 62.9688,310.7031 Q63.1445,310.625 63.3594,310.625 Q63.7695,310.625 64.0625,310.957 Q64.375,311.2695 64.375,311.7188 Q64.375,312.1484 63.9453,312.6563 Q63.3203,313.3984 62.3242,313.8086 Q61.0156,314.375 59.4141,314.375 Q57.5391,314.375 56.0352,313.6328 Q54.8242,313.0469 53.9648,311.7773 Q53.125,310.5078 53.125,309.0039 L53.125,307.6367 Q53.125,306.0742 53.8672,304.707 Q54.6289,303.3398 55.9375,302.6172 Q57.2656,301.875 58.75,301.875 Q59.6484,301.875 60.4297,302.1875 Q61.2109,302.5 61.875,303.125 Z " fill="#000000"/><text fill="#000000" font-family="sans-serif" font-size="15" lengthAdjust="spacing" textLength="66.25" x="76.875" y="313.6377">Company</text><line style="stroke:#A80036;stroke-width:1.875;" x1="41.875" x2="145.625" y1="327.5" y2="327.5"/><rect fill="none" height="7.5" style="stroke:#C82930;stroke-width:1.25;" width="7.5" x="50.625" y="337.5"/><text fill="#000000" font-family="sans-serif" font-size="13.75" lengthAdjust="spacing" textLength="68.75" x="65.625" y="346.7737">designation</text><line style="stroke:#A80036;stroke-width:1.875;" x1="41.875" x2="145.625" y1="354.7949" y2="354.7949"/><!--MD5=[aeb3272166074d8737a70b61b1e71682]
class TestType--><rect codeLine="7" fill="#FEFECE" filter="url(#f1etupoux2c2zy)" height="129.1797" id="TestType" style="stroke:#A80036;stroke-width:1.875;" width="140" x="8.75" y="688.75"/><ellipse cx="44.375" cy="708.75" fill="#ADD1B2" rx="13.75" ry="13.75" style="stroke:#A80036;stroke-width:1.25;"/><path d="M46.875,704.375 Q47.1289,703.75 47.4219,703.4375 Q47.7148,703.125 48.0469,703.125 Q48.6328,703.125 49.0039,703.4766 Q49.375,703.8281 49.375,704.6484 L49.375,706.6016 Q49.375,707.4219 49.0234,707.7734 Q48.6719,708.125 48.125,708.125 Q47.6367,708.125 47.3242,707.9102 Q47.0117,707.6953 46.875,707.1289 Q46.8164,706.7383 46.6016,706.5234 Q46.2109,706.1133 45.5078,705.8789 Q44.8047,705.625 44.1016,705.625 Q43.2227,705.625 42.4805,705.9766 Q41.7578,706.3281 41.1914,707.1094 Q40.625,707.8906 40.625,708.9648 L40.625,710.1172 Q40.625,711.4063 41.6797,712.2656 Q42.7344,713.125 44.6094,713.125 Q45.7227,713.125 46.5039,712.8711 Q46.9531,712.7344 47.4609,712.2852 Q47.793,712.0313 47.9688,711.9531 Q48.1445,711.875 48.3594,711.875 Q48.7695,711.875 49.0625,712.207 Q49.375,712.5195 49.375,712.9688 Q49.375,713.3984 48.9453,713.9063 Q48.3203,714.6484 47.3242,715.0586 Q46.0156,715.625 44.4141,715.625 Q42.5391,715.625 41.0352,714.8828 Q39.8242,714.2969 38.9648,713.0273 Q38.125,711.7578 38.125,710.2539 L38.125,708.8867 Q38.125,707.3242 38.8672,705.957 Q39.6289,704.5898 40.9375,703.8672 Q42.2656,703.125 43.75,703.125 Q44.6484,703.125 45.4297,703.4375 Q46.2109,703.75 46.875,704.375 Z " fill="#000000"/><text fill="#000000" font-family="sans-serif" font-size="15" lengthAdjust="spacing" textLength="62.5" x="65.625" y="714.8877">TestType</text><line style="stroke:#A80036;stroke-width:1.875;" x1="10" x2="147.5" y1="728.75" y2="728.75"/><rect fill="none" height="7.5" style="stroke:#C82930;stroke-width:1.25;" width="7.5" x="18.75" y="738.75"/><text fill="#000000" font-family="sans-serif" font-size="13.75" lengthAdjust="spacing" textLength="30" x="33.75" y="748.0237">code</text><rect fill="none" height="7.5" style="stroke:#C82930;stroke-width:1.25;" width="7.5" x="18.75" y="756.0449"/><text fill="#000000" font-family="sans-serif" font-size="13.75" lengthAdjust="spacing" textLength="66.25" x="33.75" y="765.3186">description</text><rect fill="none" height="7.5" style="stroke:#C82930;stroke-width:1.25;" width="7.5" x="18.75" y="773.3398"/><text fill="#000000" font-family="sans-serif" font-size="13.75" lengthAdjust="spacing" textLength="107.5" x="33.75" y="782.6135">collecting_method</text><rect fill="none" height="7.5" style="stroke:#C82930;stroke-width:1.25;" width="7.5" x="18.75" y="790.6348"/><text fill="#000000" font-family="sans-serif" font-size="13.75" lengthAdjust="spacing" textLength="63.75" x="33.75" y="799.9084">categories</text><line style="stroke:#A80036;stroke-width:1.875;" x1="10" x2="147.5" y1="807.9297" y2="807.9297"/><!--MD5=[df38be88ccee13e832d6fafd6288a4ca]
class Test--><rect codeLine="14" fill="#FEFECE" filter="url(#f1etupoux2c2zy)" height="129.1797" id="Test" style="stroke:#A80036;stroke-width:1.875;" width="98.75" x="29.375" y="462.5"/><ellipse cx="61.0625" cy="482.5" fill="#ADD1B2" rx="13.75" ry="13.75" style="stroke:#A80036;stroke-width:1.25;"/><path d="M63.5625,478.125 Q63.8164,477.5 64.1094,477.1875 Q64.4023,476.875 64.7344,476.875 Q65.3203,476.875 65.6914,477.2266 Q66.0625,477.5781 66.0625,478.3984 L66.0625,480.3516 Q66.0625,481.1719 65.7109,481.5234 Q65.3594,481.875 64.8125,481.875 Q64.3242,481.875 64.0117,481.6602 Q63.6992,481.4453 63.5625,480.8789 Q63.5039,480.4883 63.2891,480.2734 Q62.8984,479.8633 62.1953,479.6289 Q61.4922,479.375 60.7891,479.375 Q59.9102,479.375 59.168,479.7266 Q58.4453,480.0781 57.8789,480.8594 Q57.3125,481.6406 57.3125,482.7148 L57.3125,483.8672 Q57.3125,485.1563 58.3672,486.0156 Q59.4219,486.875 61.2969,486.875 Q62.4102,486.875 63.1914,486.6211 Q63.6406,486.4844 64.1484,486.0352 Q64.4805,485.7813 64.6563,485.7031 Q64.832,485.625 65.0469,485.625 Q65.457,485.625 65.75,485.957 Q66.0625,486.2695 66.0625,486.7188 Q66.0625,487.1484 65.6328,487.6563 Q65.0078,488.3984 64.0117,488.8086 Q62.7031,489.375 61.1016,489.375 Q59.2266,489.375 57.7227,488.6328 Q56.5117,488.0469 55.6523,486.7773 Q54.8125,485.5078 54.8125,484.0039 L54.8125,482.6367 Q54.8125,481.0742 55.5547,479.707 Q56.3164,478.3398 57.625,477.6172 Q58.9531,476.875 60.4375,476.875 Q61.3359,476.875 62.1172,477.1875 Q62.8984,477.5 63.5625,478.125 Z " fill="#000000"/><text fill="#000000" font-family="sans-serif" font-size="15" lengthAdjust="spacing" textLength="30" x="81.4375" y="488.6377">Test</text><line style="stroke:#A80036;stroke-width:1.875;" x1="30.625" x2="126.875" y1="502.5" y2="502.5"/><rect fill="none" height="7.5" style="stroke:#C82930;stroke-width:1.25;" width="7.5" x="39.375" y="512.5"/><text fill="#000000" font-family="sans-serif" font-size="13.75" lengthAdjust="spacing" textLength="30" x="54.375" y="521.7737">code</text><rect fill="none" height="7.5" style="stroke:#C82930;stroke-width:1.25;" width="7.5" x="39.375" y="529.7949"/><text fill="#000000" font-family="sans-serif" font-size="13.75" lengthAdjust="spacing" textLength="53.75" x="54.375" y="539.0686">nhsCode</text><rect fill="none" height="7.5" style="stroke:#C82930;stroke-width:1.25;" width="7.5" x="39.375" y="547.0898"/><text fill="#000000" font-family="sans-serif" font-size="13.75" lengthAdjust="spacing" textLength="26.25" x="54.375" y="556.3635">type</text><rect fill="none" height="7.5" style="stroke:#C82930;stroke-width:1.25;" width="7.5" x="39.375" y="564.3848"/><text fill="#000000" font-family="sans-serif" font-size="13.75" lengthAdjust="spacing" textLength="66.25" x="54.375" y="573.6584">description</text><line style="stroke:#A80036;stroke-width:1.875;" x1="30.625" x2="126.875" y1="581.6797" y2="581.6797"/><!--MD5=[0caf3a413731a0de34fc6162fe213ed9]
class Laboratory--><rect codeLine="21" fill="#FEFECE" filter="url(#f1etupoux2c2zy)" height="129.1797" id="Laboratory" style="stroke:#A80036;stroke-width:1.875;" width="116.25" x="214.375" y="462.5"/><ellipse cx="234.8125" cy="482.5" fill="#ADD1B2" rx="13.75" ry="13.75" style="stroke:#A80036;stroke-width:1.25;"/><path d="M237.3125,478.125 Q237.5664,477.5 237.8594,477.1875 Q238.1523,476.875 238.4844,476.875 Q239.0703,476.875 239.4414,477.2266 Q239.8125,477.5781 239.8125,478.3984 L239.8125,480.3516 Q239.8125,481.1719 239.4609,481.5234 Q239.1094,481.875 238.5625,481.875 Q238.0742,481.875 237.7617,481.6602 Q237.4492,481.4453 237.3125,480.8789 Q237.2539,480.4883 237.0391,480.2734 Q236.6484,479.8633 235.9453,479.6289 Q235.2422,479.375 234.5391,479.375 Q233.6602,479.375 232.918,479.7266 Q232.1953,480.0781 231.6289,480.8594 Q231.0625,481.6406 231.0625,482.7148 L231.0625,483.8672 Q231.0625,485.1563 232.1172,486.0156 Q233.1719,486.875 235.0469,486.875 Q236.1602,486.875 236.9414,486.6211 Q237.3906,486.4844 237.8984,486.0352 Q238.2305,485.7813 238.4063,485.7031 Q238.582,485.625 238.7969,485.625 Q239.207,485.625 239.5,485.957 Q239.8125,486.2695 239.8125,486.7188 Q239.8125,487.1484 239.3828,487.6563 Q238.7578,488.3984 237.7617,488.8086 Q236.4531,489.375 234.8516,489.375 Q232.9766,489.375 231.4727,488.6328 Q230.2617,488.0469 229.4023,486.7773 Q228.5625,485.5078 228.5625,484.0039 L228.5625,482.6367 Q228.5625,481.0742 229.3047,479.707 Q230.0664,478.3398 231.375,477.6172 Q232.7031,476.875 234.1875,476.875 Q235.0859,476.875 235.8672,477.1875 Q236.6484,477.5 237.3125,478.125 Z " fill="#000000"/><text fill="#000000" font-family="sans-serif" font-size="15" lengthAdjust="spacing" textLength="72.5" x="252.6875" y="488.6377">Laboratory</text><line style="stroke:#A80036;stroke-width:1.875;" x1="215.625" x2="329.375" y1="502.5" y2="502.5"/><rect fill="none" height="7.5" style="stroke:#C82930;stroke-width:1.25;" width="7.5" x="224.375" y="512.5"/><text fill="#000000" font-family="sans-serif" font-size="13.75" lengthAdjust="spacing" textLength="32.5" x="239.375" y="521.7737">name</text><rect fill="none" height="7.5" style="stroke:#C82930;stroke-width:1.25;" width="7.5" x="224.375" y="529.7949"/><text fill="#000000" font-family="sans-serif" font-size="13.75" lengthAdjust="spacing" textLength="50" x="239.375" y="539.0686">address</text><rect fill="none" height="7.5" style="stroke:#C82930;stroke-width:1.25;" width="7.5" x="224.375" y="547.0898"/><text fill="#000000" font-family="sans-serif" font-size="13.75" lengthAdjust="spacing" textLength="83.75" x="239.375" y="556.3635">phoneNumber</text><rect fill="none" height="7.5" style="stroke:#C82930;stroke-width:1.25;" width="7.5" x="224.375" y="564.3848"/><text fill="#000000" font-family="sans-serif" font-size="13.75" lengthAdjust="spacing" textLength="60" x="239.375" y="573.6584">tinNumber</text><line style="stroke:#A80036;stroke-width:1.875;" x1="215.625" x2="329.375" y1="581.6797" y2="581.6797"/><!--MD5=[1934a092c0e7d4da7dc7075b6f4b6b03]
class ClinicalAnalysisLaboratory--><rect codeLine="28" fill="#FEFECE" filter="url(#f1etupoux2c2zy)" height="77.2949" id="ClinicalAnalysisLaboratory" style="stroke:#A80036;stroke-width:1.875;" width="221.25" x="205.625" y="287.5"/><ellipse cx="224.375" cy="307.5" fill="#ADD1B2" rx="13.75" ry="13.75" style="stroke:#A80036;stroke-width:1.25;"/><path d="M226.875,303.125 Q227.1289,302.5 227.4219,302.1875 Q227.7148,301.875 228.0469,301.875 Q228.6328,301.875 229.0039,302.2266 Q229.375,302.5781 229.375,303.3984 L229.375,305.3516 Q229.375,306.1719 229.0234,306.5234 Q228.6719,306.875 228.125,306.875 Q227.6367,306.875 227.3242,306.6602 Q227.0117,306.4453 226.875,305.8789 Q226.8164,305.4883 226.6016,305.2734 Q226.2109,304.8633 225.5078,304.6289 Q224.8047,304.375 224.1016,304.375 Q223.2227,304.375 222.4805,304.7266 Q221.7578,305.0781 221.1914,305.8594 Q220.625,306.6406 220.625,307.7148 L220.625,308.8672 Q220.625,310.1563 221.6797,311.0156 Q222.7344,311.875 224.6094,311.875 Q225.7227,311.875 226.5039,311.6211 Q226.9531,311.4844 227.4609,311.0352 Q227.793,310.7813 227.9688,310.7031 Q228.1445,310.625 228.3594,310.625 Q228.7695,310.625 229.0625,310.957 Q229.375,311.2695 229.375,311.7188 Q229.375,312.1484 228.9453,312.6563 Q228.3203,313.3984 227.3242,313.8086 Q226.0156,314.375 224.4141,314.375 Q222.5391,314.375 221.0352,313.6328 Q219.8242,313.0469 218.9648,311.7773 Q218.125,310.5078 218.125,309.0039 L218.125,307.6367 Q218.125,306.0742 218.8672,304.707 Q219.6289,303.3398 220.9375,302.6172 Q222.2656,301.875 223.75,301.875 Q224.6484,301.875 225.4297,302.1875 Q226.2109,302.5 226.875,303.125 Z " fill="#000000"/><text fill="#000000" font-family="sans-serif" font-size="15" lengthAdjust="spacing" textLength="181.25" x="241.875" y="313.6377">ClinicalAnalysisLaboratory</text><line style="stroke:#A80036;stroke-width:1.875;" x1="206.875" x2="425.625" y1="327.5" y2="327.5"/><rect fill="none" height="7.5" style="stroke:#C82930;stroke-width:1.25;" width="7.5" x="215.625" y="337.5"/><text fill="#000000" font-family="sans-serif" font-size="13.75" lengthAdjust="spacing" textLength="72.5" x="230.625" y="346.7737">laboratoryID</text><line style="stroke:#A80036;stroke-width:1.875;" x1="206.875" x2="425.625" y1="354.7949" y2="354.7949"/><!--MD5=[da547346deef918ea16944ba046651ef]
class Administrator--><rect codeLine="32" fill="#FEFECE" filter="url(#f1etupoux2c2zy)" height="181.0645" id="Administrator" style="stroke:#A80036;stroke-width:1.875;" width="132.5" x="250" y="8.75"/><ellipse cx="269.3125" cy="28.75" fill="#ADD1B2" rx="13.75" ry="13.75" style="stroke:#A80036;stroke-width:1.25;"/><path d="M271.8125,24.375 Q272.0664,23.75 272.3594,23.4375 Q272.6523,23.125 272.9844,23.125 Q273.5703,23.125 273.9414,23.4766 Q274.3125,23.8281 274.3125,24.6484 L274.3125,26.6016 Q274.3125,27.4219 273.9609,27.7734 Q273.6094,28.125 273.0625,28.125 Q272.5742,28.125 272.2617,27.9102 Q271.9492,27.6953 271.8125,27.1289 Q271.7539,26.7383 271.5391,26.5234 Q271.1484,26.1133 270.4453,25.8789 Q269.7422,25.625 269.0391,25.625 Q268.1602,25.625 267.418,25.9766 Q266.6953,26.3281 266.1289,27.1094 Q265.5625,27.8906 265.5625,28.9648 L265.5625,30.1172 Q265.5625,31.4063 266.6172,32.2656 Q267.6719,33.125 269.5469,33.125 Q270.6602,33.125 271.4414,32.8711 Q271.8906,32.7344 272.3984,32.2852 Q272.7305,32.0313 272.9063,31.9531 Q273.082,31.875 273.2969,31.875 Q273.707,31.875 274,32.207 Q274.3125,32.5195 274.3125,32.9688 Q274.3125,33.3984 273.8828,33.9063 Q273.2578,34.6484 272.2617,35.0586 Q270.9531,35.625 269.3516,35.625 Q267.4766,35.625 265.9727,34.8828 Q264.7617,34.2969 263.9023,33.0273 Q263.0625,31.7578 263.0625,30.2539 L263.0625,28.8867 Q263.0625,27.3242 263.8047,25.957 Q264.5664,24.5898 265.875,23.8672 Q267.2031,23.125 268.6875,23.125 Q269.5859,23.125 270.3672,23.4375 Q271.1484,23.75 271.8125,24.375 Z " fill="#000000"/><text fill="#000000" font-family="sans-serif" font-size="15" lengthAdjust="spacing" textLength="91.25" x="286.9375" y="34.8877">Administrator</text><line style="stroke:#A80036;stroke-width:1.875;" x1="251.25" x2="381.25" y1="48.75" y2="48.75"/><rect fill="none" height="7.5" style="stroke:#C82930;stroke-width:1.25;" width="7.5" x="260" y="58.75"/><text fill="#000000" font-family="sans-serif" font-size="13.75" lengthAdjust="spacing" textLength="68.75" x="275" y="68.0237">employeeID</text><rect fill="none" height="7.5" style="stroke:#C82930;stroke-width:1.25;" width="7.5" x="260" y="76.0449"/><text fill="#000000" font-family="sans-serif" font-size="13.75" lengthAdjust="spacing" textLength="100" x="275" y="85.3186">organizationRole</text><rect fill="none" height="7.5" style="stroke:#C82930;stroke-width:1.25;" width="7.5" x="260" y="93.3398"/><text fill="#000000" font-family="sans-serif" font-size="13.75" lengthAdjust="spacing" textLength="32.5" x="275" y="102.6135">name</text><rect fill="none" height="7.5" style="stroke:#C82930;stroke-width:1.25;" width="7.5" x="260" y="110.6348"/><text fill="#000000" font-family="sans-serif" font-size="13.75" lengthAdjust="spacing" textLength="50" x="275" y="119.9084">address</text><rect fill="none" height="7.5" style="stroke:#C82930;stroke-width:1.25;" width="7.5" x="260" y="127.9297"/><text fill="#000000" font-family="sans-serif" font-size="13.75" lengthAdjust="spacing" textLength="83.75" x="275" y="137.2034">phoneNumber</text><rect fill="none" height="7.5" style="stroke:#C82930;stroke-width:1.25;" width="7.5" x="260" y="145.2246"/><text fill="#000000" font-family="sans-serif" font-size="13.75" lengthAdjust="spacing" textLength="30" x="275" y="154.4983">email</text><rect fill="none" height="7.5" style="stroke:#C82930;stroke-width:1.25;" width="7.5" x="260" y="162.5195"/><text fill="#000000" font-family="sans-serif" font-size="13.75" lengthAdjust="spacing" textLength="27.5" x="275" y="171.7932">SOC</text><line style="stroke:#A80036;stroke-width:1.875;" x1="251.25" x2="381.25" y1="179.8145" y2="179.8145"/><!--MD5=[b3c19c05351daa84e2e950a92f5394ac]
reverse link Company to Test--><path codeLine="42" d="M78.6125,381.375 C77.125,388.4375 75.85,395.6125 75,402.5 C72.625,421.8125 72.4125,442.9625 73.125,462.1875 " fill="none" id="Company-backto-Test" style="stroke:#A80036;stroke-width:1.25;"/><polygon fill="#A80036" points="82.3875,365.3125,75.8057,371.4712,78.9593,379.9155,85.541,373.7567,82.3875,365.3125" style="stroke:#A80036;stroke-width:1.25;"/><polygon fill="#000000" points="80.8266,420.2054,85.2578,409.1739,77.9273,408.6761,80.8266,420.2054" style="stroke:#000000;stroke-width:1.25;"/><text fill="#000000" font-family="sans-serif" font-size="16.25" lengthAdjust="spacing" textLength="62.5" x="92.5" y="420.6189">performs</text><text fill="#000000" font-family="sans-serif" font-size="16.25" lengthAdjust="spacing" textLength="8.75" x="70.6375" y="391.5954">1</text><text fill="#000000" font-family="sans-serif" font-size="16.25" lengthAdjust="spacing" textLength="25" x="45.6895" y="449.0209">1..*</text><!--MD5=[d910f54bd1e0ab7de7aa224c341faec6]
reverse link Company to Laboratory--><path codeLine="43" d="M138.725,377.3625 C161.975,403.125 190.5875,434.8375 215.375,462.3125 " fill="none" id="Company-backto-Laboratory" style="stroke:#A80036;stroke-width:1.25;"/><polygon fill="#A80036" points="127.7875,365.2375,129.0999,374.1553,137.8365,376.3738,136.5241,367.456,127.7875,365.2375" style="stroke:#A80036;stroke-width:1.25;"/><polygon fill="#000000" points="187.9369,418.61,183.0902,407.7546,177.6352,412.6767,187.9369,418.61" style="stroke:#000000;stroke-width:1.25;"/><text fill="#000000" font-family="sans-serif" font-size="16.25" lengthAdjust="spacing" textLength="37.5" x="195" y="420.6189">owns</text><text fill="#000000" font-family="sans-serif" font-size="16.25" lengthAdjust="spacing" textLength="8.75" x="124.8773" y="391.8143">1</text><text fill="#000000" font-family="sans-serif" font-size="16.25" lengthAdjust="spacing" textLength="25" x="180.584" y="448.6967">2..*</text><!--MD5=[d706db314fceff4f61813d1d3dd0cb18]
reverse link ClinicalAnalysisLaboratory to Laboratory--><path codeLine="44" d="M304.375,381.2625 C298.85,406.275 292.25,436.2125 286.475,462.3125 " fill="none" id="ClinicalAnalysisLaboratory-backto-Laboratory" style="stroke:#A80036;stroke-width:1.25;"/><polygon fill="#A80036" points="307.9125,365.2375,301.4135,371.4836,304.6795,379.8849,311.1785,373.6389,307.9125,365.2375" style="stroke:#A80036;stroke-width:1.25;"/><polygon fill="#000000" points="303.6522,420.0727,309.6776,409.8246,302.5032,408.2401,303.6522,420.0727" style="stroke:#000000;stroke-width:1.25;"/><text fill="#000000" font-family="sans-serif" font-size="16.25" lengthAdjust="spacing" textLength="30" x="316.25" y="420.6189">is of</text><text fill="#000000" font-family="sans-serif" font-size="16.25" lengthAdjust="spacing" textLength="6.25" x="299.4058" y="391.8143">*</text><text fill="#000000" font-family="sans-serif" font-size="16.25" lengthAdjust="spacing" textLength="8.75" x="279.075" y="448.6967">1</text><!--MD5=[e8736f23b660880594c2218ad1c58539]
reverse link Administrator to ClinicalAnalysisLaboratory--><path codeLine="45" d="M316.25,206.625 C316.25,235.4 316.25,264.725 316.25,286.9875 " fill="none" id="Administrator-backto-ClinicalAnalysisLaboratory" style="stroke:#A80036;stroke-width:1.25;"/><polygon fill="#A80036" points="316.25,190.275,311.25,197.775,316.25,205.275,321.25,197.775,316.25,190.275" style="stroke:#A80036;stroke-width:1.25;"/><polygon fill="#000000" points="322.5,245.2197,326.1737,233.9134,318.8263,233.9134,322.5,245.2197" style="stroke:#000000;stroke-width:1.25;"/><text fill="#000000" font-family="sans-serif" font-size="16.25" lengthAdjust="spacing" textLength="62.5" x="333.75" y="245.6189">registers</text><text fill="#000000" font-family="sans-serif" font-size="16.25" lengthAdjust="spacing" textLength="25" x="290.0586" y="216.7907">1..*</text><text fill="#000000" font-family="sans-serif" font-size="16.25" lengthAdjust="spacing" textLength="25" x="288.6719" y="273.7625">1..*</text><!--MD5=[3760ed68b33c1e0f4e255a3ab1addb6e]
reverse link Test to TestType--><path codeLine="46" d="M78.75,608.1375 C78.75,634.5625 78.75,663.5875 78.75,688.5875 " fill="none" id="Test-backto-TestType" style="stroke:#A80036;stroke-width:1.25;"/><polygon fill="#A80036" points="78.75,591.65,73.75,599.15,78.75,606.65,83.75,599.15,78.75,591.65" style="stroke:#A80036;stroke-width:1.25;"/><polygon fill="#000000" points="85,646.4697,88.6737,635.1634,81.3263,635.1634,85,646.4697" style="stroke:#000000;stroke-width:1.25;"/><text fill="#000000" font-family="sans-serif" font-size="16.25" lengthAdjust="spacing" textLength="26.25" x="96.25" y="646.8689">has</text><text fill="#000000" font-family="sans-serif" font-size="16.25" lengthAdjust="spacing" textLength="8.75" x="69.4121" y="618.5674">1</text><text fill="#000000" font-family="sans-serif" font-size="16.25" lengthAdjust="spacing" textLength="6.25" x="72.0605" y="674.9752">*</text><!--MD5=[839c8ca5348846105d32463477dfa758]
@startuml
'https://plantuml.com/class-diagram

class Company{
-designation
}

class TestType{
-code
-description
-collecting_method
-categories
}

class Test{
-code
-nhsCode
-type
-description
}

class Laboratory{
-name
-address
-phoneNumber
-tinNumber
}

class ClinicalAnalysisLaboratory{
-laboratoryID
}

class Administrator{
-employeeID
-organizationRole
-name
-address
-phoneNumber
-email
-SOC
}

Company "1" *- - "1..*" Test : > performs
Company "1" *- - "2..*" Laboratory : > owns
ClinicalAnalysisLaboratory "*" *- - "1" Laboratory : > is of
Administrator "1..*" *- - "1..*" ClinicalAnalysisLaboratory : > registers
Test "1" *- - "*" TestType : has >

@enduml

@startuml

class Company{
-designation
}

class TestType{
-code
-description
-collecting_method
-categories
}

class Test{
-code
-nhsCode
-type
-description
}

class Laboratory{
-name
-address
-phoneNumber
-tinNumber
}

class ClinicalAnalysisLaboratory{
-laboratoryID
}

class Administrator{
-employeeID
-organizationRole
-name
-address
-phoneNumber
-email
-SOC
}

Company "1" *- - "1..*" Test : > performs
Company "1" *- - "2..*" Laboratory : > owns
ClinicalAnalysisLaboratory "*" *- - "1" Laboratory : > is of
Administrator "1..*" *- - "1..*" ClinicalAnalysisLaboratory : > registers
Test "1" *- - "*" TestType : has >

@enduml

PlantUML version 1.2021.5(Sun Apr 25 12:20:28 BST 2021)
(GPL source distribution)
Java Runtime: OpenJDK Runtime Environment
JVM: Dynamic Code Evolution 64-Bit Server VM
Default Encoding: Cp1252
Language: pt
Country: PT
--></g></svg>