<?xml version="1.0" encoding="UTF-8" standalone="no"?><svg xmlns="http://www.w3.org/2000/svg" xmlns:xlink="http://www.w3.org/1999/xlink" contentScriptType="application/ecmascript" contentStyleType="text/css" height="400px" preserveAspectRatio="none" style="width:1374px;height:400px;background:#FFFFFF;" version="1.1" viewBox="0 0 1374 400" width="1374px" zoomAndPan="magnify"><defs><filter height="300%" id="f79kucggcp9z8" width="300%" x="-1" y="-1"><feGaussianBlur result="blurOut" stdDeviation="2.0"/><feColorMatrix in="blurOut" result="blurOut2" type="matrix" values="0 0 0 0 0 0 0 0 0 0 0 0 0 0 0 0 0 0 .4 0"/><feOffset dx="4.0" dy="4.0" in="blurOut2" result="blurOut3"/><feBlend in="SourceGraphic" in2="blurOut3" mode="normal"/></filter></defs><g><!--MD5=[02e4b9b7573f1156f41e60aa5b4e25a4]
class Company--><rect codeLine="1" fill="#FEFECE" filter="url(#f79kucggcp9z8)" height="60.8047" id="Company" style="stroke:#A80036;stroke-width:1.5;" width="92" x="7" y="287.5"/><ellipse cx="23.8" cy="303.5" fill="#ADD1B2" rx="11" ry="11" style="stroke:#A80036;stroke-width:1.0;"/><path d="M26.1438,299.1719 C25.2063,298.7344 24.6125,298.5938 23.7375,298.5938 C21.1125,298.5938 19.1125,300.6719 19.1125,303.3906 L19.1125,304.5156 C19.1125,307.0938 21.2219,308.9844 24.1125,308.9844 C25.3313,308.9844 26.4875,308.6875 27.2375,308.1406 C27.8156,307.7344 28.1438,307.2813 28.1438,306.8906 C28.1438,306.4375 27.7531,306.0469 27.2844,306.0469 C27.0656,306.0469 26.8625,306.125 26.675,306.3125 C26.2219,306.7969 26.2219,306.7969 26.0344,306.8906 C25.6125,307.1563 24.925,307.2813 24.1594,307.2813 C22.1125,307.2813 20.8156,306.1875 20.8156,304.4844 L20.8156,303.3906 C20.8156,301.6094 22.0656,300.2969 23.8,300.2969 C24.3781,300.2969 24.9875,300.4531 25.4563,300.7031 C25.9406,300.9844 26.1125,301.2031 26.2063,301.6094 C26.2688,302.0156 26.3,302.1406 26.4406,302.2656 C26.5813,302.4063 26.8156,302.5156 27.0344,302.5156 C27.3,302.5156 27.5656,302.375 27.7375,302.1563 C27.8469,302 27.8781,301.8125 27.8781,301.3906 L27.8781,299.9688 C27.8781,299.5313 27.8625,299.4063 27.7688,299.25 C27.6125,298.9844 27.3313,298.8438 27.0344,298.8438 C26.7375,298.8438 26.5344,298.9375 26.3156,299.25 L26.1438,299.1719 Z " fill="#000000"/><text fill="#000000" font-family="sans-serif" font-size="12" lengthAdjust="spacing" textLength="56" x="38.2" y="307.6543">Company</text><line style="stroke:#A80036;stroke-width:1.5;" x1="8" x2="98" y1="319.5" y2="319.5"/><rect fill="none" height="6" style="stroke:#C82930;stroke-width:1.0;" width="6" x="15" y="327.5"/><text fill="#000000" font-family="sans-serif" font-size="11" lengthAdjust="spacing" textLength="66" x="27" y="333.7104">designation</text><line style="stroke:#A80036;stroke-width:1.5;" x1="8" x2="98" y1="340.3047" y2="340.3047"/><!--MD5=[1934a092c0e7d4da7dc7075b6f4b6b03]
class ClinicalAnalysisLaboratory--><rect codeLine="7" fill="#FEFECE" filter="url(#f79kucggcp9z8)" height="137.6328" id="ClinicalAnalysisLaboratory" style="stroke:#A80036;stroke-width:1.5;" width="577" x="783.5" y="249"/><ellipse cx="990.25" cy="265" fill="#ADD1B2" rx="11" ry="11" style="stroke:#A80036;stroke-width:1.0;"/><path d="M992.5938,260.6719 C991.6563,260.2344 991.0625,260.0938 990.1875,260.0938 C987.5625,260.0938 985.5625,262.1719 985.5625,264.8906 L985.5625,266.0156 C985.5625,268.5938 987.6719,270.4844 990.5625,270.4844 C991.7813,270.4844 992.9375,270.1875 993.6875,269.6406 C994.2656,269.2344 994.5938,268.7813 994.5938,268.3906 C994.5938,267.9375 994.2031,267.5469 993.7344,267.5469 C993.5156,267.5469 993.3125,267.625 993.125,267.8125 C992.6719,268.2969 992.6719,268.2969 992.4844,268.3906 C992.0625,268.6563 991.375,268.7813 990.6094,268.7813 C988.5625,268.7813 987.2656,267.6875 987.2656,265.9844 L987.2656,264.8906 C987.2656,263.1094 988.5156,261.7969 990.25,261.7969 C990.8281,261.7969 991.4375,261.9531 991.9063,262.2031 C992.3906,262.4844 992.5625,262.7031 992.6563,263.1094 C992.7188,263.5156 992.75,263.6406 992.8906,263.7656 C993.0313,263.9063 993.2656,264.0156 993.4844,264.0156 C993.75,264.0156 994.0156,263.875 994.1875,263.6563 C994.2969,263.5 994.3281,263.3125 994.3281,262.8906 L994.3281,261.4688 C994.3281,261.0313 994.3125,260.9063 994.2188,260.75 C994.0625,260.4844 993.7813,260.3438 993.4844,260.3438 C993.1875,260.3438 992.9844,260.4375 992.7656,260.75 L992.5938,260.6719 Z " fill="#000000"/><text fill="#000000" font-family="sans-serif" font-size="12" lengthAdjust="spacing" textLength="155" x="1010.75" y="269.1543">ClinicalAnalysisLaboratory</text><line style="stroke:#A80036;stroke-width:1.5;" x1="784.5" x2="1359.5" y1="281" y2="281"/><rect fill="none" height="6" style="stroke:#C82930;stroke-width:1.0;" width="6" x="791.5" y="289"/><text fill="#000000" font-family="sans-serif" font-size="11" lengthAdjust="spacing" textLength="33" x="803.5" y="295.2104">name</text><rect fill="none" height="6" style="stroke:#C82930;stroke-width:1.0;" width="6" x="791.5" y="301.8047"/><text fill="#000000" font-family="sans-serif" font-size="11" lengthAdjust="spacing" textLength="73" x="803.5" y="308.0151">laboratory_id</text><rect fill="none" height="6" style="stroke:#C82930;stroke-width:1.0;" width="6" x="791.5" y="314.6094"/><text fill="#000000" font-family="sans-serif" font-size="11" lengthAdjust="spacing" textLength="86" x="803.5" y="320.8198">phone_number</text><rect fill="none" height="6" style="stroke:#C82930;stroke-width:1.0;" width="6" x="791.5" y="327.4141"/><text fill="#000000" font-family="sans-serif" font-size="11" lengthAdjust="spacing" textLength="64" x="803.5" y="333.6245">tin_number</text><rect fill="none" height="6" style="stroke:#C82930;stroke-width:1.0;" width="6" x="791.5" y="340.2188"/><text fill="#000000" font-family="sans-serif" font-size="11" lengthAdjust="spacing" textLength="45" x="803.5" y="346.4292">address</text><rect fill="none" height="6" style="stroke:#C82930;stroke-width:1.0;" width="6" x="791.5" y="353.0234"/><text fill="#000000" font-family="sans-serif" font-size="11" lengthAdjust="spacing" textLength="60" x="803.5" y="359.2339">test_types</text><line style="stroke:#A80036;stroke-width:1.5;" x1="784.5" x2="1359.5" y1="365.8281" y2="365.8281"/><ellipse cx="794.5" cy="376.8281" fill="#84BE84" rx="3" ry="3" style="stroke:#038048;stroke-width:1.0;"/><text fill="#000000" font-family="sans-serif" font-size="11" lengthAdjust="spacing" textLength="551" x="803.5" y="380.0386">ClinicalAnalysisLaboratory(name, laboratory_id, phone_number, tin_number, address, test_types)</text><!--MD5=[3f9590349183eb3676f1b2ca1bdcb25d]
class ClinicalAnalysisLaboratoryController--><rect codeLine="19" fill="#FEFECE" filter="url(#f79kucggcp9z8)" height="73.6094" id="ClinicalAnalysisLaboratoryController" style="stroke:#A80036;stroke-width:1.5;" width="614" x="134" y="115"/><ellipse cx="329.75" cy="131" fill="#ADD1B2" rx="11" ry="11" style="stroke:#A80036;stroke-width:1.0;"/><path d="M332.0938,126.6719 C331.1563,126.2344 330.5625,126.0938 329.6875,126.0938 C327.0625,126.0938 325.0625,128.1719 325.0625,130.8906 L325.0625,132.0156 C325.0625,134.5938 327.1719,136.4844 330.0625,136.4844 C331.2813,136.4844 332.4375,136.1875 333.1875,135.6406 C333.7656,135.2344 334.0938,134.7813 334.0938,134.3906 C334.0938,133.9375 333.7031,133.5469 333.2344,133.5469 C333.0156,133.5469 332.8125,133.625 332.625,133.8125 C332.1719,134.2969 332.1719,134.2969 331.9844,134.3906 C331.5625,134.6563 330.875,134.7813 330.1094,134.7813 C328.0625,134.7813 326.7656,133.6875 326.7656,131.9844 L326.7656,130.8906 C326.7656,129.1094 328.0156,127.7969 329.75,127.7969 C330.3281,127.7969 330.9375,127.9531 331.4063,128.2031 C331.8906,128.4844 332.0625,128.7031 332.1563,129.1094 C332.2188,129.5156 332.25,129.6406 332.3906,129.7656 C332.5313,129.9063 332.7656,130.0156 332.9844,130.0156 C333.25,130.0156 333.5156,129.875 333.6875,129.6563 C333.7969,129.5 333.8281,129.3125 333.8281,128.8906 L333.8281,127.4688 C333.8281,127.0313 333.8125,126.9063 333.7188,126.75 C333.5625,126.4844 333.2813,126.3438 332.9844,126.3438 C332.6875,126.3438 332.4844,126.4375 332.2656,126.75 L332.0938,126.6719 Z " fill="#000000"/><text fill="#000000" font-family="sans-serif" font-size="12" lengthAdjust="spacing" textLength="214" x="350.25" y="135.1543">ClinicalAnalysisLaboratoryController</text><line style="stroke:#A80036;stroke-width:1.5;" x1="135" x2="747" y1="147" y2="147"/><line style="stroke:#A80036;stroke-width:1.5;" x1="135" x2="747" y1="155" y2="155"/><ellipse cx="145" cy="166" fill="#84BE84" rx="3" ry="3" style="stroke:#038048;stroke-width:1.0;"/><text fill="#000000" font-family="sans-serif" font-size="11" lengthAdjust="spacing" textLength="588" x="154" y="169.2104">createClinicalAnalysisLaboratory(name, laboratory_id, phone_number, tin_number, address, test_types)</text><ellipse cx="145" cy="178.8047" fill="#84BE84" rx="3" ry="3" style="stroke:#038048;stroke-width:1.0;"/><text fill="#000000" font-family="sans-serif" font-size="11" lengthAdjust="spacing" textLength="88" x="154" y="182.0151">registerAdmin()</text><!--MD5=[438281daef332c5ccec4fb6cf3747e9a]
class ClinicalAnalysisLaboratoryStore--><rect codeLine="26" fill="#FEFECE" filter="url(#f79kucggcp9z8)" height="86.4141" id="ClinicalAnalysisLaboratoryStore" style="stroke:#A80036;stroke-width:1.5;" width="614" x="134" y="275"/><ellipse cx="342.75" cy="291" fill="#ADD1B2" rx="11" ry="11" style="stroke:#A80036;stroke-width:1.0;"/><path d="M345.0938,286.6719 C344.1563,286.2344 343.5625,286.0938 342.6875,286.0938 C340.0625,286.0938 338.0625,288.1719 338.0625,290.8906 L338.0625,292.0156 C338.0625,294.5938 340.1719,296.4844 343.0625,296.4844 C344.2813,296.4844 345.4375,296.1875 346.1875,295.6406 C346.7656,295.2344 347.0938,294.7813 347.0938,294.3906 C347.0938,293.9375 346.7031,293.5469 346.2344,293.5469 C346.0156,293.5469 345.8125,293.625 345.625,293.8125 C345.1719,294.2969 345.1719,294.2969 344.9844,294.3906 C344.5625,294.6563 343.875,294.7813 343.1094,294.7813 C341.0625,294.7813 339.7656,293.6875 339.7656,291.9844 L339.7656,290.8906 C339.7656,289.1094 341.0156,287.7969 342.75,287.7969 C343.3281,287.7969 343.9375,287.9531 344.4063,288.2031 C344.8906,288.4844 345.0625,288.7031 345.1563,289.1094 C345.2188,289.5156 345.25,289.6406 345.3906,289.7656 C345.5313,289.9063 345.7656,290.0156 345.9844,290.0156 C346.25,290.0156 346.5156,289.875 346.6875,289.6563 C346.7969,289.5 346.8281,289.3125 346.8281,288.8906 L346.8281,287.4688 C346.8281,287.0313 346.8125,286.9063 346.7188,286.75 C346.5625,286.4844 346.2813,286.3438 345.9844,286.3438 C345.6875,286.3438 345.4844,286.4375 345.2656,286.75 L345.0938,286.6719 Z " fill="#000000"/><text fill="#000000" font-family="sans-serif" font-size="12" lengthAdjust="spacing" textLength="188" x="363.25" y="295.1543">ClinicalAnalysisLaboratoryStore</text><line style="stroke:#A80036;stroke-width:1.5;" x1="135" x2="747" y1="307" y2="307"/><line style="stroke:#A80036;stroke-width:1.5;" x1="135" x2="747" y1="315" y2="315"/><ellipse cx="145" cy="326" fill="#84BE84" rx="3" ry="3" style="stroke:#038048;stroke-width:1.0;"/><text fill="#000000" font-family="sans-serif" font-size="11" lengthAdjust="spacing" textLength="588" x="154" y="329.2104">createClinicalAnalysisLaboratory(name, laboratory_id, phone_number, tin_number, address, test_types)</text><ellipse cx="145" cy="338.8047" fill="#84BE84" rx="3" ry="3" style="stroke:#038048;stroke-width:1.0;"/><text fill="#000000" font-family="sans-serif" font-size="11" lengthAdjust="spacing" textLength="217" x="154" y="342.0151">validateClinicalAnalysisLaboratory(cal)</text><ellipse cx="145" cy="351.6094" fill="#84BE84" rx="3" ry="3" style="stroke:#038048;stroke-width:1.0;"/><text fill="#000000" font-family="sans-serif" font-size="11" lengthAdjust="spacing" textLength="192" x="154" y="354.8198">addClinicalAnalysisLaboratory(cal)</text><!--MD5=[f0f8a1af45dae1041261f051213596b5]
class ClinicalAnalysisLaboratoryUI--><rect fill="#FEFECE" filter="url(#f79kucggcp9z8)" height="48" id="ClinicalAnalysisLaboratoryUI" style="stroke:#A80036;stroke-width:1.5;" width="199" x="341.5" y="7"/><ellipse cx="356.5" cy="23" fill="#ADD1B2" rx="11" ry="11" style="stroke:#A80036;stroke-width:1.0;"/><path d="M358.8438,18.6719 C357.9063,18.2344 357.3125,18.0938 356.4375,18.0938 C353.8125,18.0938 351.8125,20.1719 351.8125,22.8906 L351.8125,24.0156 C351.8125,26.5938 353.9219,28.4844 356.8125,28.4844 C358.0313,28.4844 359.1875,28.1875 359.9375,27.6406 C360.5156,27.2344 360.8438,26.7813 360.8438,26.3906 C360.8438,25.9375 360.4531,25.5469 359.9844,25.5469 C359.7656,25.5469 359.5625,25.625 359.375,25.8125 C358.9219,26.2969 358.9219,26.2969 358.7344,26.3906 C358.3125,26.6563 357.625,26.7813 356.8594,26.7813 C354.8125,26.7813 353.5156,25.6875 353.5156,23.9844 L353.5156,22.8906 C353.5156,21.1094 354.7656,19.7969 356.5,19.7969 C357.0781,19.7969 357.6875,19.9531 358.1563,20.2031 C358.6406,20.4844 358.8125,20.7031 358.9063,21.1094 C358.9688,21.5156 359,21.6406 359.1406,21.7656 C359.2813,21.9063 359.5156,22.0156 359.7344,22.0156 C360,22.0156 360.2656,21.875 360.4375,21.6563 C360.5469,21.5 360.5781,21.3125 360.5781,20.8906 L360.5781,19.4688 C360.5781,19.0313 360.5625,18.9063 360.4688,18.75 C360.3125,18.4844 360.0313,18.3438 359.7344,18.3438 C359.4375,18.3438 359.2344,18.4375 359.0156,18.75 L358.8438,18.6719 Z " fill="#000000"/><text fill="#000000" font-family="sans-serif" font-size="12" lengthAdjust="spacing" textLength="167" x="370.5" y="27.1543">ClinicalAnalysisLaboratoryUI</text><line style="stroke:#A80036;stroke-width:1.5;" x1="342.5" x2="539.5" y1="39" y2="39"/><line style="stroke:#A80036;stroke-width:1.5;" x1="342.5" x2="539.5" y1="47" y2="47"/><!--MD5=[2fab6d4771de95c03e53f4748d98c864]
link ClinicalAnalysisLaboratoryController to Company--><path codeLine="35" d="M256.15,189.108 C208.302,203.305 158.367,222.71 116,249 C101.6256,257.92 88.4339,270.979 77.8771,283.275 " fill="none" id="ClinicalAnalysisLaboratoryController-to-Company" style="stroke:#A80036;stroke-width:1.0;stroke-dasharray:7.0,7.0;"/><polygon fill="#A80036" points="74.4001,287.4089,83.2546,283.0964,77.6187,283.5826,77.1325,277.9467,74.4001,287.4089" style="stroke:#A80036;stroke-width:1.0;"/><!--MD5=[f379172a0573607dd0ae1a4ea50b9294]
link Company to ClinicalAnalysisLaboratoryStore--><path codeLine="36" d="M99.2266,318 C109.08,318 118.932,318 128.785,318 " fill="none" id="Company-to-ClinicalAnalysisLaboratoryStore" style="stroke:#A80036;stroke-width:1.0;"/><polygon fill="#A80036" points="133.938,318,124.938,314,128.938,318,124.938,322,133.938,318" style="stroke:#A80036;stroke-width:1.0;"/><!--MD5=[2dad08ae384f93453eb1ba4eb26732f1]
link ClinicalAnalysisLaboratoryStore to ClinicalAnalysisLaboratory--><path codeLine="37" d="M748.181,318 C758.145,318 768.109,318 778.072,318 " fill="none" id="ClinicalAnalysisLaboratoryStore-to-ClinicalAnalysisLaboratory" style="stroke:#A80036;stroke-width:1.0;"/><polygon fill="#A80036" points="783.283,318,774.283,314,778.283,318,774.283,322,783.283,318" style="stroke:#A80036;stroke-width:1.0;"/><!--MD5=[6466288bf19020cd8be8e143c2e1b32a]
link ClinicalAnalysisLaboratoryController to ClinicalAnalysisLaboratoryStore--><path codeLine="38" d="M441,189.397 C441,213.107 441,244.274 441,269.871 " fill="none" id="ClinicalAnalysisLaboratoryController-to-ClinicalAnalysisLaboratoryStore" style="stroke:#A80036;stroke-width:1.0;stroke-dasharray:7.0,7.0;"/><polygon fill="#A80036" points="441,274.912,445,265.912,441,269.912,437,265.912,441,274.912" style="stroke:#A80036;stroke-width:1.0;"/><!--MD5=[e97edc16877bb142af03ce6fea189c59]
link ClinicalAnalysisLaboratoryController to ClinicalAnalysisLaboratory--><path codeLine="39" d="M579.866,189.092 C646.085,206.303 727.622,227.494 805.144,247.643 " fill="none" id="ClinicalAnalysisLaboratoryController-to-ClinicalAnalysisLaboratory" style="stroke:#A80036;stroke-width:1.0;stroke-dasharray:7.0,7.0;"/><polygon fill="#A80036" points="810.244,248.968,802.5391,242.8333,805.4047,247.7107,800.5273,250.5763,810.244,248.968" style="stroke:#A80036;stroke-width:1.0;"/><!--MD5=[b948a9f591d9121be295266343e5030c]
link ClinicalAnalysisLaboratoryUI to ClinicalAnalysisLaboratoryController--><path codeLine="40" d="M441,55.227 C441,70.683 441,91.421 441,109.647 " fill="none" id="ClinicalAnalysisLaboratoryUI-to-ClinicalAnalysisLaboratoryController" style="stroke:#A80036;stroke-width:1.0;stroke-dasharray:7.0,7.0;"/><polygon fill="#A80036" points="441,114.714,445,105.714,441,109.714,437,105.714,441,114.714" style="stroke:#A80036;stroke-width:1.0;"/><!--MD5=[fb9ba5ca02ff95891e014b42d40509ac]
@startuml
class Company {
  -designation
 
}


class ClinicalAnalysisLaboratory{
 -name
 -laboratory_id
 -phone_number
 -tin_number
 -address
 -test_types

 +ClinicalAnalysisLaboratory(name, laboratory_id, phone_number, tin_number, address, test_types)

}

class ClinicalAnalysisLaboratoryController{

 +createClinicalAnalysisLaboratory(name, laboratory_id, phone_number, tin_number, address, test_types)
 +registerAdmin()

}

class ClinicalAnalysisLaboratoryStore{


 +createClinicalAnalysisLaboratory(name, laboratory_id, phone_number, tin_number, address, test_types)
 +validateClinicalAnalysisLaboratory(cal)
 +addClinicalAnalysisLaboratory(cal)

}

ClinicalAnalysisLaboratoryController ..> Company
Company -> ClinicalAnalysisLaboratoryStore
ClinicalAnalysisLaboratoryStore -> ClinicalAnalysisLaboratory
ClinicalAnalysisLaboratoryController ..> ClinicalAnalysisLaboratoryStore
ClinicalAnalysisLaboratoryController ..> ClinicalAnalysisLaboratory
ClinicalAnalysisLaboratoryUI ..> ClinicalAnalysisLaboratoryController
@enduml

PlantUML version 1.2021.6beta6(Unknown compile time)
(GPL source distribution)
Java Runtime: Java(TM) SE Runtime Environment
JVM: Java HotSpot(TM) 64-Bit Server VM
Default Encoding: UTF-8
Language: en
Country: US
--></g></svg>