<?xml version="1.0" encoding="UTF-8" standalone="no"?><svg xmlns="http://www.w3.org/2000/svg" xmlns:xlink="http://www.w3.org/1999/xlink" contentScriptType="application/ecmascript" contentStyleType="text/css" height="658px" preserveAspectRatio="none" style="width:851px;height:658px;background:#FFFFFF;" version="1.1" viewBox="0 0 851 658" width="851px" zoomAndPan="magnify"><defs><filter height="300%" id="f1jf47ztjs13fu" width="300%" x="-1" y="-1"><feGaussianBlur result="blurOut" stdDeviation="2.0"/><feColorMatrix in="blurOut" result="blurOut2" type="matrix" values="0 0 0 0 0 0 0 0 0 0 0 0 0 0 0 0 0 0 .4 0"/><feOffset dx="4.0" dy="4.0" in="blurOut2" result="blurOut3"/><feBlend in="SourceGraphic" in2="blurOut3" mode="normal"/></filter></defs><g><rect fill="#FFFFFF" filter="url(#f1jf47ztjs13fu)" height="547.3516" style="stroke:#A80036;stroke-width:1.0;" width="10" x="58" y="50.2969"/><rect fill="#FFFFFF" filter="url(#f1jf47ztjs13fu)" height="29.1328" style="stroke:#A80036;stroke-width:1.0;" width="10" x="293" y="145.8594"/><rect fill="#FFFFFF" filter="url(#f1jf47ztjs13fu)" height="30" style="stroke:#A80036;stroke-width:1.0;" width="10" x="546.5" y="363.8516"/><rect fill="#FFFFFF" filter="url(#f1jf47ztjs13fu)" height="30" style="stroke:#A80036;stroke-width:1.0;" width="10" x="546.5" y="531.5156"/><rect fill="#FFFFFF" filter="url(#f1jf47ztjs13fu)" height="30" style="stroke:#A80036;stroke-width:1.0;" width="10" x="774.5" y="265.5859"/><rect fill="#FFFFFF" filter="url(#f1jf47ztjs13fu)" height="115.3984" style="stroke:#000000;stroke-width:2.0;" width="827.5" x="10" y="454.1172"/><line style="stroke:#A80036;stroke-width:1.0;stroke-dasharray:5.0,5.0;" x1="62.5" x2="62.5" y1="40.2969" y2="615.6484"/><line style="stroke:#A80036;stroke-width:1.0;stroke-dasharray:5.0,5.0;" x1="298" x2="298" y1="112.0781" y2="615.6484"/><line style="stroke:#A80036;stroke-width:1.0;stroke-dasharray:5.0,5.0;" x1="551" x2="551" y1="186.5078" y2="615.6484"/><line style="stroke:#A80036;stroke-width:1.0;stroke-dasharray:5.0,5.0;" x1="779.5" x2="779.5" y1="231.8047" y2="615.6484"/><rect fill="#FEFECE" filter="url(#f1jf47ztjs13fu)" height="30.2969" style="stroke:#A80036;stroke-width:1.5;" width="79" x="21.5" y="5"/><text fill="#000000" font-family="sans-serif" font-size="14" lengthAdjust="spacing" textLength="65" x="28.5" y="24.9951">Company</text><rect fill="#FEFECE" filter="url(#f1jf47ztjs13fu)" height="30.2969" style="stroke:#A80036;stroke-width:1.5;" width="79" x="21.5" y="614.6484"/><text fill="#000000" font-family="sans-serif" font-size="14" lengthAdjust="spacing" textLength="65" x="28.5" y="634.6436">Company</text><rect fill="#FEFECE" filter="url(#f1jf47ztjs13fu)" height="30.2969" style="stroke:#A80036;stroke-width:1.5;" width="200" x="196" y="614.6484"/><text fill="#000000" font-family="sans-serif" font-size="14" lengthAdjust="spacing" textLength="186" x="203" y="634.6436">taskManager TaskManager</text><rect fill="#FEFECE" filter="url(#f1jf47ztjs13fu)" height="30.2969" style="stroke:#A80036;stroke-width:1.5;" width="199" x="450" y="614.6484"/><text fill="#000000" font-family="sans-serif" font-size="14" lengthAdjust="spacing" textLength="185" x="457" y="634.6436">task : SendNhsReportTask</text><rect fill="#FEFECE" filter="url(#f1jf47ztjs13fu)" height="30.2969" style="stroke:#A80036;stroke-width:1.5;" width="92" x="731.5" y="614.6484"/><text fill="#000000" font-family="sans-serif" font-size="14" lengthAdjust="spacing" textLength="78" x="738.5" y="634.6436">timer Timer</text><rect fill="#FFFFFF" filter="url(#f1jf47ztjs13fu)" height="547.3516" style="stroke:#A80036;stroke-width:1.0;" width="10" x="58" y="50.2969"/><rect fill="#FFFFFF" filter="url(#f1jf47ztjs13fu)" height="29.1328" style="stroke:#A80036;stroke-width:1.0;" width="10" x="293" y="145.8594"/><rect fill="#FFFFFF" filter="url(#f1jf47ztjs13fu)" height="30" style="stroke:#A80036;stroke-width:1.0;" width="10" x="546.5" y="363.8516"/><rect fill="#FFFFFF" filter="url(#f1jf47ztjs13fu)" height="30" style="stroke:#A80036;stroke-width:1.0;" width="10" x="546.5" y="531.5156"/><rect fill="#FFFFFF" filter="url(#f1jf47ztjs13fu)" height="30" style="stroke:#A80036;stroke-width:1.0;" width="10" x="774.5" y="265.5859"/><ellipse cx="7.5" cy="70.6797" rx="4" ry="4" style="stroke:#A80036;stroke-width:1.5;fill:none;"/><polygon fill="#A80036" points="46,67.4297,56,71.4297,46,75.4297,50,71.4297" style="stroke:#A80036;stroke-width:1.0;"/><line style="stroke:#A80036;stroke-width:1.0;" x1="12" x2="52" y1="71.4297" y2="71.4297"/><text fill="#000000" font-family="sans-serif" font-size="13" font-weight="bold" lengthAdjust="spacing" textLength="9" x="15" y="66.3638">1</text><text fill="#000000" font-family="sans-serif" font-size="13" lengthAdjust="spacing" textLength="0" x="32" y="66.3638"/><polygon fill="#A80036" points="184,96.5625,194,100.5625,184,104.5625,188,100.5625" style="stroke:#A80036;stroke-width:1.0;"/><line style="stroke:#A80036;stroke-width:1.0;" x1="68" x2="190" y1="100.5625" y2="100.5625"/><text fill="#000000" font-family="sans-serif" font-size="13" font-weight="bold" lengthAdjust="spacing" textLength="9" x="75" y="95.4966">2</text><text fill="#000000" font-family="sans-serif" font-size="13" lengthAdjust="spacing" textLength="51" x="88" y="95.4966">create()</text><rect fill="#FEFECE" filter="url(#f1jf47ztjs13fu)" height="30.2969" style="stroke:#A80036;stroke-width:1.5;" width="200" x="196" y="79.4297"/><text fill="#000000" font-family="sans-serif" font-size="14" lengthAdjust="spacing" textLength="186" x="203" y="99.4248">taskManager TaskManager</text><polygon fill="#A80036" points="281,141.8594,291,145.8594,281,149.8594,285,145.8594" style="stroke:#A80036;stroke-width:1.0;"/><line style="stroke:#A80036;stroke-width:1.0;" x1="68" x2="287" y1="145.8594" y2="145.8594"/><text fill="#000000" font-family="sans-serif" font-size="13" font-weight="bold" lengthAdjust="spacing" textLength="9" x="75" y="140.7935">3</text><text fill="#000000" font-family="sans-serif" font-size="13" lengthAdjust="spacing" textLength="193" x="88" y="140.7935">scheduleNhsReport(company)</text><polygon fill="#A80036" points="438,170.9922,448,174.9922,438,178.9922,442,174.9922" style="stroke:#A80036;stroke-width:1.0;"/><line style="stroke:#A80036;stroke-width:1.0;" x1="298" x2="444" y1="174.9922" y2="174.9922"/><text fill="#000000" font-family="sans-serif" font-size="13" font-weight="bold" lengthAdjust="spacing" textLength="9" x="305" y="169.9263">4</text><text fill="#000000" font-family="sans-serif" font-size="13" lengthAdjust="spacing" textLength="110" x="318" y="169.9263">create(company)</text><rect fill="#FEFECE" filter="url(#f1jf47ztjs13fu)" height="30.2969" style="stroke:#A80036;stroke-width:1.5;" width="199" x="450" y="153.8594"/><text fill="#000000" font-family="sans-serif" font-size="14" lengthAdjust="spacing" textLength="185" x="457" y="173.8545">task : SendNhsReportTask</text><polygon fill="#A80036" points="719.5,216.2891,729.5,220.2891,719.5,224.2891,723.5,220.2891" style="stroke:#A80036;stroke-width:1.0;"/><line style="stroke:#A80036;stroke-width:1.0;" x1="551.5" x2="725.5" y1="220.2891" y2="220.2891"/><text fill="#000000" font-family="sans-serif" font-size="13" font-weight="bold" lengthAdjust="spacing" textLength="9" x="558.5" y="215.2231">5</text><text fill="#000000" font-family="sans-serif" font-size="13" lengthAdjust="spacing" textLength="51" x="571.5" y="215.2231">create()</text><rect fill="#FEFECE" filter="url(#f1jf47ztjs13fu)" height="30.2969" style="stroke:#A80036;stroke-width:1.5;" width="92" x="731.5" y="199.1563"/><text fill="#000000" font-family="sans-serif" font-size="14" lengthAdjust="spacing" textLength="78" x="738.5" y="219.1514">timer Timer</text><polygon fill="#A80036" points="762.5,261.5859,772.5,265.5859,762.5,269.5859,766.5,265.5859" style="stroke:#A80036;stroke-width:1.0;"/><line style="stroke:#A80036;stroke-width:1.0;" x1="551.5" x2="768.5" y1="265.5859" y2="265.5859"/><text fill="#000000" font-family="sans-serif" font-size="13" font-weight="bold" lengthAdjust="spacing" textLength="9" x="558.5" y="260.52">6</text><text fill="#000000" font-family="sans-serif" font-size="13" lengthAdjust="spacing" textLength="191" x="571.5" y="260.52">schedule(task, delay, interval)</text><path d="M20,308.5859 L20,333.5859 L821,333.5859 L821,318.5859 L811,308.5859 L20,308.5859 " fill="#FBFB77" filter="url(#f1jf47ztjs13fu)" style="stroke:#A80036;stroke-width:1.0;"/><path d="M811,308.5859 L811,318.5859 L821,318.5859 L811,308.5859 " fill="#FBFB77" style="stroke:#A80036;stroke-width:1.0;"/><text fill="#000000" font-family="sans-serif" font-size="13" lengthAdjust="spacing" textLength="268" x="280" y="325.6528">After the specified delay time has elapsed</text><polygon fill="#A80036" points="567.5,359.8516,557.5,363.8516,567.5,367.8516,563.5,363.8516" style="stroke:#A80036;stroke-width:1.0;"/><line style="stroke:#A80036;stroke-width:1.0;" x1="561.5" x2="778.5" y1="363.8516" y2="363.8516"/><text fill="#000000" font-family="sans-serif" font-size="13" font-weight="bold" lengthAdjust="spacing" textLength="9" x="573.5" y="358.7856">7</text><text fill="#000000" font-family="sans-serif" font-size="13" lengthAdjust="spacing" textLength="31" x="586.5" y="358.7856">run()</text><rect fill="#FFFFFF" filter="url(#f1jf47ztjs13fu)" height="40.2656" style="stroke:#000000;stroke-width:2.0;" width="205" x="447" y="401.8516"/><polygon fill="#EEEEEE" points="447,401.8516,513,401.8516,513,408.8516,503,418.8516,447,418.8516,447,401.8516" style="stroke:#000000;stroke-width:2.0;"/><text fill="#000000" font-family="sans-serif" font-size="13" font-weight="bold" lengthAdjust="spacing" textLength="21" x="460" y="415.9185">ref</text><text fill="#000000" font-family="sans-serif" font-size="13" lengthAdjust="spacing" textLength="197" x="453" y="434.9185">US19_SD_SendNhsReportTask</text><path d="M10,454.1172 L87,454.1172 L87,461.1172 L77,471.1172 L10,471.1172 L10,454.1172 " fill="#EEEEEE" style="stroke:#000000;stroke-width:1.0;"/><rect fill="none" height="115.3984" style="stroke:#000000;stroke-width:2.0;" width="827.5" x="10" y="454.1172"/><text fill="#000000" font-family="sans-serif" font-size="13" font-weight="bold" lengthAdjust="spacing" textLength="32" x="25" y="467.1841">loop</text><text fill="#000000" font-family="sans-serif" font-size="11" font-weight="bold" lengthAdjust="spacing" textLength="57" x="102" y="466.3276">[n times]</text><path d="M20,476.25 L20,501.25 L821,501.25 L821,486.25 L811,476.25 L20,476.25 " fill="#FBFB77" filter="url(#f1jf47ztjs13fu)" style="stroke:#A80036;stroke-width:1.0;"/><path d="M811,476.25 L811,486.25 L821,486.25 L811,476.25 " fill="#FBFB77" style="stroke:#A80036;stroke-width:1.0;"/><text fill="#000000" font-family="sans-serif" font-size="13" lengthAdjust="spacing" textLength="248" x="290" y="493.3169">After the specified interval has elapsed</text><polygon fill="#A80036" points="567.5,527.5156,557.5,531.5156,567.5,535.5156,563.5,531.5156" style="stroke:#A80036;stroke-width:1.0;"/><line style="stroke:#A80036;stroke-width:1.0;" x1="561.5" x2="778.5" y1="531.5156" y2="531.5156"/><text fill="#000000" font-family="sans-serif" font-size="13" font-weight="bold" lengthAdjust="spacing" textLength="9" x="573.5" y="526.4497">8</text><text fill="#000000" font-family="sans-serif" font-size="13" lengthAdjust="spacing" textLength="31" x="586.5" y="526.4497">run()</text><polygon fill="#A80036" points="11,593.6484,1,597.6484,11,601.6484,7,597.6484" style="stroke:#A80036;stroke-width:1.0;"/><line style="stroke:#A80036;stroke-width:1.0;stroke-dasharray:2.0,2.0;" x1="5" x2="62" y1="597.6484" y2="597.6484"/><text fill="#000000" font-family="sans-serif" font-size="13" font-weight="bold" lengthAdjust="spacing" textLength="9" x="17" y="592.5825">9</text><text fill="#000000" font-family="sans-serif" font-size="13" lengthAdjust="spacing" textLength="0" x="34" y="592.5825"/><!--MD5=[250d5b610c320273f8f0278de76de0c0]
@startuml
autonumber

 activate Company
[o-> Company : 
  create "taskManager TaskManager" as tm
  Company -> tm : create()

  
  Company -> tm : scheduleNhsReport(company)
  activate tm
  
  create "task : SendNhsReportTask" as t
  tm -> t : create(company)
  deactivate tm
  
  create "timer Timer" as timer
  t -> timer : create()
  
  t -> timer : schedule(task, delay, interval)
  activate timer
  deactivate timer
  
  note over Company,timer : After the specified delay time has elapsed
  
  timer -> t : run()
  activate t
  deactivate t
  ref over t : US19_SD_SendNhsReportTask
  
  loop n times
  note over Company, timer : After the specified interval has elapsed
  timer -> t : run()
  activate t
  deactivate t
  end
  [<- - Company : 
  deactivate Company
@enduml

PlantUML version 1.2021.7(Sun May 23 12:40:07 UTC 2021)
(GPL source distribution)
Java Runtime: OpenJDK Runtime Environment
JVM: OpenJDK 64-Bit Server VM
Default Encoding: UTF-8
Language: en
Country: US
--></g></svg>