<?xml version="1.0" encoding="UTF-8" standalone="no"?><svg xmlns="http://www.w3.org/2000/svg" xmlns:xlink="http://www.w3.org/1999/xlink" contentScriptType="application/ecmascript" contentStyleType="text/css" height="672px" preserveAspectRatio="none" style="width:1584px;height:672px;background:#FFFFFF;" version="1.1" viewBox="0 0 1584 672" width="1584px" zoomAndPan="magnify"><defs><filter height="300%" id="f1cr9ylraaeeoa" width="300%" x="-1" y="-1"><feGaussianBlur result="blurOut" stdDeviation="2.0"/><feColorMatrix in="blurOut" result="blurOut2" type="matrix" values="0 0 0 0 0 0 0 0 0 0 0 0 0 0 0 0 0 0 .4 0"/><feOffset dx="4.0" dy="4.0" in="blurOut2" result="blurOut3"/><feBlend in="SourceGraphic" in2="blurOut3" mode="normal"/></filter></defs><g><!--MD5=[996a0e22aa5fcad0a8b55c37b2fd323d]
cluster Task--><polygon fill="#FFFFFF" filter="url(#f1cr9ylraaeeoa)" points="392,411,435,411,442,433.2969,582,433.2969,582,545,392,545,392,411" style="stroke:#000000;stroke-width:1.5;"/><line style="stroke:#000000;stroke-width:1.5;" x1="392" x2="442" y1="433.2969" y2="433.2969"/><text fill="#000000" font-family="sans-serif" font-size="14" font-weight="bold" lengthAdjust="spacing" textLength="37" x="396" y="425.9951">Task</text><!--MD5=[7b8bc9ee8bb84b99fb3a3f9477c19238]
cluster DTO--><polygon fill="#FFFFFF" filter="url(#f1cr9ylraaeeoa)" points="675,6,714,6,721,28.2969,1567,28.2969,1567,115,675,115,675,6" style="stroke:#000000;stroke-width:1.5;"/><line style="stroke:#000000;stroke-width:1.5;" x1="675" x2="721" y1="28.2969" y2="28.2969"/><text fill="#000000" font-family="sans-serif" font-size="14" font-weight="bold" lengthAdjust="spacing" textLength="33" x="679" y="20.9951">DTO</text><!--MD5=[aedc30b8666742a3000193d7e0a0b93e]
cluster Adapters--><polygon fill="#FFFFFF" filter="url(#f1cr9ylraaeeoa)" points="16,146,94,146,101,168.2969,638,168.2969,638,242,16,242,16,146" style="stroke:#000000;stroke-width:1.5;"/><line style="stroke:#000000;stroke-width:1.5;" x1="16" x2="101" y1="168.2969" y2="168.2969"/><text fill="#000000" font-family="sans-serif" font-size="14" font-weight="bold" lengthAdjust="spacing" textLength="72" x="20" y="160.9951">Adapters</text><!--MD5=[052b74ae0f573006023c31132c0f0896]
class SendNhsReportTask--><rect codeLine="8" fill="#FEFECE" filter="url(#f1cr9ylraaeeoa)" height="99.2188" id="SendNhsReportTask" style="stroke:#A80036;stroke-width:1.5;" width="174" x="400" y="438"/><ellipse cx="421.75" cy="454" fill="#ADD1B2" rx="11" ry="11" style="stroke:#A80036;stroke-width:1.0;"/><path d="M424.7188,459.6406 Q424.1406,459.9375 423.5,460.0781 Q422.8594,460.2344 422.1563,460.2344 Q419.6563,460.2344 418.3281,458.5938 Q417.0156,456.9375 417.0156,453.8125 Q417.0156,450.6875 418.3281,449.0313 Q419.6563,447.375 422.1563,447.375 Q422.8594,447.375 423.5,447.5313 Q424.1563,447.6875 424.7188,447.9844 L424.7188,450.7031 Q424.0938,450.125 423.5,449.8594 Q422.9063,449.5781 422.2813,449.5781 Q420.9375,449.5781 420.25,450.6563 Q419.5625,451.7188 419.5625,453.8125 Q419.5625,455.9063 420.25,456.9844 Q420.9375,458.0469 422.2813,458.0469 Q422.9063,458.0469 423.5,457.7813 Q424.0938,457.5 424.7188,456.9219 L424.7188,459.6406 Z " fill="#000000"/><text fill="#000000" font-family="sans-serif" font-size="12" lengthAdjust="spacing" textLength="127" x="437.25" y="458.1543">SendNhsReportTask</text><line style="stroke:#A80036;stroke-width:1.5;" x1="401" x2="573" y1="470" y2="470"/><line style="stroke:#A80036;stroke-width:1.5;" x1="401" x2="573" y1="478" y2="478"/><text fill="#000000" font-family="sans-serif" font-size="11" lengthAdjust="spacing" textLength="36" x="406" y="492.2104">+run()</text><text fill="#000000" font-family="sans-serif" font-size="11" lengthAdjust="spacing" textLength="113" x="406" y="505.0151">-getConfigurations()</text><text fill="#000000" font-family="sans-serif" font-size="11" lengthAdjust="spacing" textLength="162" x="406" y="517.8198">-getLinearRegressionModel()</text><text fill="#000000" font-family="sans-serif" font-size="11" lengthAdjust="spacing" textLength="60" x="406" y="530.6245">-logEvent()</text><!--MD5=[61520587464a9a94c51e90d28a066748]
class LinearRegressionInputDTO--><rect codeLine="19" fill="#FEFECE" filter="url(#f1cr9ylraaeeoa)" height="73.6094" id="LinearRegressionInputDTO" style="stroke:#A80036;stroke-width:1.5;" width="382" x="1177" y="33"/><ellipse cx="1281.25" cy="49" fill="#ADD1B2" rx="11" ry="11" style="stroke:#A80036;stroke-width:1.0;"/><path d="M1284.2188,54.6406 Q1283.6406,54.9375 1283,55.0781 Q1282.3594,55.2344 1281.6563,55.2344 Q1279.1563,55.2344 1277.8281,53.5938 Q1276.5156,51.9375 1276.5156,48.8125 Q1276.5156,45.6875 1277.8281,44.0313 Q1279.1563,42.375 1281.6563,42.375 Q1282.3594,42.375 1283,42.5313 Q1283.6563,42.6875 1284.2188,42.9844 L1284.2188,45.7031 Q1283.5938,45.125 1283,44.8594 Q1282.4063,44.5781 1281.7813,44.5781 Q1280.4375,44.5781 1279.75,45.6563 Q1279.0625,46.7188 1279.0625,48.8125 Q1279.0625,50.9063 1279.75,51.9844 Q1280.4375,53.0469 1281.7813,53.0469 Q1282.4063,53.0469 1283,52.7813 Q1283.5938,52.5 1284.2188,51.9219 L1284.2188,54.6406 Z " fill="#000000"/><text fill="#000000" font-family="sans-serif" font-size="12" lengthAdjust="spacing" textLength="165" x="1301.75" y="53.1543">LinearRegressionInputDTO</text><line style="stroke:#A80036;stroke-width:1.5;" x1="1178" x2="1558" y1="65" y2="65"/><line style="stroke:#A80036;stroke-width:1.5;" x1="1178" x2="1558" y1="73" y2="73"/><text fill="#000000" font-family="sans-serif" font-size="11" lengthAdjust="spacing" textLength="347" x="1183" y="87.2104">LinearRegressionInputDto(modelDataSet, estimationDataSet,</text><text fill="#000000" font-family="sans-serif" font-size="11" lengthAdjust="spacing" textLength="370" x="1183" y="100.0151">confidenceIntervalAlpha, hypothesisTestAlpha, significanceAlpha)</text><!--MD5=[5bdbfc7124174e5f6f52d4411db384d5]
class LinearRegressionOutputDTO--><rect codeLine="23" fill="#FEFECE" filter="url(#f1cr9ylraaeeoa)" height="73.6094" id="LinearRegressionOutputDTO" style="stroke:#A80036;stroke-width:1.5;" width="424" x="718" y="33"/><ellipse cx="837.75" cy="49" fill="#ADD1B2" rx="11" ry="11" style="stroke:#A80036;stroke-width:1.0;"/><path d="M840.7188,54.6406 Q840.1406,54.9375 839.5,55.0781 Q838.8594,55.2344 838.1563,55.2344 Q835.6563,55.2344 834.3281,53.5938 Q833.0156,51.9375 833.0156,48.8125 Q833.0156,45.6875 834.3281,44.0313 Q835.6563,42.375 838.1563,42.375 Q838.8594,42.375 839.5,42.5313 Q840.1563,42.6875 840.7188,42.9844 L840.7188,45.7031 Q840.0938,45.125 839.5,44.8594 Q838.9063,44.5781 838.2813,44.5781 Q836.9375,44.5781 836.25,45.6563 Q835.5625,46.7188 835.5625,48.8125 Q835.5625,50.9063 836.25,51.9844 Q836.9375,53.0469 838.2813,53.0469 Q838.9063,53.0469 839.5,52.7813 Q840.0938,52.5 840.7188,51.9219 L840.7188,54.6406 Z " fill="#000000"/><text fill="#000000" font-family="sans-serif" font-size="12" lengthAdjust="spacing" textLength="176" x="858.25" y="53.1543">LinearRegressionOutputDTO</text><line style="stroke:#A80036;stroke-width:1.5;" x1="719" x2="1141" y1="65" y2="65"/><line style="stroke:#A80036;stroke-width:1.5;" x1="719" x2="1141" y1="73" y2="73"/><text fill="#000000" font-family="sans-serif" font-size="11" lengthAdjust="spacing" textLength="408" x="724" y="87.2104">LinearRegressionOutputDTO(stats, significanceModel, hypothesisTests,</text><text fill="#000000" font-family="sans-serif" font-size="11" lengthAdjust="spacing" textLength="355" x="724" y="100.0151">confidenceIntervalAlpha, predictedValues, confidenceIntervals)</text><!--MD5=[0df2666d1ba5e90671395b36b534d7be]
class SimpleLinearRegressionAdapter--><rect codeLine="36" fill="#FEFECE" filter="url(#f1cr9ylraaeeoa)" height="60.8047" id="SimpleLinearRegressionAdapter" style="stroke:#A80036;stroke-width:1.5;" width="285" x="24.5" y="173"/><ellipse cx="63.8" cy="189" fill="#ADD1B2" rx="11" ry="11" style="stroke:#A80036;stroke-width:1.0;"/><path d="M66.7688,194.6406 Q66.1906,194.9375 65.55,195.0781 Q64.9094,195.2344 64.2063,195.2344 Q61.7063,195.2344 60.3781,193.5938 Q59.0656,191.9375 59.0656,188.8125 Q59.0656,185.6875 60.3781,184.0313 Q61.7063,182.375 64.2063,182.375 Q64.9094,182.375 65.55,182.5313 Q66.2063,182.6875 66.7688,182.9844 L66.7688,185.7031 Q66.1438,185.125 65.55,184.8594 Q64.9563,184.5781 64.3313,184.5781 Q62.9875,184.5781 62.3,185.6563 Q61.6125,186.7188 61.6125,188.8125 Q61.6125,190.9063 62.3,191.9844 Q62.9875,193.0469 64.3313,193.0469 Q64.9563,193.0469 65.55,192.7813 Q66.1438,192.5 66.7688,191.9219 L66.7688,194.6406 Z " fill="#000000"/><text fill="#000000" font-family="sans-serif" font-size="12" lengthAdjust="spacing" textLength="199" x="83.2" y="193.1543">SimpleLinearRegressionAdapter</text><line style="stroke:#A80036;stroke-width:1.5;" x1="25.5" x2="308.5" y1="205" y2="205"/><line style="stroke:#A80036;stroke-width:1.5;" x1="25.5" x2="308.5" y1="213" y2="213"/><text fill="#000000" font-family="sans-serif" font-size="11" lengthAdjust="spacing" textLength="273" x="30.5" y="227.2104">getLinearRegression(linearRegressionInputDTO)</text><!--MD5=[c0eeeb4f7b6396a56a0500fd5d9f47d8]
class MultipleLinearRegressionAdapter--><rect codeLine="39" fill="#FEFECE" filter="url(#f1cr9ylraaeeoa)" height="60.8047" id="MultipleLinearRegressionAdapter" style="stroke:#A80036;stroke-width:1.5;" width="285" x="344.5" y="173"/><ellipse cx="380.65" cy="189" fill="#ADD1B2" rx="11" ry="11" style="stroke:#A80036;stroke-width:1.0;"/><path d="M383.6188,194.6406 Q383.0406,194.9375 382.4,195.0781 Q381.7594,195.2344 381.0563,195.2344 Q378.5563,195.2344 377.2281,193.5938 Q375.9156,191.9375 375.9156,188.8125 Q375.9156,185.6875 377.2281,184.0313 Q378.5563,182.375 381.0563,182.375 Q381.7594,182.375 382.4,182.5313 Q383.0563,182.6875 383.6188,182.9844 L383.6188,185.7031 Q382.9938,185.125 382.4,184.8594 Q381.8063,184.5781 381.1813,184.5781 Q379.8375,184.5781 379.15,185.6563 Q378.4625,186.7188 378.4625,188.8125 Q378.4625,190.9063 379.15,191.9844 Q379.8375,193.0469 381.1813,193.0469 Q381.8063,193.0469 382.4,192.7813 Q382.9938,192.5 383.6188,191.9219 L383.6188,194.6406 Z " fill="#000000"/><text fill="#000000" font-family="sans-serif" font-size="12" lengthAdjust="spacing" textLength="206" x="399.35" y="193.1543">MultipleLinearRegressionAdapter</text><line style="stroke:#A80036;stroke-width:1.5;" x1="345.5" x2="628.5" y1="205" y2="205"/><line style="stroke:#A80036;stroke-width:1.5;" x1="345.5" x2="628.5" y1="213" y2="213"/><text fill="#000000" font-family="sans-serif" font-size="11" lengthAdjust="spacing" textLength="273" x="350.5" y="227.2104">getLinearRegression(linearRegressionInputDTO)</text><!--MD5=[bc9c99d44900084cf43fb0d945788c04]
class EstimationDataSet--><rect codeLine="28" fill="#FEFECE" filter="url(#f1cr9ylraaeeoa)" height="60.8047" id="EstimationDataSet" style="stroke:#A80036;stroke-width:1.5;" width="285" x="169.5" y="598"/><ellipse cx="249.25" cy="614" fill="#ADD1B2" rx="11" ry="11" style="stroke:#A80036;stroke-width:1.0;"/><path d="M252.2188,619.6406 Q251.6406,619.9375 251,620.0781 Q250.3594,620.2344 249.6563,620.2344 Q247.1563,620.2344 245.8281,618.5938 Q244.5156,616.9375 244.5156,613.8125 Q244.5156,610.6875 245.8281,609.0313 Q247.1563,607.375 249.6563,607.375 Q250.3594,607.375 251,607.5313 Q251.6563,607.6875 252.2188,607.9844 L252.2188,610.7031 Q251.5938,610.125 251,609.8594 Q250.4063,609.5781 249.7813,609.5781 Q248.4375,609.5781 247.75,610.6563 Q247.0625,611.7188 247.0625,613.8125 Q247.0625,615.9063 247.75,616.9844 Q248.4375,618.0469 249.7813,618.0469 Q250.4063,618.0469 251,617.7813 Q251.5938,617.5 252.2188,616.9219 L252.2188,619.6406 Z " fill="#000000"/><text fill="#000000" font-family="sans-serif" font-size="12" lengthAdjust="spacing" textLength="117" x="269.75" y="618.1543">EstimationDataSet</text><line style="stroke:#A80036;stroke-width:1.5;" x1="170.5" x2="453.5" y1="630" y2="630"/><line style="stroke:#A80036;stroke-width:1.5;" x1="170.5" x2="453.5" y1="638" y2="638"/><text fill="#000000" font-family="sans-serif" font-size="11" lengthAdjust="spacing" textLength="273" x="175.5" y="652.2104">EstimationDataSet(meanAges, performedTests)</text><!--MD5=[2fcd0e14191d86a85177055ccdab87d3]
class ModelDataSet--><rect codeLine="31" fill="#FEFECE" filter="url(#f1cr9ylraaeeoa)" height="60.8047" id="ModelDataSet" style="stroke:#A80036;stroke-width:1.5;" width="342" x="490" y="598"/><ellipse cx="612.75" cy="614" fill="#ADD1B2" rx="11" ry="11" style="stroke:#A80036;stroke-width:1.0;"/><path d="M615.7188,619.6406 Q615.1406,619.9375 614.5,620.0781 Q613.8594,620.2344 613.1563,620.2344 Q610.6563,620.2344 609.3281,618.5938 Q608.0156,616.9375 608.0156,613.8125 Q608.0156,610.6875 609.3281,609.0313 Q610.6563,607.375 613.1563,607.375 Q613.8594,607.375 614.5,607.5313 Q615.1563,607.6875 615.7188,607.9844 L615.7188,610.7031 Q615.0938,610.125 614.5,609.8594 Q613.9063,609.5781 613.2813,609.5781 Q611.9375,609.5781 611.25,610.6563 Q610.5625,611.7188 610.5625,613.8125 Q610.5625,615.9063 611.25,616.9844 Q611.9375,618.0469 613.2813,618.0469 Q613.9063,618.0469 614.5,617.7813 Q615.0938,617.5 615.7188,616.9219 L615.7188,619.6406 Z " fill="#000000"/><text fill="#000000" font-family="sans-serif" font-size="12" lengthAdjust="spacing" textLength="88" x="633.25" y="618.1543">ModelDataSet</text><line style="stroke:#A80036;stroke-width:1.5;" x1="491" x2="831" y1="630" y2="630"/><line style="stroke:#A80036;stroke-width:1.5;" x1="491" x2="831" y1="638" y2="638"/><text fill="#000000" font-family="sans-serif" font-size="11" lengthAdjust="spacing" textLength="330" x="496" y="652.2104">ModelDataSet(meanAges, performedTests, positiveTests)</text><!--MD5=[ef340af6512c03d5eeac92509be9c66b]
class LinearRegression--><rect codeLine="45" fill="#FEFECE" filter="url(#f1cr9ylraaeeoa)" height="60.8047" id="LinearRegression" style="stroke:#A80036;stroke-width:1.5;" width="285" x="344.5" y="295"/><ellipse cx="428.75" cy="311" fill="#B4A7E5" rx="11" ry="11" style="stroke:#A80036;stroke-width:1.0;"/><path d="M424.6719,306.7656 L424.6719,304.6094 L432.0625,304.6094 L432.0625,306.7656 L429.5938,306.7656 L429.5938,314.8438 L432.0625,314.8438 L432.0625,317 L424.6719,317 L424.6719,314.8438 L427.1406,314.8438 L427.1406,306.7656 L424.6719,306.7656 Z " fill="#000000"/><text fill="#000000" font-family="sans-serif" font-size="12" font-style="italic" lengthAdjust="spacing" textLength="108" x="449.25" y="315.1543">LinearRegression</text><line style="stroke:#A80036;stroke-width:1.5;" x1="345.5" x2="628.5" y1="327" y2="327"/><line style="stroke:#A80036;stroke-width:1.5;" x1="345.5" x2="628.5" y1="335" y2="335"/><text fill="#000000" font-family="sans-serif" font-size="11" lengthAdjust="spacing" textLength="273" x="350.5" y="349.2104">getLinearRegression(linearRegressionInputDTO)</text><!--MD5=[ac46e38ac7eedbdc5a57caa8d00ca19d]
class Covid19NHSReport--><rect codeLine="49" fill="#FEFECE" filter="url(#f1cr9ylraaeeoa)" height="60.8047" id="Covid19NHSReport" style="stroke:#A80036;stroke-width:1.5;" width="461" x="609.5" y="457"/><ellipse cx="777.25" cy="473" fill="#ADD1B2" rx="11" ry="11" style="stroke:#A80036;stroke-width:1.0;"/><path d="M780.2188,478.6406 Q779.6406,478.9375 779,479.0781 Q778.3594,479.2344 777.6563,479.2344 Q775.1563,479.2344 773.8281,477.5938 Q772.5156,475.9375 772.5156,472.8125 Q772.5156,469.6875 773.8281,468.0313 Q775.1563,466.375 777.6563,466.375 Q778.3594,466.375 779,466.5313 Q779.6563,466.6875 780.2188,466.9844 L780.2188,469.7031 Q779.5938,469.125 779,468.8594 Q778.4063,468.5781 777.7813,468.5781 Q776.4375,468.5781 775.75,469.6563 Q775.0625,470.7188 775.0625,472.8125 Q775.0625,474.9063 775.75,475.9844 Q776.4375,477.0469 777.7813,477.0469 Q778.4063,477.0469 779,476.7813 Q779.5938,476.5 780.2188,475.9219 L780.2188,478.6406 Z " fill="#000000"/><text fill="#000000" font-family="sans-serif" font-size="12" lengthAdjust="spacing" textLength="117" x="797.75" y="477.1543">Covid19NHSReport</text><line style="stroke:#A80036;stroke-width:1.5;" x1="610.5" x2="1069.5" y1="489" y2="489"/><line style="stroke:#A80036;stroke-width:1.5;" x1="610.5" x2="1069.5" y1="497" y2="497"/><text fill="#000000" font-family="sans-serif" font-size="11" lengthAdjust="spacing" textLength="449" x="615.5" y="511.2104">createCovidReport(linearRegressionOutputDTO, workingDays, observedValues)</text><!--MD5=[6c1de680235d7ab9cc33a950317e0364]
class Report2NHSAPI--><rect codeLine="53" fill="#FEFECE" filter="url(#f1cr9ylraaeeoa)" height="60.8047" id="Report2NHSAPI" style="stroke:#A80036;stroke-width:1.5;" width="167" x="142.5" y="295"/><ellipse cx="175.5" cy="311" fill="#ADD1B2" rx="11" ry="11" style="stroke:#A80036;stroke-width:1.0;"/><path d="M178.4688,316.6406 Q177.8906,316.9375 177.25,317.0781 Q176.6094,317.2344 175.9063,317.2344 Q173.4063,317.2344 172.0781,315.5938 Q170.7656,313.9375 170.7656,310.8125 Q170.7656,307.6875 172.0781,306.0313 Q173.4063,304.375 175.9063,304.375 Q176.6094,304.375 177.25,304.5313 Q177.9063,304.6875 178.4688,304.9844 L178.4688,307.7031 Q177.8438,307.125 177.25,306.8594 Q176.6563,306.5781 176.0313,306.5781 Q174.6875,306.5781 174,307.6563 Q173.3125,308.7188 173.3125,310.8125 Q173.3125,312.9063 174,313.9844 Q174.6875,315.0469 176.0313,315.0469 Q176.6563,315.0469 177.25,314.7813 Q177.8438,314.5 178.4688,313.9219 L178.4688,316.6406 Z " fill="#000000"/><text fill="#000000" font-family="sans-serif" font-size="12" lengthAdjust="spacing" textLength="95" x="193.5" y="315.1543">Report2NHSAPI</text><line style="stroke:#A80036;stroke-width:1.5;" x1="143.5" x2="308.5" y1="327" y2="327"/><line style="stroke:#A80036;stroke-width:1.5;" x1="143.5" x2="308.5" y1="335" y2="335"/><text fill="#000000" font-family="sans-serif" font-size="11" lengthAdjust="spacing" textLength="155" x="148.5" y="349.2104">writeUsingFileWriter(report)</text><!--MD5=[055cdc0acbb74c663a41700669fc5371]
link SimpleLinearRegressionAdapter to LinearRegression--><path codeLine="60" d="M247.3365,234.1283 C290.0221,250.4022 342.864,270.5481 388.0589,287.7787 " fill="none" id="SimpleLinearRegressionAdapter-to-LinearRegression" style="stroke:#A80036;stroke-width:1.0;stroke-dasharray:7.0,7.0;"/><polygon fill="none" points="390.7139,281.2994,406.9081,294.965,385.7265,294.3809,390.7139,281.2994" style="stroke:#A80036;stroke-width:1.0;"/><!--MD5=[ed3d5ccfa6258a7d77a58ebfd387c43b]
link MultipleLinearRegressionAdapter to LinearRegression--><path codeLine="61" d="M487,234.2858 C487,246.4226 487,260.6944 487,274.2985 " fill="none" id="MultipleLinearRegressionAdapter-to-LinearRegression" style="stroke:#A80036;stroke-width:1.0;stroke-dasharray:7.0,7.0;"/><polygon fill="none" points="494.0001,274.7241,487,294.7241,480.0001,274.7241,494.0001,274.7241" style="stroke:#A80036;stroke-width:1.0;"/><!--MD5=[39d1ecb43d0fb8045a7c6870ffac7766]
reverse link LinearRegression to SendNhsReportTask--><path codeLine="63" d="M487,361.6245 C487,384.1105 487,413.338 487,437.9687 " fill="none" id="LinearRegression-backto-SendNhsReportTask" style="stroke:#A80036;stroke-width:1.0;"/><polygon fill="#A80036" points="487,356.3523,483,365.3523,487,361.3523,491,365.3523,487,356.3523" style="stroke:#A80036;stroke-width:1.0;"/><polygon fill="#000000" points="492,389.5664,489.0611,398.6115,494.9389,398.6115,492,389.5664" style="stroke:#000000;stroke-width:1.0;"/><text fill="#000000" font-family="sans-serif" font-size="13" lengthAdjust="spacing" textLength="86" x="501" y="399.0669">makes use of</text><!--MD5=[f924e71502c8b64a7e6de8de0e768ea2]
link SendNhsReportTask to EstimationDataSet--><path codeLine="64" d="M425.3015,537.2113 C401.6785,556.2448 375.2999,577.4983 353.9429,594.706 " fill="none" id="SendNhsReportTask-to-EstimationDataSet" style="stroke:#A80036;stroke-width:1.0;"/><polygon fill="#A80036" points="350.0154,597.8705,359.5333,595.3386,353.9089,594.7335,354.514,589.1091,350.0154,597.8705" style="stroke:#A80036;stroke-width:1.0;"/><!--MD5=[540d6fb14bd123191f4bd5f747e0dcdc]
link SendNhsReportTask to ModelDataSet--><path codeLine="65" d="M548.3459,537.2113 C571.834,556.2448 598.0618,577.4983 619.2967,594.706 " fill="none" id="SendNhsReportTask-to-ModelDataSet" style="stroke:#A80036;stroke-width:1.0;"/><polygon fill="#A80036" points="623.2019,597.8705,618.7279,589.0965,619.3173,594.7226,613.6912,595.3119,623.2019,597.8705" style="stroke:#A80036;stroke-width:1.0;"/><!--MD5=[15b71f9fa45eb71099d2f7ddd125267a]
reverse link DTO to SendNhsReportTask--><path codeLine="67" d="M686.543,115.0259 C686.6017,116.3328 686.6581,117.6623 686.7117,119.0135 C686.9261,124.4187 687.0963,130.1727 687.1992,136.2246 C687.4049,148.3284 687.3414,161.6234 686.8238,175.7006 C684.7535,232.0097 675.4191,300.8347 647,356 C641.2368,367.1872 593.9255,405.4664 552.233,437.86 " fill="none" id="DTO-backto-SendNhsReportTask" style="stroke:#A80036;stroke-width:1.0;"/><polygon fill="#A80036" points="686.543,115.0259,682.9514,124.1965,686.7676,120.0209,690.9433,123.8371,686.543,115.0259" style="stroke:#A80036;stroke-width:1.0;"/><!--MD5=[c26192e5fd2af44688daef6ea7ccaec1]
reverse link LinearRegressionOutputDTO to LinearRegressionInputDTO--><path codeLine="68" d="M1147.2634,70 C1157.0296,70 1166.7959,70 1176.5621,70 " fill="none" id="LinearRegressionOutputDTO-backto-LinearRegressionInputDTO" style="stroke:#A80036;stroke-width:1.0;"/><polygon fill="#A80036" points="1142.1563,70,1151.1563,74,1147.1563,70,1151.1563,66,1142.1563,70" style="stroke:#A80036;stroke-width:1.0;"/><!--MD5=[0f413026475091ffb981456b449174fc]
link SendNhsReportTask to Covid19NHSReport--><path codeLine="70" d="M574.2158,487.5 C584.162,487.5 594.1083,487.5 604.0545,487.5 " fill="none" id="SendNhsReportTask-to-Covid19NHSReport" style="stroke:#A80036;stroke-width:1.0;"/><polygon fill="#A80036" points="609.2557,487.5,600.2557,483.5,604.2557,487.5,600.2557,491.5,609.2557,487.5" style="stroke:#A80036;stroke-width:1.0;"/><!--MD5=[70d87845db390a4bbde9954f0d642ebd]
reverse link Report2NHSAPI to SendNhsReportTask--><path codeLine="71" d="M279.8109,358.8998 C316.5097,381.6785 365.7495,412.241 407.0184,437.8562 " fill="none" id="Report2NHSAPI-backto-SendNhsReportTask" style="stroke:#A80036;stroke-width:1.0;"/><polygon fill="#A80036" points="275.3989,356.1614,280.9361,364.3063,279.6471,358.7983,285.1551,357.5092,275.3989,356.1614" style="stroke:#A80036;stroke-width:1.0;"/><!--MD5=[54ac54c1b1601c7773a7559970244e09]
@startuml
skinparam classAttributeIconSize 0




package Task{
  
class SendNhsReportTask{
  +run()
  -getConfigurations()
  -getLinearRegressionModel()
  -logEvent()
}
  
  
}

package DTO {
 class LinearRegressionInputDTO{
   LinearRegressionInputDto(modelDataSet, estimationDataSet, \nconfidenceIntervalAlpha, hypothesisTestAlpha, significanceAlpha)
    }
  
  class LinearRegressionOutputDTO{
    LinearRegressionOutputDTO(stats, significanceModel, hypothesisTests, \nconfidenceIntervalAlpha, predictedValues, confidenceIntervals)
    }

}
  class EstimationDataSet{
    EstimationDataSet(meanAges, performedTests)
    }
  class ModelDataSet{
    ModelDataSet(meanAges, performedTests, positiveTests)
    }

package Adapters {
  class SimpleLinearRegressionAdapter{
  getLinearRegression(linearRegressionInputDTO)  
  }
  class MultipleLinearRegressionAdapter{
  getLinearRegression(linearRegressionInputDTO)  
  }
  
}

interface LinearRegression {
getLinearRegression(linearRegressionInputDTO)
}

class Covid19NHSReport{
createCovidReport(linearRegressionOutputDTO, workingDays, observedValues)
}

class Report2NHSAPI{
writeUsingFileWriter(report)  
}
  

  

SimpleLinearRegressionAdapter ..|> LinearRegression
MultipleLinearRegressionAdapter ..|> LinearRegression

SendNhsReportTask -u-> LinearRegression : makes use of >
SendNhsReportTask -d-> EstimationDataSet
SendNhsReportTask -d-> ModelDataSet

SendNhsReportTask - -u- -> DTO
LinearRegressionInputDTO -u> LinearRegressionOutputDTO

SendNhsReportTask -> Covid19NHSReport
SendNhsReportTask -u-> Report2NHSAPI
@enduml

PlantUML version 1.2021.7(Sun May 23 12:40:07 UTC 2021)
(GPL source distribution)
Java Runtime: OpenJDK Runtime Environment
JVM: OpenJDK 64-Bit Server VM
Default Encoding: UTF-8
Language: en
Country: US
--></g></svg>