<?xml version="1.0" encoding="UTF-8" standalone="no"?><svg xmlns="http://www.w3.org/2000/svg" xmlns:xlink="http://www.w3.org/1999/xlink" contentScriptType="application/ecmascript" contentStyleType="text/css" height="1060px" preserveAspectRatio="none" style="width:845px;height:1060px;background:#FFFFFF;" version="1.1" viewBox="0 0 845 1060" width="845px" zoomAndPan="magnify"><defs><filter height="300%" id="fzu57enwsk4tv" width="300%" x="-1" y="-1"><feGaussianBlur result="blurOut" stdDeviation="2.0"/><feColorMatrix in="blurOut" result="blurOut2" type="matrix" values="0 0 0 0 0 0 0 0 0 0 0 0 0 0 0 0 0 0 .4 0"/><feOffset dx="4.0" dy="4.0" in="blurOut2" result="blurOut3"/><feBlend in="SourceGraphic" in2="blurOut3" mode="normal"/></filter></defs><g><!--MD5=[ed6624c6556d5e7b1bd23032162d20b7]
class Client--><rect codeLine="6" fill="#FEFECE" filter="url(#fzu57enwsk4tv)" height="142.4375" id="Client" style="stroke:#A80036;stroke-width:1.5;" width="96" x="10.8524" y="7"/><ellipse cx="38.9024" cy="23" fill="#ADD1B2" rx="11" ry="11" style="stroke:#A80036;stroke-width:1.0;"/><path d="M41.8712,28.6406 Q41.293,28.9375 40.6524,29.0781 Q40.0118,29.2344 39.3087,29.2344 Q36.8087,29.2344 35.4805,27.5938 Q34.168,25.9375 34.168,22.8125 Q34.168,19.6875 35.4805,18.0313 Q36.8087,16.375 39.3087,16.375 Q40.0118,16.375 40.6524,16.5313 Q41.3087,16.6875 41.8712,16.9844 L41.8712,19.7031 Q41.2462,19.125 40.6524,18.8594 Q40.0587,18.5781 39.4337,18.5781 Q38.0899,18.5781 37.4024,19.6563 Q36.7149,20.7188 36.7149,22.8125 Q36.7149,24.9063 37.4024,25.9844 Q38.0899,27.0469 39.4337,27.0469 Q40.0587,27.0469 40.6524,26.7813 Q41.2462,26.5 41.8712,25.9219 L41.8712,28.6406 Z " fill="#000000"/><text fill="#000000" font-family="sans-serif" font-size="12" lengthAdjust="spacing" textLength="35" x="55.8024" y="27.1543">Client</text><line style="stroke:#A80036;stroke-width:1.5;" x1="11.8524" x2="105.8524" y1="39" y2="39"/><text fill="#000000" font-family="sans-serif" font-size="11" lengthAdjust="spacing" textLength="36" x="16.8524" y="53.2104">-name</text><text fill="#000000" font-family="sans-serif" font-size="11" lengthAdjust="spacing" textLength="23" x="16.8524" y="66.0151">-ccn</text><text fill="#000000" font-family="sans-serif" font-size="11" lengthAdjust="spacing" textLength="70" x="16.8524" y="78.8198">-nhsNumber</text><text fill="#000000" font-family="sans-serif" font-size="11" lengthAdjust="spacing" textLength="18" x="16.8524" y="91.6245">-tin</text><text fill="#000000" font-family="sans-serif" font-size="11" lengthAdjust="spacing" textLength="56" x="16.8524" y="104.4292">-birthDate</text><text fill="#000000" font-family="sans-serif" font-size="11" lengthAdjust="spacing" textLength="24" x="16.8524" y="117.2339">-sex</text><text fill="#000000" font-family="sans-serif" font-size="11" lengthAdjust="spacing" textLength="84" x="16.8524" y="130.0386">-phoneNumber</text><text fill="#000000" font-family="sans-serif" font-size="11" lengthAdjust="spacing" textLength="35" x="16.8524" y="142.8433">-email</text><!--MD5=[df38be88ccee13e832d6fafd6288a4ca]
class Test--><rect codeLine="19" fill="#FEFECE" filter="url(#fzu57enwsk4tv)" height="104.0234" id="Test" style="stroke:#A80036;stroke-width:1.5;" width="79" x="188.3524" y="350"/><ellipse cx="212.3524" cy="366" fill="#ADD1B2" rx="11" ry="11" style="stroke:#A80036;stroke-width:1.0;"/><path d="M215.3212,371.6406 Q214.743,371.9375 214.1024,372.0781 Q213.4618,372.2344 212.7587,372.2344 Q210.2587,372.2344 208.9305,370.5938 Q207.618,368.9375 207.618,365.8125 Q207.618,362.6875 208.9305,361.0313 Q210.2587,359.375 212.7587,359.375 Q213.4618,359.375 214.1024,359.5313 Q214.7587,359.6875 215.3212,359.9844 L215.3212,362.7031 Q214.6962,362.125 214.1024,361.8594 Q213.5087,361.5781 212.8837,361.5781 Q211.5399,361.5781 210.8524,362.6563 Q210.1649,363.7188 210.1649,365.8125 Q210.1649,367.9063 210.8524,368.9844 Q211.5399,370.0469 212.8837,370.0469 Q213.5087,370.0469 214.1024,369.7813 Q214.6962,369.5 215.3212,368.9219 L215.3212,371.6406 Z " fill="#000000"/><text fill="#000000" font-family="sans-serif" font-size="12" lengthAdjust="spacing" textLength="27" x="228.3524" y="370.1543">Test</text><line style="stroke:#A80036;stroke-width:1.5;" x1="189.3524" x2="266.3524" y1="382" y2="382"/><text fill="#000000" font-family="sans-serif" font-size="11" lengthAdjust="spacing" textLength="31" x="194.3524" y="396.2104">-code</text><text fill="#000000" font-family="sans-serif" font-size="11" lengthAdjust="spacing" textLength="54" x="194.3524" y="409.0151">-nhsCode</text><text fill="#000000" font-family="sans-serif" font-size="11" lengthAdjust="spacing" textLength="67" x="194.3524" y="421.8198">-description</text><text fill="#000000" font-family="sans-serif" font-size="11" lengthAdjust="spacing" textLength="33" x="194.3524" y="434.6245">-state</text><text fill="#000000" font-family="sans-serif" font-size="11" lengthAdjust="spacing" textLength="58" x="194.3524" y="447.4292">-createdAt</text><!--MD5=[aeb3272166074d8737a70b61b1e71682]
class TestType--><rect codeLine="27" fill="#FEFECE" filter="url(#fzu57enwsk4tv)" height="65.6094" id="TestType" style="stroke:#A80036;stroke-width:1.5;" width="88" x="183.8524" y="593"/><ellipse cx="198.8524" cy="609" fill="#ADD1B2" rx="11" ry="11" style="stroke:#A80036;stroke-width:1.0;"/><path d="M201.8212,614.6406 Q201.243,614.9375 200.6024,615.0781 Q199.9618,615.2344 199.2587,615.2344 Q196.7587,615.2344 195.4305,613.5938 Q194.118,611.9375 194.118,608.8125 Q194.118,605.6875 195.4305,604.0313 Q196.7587,602.375 199.2587,602.375 Q199.9618,602.375 200.6024,602.5313 Q201.2587,602.6875 201.8212,602.9844 L201.8212,605.7031 Q201.1962,605.125 200.6024,604.8594 Q200.0087,604.5781 199.3837,604.5781 Q198.0399,604.5781 197.3524,605.6563 Q196.6649,606.7188 196.6649,608.8125 Q196.6649,610.9063 197.3524,611.9844 Q198.0399,613.0469 199.3837,613.0469 Q200.0087,613.0469 200.6024,612.7813 Q201.1962,612.5 201.8212,611.9219 L201.8212,614.6406 Z " fill="#000000"/><text fill="#000000" font-family="sans-serif" font-size="12" lengthAdjust="spacing" textLength="56" x="212.8524" y="613.1543">TestType</text><line style="stroke:#A80036;stroke-width:1.5;" x1="184.8524" x2="270.8524" y1="625" y2="625"/><text fill="#000000" font-family="sans-serif" font-size="11" lengthAdjust="spacing" textLength="31" x="189.8524" y="639.2104">-code</text><text fill="#000000" font-family="sans-serif" font-size="11" lengthAdjust="spacing" textLength="67" x="189.8524" y="652.0151">-description</text><!--MD5=[4e608140b854dae633589343bce77383]
class TestParameterResult--><rect codeLine="32" fill="#FEFECE" filter="url(#fzu57enwsk4tv)" height="52.8047" id="TestParameterResult" style="stroke:#A80036;stroke-width:1.5;" width="164" x="667.8524" y="599.5"/><ellipse cx="682.8524" cy="615.5" fill="#ADD1B2" rx="11" ry="11" style="stroke:#A80036;stroke-width:1.0;"/><path d="M685.8212,621.1406 Q685.243,621.4375 684.6024,621.5781 Q683.9618,621.7344 683.2587,621.7344 Q680.7587,621.7344 679.4305,620.0938 Q678.118,618.4375 678.118,615.3125 Q678.118,612.1875 679.4305,610.5313 Q680.7587,608.875 683.2587,608.875 Q683.9618,608.875 684.6024,609.0313 Q685.2587,609.1875 685.8212,609.4844 L685.8212,612.2031 Q685.1962,611.625 684.6024,611.3594 Q684.0087,611.0781 683.3837,611.0781 Q682.0399,611.0781 681.3524,612.1563 Q680.6649,613.2188 680.6649,615.3125 Q680.6649,617.4063 681.3524,618.4844 Q682.0399,619.5469 683.3837,619.5469 Q684.0087,619.5469 684.6024,619.2813 Q685.1962,619 685.8212,618.4219 L685.8212,621.1406 Z " fill="#000000"/><text fill="#000000" font-family="sans-serif" font-size="12" lengthAdjust="spacing" textLength="132" x="696.8524" y="619.6543">TestParameterResult</text><line style="stroke:#A80036;stroke-width:1.5;" x1="668.8524" x2="830.8524" y1="631.5" y2="631.5"/><text fill="#000000" font-family="sans-serif" font-size="11" lengthAdjust="spacing" textLength="37" x="673.8524" y="645.7104">-result</text><!--MD5=[0a105ea8d9af02dadec02d3e239f1d60]
class NHS--><rect codeLine="36" fill="#FEFECE" filter="url(#fzu57enwsk4tv)" height="40" id="NHS" style="stroke:#A80036;stroke-width:1.5;" width="58" x="667.8524" y="882.5"/><ellipse cx="682.8524" cy="898.5" fill="#ADD1B2" rx="11" ry="11" style="stroke:#A80036;stroke-width:1.0;"/><path d="M685.8212,904.1406 Q685.243,904.4375 684.6024,904.5781 Q683.9618,904.7344 683.2587,904.7344 Q680.7587,904.7344 679.4305,903.0938 Q678.118,901.4375 678.118,898.3125 Q678.118,895.1875 679.4305,893.5313 Q680.7587,891.875 683.2587,891.875 Q683.9618,891.875 684.6024,892.0313 Q685.2587,892.1875 685.8212,892.4844 L685.8212,895.2031 Q685.1962,894.625 684.6024,894.3594 Q684.0087,894.0781 683.3837,894.0781 Q682.0399,894.0781 681.3524,895.1563 Q680.6649,896.2188 680.6649,898.3125 Q680.6649,900.4063 681.3524,901.4844 Q682.0399,902.5469 683.3837,902.5469 Q684.0087,902.5469 684.6024,902.2813 Q685.1962,902 685.8212,901.4219 L685.8212,904.1406 Z " fill="#000000"/><text fill="#000000" font-family="sans-serif" font-size="12" lengthAdjust="spacing" textLength="26" x="696.8524" y="902.6543">NHS</text><line style="stroke:#A80036;stroke-width:1.5;" x1="668.8524" x2="724.8524" y1="914.5" y2="914.5"/><!--MD5=[f1a07dce2bbf9d5d1136bcee60ab0add]
class CovidReport--><rect codeLine="39" fill="#FEFECE" filter="url(#fzu57enwsk4tv)" height="40" id="CovidReport" style="stroke:#A80036;stroke-width:1.5;" width="107" x="430.3524" y="1006"/><ellipse cx="445.3524" cy="1022" fill="#ADD1B2" rx="11" ry="11" style="stroke:#A80036;stroke-width:1.0;"/><path d="M448.3212,1027.6406 Q447.743,1027.9375 447.1024,1028.0781 Q446.4618,1028.2344 445.7587,1028.2344 Q443.2587,1028.2344 441.9305,1026.5938 Q440.618,1024.9375 440.618,1021.8125 Q440.618,1018.6875 441.9305,1017.0313 Q443.2587,1015.375 445.7587,1015.375 Q446.4618,1015.375 447.1024,1015.5313 Q447.7587,1015.6875 448.3212,1015.9844 L448.3212,1018.7031 Q447.6962,1018.125 447.1024,1017.8594 Q446.5087,1017.5781 445.8837,1017.5781 Q444.5399,1017.5781 443.8524,1018.6563 Q443.1649,1019.7188 443.1649,1021.8125 Q443.1649,1023.9063 443.8524,1024.9844 Q444.5399,1026.0469 445.8837,1026.0469 Q446.5087,1026.0469 447.1024,1025.7813 Q447.6962,1025.5 448.3212,1024.9219 L448.3212,1027.6406 Z " fill="#000000"/><text fill="#000000" font-family="sans-serif" font-size="12" lengthAdjust="spacing" textLength="75" x="459.3524" y="1026.1543">CovidReport</text><line style="stroke:#A80036;stroke-width:1.5;" x1="431.3524" x2="536.3524" y1="1038" y2="1038"/><!--MD5=[0f07739f46effee96e095e9c408da841]
class TestParameter--><rect codeLine="42" fill="#FEFECE" filter="url(#fzu57enwsk4tv)" height="40" id="TestParameter" style="stroke:#A80036;stroke-width:1.5;" width="125" x="507.3524" y="882.5"/><ellipse cx="522.3524" cy="898.5" fill="#ADD1B2" rx="11" ry="11" style="stroke:#A80036;stroke-width:1.0;"/><path d="M525.3212,904.1406 Q524.743,904.4375 524.1024,904.5781 Q523.4618,904.7344 522.7587,904.7344 Q520.2587,904.7344 518.9305,903.0938 Q517.618,901.4375 517.618,898.3125 Q517.618,895.1875 518.9305,893.5313 Q520.2587,891.875 522.7587,891.875 Q523.4618,891.875 524.1024,892.0313 Q524.7587,892.1875 525.3212,892.4844 L525.3212,895.2031 Q524.6962,894.625 524.1024,894.3594 Q523.5087,894.0781 522.8837,894.0781 Q521.5399,894.0781 520.8524,895.1563 Q520.1649,896.2188 520.1649,898.3125 Q520.1649,900.4063 520.8524,901.4844 Q521.5399,902.5469 522.8837,902.5469 Q523.5087,902.5469 524.1024,902.2813 Q524.6962,902 525.3212,901.4219 L525.3212,904.1406 Z " fill="#000000"/><text fill="#000000" font-family="sans-serif" font-size="12" lengthAdjust="spacing" textLength="93" x="536.3524" y="902.6543">TestParameter</text><line style="stroke:#A80036;stroke-width:1.5;" x1="508.3524" x2="631.3524" y1="914.5" y2="914.5"/><!--MD5=[1f6362a5c8f21d8d6a0fce68f3a92a4e]
class Parameter--><rect codeLine="45" fill="#FEFECE" filter="url(#fzu57enwsk4tv)" height="65.6094" id="Parameter" style="stroke:#A80036;stroke-width:1.5;" width="98" x="306.8524" y="593"/><ellipse cx="321.8524" cy="609" fill="#ADD1B2" rx="11" ry="11" style="stroke:#A80036;stroke-width:1.0;"/><path d="M324.8212,614.6406 Q324.243,614.9375 323.6024,615.0781 Q322.9618,615.2344 322.2587,615.2344 Q319.7587,615.2344 318.4305,613.5938 Q317.118,611.9375 317.118,608.8125 Q317.118,605.6875 318.4305,604.0313 Q319.7587,602.375 322.2587,602.375 Q322.9618,602.375 323.6024,602.5313 Q324.2587,602.6875 324.8212,602.9844 L324.8212,605.7031 Q324.1962,605.125 323.6024,604.8594 Q323.0087,604.5781 322.3837,604.5781 Q321.0399,604.5781 320.3524,605.6563 Q319.6649,606.7188 319.6649,608.8125 Q319.6649,610.9063 320.3524,611.9844 Q321.0399,613.0469 322.3837,613.0469 Q323.0087,613.0469 323.6024,612.7813 Q324.1962,612.5 324.8212,611.9219 L324.8212,614.6406 Z " fill="#000000"/><text fill="#000000" font-family="sans-serif" font-size="12" lengthAdjust="spacing" textLength="66" x="335.8524" y="613.1543">Parameter</text><line style="stroke:#A80036;stroke-width:1.5;" x1="307.8524" x2="403.8524" y1="625" y2="625"/><text fill="#000000" font-family="sans-serif" font-size="11" lengthAdjust="spacing" textLength="36" x="312.8524" y="639.2104">-name</text><text fill="#000000" font-family="sans-serif" font-size="11" lengthAdjust="spacing" textLength="31" x="312.8524" y="652.0151">-code</text><!--MD5=[02e4b9b7573f1156f41e60aa5b4e25a4]
class Company--><rect codeLine="52" fill="#FEFECE" filter="url(#fzu57enwsk4tv)" height="52.8047" id="Company" style="stroke:#A80036;stroke-width:1.5;" width="89" x="182.3524" y="876"/><ellipse cx="197.3524" cy="892" fill="#ADD1B2" rx="11" ry="11" style="stroke:#A80036;stroke-width:1.0;"/><path d="M200.3212,897.6406 Q199.743,897.9375 199.1024,898.0781 Q198.4618,898.2344 197.7587,898.2344 Q195.2587,898.2344 193.9305,896.5938 Q192.618,894.9375 192.618,891.8125 Q192.618,888.6875 193.9305,887.0313 Q195.2587,885.375 197.7587,885.375 Q198.4618,885.375 199.1024,885.5313 Q199.7587,885.6875 200.3212,885.9844 L200.3212,888.7031 Q199.6962,888.125 199.1024,887.8594 Q198.5087,887.5781 197.8837,887.5781 Q196.5399,887.5781 195.8524,888.6563 Q195.1649,889.7188 195.1649,891.8125 Q195.1649,893.9063 195.8524,894.9844 Q196.5399,896.0469 197.8837,896.0469 Q198.5087,896.0469 199.1024,895.7813 Q199.6962,895.5 200.3212,894.9219 L200.3212,897.6406 Z " fill="#000000"/><text fill="#000000" font-family="sans-serif" font-size="12" lengthAdjust="spacing" textLength="57" x="211.3524" y="896.1543">Company</text><line style="stroke:#A80036;stroke-width:1.5;" x1="183.3524" x2="270.3524" y1="908" y2="908"/><text fill="#000000" font-family="sans-serif" font-size="11" lengthAdjust="spacing" textLength="70" x="188.3524" y="922.2104">-designation</text><!--MD5=[7eb5faf4ad3ab74e059019f656ce341b]
link NHS to CovidReport--><path codeLine="56" d="M667.6823,919.4132 C628.8301,941.9402 560.1875,981.74 518.6703,1005.8122 " fill="none" id="NHS-CovidReport" style="stroke:#A80036;stroke-width:1.0;"/><polygon fill="#000000" points="605.1779,965.0584,595.8788,967.0529,598.8272,972.1379,605.1779,965.0584" style="stroke:#000000;stroke-width:1.0;"/><text fill="#000000" font-family="sans-serif" font-size="13" lengthAdjust="spacing" textLength="84" x="609.8524" y="972.0669">requested by</text><text fill="#000000" font-family="sans-serif" font-size="13" lengthAdjust="spacing" textLength="8" x="652.0117" y="918.6723">1</text><text fill="#000000" font-family="sans-serif" font-size="13" lengthAdjust="spacing" textLength="7" x="520.8699" y="994.7653">*</text><!--MD5=[160b8bcb9e97c954b63f2c4dd810af24]
link Company to CovidReport--><path codeLine="57" d="M271.6184,924.0121 C319.6519,947.0943 395.3334,983.4626 442.1501,1005.9602 " fill="none" id="Company-CovidReport" style="stroke:#A80036;stroke-width:1.0;"/><polygon fill="#000000" points="378.3457,965.4008,385.2254,971.9674,387.7713,966.6695,378.3457,965.4008" style="stroke:#000000;stroke-width:1.0;"/><text fill="#000000" font-family="sans-serif" font-size="13" lengthAdjust="spacing" textLength="68" x="391.8524" y="972.0669">created by</text><text fill="#000000" font-family="sans-serif" font-size="13" lengthAdjust="spacing" textLength="8" x="279.3905" y="923.3383">1</text><text fill="#000000" font-family="sans-serif" font-size="13" lengthAdjust="spacing" textLength="7" x="421.8719" y="994.9568">*</text><!--MD5=[bef7460411a029a61cc51a0d251ac694]
link Parameter to Company--><path codeLine="58" d="M346.6479,659.2297 C337.0813,691.8057 320.7356,742.4789 300.8524,784 C285.0341,817.0326 262.1307,852.3251 246.0038,875.7189 " fill="none" id="Parameter-Company" style="stroke:#A80036;stroke-width:1.0;"/><polygon fill="#000000" points="315.9602,771.0324,309.4821,777.9955,314.8122,780.4734,315.9602,771.0324" style="stroke:#000000;stroke-width:1.0;"/><text fill="#000000" font-family="sans-serif" font-size="13" lengthAdjust="spacing" textLength="130" x="322.8524" y="780.0669">capable of analysing</text><text fill="#000000" font-family="sans-serif" font-size="13" lengthAdjust="spacing" textLength="7" x="337.3849" y="678.5982">*</text><text fill="#000000" font-family="sans-serif" font-size="13" lengthAdjust="spacing" textLength="8" x="241.5076" y="864.8962">1</text><!--MD5=[6d9eb9a083ac0654c8b63743033752d3]
link TestType to Company--><path codeLine="59" d="M226.2759,659.2853 C224.9352,691.2572 223.3072,740.9237 223.8524,784 C224.2509,815.4841 225.2447,851.6623 225.9798,875.6777 " fill="none" id="TestType-Company" style="stroke:#A80036;stroke-width:1.0;"/><polygon fill="#000000" points="228.8592,770.5664,225.9079,779.6075,231.7858,779.6155,228.8592,770.5664" style="stroke:#000000;stroke-width:1.0;"/><text fill="#000000" font-family="sans-serif" font-size="13" lengthAdjust="spacing" textLength="58" x="237.8524" y="780.0669">conducts</text><text fill="#000000" font-family="sans-serif" font-size="13" lengthAdjust="spacing" textLength="7" x="218.3717" y="678.6637">*</text><text fill="#000000" font-family="sans-serif" font-size="13" lengthAdjust="spacing" textLength="8" x="216.853" y="864.8455">1</text><!--MD5=[150ee6e4dbb30ab82336f9e174f6c4ed]
link Test to Company--><path codeLine="60" d="M188.1189,429.3291 C161.3311,451.2806 130.8524,484.7672 130.8524,523.5 C130.8524,523.5 130.8524,523.5 130.8524,814.5 C130.8524,844.7967 157.1552,867.4874 182.225,882.2337 " fill="none" id="Test-Company" style="stroke:#A80036;stroke-width:1.0;"/><polygon fill="#000000" points="135.9175,692.5668,132.8611,701.5729,138.7384,701.6494,135.9175,692.5668" style="stroke:#000000;stroke-width:1.0;"/><text fill="#000000" font-family="sans-serif" font-size="13" lengthAdjust="spacing" textLength="58" x="144.8524" y="702.0669">performs</text><text fill="#000000" font-family="sans-serif" font-size="13" lengthAdjust="spacing" textLength="7" x="173.4179" y="429.9378">*</text><text fill="#000000" font-family="sans-serif" font-size="13" lengthAdjust="spacing" textLength="8" x="166.475" y="874.9015">1</text><!--MD5=[e81fca0f34dd6b0a10f4f75277b45ff4]
link Client to Company--><path codeLine="61" d="M32.8658,149.3077 C27.711,168.8751 23.8524,190.2764 23.8524,210.5 C23.8524,210.5 23.8524,210.5 23.8524,814.5 C23.8524,848.7827 122.5468,878.0409 182.3032,892.6139 " fill="none" id="Client-Company" style="stroke:#A80036;stroke-width:1.0;"/><polygon fill="#000000" points="27.8669,518.6645,26.7684,528.1114,32.531,526.9529,27.8669,518.6645" style="stroke:#000000;stroke-width:1.0;"/><text fill="#000000" font-family="sans-serif" font-size="13" lengthAdjust="spacing" textLength="39" x="37.8524" y="528.0669">knows</text><text fill="#000000" font-family="sans-serif" font-size="13" lengthAdjust="spacing" textLength="23" x="6" y="169.4859">0..*</text><text fill="#000000" font-family="sans-serif" font-size="13" lengthAdjust="spacing" textLength="8" x="166.2622" y="904.3128">1</text><!--MD5=[7d615427424eb1e9d8965c4eb17ecbf5]
link TestParameter to Test--><path codeLine="62" d="M587.1219,882.2884 C599.8121,865.3399 614.8524,839.8959 614.8524,814.5 C614.8524,523.5 614.8524,523.5 614.8524,523.5 C614.8524,451.2305 366.0828,416.7442 267.4495,405.9111 " fill="none" id="TestParameter-Test" style="stroke:#A80036;stroke-width:1.0;"/><polygon fill="#000000" points="622.6385,701.7182,620.0388,692.5699,615.158,695.8451,622.6385,701.7182" style="stroke:#000000;stroke-width:1.0;"/><text fill="#000000" font-family="sans-serif" font-size="13" lengthAdjust="spacing" textLength="54" x="628.8524" y="702.0669">contains</text><text fill="#000000" font-family="sans-serif" font-size="13" lengthAdjust="spacing" textLength="7" x="583.9946" y="871.5801">*</text><text fill="#000000" font-family="sans-serif" font-size="13" lengthAdjust="spacing" textLength="8" x="275.4877" y="402.3264">1</text><!--MD5=[dab4a90b4cb7e97efbac2bbfae23b642]
link Parameter to TestParameter--><path codeLine="63" d="M381.4533,659.0777 C426.274,716.9886 517.663,835.0684 554.2235,882.3065 " fill="none" id="Parameter-TestParameter" style="stroke:#A80036;stroke-width:1.0;"/><text fill="#000000" font-family="sans-serif" font-size="13" lengthAdjust="spacing" textLength="65" x="477.8524" y="780.0669">contains&gt;</text><text fill="#000000" font-family="sans-serif" font-size="13" lengthAdjust="spacing" textLength="8" x="377.436" y="678.6744">1</text><text fill="#000000" font-family="sans-serif" font-size="13" lengthAdjust="spacing" textLength="8" x="540.7029" y="871.6033">1</text><!--MD5=[166b32c017035243ed8780a05e3f542e]
link TestParameterResult to TestParameter--><path codeLine="64" d="M741.0329,652.5158 C725.6331,696.1311 690.6632,784.3178 640.8524,846 C629.6688,859.8491 614.5246,872.4805 601.0953,882.2708 " fill="none" id="TestParameterResult-TestParameter" style="stroke:#A80036;stroke-width:1.0;"/><text fill="#000000" font-family="sans-serif" font-size="13" lengthAdjust="spacing" textLength="65" x="691.8524" y="780.0669">contains&gt;</text><text fill="#000000" font-family="sans-serif" font-size="13" lengthAdjust="spacing" textLength="8" x="730.0684" y="672.4868">1</text><text fill="#000000" font-family="sans-serif" font-size="13" lengthAdjust="spacing" textLength="8" x="600.7574" y="871.5575">1</text><!--MD5=[502b51bc079239060389dab43b7d3470]
link Client to Test--><path codeLine="65" d="M95.9402,149.1032 C127.5671,209.7369 172.2956,295.4886 200.6846,349.915 " fill="none" id="Client-Test" style="stroke:#A80036;stroke-width:1.0;"/><polygon fill="#000000" points="155.54,245.1332,157.1174,254.5121,162.3289,251.7937,155.54,245.1332" style="stroke:#000000;stroke-width:1.0;"/><text fill="#000000" font-family="sans-serif" font-size="13" lengthAdjust="spacing" textLength="84" x="166.8524" y="254.0669">requested by</text><text fill="#000000" font-family="sans-serif" font-size="13" lengthAdjust="spacing" textLength="7" x="92.4039" y="169.2603">*</text><text fill="#000000" font-family="sans-serif" font-size="13" lengthAdjust="spacing" textLength="8" x="188.4964" y="338.9825">1</text><!--MD5=[c23963f6e403fc3ebec8dae22c30ade6]
link Test to Parameter--><path codeLine="67" d="M257.7012,454.2353 C282.1532,497.0263 316.011,556.2776 336.8938,592.8223 " fill="none" id="Test-Parameter" style="stroke:#A80036;stroke-width:1.0;"/><polygon fill="#000000" points="309.3331,527.9076,307.3972,518.5962,302.2938,521.5124,309.3331,527.9076" style="stroke:#000000;stroke-width:1.0;"/><text fill="#000000" font-family="sans-serif" font-size="13" lengthAdjust="spacing" textLength="12" x="315.8524" y="528.0669">of</text><text fill="#000000" font-family="sans-serif" font-size="13" lengthAdjust="spacing" textLength="8" x="253.0131" y="473.9628">1</text><text fill="#000000" font-family="sans-serif" font-size="13" lengthAdjust="spacing" textLength="7" x="325.4723" y="581.9323">*</text><!--MD5=[e981d4f96c4342412d1e68160b30cf70]
link Test to TestType--><path codeLine="68" d="M227.8524,454.2353 C227.8524,497.0263 227.8524,556.2776 227.8524,592.8223 " fill="none" id="Test-TestType" style="stroke:#A80036;stroke-width:1.0;"/><polygon fill="#000000" points="232.8524,528.5664,235.7913,519.5213,229.9135,519.5213,232.8524,528.5664" style="stroke:#000000;stroke-width:1.0;"/><text fill="#000000" font-family="sans-serif" font-size="13" lengthAdjust="spacing" textLength="26" x="241.8524" y="528.0669">is of</text><text fill="#000000" font-family="sans-serif" font-size="13" lengthAdjust="spacing" textLength="8" x="219.3399" y="473.9628">1</text><text fill="#000000" font-family="sans-serif" font-size="13" lengthAdjust="spacing" textLength="8" x="219.0649" y="581.9323">1</text><!--MD5=[b46de3652643e72a6cc376cab94d00c6]
@startuml
skinparam classAttributeIconSize 0
hide empty methods



class Client {
  -name
  -ccn
  -nhsNumber
  -tin
  -birthDate
  -sex
  -phoneNumber
  -email
}



class Test {
  -code
  -nhsCode
  -description
  -state
  -createdAt
}

class TestType {
  -code
  -description
}

class TestParameterResult{
    -result
  }

class NHS{
  }

class CovidReport{
  }

class TestParameter{
  }

class Parameter {
  -name
  -code
}



class Company {
  -designation
}

CovidReport "*" -u- "1" NHS: requested by >
CovidReport "*" -u- "1" Company: created by >
Company "1" - -u- - "*" Parameter: capable of analysing >
Company "1" - -u- - "*" TestType: conducts >
Company "1" - -u- - "*" Test: performs >
Company "1" - -u- - "0..*" Client: knows >
Test "1" - -u- - "*" TestParameter: contains >
TestParameter "1" - -u- - "1" Parameter: contains>
TestParameter "1" - -u- - "1" TestParameterResult: contains>
Test "1" - -u- - "*" Client: requested by >

Test "1" - - - "*" Parameter : of >
Test "1" - - - "1" TestType : is of >
@enduml

PlantUML version 1.2021.7(Sun May 23 12:40:07 UTC 2021)
(GPL source distribution)
Java Runtime: OpenJDK Runtime Environment
JVM: OpenJDK 64-Bit Server VM
Default Encoding: UTF-8
Language: en
Country: US
--></g></svg>