<?xml version="1.0" encoding="UTF-8" standalone="no"?><svg xmlns="http://www.w3.org/2000/svg" xmlns:xlink="http://www.w3.org/1999/xlink" contentScriptType="application/ecmascript" contentStyleType="text/css" height="450px" preserveAspectRatio="none" style="width:1477px;height:450px;background:#FFFFFF;" version="1.1" viewBox="0 0 1477 450" width="1477px" zoomAndPan="magnify"><defs><filter height="300%" id="f1bzdk13zj619w" width="300%" x="-1" y="-1"><feGaussianBlur result="blurOut" stdDeviation="2.0"/><feColorMatrix in="blurOut" result="blurOut2" type="matrix" values="0 0 0 0 0 0 0 0 0 0 0 0 0 0 0 0 0 0 .4 0"/><feOffset dx="4.0" dy="4.0" in="blurOut2" result="blurOut3"/><feBlend in="SourceGraphic" in2="blurOut3" mode="normal"/></filter></defs><g><!--MD5=[996a0e22aa5fcad0a8b55c37b2fd323d]
cluster Task--><polygon fill="#FFFFFF" filter="url(#f1bzdk13zj619w)" points="1236,6,1279,6,1286,28.2969,1460,28.2969,1460,263,1236,263,1236,6" style="stroke:#000000;stroke-width:1.5;"/><line style="stroke:#000000;stroke-width:1.5;" x1="1236" x2="1286" y1="28.2969" y2="28.2969"/><text fill="#000000" font-family="sans-serif" font-size="14" font-weight="bold" lengthAdjust="spacing" textLength="37" x="1240" y="20.9951">Task</text><!--MD5=[121a8bf1197281ab89ed693fab589f94]
cluster Domain--><polygon fill="#FFFFFF" filter="url(#f1bzdk13zj619w)" points="16,102,80,102,87,124.2969,1228,124.2969,1228,443,16,443,16,102" style="stroke:#000000;stroke-width:1.5;"/><line style="stroke:#000000;stroke-width:1.5;" x1="16" x2="87" y1="124.2969" y2="124.2969"/><text fill="#000000" font-family="sans-serif" font-size="14" font-weight="bold" lengthAdjust="spacing" textLength="58" x="20" y="116.9951">Domain</text><!--MD5=[15636c1ca4a123c16a2a1a8e90aca7a9]
cluster Model--><polygon fill="#FFFFFF" filter="url(#f1bzdk13zj619w)" points="24,288,77,288,84,310.2969,1220,310.2969,1220,435,24,435,24,288" style="stroke:#000000;stroke-width:1.5;"/><line style="stroke:#000000;stroke-width:1.5;" x1="24" x2="84" y1="310.2969" y2="310.2969"/><text fill="#000000" font-family="sans-serif" font-size="14" font-weight="bold" lengthAdjust="spacing" textLength="47" x="28" y="302.9951">Model</text><!--MD5=[8dd535d56cd4cf7faf64fdd082ba836e]
cluster Stores--><polygon fill="#FFFFFF" filter="url(#f1bzdk13zj619w)" points="348,129,406,129,413,151.2969,782,151.2969,782,263,348,263,348,129" style="stroke:#000000;stroke-width:1.5;"/><line style="stroke:#000000;stroke-width:1.5;" x1="348" x2="413" y1="151.2969" y2="151.2969"/><text fill="#000000" font-family="sans-serif" font-size="14" font-weight="bold" lengthAdjust="spacing" textLength="52" x="352" y="143.9951">Stores</text><!--MD5=[052b74ae0f573006023c31132c0f0896]
class SendNhsReportTask--><rect codeLine="9" fill="#FEFECE" filter="url(#f1bzdk13zj619w)" height="99.2188" id="SendNhsReportTask" style="stroke:#A80036;stroke-width:1.5;" width="174" x="1244" y="156"/><ellipse cx="1265.75" cy="172" fill="#ADD1B2" rx="11" ry="11" style="stroke:#A80036;stroke-width:1.0;"/><path d="M1268.7188,177.6406 Q1268.1406,177.9375 1267.5,178.0781 Q1266.8594,178.2344 1266.1563,178.2344 Q1263.6563,178.2344 1262.3281,176.5938 Q1261.0156,174.9375 1261.0156,171.8125 Q1261.0156,168.6875 1262.3281,167.0313 Q1263.6563,165.375 1266.1563,165.375 Q1266.8594,165.375 1267.5,165.5313 Q1268.1563,165.6875 1268.7188,165.9844 L1268.7188,168.7031 Q1268.0938,168.125 1267.5,167.8594 Q1266.9063,167.5781 1266.2813,167.5781 Q1264.9375,167.5781 1264.25,168.6563 Q1263.5625,169.7188 1263.5625,171.8125 Q1263.5625,173.9063 1264.25,174.9844 Q1264.9375,176.0469 1266.2813,176.0469 Q1266.9063,176.0469 1267.5,175.7813 Q1268.0938,175.5 1268.7188,174.9219 L1268.7188,177.6406 Z " fill="#000000"/><text fill="#000000" font-family="sans-serif" font-size="12" lengthAdjust="spacing" textLength="127" x="1281.25" y="176.1543">SendNhsReportTask</text><line style="stroke:#A80036;stroke-width:1.5;" x1="1245" x2="1417" y1="188" y2="188"/><line style="stroke:#A80036;stroke-width:1.5;" x1="1245" x2="1417" y1="196" y2="196"/><text fill="#000000" font-family="sans-serif" font-size="11" lengthAdjust="spacing" textLength="36" x="1250" y="210.2104">+run()</text><text fill="#000000" font-family="sans-serif" font-size="11" lengthAdjust="spacing" textLength="113" x="1250" y="223.0151">-getConfigurations()</text><text fill="#000000" font-family="sans-serif" font-size="11" lengthAdjust="spacing" textLength="162" x="1250" y="235.8198">-getLinearRegressionModel()</text><text fill="#000000" font-family="sans-serif" font-size="11" lengthAdjust="spacing" textLength="60" x="1250" y="248.6245">-logEvent()</text><!--MD5=[30c6b2ed4da85cef5b9d586bf674f588]
class TaskManager--><rect codeLine="17" fill="#FEFECE" filter="url(#f1bzdk13zj619w)" height="60.8047" id="TaskManager" style="stroke:#A80036;stroke-width:1.5;" width="208" x="1244" y="33"/><ellipse cx="1301.75" cy="49" fill="#ADD1B2" rx="11" ry="11" style="stroke:#A80036;stroke-width:1.0;"/><path d="M1304.7188,54.6406 Q1304.1406,54.9375 1303.5,55.0781 Q1302.8594,55.2344 1302.1563,55.2344 Q1299.6563,55.2344 1298.3281,53.5938 Q1297.0156,51.9375 1297.0156,48.8125 Q1297.0156,45.6875 1298.3281,44.0313 Q1299.6563,42.375 1302.1563,42.375 Q1302.8594,42.375 1303.5,42.5313 Q1304.1563,42.6875 1304.7188,42.9844 L1304.7188,45.7031 Q1304.0938,45.125 1303.5,44.8594 Q1302.9063,44.5781 1302.2813,44.5781 Q1300.9375,44.5781 1300.25,45.6563 Q1299.5625,46.7188 1299.5625,48.8125 Q1299.5625,50.9063 1300.25,51.9844 Q1300.9375,53.0469 1302.2813,53.0469 Q1302.9063,53.0469 1303.5,52.7813 Q1304.0938,52.5 1304.7188,51.9219 L1304.7188,54.6406 Z " fill="#000000"/><text fill="#000000" font-family="sans-serif" font-size="12" lengthAdjust="spacing" textLength="84" x="1322.25" y="53.1543">TaskManager</text><line style="stroke:#A80036;stroke-width:1.5;" x1="1245" x2="1451" y1="65" y2="65"/><line style="stroke:#A80036;stroke-width:1.5;" x1="1245" x2="1451" y1="73" y2="73"/><text fill="#000000" font-family="sans-serif" font-size="11" lengthAdjust="spacing" textLength="196" x="1250" y="87.2104">scheduleNhsReportTask(company)</text><!--MD5=[df38be88ccee13e832d6fafd6288a4ca]
class Test--><rect codeLine="26" fill="#FEFECE" filter="url(#f1bzdk13zj619w)" height="86.4141" id="Test" style="stroke:#A80036;stroke-width:1.5;" width="150" x="683" y="328"/><ellipse cx="740.25" cy="344" fill="#ADD1B2" rx="11" ry="11" style="stroke:#A80036;stroke-width:1.0;"/><path d="M743.2188,349.6406 Q742.6406,349.9375 742,350.0781 Q741.3594,350.2344 740.6563,350.2344 Q738.1563,350.2344 736.8281,348.5938 Q735.5156,346.9375 735.5156,343.8125 Q735.5156,340.6875 736.8281,339.0313 Q738.1563,337.375 740.6563,337.375 Q741.3594,337.375 742,337.5313 Q742.6563,337.6875 743.2188,337.9844 L743.2188,340.7031 Q742.5938,340.125 742,339.8594 Q741.4063,339.5781 740.7813,339.5781 Q739.4375,339.5781 738.75,340.6563 Q738.0625,341.7188 738.0625,343.8125 Q738.0625,345.9063 738.75,346.9844 Q739.4375,348.0469 740.7813,348.0469 Q741.4063,348.0469 742,347.7813 Q742.5938,347.5 743.2188,346.9219 L743.2188,349.6406 Z " fill="#000000"/><text fill="#000000" font-family="sans-serif" font-size="12" lengthAdjust="spacing" textLength="27" x="760.75" y="348.1543">Test</text><line style="stroke:#A80036;stroke-width:1.5;" x1="684" x2="832" y1="360" y2="360"/><line style="stroke:#A80036;stroke-width:1.5;" x1="684" x2="832" y1="368" y2="368"/><text fill="#000000" font-family="sans-serif" font-size="11" lengthAdjust="spacing" textLength="138" x="689" y="382.2104">+getTestParameterFor()</text><text fill="#000000" font-family="sans-serif" font-size="11" lengthAdjust="spacing" textLength="87" x="689" y="395.0151">+getTestType()</text><text fill="#000000" font-family="sans-serif" font-size="11" lengthAdjust="spacing" textLength="116" x="689" y="407.8198">+getValidationDate()</text><!--MD5=[0f07739f46effee96e095e9c408da841]
class TestParameter--><rect codeLine="32" fill="#FEFECE" filter="url(#f1bzdk13zj619w)" height="60.8047" id="TestParameter" style="stroke:#A80036;stroke-width:1.5;" width="167" x="481.5" y="340.5"/><ellipse cx="515.4" cy="356.5" fill="#ADD1B2" rx="11" ry="11" style="stroke:#A80036;stroke-width:1.0;"/><path d="M518.3688,362.1406 Q517.7906,362.4375 517.15,362.5781 Q516.5094,362.7344 515.8063,362.7344 Q513.3063,362.7344 511.9781,361.0938 Q510.6656,359.4375 510.6656,356.3125 Q510.6656,353.1875 511.9781,351.5313 Q513.3063,349.875 515.8063,349.875 Q516.5094,349.875 517.15,350.0313 Q517.8063,350.1875 518.3688,350.4844 L518.3688,353.2031 Q517.7438,352.625 517.15,352.3594 Q516.5563,352.0781 515.9313,352.0781 Q514.5875,352.0781 513.9,353.1563 Q513.2125,354.2188 513.2125,356.3125 Q513.2125,358.4063 513.9,359.4844 Q514.5875,360.5469 515.9313,360.5469 Q516.5563,360.5469 517.15,360.2813 Q517.7438,360 518.3688,359.4219 L518.3688,362.1406 Z " fill="#000000"/><text fill="#000000" font-family="sans-serif" font-size="12" lengthAdjust="spacing" textLength="93" x="533.6" y="360.6543">TestParameter</text><line style="stroke:#A80036;stroke-width:1.5;" x1="482.5" x2="647.5" y1="372.5" y2="372.5"/><line style="stroke:#A80036;stroke-width:1.5;" x1="482.5" x2="647.5" y1="380.5" y2="380.5"/><text fill="#000000" font-family="sans-serif" font-size="11" lengthAdjust="spacing" textLength="155" x="487.5" y="394.7104">+getTestParameterResult()</text><!--MD5=[4e608140b854dae633589343bce77383]
class TestParameterResult--><rect codeLine="38" fill="#FEFECE" filter="url(#f1bzdk13zj619w)" height="60.8047" id="TestParameterResult" style="stroke:#A80036;stroke-width:1.5;" width="164" x="282" y="340.5"/><ellipse cx="297" cy="356.5" fill="#ADD1B2" rx="11" ry="11" style="stroke:#A80036;stroke-width:1.0;"/><path d="M299.9688,362.1406 Q299.3906,362.4375 298.75,362.5781 Q298.1094,362.7344 297.4063,362.7344 Q294.9063,362.7344 293.5781,361.0938 Q292.2656,359.4375 292.2656,356.3125 Q292.2656,353.1875 293.5781,351.5313 Q294.9063,349.875 297.4063,349.875 Q298.1094,349.875 298.75,350.0313 Q299.4063,350.1875 299.9688,350.4844 L299.9688,353.2031 Q299.3438,352.625 298.75,352.3594 Q298.1563,352.0781 297.5313,352.0781 Q296.1875,352.0781 295.5,353.1563 Q294.8125,354.2188 294.8125,356.3125 Q294.8125,358.4063 295.5,359.4844 Q296.1875,360.5469 297.5313,360.5469 Q298.1563,360.5469 298.75,360.2813 Q299.3438,360 299.9688,359.4219 L299.9688,362.1406 Z " fill="#000000"/><text fill="#000000" font-family="sans-serif" font-size="12" lengthAdjust="spacing" textLength="132" x="311" y="360.6543">TestParameterResult</text><line style="stroke:#A80036;stroke-width:1.5;" x1="283" x2="445" y1="372.5" y2="372.5"/><line style="stroke:#A80036;stroke-width:1.5;" x1="283" x2="445" y1="380.5" y2="380.5"/><text fill="#000000" font-family="sans-serif" font-size="11" lengthAdjust="spacing" textLength="66" x="288" y="394.7104">+getValue()</text><!--MD5=[aeb3272166074d8737a70b61b1e71682]
class TestType--><rect codeLine="42" fill="#FEFECE" filter="url(#f1bzdk13zj619w)" height="60.8047" id="TestType" style="stroke:#A80036;stroke-width:1.5;" width="111" x="135.5" y="340.5"/><ellipse cx="160.85" cy="356.5" fill="#ADD1B2" rx="11" ry="11" style="stroke:#A80036;stroke-width:1.0;"/><path d="M163.8188,362.1406 Q163.2406,362.4375 162.6,362.5781 Q161.9594,362.7344 161.2563,362.7344 Q158.7563,362.7344 157.4281,361.0938 Q156.1156,359.4375 156.1156,356.3125 Q156.1156,353.1875 157.4281,351.5313 Q158.7563,349.875 161.2563,349.875 Q161.9594,349.875 162.6,350.0313 Q163.2563,350.1875 163.8188,350.4844 L163.8188,353.2031 Q163.1938,352.625 162.6,352.3594 Q162.0063,352.0781 161.3813,352.0781 Q160.0375,352.0781 159.35,353.1563 Q158.6625,354.2188 158.6625,356.3125 Q158.6625,358.4063 159.35,359.4844 Q160.0375,360.5469 161.3813,360.5469 Q162.0063,360.5469 162.6,360.2813 Q163.1938,360 163.8188,359.4219 L163.8188,362.1406 Z " fill="#000000"/><text fill="#000000" font-family="sans-serif" font-size="12" lengthAdjust="spacing" textLength="56" x="177.15" y="360.6543">TestType</text><line style="stroke:#A80036;stroke-width:1.5;" x1="136.5" x2="245.5" y1="372.5" y2="372.5"/><line style="stroke:#A80036;stroke-width:1.5;" x1="136.5" x2="245.5" y1="380.5" y2="380.5"/><text fill="#000000" font-family="sans-serif" font-size="11" lengthAdjust="spacing" textLength="99" x="141.5" y="394.7104">+getDescription()</text><!--MD5=[02e4b9b7573f1156f41e60aa5b4e25a4]
class Company--><rect codeLine="46" fill="#FEFECE" filter="url(#f1bzdk13zj619w)" height="112.0234" id="Company" style="stroke:#A80036;stroke-width:1.5;" width="345" x="867.5" y="315"/><ellipse cx="1007.25" cy="331" fill="#ADD1B2" rx="11" ry="11" style="stroke:#A80036;stroke-width:1.0;"/><path d="M1010.2188,336.6406 Q1009.6406,336.9375 1009,337.0781 Q1008.3594,337.2344 1007.6563,337.2344 Q1005.1563,337.2344 1003.8281,335.5938 Q1002.5156,333.9375 1002.5156,330.8125 Q1002.5156,327.6875 1003.8281,326.0313 Q1005.1563,324.375 1007.6563,324.375 Q1008.3594,324.375 1009,324.5313 Q1009.6563,324.6875 1010.2188,324.9844 L1010.2188,327.7031 Q1009.5938,327.125 1009,326.8594 Q1008.4063,326.5781 1007.7813,326.5781 Q1006.4375,326.5781 1005.75,327.6563 Q1005.0625,328.7188 1005.0625,330.8125 Q1005.0625,332.9063 1005.75,333.9844 Q1006.4375,335.0469 1007.7813,335.0469 Q1008.4063,335.0469 1009,334.7813 Q1009.5938,334.5 1010.2188,333.9219 L1010.2188,336.6406 Z " fill="#000000"/><text fill="#000000" font-family="sans-serif" font-size="12" lengthAdjust="spacing" textLength="57" x="1027.75" y="335.1543">Company</text><line style="stroke:#A80036;stroke-width:1.5;" x1="868.5" x2="1211.5" y1="347" y2="347"/><line style="stroke:#A80036;stroke-width:1.5;" x1="868.5" x2="1211.5" y1="355" y2="355"/><text fill="#000000" font-family="sans-serif" font-size="11" lengthAdjust="spacing" textLength="91" x="873.5" y="369.2104">+getTestStore()</text><text fill="#000000" font-family="sans-serif" font-size="11" lengthAdjust="spacing" textLength="275" x="873.5" y="382.0151">+getWorkingDaysForInterval(startDate, endDate)</text><text fill="#000000" font-family="sans-serif" font-size="11" lengthAdjust="spacing" textLength="333" x="873.5" y="394.8198">+getWorkingDaysForHistoricalPoints(date, historicalPoints)</text><text fill="#000000" font-family="sans-serif" font-size="11" lengthAdjust="spacing" textLength="117" x="873.5" y="407.6245">+isWorkingDay(date)</text><text fill="#000000" font-family="sans-serif" font-size="11" lengthAdjust="spacing" textLength="150" x="873.5" y="420.4292">+setSendNhsReportTask()</text><!--MD5=[ed6624c6556d5e7b1bd23032162d20b7]
class Client--><rect codeLine="54" fill="#FEFECE" filter="url(#f1bzdk13zj619w)" height="60.8047" id="Client" style="stroke:#A80036;stroke-width:1.5;" width="68" x="32" y="340.5"/><ellipse cx="47.45" cy="356.5" fill="#ADD1B2" rx="11" ry="11" style="stroke:#A80036;stroke-width:1.0;"/><path d="M50.4188,362.1406 Q49.8406,362.4375 49.2,362.5781 Q48.5594,362.7344 47.8563,362.7344 Q45.3563,362.7344 44.0281,361.0938 Q42.7156,359.4375 42.7156,356.3125 Q42.7156,353.1875 44.0281,351.5313 Q45.3563,349.875 47.8563,349.875 Q48.5594,349.875 49.2,350.0313 Q49.8563,350.1875 50.4188,350.4844 L50.4188,353.2031 Q49.7938,352.625 49.2,352.3594 Q48.6063,352.0781 47.9813,352.0781 Q46.6375,352.0781 45.95,353.1563 Q45.2625,354.2188 45.2625,356.3125 Q45.2625,358.4063 45.95,359.4844 Q46.6375,360.5469 47.9813,360.5469 Q48.6063,360.5469 49.2,360.2813 Q49.7938,360 50.4188,359.4219 L50.4188,362.1406 Z " fill="#000000"/><text fill="#000000" font-family="sans-serif" font-size="12" lengthAdjust="spacing" textLength="35" x="61.55" y="360.6543">Client</text><line style="stroke:#A80036;stroke-width:1.5;" x1="33" x2="99" y1="372.5" y2="372.5"/><line style="stroke:#A80036;stroke-width:1.5;" x1="33" x2="99" y1="380.5" y2="380.5"/><text fill="#000000" font-family="sans-serif" font-size="11" lengthAdjust="spacing" textLength="56" x="38" y="394.7104">+getAge()</text><!--MD5=[0f6f7964b844a64b0496af0dda7914bd]
class TestStore--><rect codeLine="61" fill="#FEFECE" filter="url(#f1bzdk13zj619w)" height="99.2188" id="TestStore" style="stroke:#A80036;stroke-width:1.5;" width="419" x="355.5" y="156"/><ellipse cx="530.25" cy="172" fill="#ADD1B2" rx="11" ry="11" style="stroke:#A80036;stroke-width:1.0;"/><path d="M533.2188,177.6406 Q532.6406,177.9375 532,178.0781 Q531.3594,178.2344 530.6563,178.2344 Q528.1563,178.2344 526.8281,176.5938 Q525.5156,174.9375 525.5156,171.8125 Q525.5156,168.6875 526.8281,167.0313 Q528.1563,165.375 530.6563,165.375 Q531.3594,165.375 532,165.5313 Q532.6563,165.6875 533.2188,165.9844 L533.2188,168.7031 Q532.5938,168.125 532,167.8594 Q531.4063,167.5781 530.7813,167.5781 Q529.4375,167.5781 528.75,168.6563 Q528.0625,169.7188 528.0625,171.8125 Q528.0625,173.9063 528.75,174.9844 Q529.4375,176.0469 530.7813,176.0469 Q531.4063,176.0469 532,175.7813 Q532.5938,175.5 533.2188,174.9219 L533.2188,177.6406 Z " fill="#000000"/><text fill="#000000" font-family="sans-serif" font-size="12" lengthAdjust="spacing" textLength="61" x="550.75" y="176.1543">TestStore</text><line style="stroke:#A80036;stroke-width:1.5;" x1="356.5" x2="773.5" y1="188" y2="188"/><line style="stroke:#A80036;stroke-width:1.5;" x1="356.5" x2="773.5" y1="196" y2="196"/><text fill="#000000" font-family="sans-serif" font-size="11" lengthAdjust="spacing" textLength="258" x="361.5" y="210.2104">+getCovidTestsInInterval(startDate, endDate)</text><text fill="#000000" font-family="sans-serif" font-size="11" lengthAdjust="spacing" textLength="376" x="361.5" y="223.0151">+getDailyNumberOfCovidTestsInInterval(dataSetDays, covidTests)</text><text fill="#000000" font-family="sans-serif" font-size="11" lengthAdjust="spacing" textLength="407" x="361.5" y="235.8198">+getDailyNumberOfPositiveCovidTestsForInterval(date, historicalPoints)</text><text fill="#000000" font-family="sans-serif" font-size="11" lengthAdjust="spacing" textLength="390" x="361.5" y="248.6245">+getDailyMeanAgeOfCovidTestsForInterval(dataSetDays, covidTests)</text><!--MD5=[74054751ba3b9eca75fda5044dcc84d9]
class TimerTask--><rect codeLine="72" fill="#FEFECE" filter="url(#f1bzdk13zj619w)" height="79.5469" id="TimerTask" style="stroke:#A80036;stroke-width:1.5;" width="130" x="1266" y="331"/><ellipse cx="1281" cy="349.9688" fill="#A9DCDF" rx="11" ry="11" style="stroke:#A80036;stroke-width:1.0;"/><path d="M1281.1094,345.3125 L1279.9531,350.3906 L1282.2813,350.3906 L1281.1094,345.3125 Z M1279.625,343.0781 L1282.6094,343.0781 L1285.9688,355.4688 L1283.5156,355.4688 L1282.75,352.4063 L1279.4688,352.4063 L1278.7188,355.4688 L1276.2813,355.4688 L1279.625,343.0781 Z " fill="#000000"/><text fill="#000000" font-family="sans-serif" font-size="12" font-style="italic" lengthAdjust="spacing" textLength="98" x="1295" y="347.1387">&lt;&lt;abstract&gt;&gt;"</text><text fill="#000000" font-family="sans-serif" font-size="12" font-style="italic" lengthAdjust="spacing" textLength="63" x="1312.5" y="361.1074">timer task</text><line style="stroke:#A80036;stroke-width:1.5;" x1="1267" x2="1395" y1="368.9375" y2="368.9375"/><line style="stroke:#A80036;stroke-width:1.5;" x1="1267" x2="1395" y1="376.9375" y2="376.9375"/><text fill="#000000" font-family="sans-serif" font-size="11" lengthAdjust="spacing" textLength="27" x="1272" y="391.1479">run()</text><text fill="#000000" font-family="sans-serif" font-size="11" lengthAdjust="spacing" textLength="44" x="1272" y="403.9526">cancel()</text><!--MD5=[7f6cf7f175eae0af66201860de5de971]
link Company to TestStore--><path codeLine="77" d="M918.7076,314.9014 C896.3983,305.3958 873.156,296.0203 851,288 C820.4428,276.9386 787.6402,266.3333 755.5392,256.6275 " fill="none" id="Company-to-TestStore" style="stroke:#A80036;stroke-width:1.0;"/><polygon fill="#A80036" points="750.3937,255.0776,757.8575,261.5034,755.1812,256.5197,760.1649,253.8434,750.3937,255.0776" style="stroke:#A80036;stroke-width:1.0;"/><!--MD5=[b0f4f6db8206580012ef9cd998ed01c5]
link TestStore to Test--><path codeLine="78" d="M626.822,255.1952 C639.8592,265.8985 653.4601,277.2332 666,288 C679.5758,299.6563 694.0423,312.5004 707.3874,324.5299 " fill="none" id="TestStore-to-Test" style="stroke:#A80036;stroke-width:1.0;"/><polygon fill="#A80036" points="711.1199,327.8995,707.1197,318.8996,707.4085,324.5491,701.759,324.8379,711.1199,327.8995" style="stroke:#A80036;stroke-width:1.0;"/><!--MD5=[5fe52bf4ca36c1a7b68d8327a468a0c2]
link TestStore to Client--><path codeLine="79" d="M355.2314,227.8709 C258.8795,241.3929 157.3677,261.2509 118,288 C101.0301,299.5305 88.5054,318.6293 80.0054,335.6011 " fill="none" id="TestStore-to-Client" style="stroke:#A80036;stroke-width:1.0;"/><polygon fill="#A80036" points="77.7143,340.3235,85.2415,333.972,79.8967,335.8249,78.0438,330.4802,77.7143,340.3235" style="stroke:#A80036;stroke-width:1.0;"/><!--MD5=[9871328303e5c70a06d9622b05a60bb4]
link TestStore to TestParameter--><path codeLine="80" d="M565,255.1555 C565,280.8258 565,311.5833 565,334.9524 " fill="none" id="TestStore-to-TestParameter" style="stroke:#A80036;stroke-width:1.0;"/><polygon fill="#A80036" points="565,340.1224,569,331.1224,565,335.1224,561,331.1224,565,340.1224" style="stroke:#A80036;stroke-width:1.0;"/><!--MD5=[3294cb785891604882be153d287f848c]
link TestStore to TestParameterResult--><path codeLine="81" d="M504.0506,255.1567 C490.8298,265.9639 476.934,277.3502 464,288 C444.5686,303.9997 423.0819,321.8172 405.0215,336.8296 " fill="none" id="TestStore-to-TestParameterResult" style="stroke:#A80036;stroke-width:1.0;"/><polygon fill="#A80036" points="400.9849,340.1856,410.4627,337.5075,404.8296,336.989,405.3481,331.356,400.9849,340.1856" style="stroke:#A80036;stroke-width:1.0;"/><!--MD5=[6aa7a76d72b567a81c20592c0356475d]
link TestStore to TestType--><path codeLine="82" d="M355.1277,245.9637 C323.2728,256.8617 291.801,270.6296 264,288 C244.3459,300.2801 226.9897,319.4449 214.1372,336.2661 " fill="none" id="TestStore-to-TestType" style="stroke:#A80036;stroke-width:1.0;"/><polygon fill="#A80036" points="210.968,340.4865,219.5709,335.6916,213.9704,336.4883,213.1737,330.8878,210.968,340.4865" style="stroke:#A80036;stroke-width:1.0;"/><!--MD5=[f1aaf10e886110e3059f20449b6592b9]
link Company to TaskManager--><path codeLine="84" d="M1065.1886,314.8692 C1095.2912,253.9416 1151.2556,157.8889 1227,102 C1230.8429,99.1645 1234.9019,96.5332 1239.1129,94.0918 " fill="none" id="Company-to-TaskManager" style="stroke:#A80036;stroke-width:1.0;stroke-dasharray:7.0,7.0;"/><polygon fill="#A80036" points="1243.739,91.5165,1233.9298,92.3991,1239.3703,93.9485,1237.8209,99.389,1243.739,91.5165" style="stroke:#A80036;stroke-width:1.0;"/><!--MD5=[81081df08b976a2f1249b507a4ca6e48]
link TaskManager to SendNhsReportTask--><path codeLine="85" d="M1344.3113,94.3119 C1342.3475,110.7149 1339.8729,131.385 1337.5917,150.44 " fill="none" id="TaskManager-to-SendNhsReportTask" style="stroke:#A80036;stroke-width:1.0;stroke-dasharray:7.0,7.0;"/><polygon fill="#A80036" points="1336.954,155.7667,1341.9956,147.3061,1337.5484,150.8022,1334.0523,146.355,1336.954,155.7667" style="stroke:#A80036;stroke-width:1.0;"/><!--MD5=[0de353de1e2a7c511472b9b8ca55c02d]
link SendNhsReportTask to Company--><path codeLine="87" d="M1243.6904,255.1555 C1212.0469,273.152 1176.0071,293.6489 1143.1293,312.3474 " fill="none" id="SendNhsReportTask-to-Company" style="stroke:#A80036;stroke-width:1.0;stroke-dasharray:7.0,7.0;"/><polygon fill="#A80036" points="1138.7207,314.8547,1148.5214,313.8821,1143.0669,312.3827,1144.5663,306.9282,1138.7207,314.8547" style="stroke:#A80036;stroke-width:1.0;"/><!--MD5=[ee2646525e280f4955c2f0a3e39cfe10]
link SendNhsReportTask to TestStore--><path codeLine="88" d="M1243.8264,205.5 C1089.1727,205.5 934.519,205.5 779.8652,205.5 " fill="none" id="SendNhsReportTask-to-TestStore" style="stroke:#A80036;stroke-width:1.0;stroke-dasharray:7.0,7.0;"/><polygon fill="#A80036" points="774.8271,205.5,783.8271,209.5,779.8271,205.5,783.8271,201.5,774.8271,205.5" style="stroke:#A80036;stroke-width:1.0;"/><!--MD5=[6aeedf3857ff1ff2b74e186c09e3c70a]
link SendNhsReportTask to TimerTask--><path codeLine="89" d="M1331,255.1555 C1331,272.6323 1331,292.467 1331,310.7229 " fill="none" id="SendNhsReportTask-to-TimerTask" style="stroke:#A80036;stroke-width:1.0;"/><polygon fill="none" points="1338.0001,310.8216,1331,330.8216,1324.0001,310.8215,1338.0001,310.8216" style="stroke:#A80036;stroke-width:1.0;"/><!--MD5=[b4b296d6505ed7bc1dc20b62cf4156f0]
@startuml
skinparam classAttributeIconSize 0





package Task{
  
class SendNhsReportTask{
  +run()
  -getConfigurations()
  -getLinearRegressionModel()
  -logEvent()
}
  
  
  class TaskManager{
    scheduleNhsReportTask(company)
    }

}

package Domain{
  package Model{
    
    class Test{
      +getTestParameterFor()
      +getTestType()
      +getValidationDate()
    }
    
    class TestParameter{
      +getTestParameterResult()
      }
    

    
    class TestParameterResult{
      +getValue()
      }
    
    class TestType{
      +getDescription()
      }

    class Company{
      +getTestStore()
      +getWorkingDaysForInterval(startDate, endDate)
      +getWorkingDaysForHistoricalPoints(date, historicalPoints)
      +isWorkingDay(date)
      +setSendNhsReportTask()
    }
    
    class Client{
    +getAge()  
    }
    
  }
  
  package Stores{
      class TestStore{
        +getCovidTestsInInterval(startDate, endDate)
        +getDailyNumberOfCovidTestsInInterval(dataSetDays, covidTests)
        +getDailyNumberOfPositiveCovidTestsForInterval(date, historicalPoints)
        +getDailyMeanAgeOfCovidTestsForInterval(dataSetDays, covidTests)
  }
}

  
  }

abstract TimerTask as "<<abstract>>"\ntimer task"{
run()
cancel()
}
  
Company - -> TestStore
TestStore - -> Test
TestStore - -> Client
TestStore - -> TestParameter
TestStore - -> TestParameterResult
TestStore - -> TestType

Company ..> TaskManager
TaskManager ..> SendNhsReportTask

SendNhsReportTask ..> Company
SendNhsReportTask ..> TestStore
SendNhsReportTask - -|> TimerTask
@enduml

PlantUML version 1.2021.7(Sun May 23 12:40:07 UTC 2021)
(GPL source distribution)
Java Runtime: OpenJDK Runtime Environment
JVM: OpenJDK 64-Bit Server VM
Default Encoding: UTF-8
Language: en
Country: US
--></g></svg>