<?xml version="1.0" encoding="UTF-8" standalone="no"?><svg xmlns="http://www.w3.org/2000/svg" xmlns:xlink="http://www.w3.org/1999/xlink" contentScriptType="application/ecmascript" contentStyleType="text/css" height="662px" preserveAspectRatio="none" style="width:460px;height:662px;" version="1.1" viewBox="0 0 460 662" width="460px" zoomAndPan="magnify"><defs><filter height="300%" id="f4kl1spe1siqe" width="300%" x="-1" y="-1"><feGaussianBlur result="blurOut" stdDeviation="2.0"/><feColorMatrix in="blurOut" result="blurOut2" type="matrix" values="0 0 0 0 0 0 0 0 0 0 0 0 0 0 0 0 0 0 .4 0"/><feOffset dx="4.0" dy="4.0" in="blurOut2" result="blurOut3"/><feBlend in="SourceGraphic" in2="blurOut3" mode="normal"/></filter></defs><g><rect fill="#FFFFFF" filter="url(#f4kl1spe1siqe)" height="135.6641" style="stroke:#000000;stroke-width:2.0;" width="436" x="10" y="280.0938"/><rect fill="#FFFFFF" filter="url(#f4kl1spe1siqe)" height="46.2656" style="stroke:#000000;stroke-width:2.0;" width="416" x="20" y="362.4922"/><line style="stroke:#A80036;stroke-width:1.0;stroke-dasharray:5.0,5.0;" x1="76" x2="76" y1="88.2969" y2="578.4219"/><line style="stroke:#A80036;stroke-width:1.0;stroke-dasharray:5.0,5.0;" x1="391" x2="391" y1="88.2969" y2="578.4219"/><text fill="#000000" font-family="sans-serif" font-size="14" lengthAdjust="spacingAndGlyphs" textLength="87" x="30" y="84.9951">Receptionist</text><ellipse cx="76.5" cy="15" fill="#FEFECE" filter="url(#f4kl1spe1siqe)" rx="8" ry="8" style="stroke:#A80036;stroke-width:2.0;"/><path d="M76.5,23 L76.5,50 M63.5,31 L89.5,31 M76.5,50 L63.5,65 M76.5,50 L89.5,65 " fill="none" filter="url(#f4kl1spe1siqe)" style="stroke:#A80036;stroke-width:2.0;"/><text fill="#000000" font-family="sans-serif" font-size="14" lengthAdjust="spacingAndGlyphs" textLength="87" x="30" y="590.417">Receptionist</text><ellipse cx="76.5" cy="603.7188" fill="#FEFECE" filter="url(#f4kl1spe1siqe)" rx="8" ry="8" style="stroke:#A80036;stroke-width:2.0;"/><path d="M76.5,611.7188 L76.5,638.7188 M63.5,619.7188 L89.5,619.7188 M76.5,638.7188 L63.5,653.7188 M76.5,638.7188 L89.5,653.7188 " fill="none" filter="url(#f4kl1spe1siqe)" style="stroke:#A80036;stroke-width:2.0;"/><rect fill="#FEFECE" filter="url(#f4kl1spe1siqe)" height="30.2969" style="stroke:#A80036;stroke-width:1.5;" width="65" x="357" y="53"/><text fill="#000000" font-family="sans-serif" font-size="14" lengthAdjust="spacingAndGlyphs" textLength="51" x="364" y="72.9951">System</text><rect fill="#FEFECE" filter="url(#f4kl1spe1siqe)" height="30.2969" style="stroke:#A80036;stroke-width:1.5;" width="65" x="357" y="577.4219"/><text fill="#000000" font-family="sans-serif" font-size="14" lengthAdjust="spacingAndGlyphs" textLength="51" x="364" y="597.417">System</text><polygon fill="#A80036" points="379.5,115.4297,389.5,119.4297,379.5,123.4297,383.5,119.4297" style="stroke:#A80036;stroke-width:1.0;"/><line style="stroke:#A80036;stroke-width:1.0;" x1="76.5" x2="385.5" y1="119.4297" y2="119.4297"/><text fill="#000000" font-family="sans-serif" font-size="13" font-weight="bold" lengthAdjust="spacingAndGlyphs" textLength="9" x="83.5" y="114.3638">1</text><text fill="#000000" font-family="sans-serif" font-size="13" lengthAdjust="spacingAndGlyphs" textLength="95" x="96.5" y="114.3638">starts new test</text><polygon fill="#A80036" points="87.5,144.5625,77.5,148.5625,87.5,152.5625,83.5,148.5625" style="stroke:#A80036;stroke-width:1.0;"/><line style="stroke:#A80036;stroke-width:1.0;stroke-dasharray:2.0,2.0;" x1="81.5" x2="390.5" y1="148.5625" y2="148.5625"/><text fill="#000000" font-family="sans-serif" font-size="13" font-weight="bold" lengthAdjust="spacingAndGlyphs" textLength="9" x="93.5" y="143.4966">2</text><text fill="#000000" font-family="sans-serif" font-size="13" lengthAdjust="spacingAndGlyphs" textLength="216" x="106.5" y="143.4966">requests client data (i.e. clientTin)</text><polygon fill="#A80036" points="379.5,173.6953,389.5,177.6953,379.5,181.6953,383.5,177.6953" style="stroke:#A80036;stroke-width:1.0;"/><line style="stroke:#A80036;stroke-width:1.0;stroke-dasharray:2.0,2.0;" x1="76.5" x2="385.5" y1="177.6953" y2="177.6953"/><text fill="#000000" font-family="sans-serif" font-size="13" font-weight="bold" lengthAdjust="spacingAndGlyphs" textLength="9" x="83.5" y="172.6294">3</text><text fill="#000000" font-family="sans-serif" font-size="13" lengthAdjust="spacingAndGlyphs" textLength="137" x="96.5" y="172.6294">types requested data</text><polygon fill="#A80036" points="87.5,202.8281,77.5,206.8281,87.5,210.8281,83.5,206.8281" style="stroke:#A80036;stroke-width:1.0;"/><line style="stroke:#A80036;stroke-width:1.0;stroke-dasharray:2.0,2.0;" x1="81.5" x2="390.5" y1="206.8281" y2="206.8281"/><text fill="#000000" font-family="sans-serif" font-size="13" font-weight="bold" lengthAdjust="spacingAndGlyphs" textLength="9" x="93.5" y="201.7622">4</text><text fill="#000000" font-family="sans-serif" font-size="13" lengthAdjust="spacingAndGlyphs" textLength="149" x="106.5" y="201.7622">asks to select test type</text><polygon fill="#A80036" points="379.5,231.9609,389.5,235.9609,379.5,239.9609,383.5,235.9609" style="stroke:#A80036;stroke-width:1.0;"/><line style="stroke:#A80036;stroke-width:1.0;" x1="76.5" x2="385.5" y1="235.9609" y2="235.9609"/><text fill="#000000" font-family="sans-serif" font-size="13" font-weight="bold" lengthAdjust="spacingAndGlyphs" textLength="9" x="83.5" y="230.895">5</text><text fill="#000000" font-family="sans-serif" font-size="13" lengthAdjust="spacingAndGlyphs" textLength="191" x="96.5" y="230.895">selects the intended test type</text><polygon fill="#A80036" points="87.5,261.0938,77.5,265.0938,87.5,269.0938,83.5,265.0938" style="stroke:#A80036;stroke-width:1.0;"/><line style="stroke:#A80036;stroke-width:1.0;" x1="81.5" x2="390.5" y1="265.0938" y2="265.0938"/><text fill="#000000" font-family="sans-serif" font-size="13" font-weight="bold" lengthAdjust="spacingAndGlyphs" textLength="9" x="93.5" y="260.0278">6</text><text fill="#000000" font-family="sans-serif" font-size="13" lengthAdjust="spacingAndGlyphs" textLength="220" x="106.5" y="260.0278">asks to select parameter category</text><path d="M10,280.0938 L87,280.0938 L87,287.0938 L77,297.0938 L10,297.0938 L10,280.0938 " fill="#EEEEEE" style="stroke:#000000;stroke-width:1.0;"/><rect fill="none" height="135.6641" style="stroke:#000000;stroke-width:2.0;" width="436" x="10" y="280.0938"/><text fill="#000000" font-family="sans-serif" font-size="13" font-weight="bold" lengthAdjust="spacingAndGlyphs" textLength="32" x="25" y="293.1606">loop</text><polygon fill="#A80036" points="379.5,314.3594,389.5,318.3594,379.5,322.3594,383.5,318.3594" style="stroke:#A80036;stroke-width:1.0;"/><line style="stroke:#A80036;stroke-width:1.0;stroke-dasharray:2.0,2.0;" x1="76.5" x2="385.5" y1="318.3594" y2="318.3594"/><text fill="#000000" font-family="sans-serif" font-size="13" font-weight="bold" lengthAdjust="spacingAndGlyphs" textLength="9" x="83.5" y="313.2935">7</text><text fill="#000000" font-family="sans-serif" font-size="13" lengthAdjust="spacingAndGlyphs" textLength="262" x="96.5" y="313.2935">selects the intended parameter category</text><polygon fill="#A80036" points="87.5,343.4922,77.5,347.4922,87.5,351.4922,83.5,347.4922" style="stroke:#A80036;stroke-width:1.0;"/><line style="stroke:#A80036;stroke-width:1.0;stroke-dasharray:2.0,2.0;" x1="81.5" x2="390.5" y1="347.4922" y2="347.4922"/><text fill="#000000" font-family="sans-serif" font-size="13" font-weight="bold" lengthAdjust="spacingAndGlyphs" textLength="9" x="93.5" y="342.4263">8</text><text fill="#000000" font-family="sans-serif" font-size="13" lengthAdjust="spacingAndGlyphs" textLength="196" x="106.5" y="342.4263">asks to select test parameters</text><path d="M20,362.4922 L97,362.4922 L97,369.4922 L87,379.4922 L20,379.4922 L20,362.4922 " fill="#EEEEEE" style="stroke:#000000;stroke-width:1.0;"/><rect fill="none" height="46.2656" style="stroke:#000000;stroke-width:2.0;" width="416" x="20" y="362.4922"/><text fill="#000000" font-family="sans-serif" font-size="13" font-weight="bold" lengthAdjust="spacingAndGlyphs" textLength="32" x="35" y="375.5591">loop</text><polygon fill="#A80036" points="379.5,396.7578,389.5,400.7578,379.5,404.7578,383.5,400.7578" style="stroke:#A80036;stroke-width:1.0;"/><line style="stroke:#A80036;stroke-width:1.0;" x1="76.5" x2="385.5" y1="400.7578" y2="400.7578"/><text fill="#000000" font-family="sans-serif" font-size="13" font-weight="bold" lengthAdjust="spacingAndGlyphs" textLength="9" x="83.5" y="395.6919">9</text><text fill="#000000" font-family="sans-serif" font-size="13" lengthAdjust="spacingAndGlyphs" textLength="209" x="96.5" y="395.6919">selects the intended parameters</text><polygon fill="#A80036" points="87.5,439.8906,77.5,443.8906,87.5,447.8906,83.5,443.8906" style="stroke:#A80036;stroke-width:1.0;"/><line style="stroke:#A80036;stroke-width:1.0;stroke-dasharray:2.0,2.0;" x1="81.5" x2="390.5" y1="443.8906" y2="443.8906"/><text fill="#000000" font-family="sans-serif" font-size="13" font-weight="bold" lengthAdjust="spacingAndGlyphs" textLength="18" x="93.5" y="438.8247">10</text><text fill="#000000" font-family="sans-serif" font-size="13" lengthAdjust="spacingAndGlyphs" textLength="211" x="115.5" y="438.8247">requests test data (i.e. nhsCode)</text><polygon fill="#A80036" points="379.5,469.0234,389.5,473.0234,379.5,477.0234,383.5,473.0234" style="stroke:#A80036;stroke-width:1.0;"/><line style="stroke:#A80036;stroke-width:1.0;" x1="76.5" x2="385.5" y1="473.0234" y2="473.0234"/><text fill="#000000" font-family="sans-serif" font-size="13" font-weight="bold" lengthAdjust="spacingAndGlyphs" textLength="18" x="83.5" y="467.9575">11</text><text fill="#000000" font-family="sans-serif" font-size="13" lengthAdjust="spacingAndGlyphs" textLength="137" x="105.5" y="467.9575">types requested data</text><polygon fill="#A80036" points="87.5,498.1563,77.5,502.1563,87.5,506.1563,83.5,502.1563" style="stroke:#A80036;stroke-width:1.0;"/><line style="stroke:#A80036;stroke-width:1.0;stroke-dasharray:2.0,2.0;" x1="81.5" x2="390.5" y1="502.1563" y2="502.1563"/><text fill="#000000" font-family="sans-serif" font-size="13" font-weight="bold" lengthAdjust="spacingAndGlyphs" textLength="18" x="93.5" y="497.0903">12</text><text fill="#000000" font-family="sans-serif" font-size="13" lengthAdjust="spacingAndGlyphs" textLength="269" x="115.5" y="497.0903">shows the data and requests confirmation</text><polygon fill="#A80036" points="379.5,527.2891,389.5,531.2891,379.5,535.2891,383.5,531.2891" style="stroke:#A80036;stroke-width:1.0;"/><line style="stroke:#A80036;stroke-width:1.0;" x1="76.5" x2="385.5" y1="531.2891" y2="531.2891"/><text fill="#000000" font-family="sans-serif" font-size="13" font-weight="bold" lengthAdjust="spacingAndGlyphs" textLength="18" x="83.5" y="526.2231">13</text><text fill="#000000" font-family="sans-serif" font-size="13" lengthAdjust="spacingAndGlyphs" textLength="113" x="105.5" y="526.2231">confirms the data</text><polygon fill="#A80036" points="87.5,556.4219,77.5,560.4219,87.5,564.4219,83.5,560.4219" style="stroke:#A80036;stroke-width:1.0;"/><line style="stroke:#A80036;stroke-width:1.0;stroke-dasharray:2.0,2.0;" x1="81.5" x2="390.5" y1="560.4219" y2="560.4219"/><text fill="#000000" font-family="sans-serif" font-size="13" font-weight="bold" lengthAdjust="spacingAndGlyphs" textLength="18" x="93.5" y="555.356">14</text><text fill="#000000" font-family="sans-serif" font-size="13" lengthAdjust="spacingAndGlyphs" textLength="168" x="115.5" y="555.356">informs operation success</text><!--MD5=[d0a99c36747a5a984f6ae42b78233c2e]
@startuml
autonumber

Actor Receptionist

Receptionist -> System: starts new test
System - -> Receptionist: requests client data (i.e. clientTin)

Receptionist - -> System: types requested data
System - -> Receptionist: asks to select test type

Receptionist -> System: selects the intended test type
System -> Receptionist: asks to select parameter category

loop
  Receptionist - -> System: selects the intended parameter category
  System - -> Receptionist: asks to select test parameters

  loop
    Receptionist -> System: selects the intended parameters
  end
end

    System - -> Receptionist: requests test data (i.e. nhsCode)

Receptionist -> System: types requested data
System - -> Receptionist: shows the data and requests confirmation

Receptionist -> System: confirms the data
System - -> Receptionist: informs operation success
@enduml

PlantUML version 1.2020.22(Sun Dec 06 09:36:27 UTC 2020)
(GPL source distribution)
Java Runtime: OpenJDK Runtime Environment
JVM: OpenJDK 64-Bit Server VM
Default Encoding: UTF-8
Language: en
Country: US
--></g></svg>