<?xml version="1.0" encoding="UTF-8" standalone="no"?><svg xmlns="http://www.w3.org/2000/svg" xmlns:xlink="http://www.w3.org/1999/xlink" contentScriptType="application/ecmascript" contentStyleType="text/css" height="958px" preserveAspectRatio="none" style="width:666px;height:958px;" version="1.1" viewBox="0 0 666 958" width="666px" zoomAndPan="magnify"><defs><filter height="300%" id="f1b2jlcjst9suf" width="300%" x="-1" y="-1"><feGaussianBlur result="blurOut" stdDeviation="2.0"/><feColorMatrix in="blurOut" result="blurOut2" type="matrix" values="0 0 0 0 0 0 0 0 0 0 0 0 0 0 0 0 0 0 .4 0"/><feOffset dx="4.0" dy="4.0" in="blurOut2" result="blurOut3"/><feBlend in="SourceGraphic" in2="blurOut3" mode="normal"/></filter></defs><g><!--MD5=[3fd616f346a44cd59a91eb10b19e157c]
class User--><rect codeLine="4" fill="#FEFECE" filter="url(#f1b2jlcjst9suf)" height="78.4141" id="User" style="stroke:#A80036;stroke-width:1.5;" width="72" x="523" y="134"/><ellipse cx="542.95" cy="150" fill="#ADD1B2" rx="11" ry="11" style="stroke:#A80036;stroke-width:1.0;"/><path d="M545.9188,155.6406 Q545.3406,155.9375 544.7,156.0781 Q544.0594,156.2344 543.3563,156.2344 Q540.8563,156.2344 539.5281,154.5938 Q538.2156,152.9375 538.2156,149.8125 Q538.2156,146.6875 539.5281,145.0313 Q540.8563,143.375 543.3563,143.375 Q544.0594,143.375 544.7,143.5313 Q545.3563,143.6875 545.9188,143.9844 L545.9188,146.7031 Q545.2938,146.125 544.7,145.8594 Q544.1063,145.5781 543.4813,145.5781 Q542.1375,145.5781 541.45,146.6563 Q540.7625,147.7188 540.7625,149.8125 Q540.7625,151.9063 541.45,152.9844 Q542.1375,154.0469 543.4813,154.0469 Q544.1063,154.0469 544.7,153.7813 Q545.2938,153.5 545.9188,152.9219 L545.9188,155.6406 Z " fill="#000000"/><text fill="#000000" font-family="sans-serif" font-size="12" lengthAdjust="spacingAndGlyphs" textLength="29" x="558.05" y="154.1543">User</text><line style="stroke:#A80036;stroke-width:1.5;" x1="524" x2="594" y1="166" y2="166"/><text fill="#000000" font-family="sans-serif" font-size="11" lengthAdjust="spacingAndGlyphs" textLength="36" x="529" y="180.2104">-name</text><text fill="#000000" font-family="sans-serif" font-size="11" lengthAdjust="spacingAndGlyphs" textLength="35" x="529" y="193.0151">-email</text><text fill="#000000" font-family="sans-serif" font-size="11" lengthAdjust="spacingAndGlyphs" textLength="60" x="529" y="205.8198">-password</text><!--MD5=[1934a092c0e7d4da7dc7075b6f4b6b03]
class ClinicalAnalysisLaboratory--><rect codeLine="10" fill="#FEFECE" filter="url(#f1b2jlcjst9suf)" height="65.6094" id="ClinicalAnalysisLaboratory" style="stroke:#A80036;stroke-width:1.5;" width="200" x="221" y="7"/><ellipse cx="236" cy="23" fill="#ADD1B2" rx="11" ry="11" style="stroke:#A80036;stroke-width:1.0;"/><path d="M238.9688,28.6406 Q238.3906,28.9375 237.75,29.0781 Q237.1094,29.2344 236.4063,29.2344 Q233.9063,29.2344 232.5781,27.5938 Q231.2656,25.9375 231.2656,22.8125 Q231.2656,19.6875 232.5781,18.0313 Q233.9063,16.375 236.4063,16.375 Q237.1094,16.375 237.75,16.5313 Q238.4063,16.6875 238.9688,16.9844 L238.9688,19.7031 Q238.3438,19.125 237.75,18.8594 Q237.1563,18.5781 236.5313,18.5781 Q235.1875,18.5781 234.5,19.6563 Q233.8125,20.7188 233.8125,22.8125 Q233.8125,24.9063 234.5,25.9844 Q235.1875,27.0469 236.5313,27.0469 Q237.1563,27.0469 237.75,26.7813 Q238.3438,26.5 238.9688,25.9219 L238.9688,28.6406 Z " fill="#000000"/><text fill="#000000" font-family="sans-serif" font-size="12" lengthAdjust="spacingAndGlyphs" textLength="168" x="250" y="27.1543">Clinical Analysis Laboratory</text><line style="stroke:#A80036;stroke-width:1.5;" x1="222" x2="420" y1="39" y2="39"/><text fill="#000000" font-family="sans-serif" font-size="11" lengthAdjust="spacingAndGlyphs" textLength="72" x="227" y="53.2104">-laboratoryId</text><text fill="#000000" font-family="sans-serif" font-size="11" lengthAdjust="spacingAndGlyphs" textLength="95" x="227" y="66.0151">-laboratoryName</text><!--MD5=[ed6624c6556d5e7b1bd23032162d20b7]
class Client--><rect codeLine="15" fill="#FEFECE" filter="url(#f1b2jlcjst9suf)" height="142.4375" id="Client" style="stroke:#A80036;stroke-width:1.5;" width="96" x="511" y="289"/><ellipse cx="539.05" cy="305" fill="#ADD1B2" rx="11" ry="11" style="stroke:#A80036;stroke-width:1.0;"/><path d="M542.0188,310.6406 Q541.4406,310.9375 540.8,311.0781 Q540.1594,311.2344 539.4563,311.2344 Q536.9563,311.2344 535.6281,309.5938 Q534.3156,307.9375 534.3156,304.8125 Q534.3156,301.6875 535.6281,300.0313 Q536.9563,298.375 539.4563,298.375 Q540.1594,298.375 540.8,298.5313 Q541.4563,298.6875 542.0188,298.9844 L542.0188,301.7031 Q541.3938,301.125 540.8,300.8594 Q540.2063,300.5781 539.5813,300.5781 Q538.2375,300.5781 537.55,301.6563 Q536.8625,302.7188 536.8625,304.8125 Q536.8625,306.9063 537.55,307.9844 Q538.2375,309.0469 539.5813,309.0469 Q540.2063,309.0469 540.8,308.7813 Q541.3938,308.5 542.0188,307.9219 L542.0188,310.6406 Z " fill="#000000"/><text fill="#000000" font-family="sans-serif" font-size="12" lengthAdjust="spacingAndGlyphs" textLength="35" x="555.95" y="309.1543">Client</text><line style="stroke:#A80036;stroke-width:1.5;" x1="512" x2="606" y1="321" y2="321"/><text fill="#000000" font-family="sans-serif" font-size="11" lengthAdjust="spacingAndGlyphs" textLength="36" x="517" y="335.2104">-name</text><text fill="#000000" font-family="sans-serif" font-size="11" lengthAdjust="spacingAndGlyphs" textLength="23" x="517" y="348.0151">-ccn</text><text fill="#000000" font-family="sans-serif" font-size="11" lengthAdjust="spacingAndGlyphs" textLength="70" x="517" y="360.8198">-nhsNumber</text><text fill="#000000" font-family="sans-serif" font-size="11" lengthAdjust="spacingAndGlyphs" textLength="18" x="517" y="373.6245">-tin</text><text fill="#000000" font-family="sans-serif" font-size="11" lengthAdjust="spacingAndGlyphs" textLength="56" x="517" y="386.4292">-birthDate</text><text fill="#000000" font-family="sans-serif" font-size="11" lengthAdjust="spacingAndGlyphs" textLength="24" x="517" y="399.2339">-sex</text><text fill="#000000" font-family="sans-serif" font-size="11" lengthAdjust="spacingAndGlyphs" textLength="84" x="517" y="412.0386">-phoneNumber</text><text fill="#000000" font-family="sans-serif" font-size="11" lengthAdjust="spacingAndGlyphs" textLength="35" x="517" y="424.8433">-email</text><!--MD5=[03960189e81aa2c066c762ffabbee709]
class Receptionist--><rect codeLine="26" fill="#FEFECE" filter="url(#f1b2jlcjst9suf)" height="40" id="Receptionist" style="stroke:#A80036;stroke-width:1.5;" width="110" x="7" y="461"/><ellipse cx="22" cy="477" fill="#ADD1B2" rx="11" ry="11" style="stroke:#A80036;stroke-width:1.0;"/><path d="M24.9688,482.6406 Q24.3906,482.9375 23.75,483.0781 Q23.1094,483.2344 22.4063,483.2344 Q19.9063,483.2344 18.5781,481.5938 Q17.2656,479.9375 17.2656,476.8125 Q17.2656,473.6875 18.5781,472.0313 Q19.9063,470.375 22.4063,470.375 Q23.1094,470.375 23.75,470.5313 Q24.4063,470.6875 24.9688,470.9844 L24.9688,473.7031 Q24.3438,473.125 23.75,472.8594 Q23.1563,472.5781 22.5313,472.5781 Q21.1875,472.5781 20.5,473.6563 Q19.8125,474.7188 19.8125,476.8125 Q19.8125,478.9063 20.5,479.9844 Q21.1875,481.0469 22.5313,481.0469 Q23.1563,481.0469 23.75,480.7813 Q24.3438,480.5 24.9688,479.9219 L24.9688,482.6406 Z " fill="#000000"/><text fill="#000000" font-family="sans-serif" font-size="12" lengthAdjust="spacingAndGlyphs" textLength="78" x="36" y="481.1543">Receptionist</text><line style="stroke:#A80036;stroke-width:1.5;" x1="8" x2="116" y1="493" y2="493"/><!--MD5=[df38be88ccee13e832d6fafd6288a4ca]
class Test--><rect codeLine="29" fill="#FEFECE" filter="url(#f1b2jlcjst9suf)" height="104.0234" id="Test" style="stroke:#A80036;stroke-width:1.5;" width="79" x="281.5" y="308"/><ellipse cx="305.5" cy="324" fill="#ADD1B2" rx="11" ry="11" style="stroke:#A80036;stroke-width:1.0;"/><path d="M308.4688,329.6406 Q307.8906,329.9375 307.25,330.0781 Q306.6094,330.2344 305.9063,330.2344 Q303.4063,330.2344 302.0781,328.5938 Q300.7656,326.9375 300.7656,323.8125 Q300.7656,320.6875 302.0781,319.0313 Q303.4063,317.375 305.9063,317.375 Q306.6094,317.375 307.25,317.5313 Q307.9063,317.6875 308.4688,317.9844 L308.4688,320.7031 Q307.8438,320.125 307.25,319.8594 Q306.6563,319.5781 306.0313,319.5781 Q304.6875,319.5781 304,320.6563 Q303.3125,321.7188 303.3125,323.8125 Q303.3125,325.9063 304,326.9844 Q304.6875,328.0469 306.0313,328.0469 Q306.6563,328.0469 307.25,327.7813 Q307.8438,327.5 308.4688,326.9219 L308.4688,329.6406 Z " fill="#000000"/><text fill="#000000" font-family="sans-serif" font-size="12" lengthAdjust="spacingAndGlyphs" textLength="27" x="321.5" y="328.1543">Test</text><line style="stroke:#A80036;stroke-width:1.5;" x1="282.5" x2="359.5" y1="340" y2="340"/><text fill="#000000" font-family="sans-serif" font-size="11" lengthAdjust="spacingAndGlyphs" textLength="31" x="287.5" y="354.2104">-code</text><text fill="#000000" font-family="sans-serif" font-size="11" lengthAdjust="spacingAndGlyphs" textLength="54" x="287.5" y="367.0151">-nhsCode</text><text fill="#000000" font-family="sans-serif" font-size="11" lengthAdjust="spacingAndGlyphs" textLength="67" x="287.5" y="379.8198">-description</text><text fill="#000000" font-family="sans-serif" font-size="11" lengthAdjust="spacingAndGlyphs" textLength="33" x="287.5" y="392.6245">-state</text><text fill="#000000" font-family="sans-serif" font-size="11" lengthAdjust="spacingAndGlyphs" textLength="58" x="287.5" y="405.4292">-createdAt</text><!--MD5=[aeb3272166074d8737a70b61b1e71682]
class TestType--><rect codeLine="37" fill="#FEFECE" filter="url(#f1b2jlcjst9suf)" height="65.6094" id="TestType" style="stroke:#A80036;stroke-width:1.5;" width="88" x="105" y="609"/><ellipse cx="120" cy="625" fill="#ADD1B2" rx="11" ry="11" style="stroke:#A80036;stroke-width:1.0;"/><path d="M122.9688,630.6406 Q122.3906,630.9375 121.75,631.0781 Q121.1094,631.2344 120.4063,631.2344 Q117.9063,631.2344 116.5781,629.5938 Q115.2656,627.9375 115.2656,624.8125 Q115.2656,621.6875 116.5781,620.0313 Q117.9063,618.375 120.4063,618.375 Q121.1094,618.375 121.75,618.5313 Q122.4063,618.6875 122.9688,618.9844 L122.9688,621.7031 Q122.3438,621.125 121.75,620.8594 Q121.1563,620.5781 120.5313,620.5781 Q119.1875,620.5781 118.5,621.6563 Q117.8125,622.7188 117.8125,624.8125 Q117.8125,626.9063 118.5,627.9844 Q119.1875,629.0469 120.5313,629.0469 Q121.1563,629.0469 121.75,628.7813 Q122.3438,628.5 122.9688,627.9219 L122.9688,630.6406 Z " fill="#000000"/><text fill="#000000" font-family="sans-serif" font-size="12" lengthAdjust="spacingAndGlyphs" textLength="56" x="134" y="629.1543">TestType</text><line style="stroke:#A80036;stroke-width:1.5;" x1="106" x2="192" y1="641" y2="641"/><text fill="#000000" font-family="sans-serif" font-size="11" lengthAdjust="spacingAndGlyphs" textLength="31" x="111" y="655.2104">-code</text><text fill="#000000" font-family="sans-serif" font-size="11" lengthAdjust="spacingAndGlyphs" textLength="67" x="111" y="668.0151">-description</text><!--MD5=[1f6362a5c8f21d8d6a0fce68f3a92a4e]
class Parameter--><rect codeLine="42" fill="#FEFECE" filter="url(#f1b2jlcjst9suf)" height="65.6094" id="Parameter" style="stroke:#A80036;stroke-width:1.5;" width="98" x="228" y="609"/><ellipse cx="243" cy="625" fill="#ADD1B2" rx="11" ry="11" style="stroke:#A80036;stroke-width:1.0;"/><path d="M245.9688,630.6406 Q245.3906,630.9375 244.75,631.0781 Q244.1094,631.2344 243.4063,631.2344 Q240.9063,631.2344 239.5781,629.5938 Q238.2656,627.9375 238.2656,624.8125 Q238.2656,621.6875 239.5781,620.0313 Q240.9063,618.375 243.4063,618.375 Q244.1094,618.375 244.75,618.5313 Q245.4063,618.6875 245.9688,618.9844 L245.9688,621.7031 Q245.3438,621.125 244.75,620.8594 Q244.1563,620.5781 243.5313,620.5781 Q242.1875,620.5781 241.5,621.6563 Q240.8125,622.7188 240.8125,624.8125 Q240.8125,626.9063 241.5,627.9844 Q242.1875,629.0469 243.5313,629.0469 Q244.1563,629.0469 244.75,628.7813 Q245.3438,628.5 245.9688,627.9219 L245.9688,630.6406 Z " fill="#000000"/><text fill="#000000" font-family="sans-serif" font-size="12" lengthAdjust="spacingAndGlyphs" textLength="66" x="257" y="629.1543">Parameter</text><line style="stroke:#A80036;stroke-width:1.5;" x1="229" x2="325" y1="641" y2="641"/><text fill="#000000" font-family="sans-serif" font-size="11" lengthAdjust="spacingAndGlyphs" textLength="36" x="234" y="655.2104">-name</text><text fill="#000000" font-family="sans-serif" font-size="11" lengthAdjust="spacingAndGlyphs" textLength="31" x="234" y="668.0151">-code</text><!--MD5=[9681492165142af2a4a3a169d90ee8d4]
class Sample--><rect codeLine="47" fill="#FEFECE" filter="url(#f1b2jlcjst9suf)" height="40" id="Sample" style="stroke:#A80036;stroke-width:1.5;" width="78" x="361" y="622"/><ellipse cx="376" cy="638" fill="#ADD1B2" rx="11" ry="11" style="stroke:#A80036;stroke-width:1.0;"/><path d="M378.9688,643.6406 Q378.3906,643.9375 377.75,644.0781 Q377.1094,644.2344 376.4063,644.2344 Q373.9063,644.2344 372.5781,642.5938 Q371.2656,640.9375 371.2656,637.8125 Q371.2656,634.6875 372.5781,633.0313 Q373.9063,631.375 376.4063,631.375 Q377.1094,631.375 377.75,631.5313 Q378.4063,631.6875 378.9688,631.9844 L378.9688,634.7031 Q378.3438,634.125 377.75,633.8594 Q377.1563,633.5781 376.5313,633.5781 Q375.1875,633.5781 374.5,634.6563 Q373.8125,635.7188 373.8125,637.8125 Q373.8125,639.9063 374.5,640.9844 Q375.1875,642.0469 376.5313,642.0469 Q377.1563,642.0469 377.75,641.7813 Q378.3438,641.5 378.9688,640.9219 L378.9688,643.6406 Z " fill="#000000"/><text fill="#000000" font-family="sans-serif" font-size="12" lengthAdjust="spacingAndGlyphs" textLength="46" x="390" y="642.1543">Sample</text><line style="stroke:#A80036;stroke-width:1.5;" x1="362" x2="438" y1="654" y2="654"/><!--MD5=[02e4b9b7573f1156f41e60aa5b4e25a4]
class Company--><rect codeLine="51" fill="#FEFECE" filter="url(#f1b2jlcjst9suf)" height="52.8047" id="Company" style="stroke:#A80036;stroke-width:1.5;" width="89" x="232.5" y="892"/><ellipse cx="247.5" cy="908" fill="#ADD1B2" rx="11" ry="11" style="stroke:#A80036;stroke-width:1.0;"/><path d="M250.4688,913.6406 Q249.8906,913.9375 249.25,914.0781 Q248.6094,914.2344 247.9063,914.2344 Q245.4063,914.2344 244.0781,912.5938 Q242.7656,910.9375 242.7656,907.8125 Q242.7656,904.6875 244.0781,903.0313 Q245.4063,901.375 247.9063,901.375 Q248.6094,901.375 249.25,901.5313 Q249.9063,901.6875 250.4688,901.9844 L250.4688,904.7031 Q249.8438,904.125 249.25,903.8594 Q248.6563,903.5781 248.0313,903.5781 Q246.6875,903.5781 246,904.6563 Q245.3125,905.7188 245.3125,907.8125 Q245.3125,909.9063 246,910.9844 Q246.6875,912.0469 248.0313,912.0469 Q248.6563,912.0469 249.25,911.7813 Q249.8438,911.5 250.4688,910.9219 L250.4688,913.6406 Z " fill="#000000"/><text fill="#000000" font-family="sans-serif" font-size="12" lengthAdjust="spacingAndGlyphs" textLength="57" x="261.5" y="912.1543">Company</text><line style="stroke:#A80036;stroke-width:1.5;" x1="233.5" x2="320.5" y1="924" y2="924"/><text fill="#000000" font-family="sans-serif" font-size="11" lengthAdjust="spacingAndGlyphs" textLength="70" x="238.5" y="938.2104">-designation</text><!--MD5=[bef7460411a029a61cc51a0d251ac694]
link Parameter to Company--><path codeLine="55" d="M277,675.0777 C277,730.5517 277,841.2375 277,891.9768 " fill="none" id="Parameter-Company" style="stroke:#A80036;stroke-width:1.0;"/><polygon fill="#000000" points="282,786.5664,279.0611,795.6115,284.9389,795.6115,282,786.5664" style="stroke:#000000;stroke-width:1.0;"/><text fill="#000000" font-family="sans-serif" font-size="13" lengthAdjust="spacingAndGlyphs" textLength="130" x="291" y="796.0669">capable of analysing</text><text fill="#000000" font-family="sans-serif" font-size="13" lengthAdjust="spacingAndGlyphs" textLength="7" x="269.3547" y="694.6744">*</text><text fill="#000000" font-family="sans-serif" font-size="13" lengthAdjust="spacingAndGlyphs" textLength="8" x="268.025" y="880.7905">1</text><!--MD5=[6d9eb9a083ac0654c8b63743033752d3]
link TestType to Company--><path codeLine="56" d="M155.7046,675.1665 C163.0457,707.9162 176.4388,758.9157 196,800 C212.069,833.7496 237.1163,868.6326 255.1036,891.7339 " fill="none" id="TestType-Company" style="stroke:#A80036;stroke-width:1.0;"/><polygon fill="#000000" points="198.9143,787.0222,200.0163,796.4687,205.3584,794.0168,198.9143,787.0222" style="stroke:#000000;stroke-width:1.0;"/><text fill="#000000" font-family="sans-serif" font-size="13" lengthAdjust="spacingAndGlyphs" textLength="58" x="210" y="796.0669">conducts</text><text fill="#000000" font-family="sans-serif" font-size="13" lengthAdjust="spacingAndGlyphs" textLength="7" x="149.2954" y="694.7795">*</text><text fill="#000000" font-family="sans-serif" font-size="13" lengthAdjust="spacingAndGlyphs" textLength="8" x="241.1151" y="880.9147">1</text><!--MD5=[150ee6e4dbb30ab82336f9e174f6c4ed]
link Test to Company--><path codeLine="57" d="M360.6606,379.4393 C411.1758,407.3136 492,463.7486 492,539.5 C492,539.5 492,539.5 492,830.5 C492,867.0005 384.523,895.8776 321.5481,909.6649 " fill="none" id="Test-Company" style="stroke:#A80036;stroke-width:1.0;"/><polygon fill="#000000" points="497.3678,708.58,493.7715,717.3843,499.6334,717.8167,497.3678,708.58" style="stroke:#000000;stroke-width:1.0;"/><text fill="#000000" font-family="sans-serif" font-size="13" lengthAdjust="spacingAndGlyphs" textLength="58" x="506" y="718.0669">performs</text><text fill="#000000" font-family="sans-serif" font-size="13" lengthAdjust="spacingAndGlyphs" textLength="7" x="368.6183" y="378.7176">*</text><text fill="#000000" font-family="sans-serif" font-size="13" lengthAdjust="spacingAndGlyphs" textLength="8" x="329.5889" y="904.0535">1</text><!--MD5=[16f546a69324f7e5c5bfce0193866057]
link Receptionist to Company--><path codeLine="58" d="M58.7256,501.1055 C55.8092,520.7764 52,551.6149 52,578.5 C52,578.5 52,578.5 52,830.5 C52,868.8262 166.6614,897.2781 232.2782,910.4223 " fill="none" id="Receptionist-Company" style="stroke:#A80036;stroke-width:1.0;"/><polygon fill="#000000" points="55.0482,708.9631,55.8733,718.4378,61.2848,716.1433,55.0482,708.9631" style="stroke:#000000;stroke-width:1.0;"/><text fill="#000000" font-family="sans-serif" font-size="13" lengthAdjust="spacingAndGlyphs" textLength="23" x="66" y="718.0669">has</text><text fill="#000000" font-family="sans-serif" font-size="13" lengthAdjust="spacingAndGlyphs" textLength="23" x="31.5703" y="520.9551">0..*</text><text fill="#000000" font-family="sans-serif" font-size="13" lengthAdjust="spacingAndGlyphs" textLength="8" x="216.5132" y="905.0326">1</text><!--MD5=[e81fca0f34dd6b0a10f4f75277b45ff4]
link Client to Company--><path codeLine="59" d="M586.0245,431.4254 C596.0374,463.9139 605,503.1477 605,539.5 C605,539.5 605,539.5 605,830.5 C605,888.5002 411.2582,909.3273 321.5769,915.861 " fill="none" id="Client-Company" style="stroke:#A80036;stroke-width:1.0;"/><polygon fill="#000000" points="612.3957,709.1777,605.4822,715.7087,610.6414,718.5251,612.3957,709.1777" style="stroke:#000000;stroke-width:1.0;"/><text fill="#000000" font-family="sans-serif" font-size="13" lengthAdjust="spacingAndGlyphs" textLength="39" x="619" y="718.0669">knows</text><text fill="#000000" font-family="sans-serif" font-size="13" lengthAdjust="spacingAndGlyphs" textLength="23" x="564.6255" y="451.6158">0..*</text><text fill="#000000" font-family="sans-serif" font-size="13" lengthAdjust="spacingAndGlyphs" textLength="8" x="329.6224" y="928.7602">1</text><!--MD5=[b9014cebc313a16442615e671f7ea802]
link User to Client--><path codeLine="60" d="M559,212.2013 C559,234.3707 559,262.7726 559,288.7438 " fill="none" id="User-Client" style="stroke:#A80036;stroke-width:1.0;"/><polygon fill="#000000" points="564,245.5664,561.0611,254.6115,566.9389,254.6115,564,245.5664" style="stroke:#000000;stroke-width:1.0;"/><text fill="#000000" font-family="sans-serif" font-size="13" lengthAdjust="spacingAndGlyphs" textLength="61" x="573" y="255.0669">relates to</text><text fill="#000000" font-family="sans-serif" font-size="13" lengthAdjust="spacingAndGlyphs" textLength="8" x="550.2875" y="232.5618">1</text><text fill="#000000" font-family="sans-serif" font-size="13" lengthAdjust="spacingAndGlyphs" textLength="24" x="533.8188" y="278.0431">0..1</text><!--MD5=[3994f36c72829dbcddd1cf7021dddf61]
link Test to Client--><path codeLine="61" d="M360.568,360 C401.8083,360 466.4723,360 510.6983,360 " fill="none" id="Test-Client" style="stroke:#A80036;stroke-width:1.0;"/><polygon fill="#000000" points="400.25,348.5664,409.2951,351.5053,409.2951,345.6275,400.25,348.5664" style="stroke:#000000;stroke-width:1.0;"/><text fill="#000000" font-family="sans-serif" font-size="13" lengthAdjust="spacingAndGlyphs" textLength="56" x="414.25" y="353.0669">requests</text><text fill="#000000" font-family="sans-serif" font-size="13" lengthAdjust="spacingAndGlyphs" textLength="7" x="368.5087" y="355.6942">*</text><text fill="#000000" font-family="sans-serif" font-size="13" lengthAdjust="spacingAndGlyphs" textLength="24" x="478.9721" y="356.0864">0..1</text><!--MD5=[10af4306acabee641eea198ac06587b8]
link Test to Receptionist--><path codeLine="63" d="M281.3815,378.509 C233.7682,400.7531 154.1676,437.941 105.0684,460.8792 " fill="none" id="Test-Receptionist" style="stroke:#A80036;stroke-width:1.0;"/><polygon fill="#000000" points="132.3122,408.8839,122.8734,410.0497,125.3613,415.375,132.3122,408.8839" style="stroke:#000000;stroke-width:1.0;"/><text fill="#000000" font-family="sans-serif" font-size="13" lengthAdjust="spacingAndGlyphs" textLength="56" x="136.7822" y="415.5007">registers</text><text fill="#000000" font-family="sans-serif" font-size="13" lengthAdjust="spacingAndGlyphs" textLength="23" x="250.554" y="377.27">1..*</text><text fill="#000000" font-family="sans-serif" font-size="13" lengthAdjust="spacingAndGlyphs" textLength="8" x="108.5447" y="449.852">1</text><!--MD5=[d480452e7d21fe720ba0207568bc7434]
link ClinicalAnalysisLaboratory to Test--><path codeLine="65" d="M321,73.0404 C321,128.6911 321,241.5323 321,307.9259 " fill="none" id="ClinicalAnalysisLaboratory-Test" style="stroke:#A80036;stroke-width:1.0;"/><polygon fill="#000000" points="326,168.0664,323.0611,177.1115,328.9389,177.1115,326,168.0664" style="stroke:#000000;stroke-width:1.0;"/><text fill="#000000" font-family="sans-serif" font-size="13" lengthAdjust="spacingAndGlyphs" textLength="84" x="335" y="177.5669">performed at</text><text fill="#000000" font-family="sans-serif" font-size="13" lengthAdjust="spacingAndGlyphs" textLength="8" x="312.2625" y="92.6302">1</text><text fill="#000000" font-family="sans-serif" font-size="13" lengthAdjust="spacingAndGlyphs" textLength="7" x="313.5297" y="296.9949">*</text><!--MD5=[c23963f6e403fc3ebec8dae22c30ade6]
link Test to Parameter--><path codeLine="66" d="M312.8784,412.0518 C303.9144,469.5032 289.7546,560.2545 282.1822,608.7865 " fill="none" id="Test-Parameter" style="stroke:#A80036;stroke-width:1.0;"/><polygon fill="#000000" points="299.2292,544.5066,303.5274,536.0228,297.7198,535.1166,299.2292,544.5066" style="stroke:#000000;stroke-width:1.0;"/><text fill="#000000" font-family="sans-serif" font-size="13" lengthAdjust="spacingAndGlyphs" textLength="12" x="309" y="544.0669">of</text><text fill="#000000" font-family="sans-serif" font-size="13" lengthAdjust="spacingAndGlyphs" textLength="8" x="303.2496" y="432.1283">1</text><text fill="#000000" font-family="sans-serif" font-size="13" lengthAdjust="spacingAndGlyphs" textLength="7" x="275.5134" y="597.8895">*</text><!--MD5=[e981d4f96c4342412d1e68160b30cf70]
link Test to TestType--><path codeLine="67" d="M289.2521,412.0518 C254.2108,469.5032 198.859,560.2545 169.2579,608.7865 " fill="none" id="Test-TestType" style="stroke:#A80036;stroke-width:1.0;"/><polygon fill="#000000" points="219.3964,543.8351,226.6154,537.6433,221.5973,534.5827,219.3964,543.8351" style="stroke:#000000;stroke-width:1.0;"/><text fill="#000000" font-family="sans-serif" font-size="13" lengthAdjust="spacingAndGlyphs" textLength="26" x="231" y="544.0669">is of</text><text fill="#000000" font-family="sans-serif" font-size="13" lengthAdjust="spacingAndGlyphs" textLength="8" x="276.4485" y="432.1283">1</text><text fill="#000000" font-family="sans-serif" font-size="13" lengthAdjust="spacingAndGlyphs" textLength="8" x="164.4587" y="597.8895">1</text><!--MD5=[b72ac8ab7fb5921fceb5036a3902baea]
link Test to Sample--><path codeLine="68" d="M335.5819,412.0518 C353.2814,475.2324 382.263,578.6856 394.3891,621.9713 " fill="none" id="Test-Sample" style="stroke:#A80036;stroke-width:1.0;"/><polygon fill="#000000" points="379.3488,544.381,379.7388,534.8785,374.0788,536.4641,379.3488,544.381" style="stroke:#000000;stroke-width:1.0;"/><text fill="#000000" font-family="sans-serif" font-size="13" lengthAdjust="spacingAndGlyphs" textLength="54" x="387" y="544.0669">contains</text><text fill="#000000" font-family="sans-serif" font-size="13" lengthAdjust="spacingAndGlyphs" textLength="8" x="329.0038" y="432.1283">1</text><text fill="#000000" font-family="sans-serif" font-size="13" lengthAdjust="spacingAndGlyphs" textLength="23" x="366.3628" y="610.9711">1..*</text><!--MD5=[8cce8f51f743279b3d00f89f292a629b]
@startuml
skinparam classAttributeIconSize 0
hide empty methods

class User {
  -name
  -email
  -password
}

class ClinicalAnalysisLaboratory as "Clinical Analysis Laboratory" {
  -laboratoryId
  -laboratoryName
}

class Client {
  -name
  -ccn
  -nhsNumber
  -tin
  -birthDate
  -sex
  -phoneNumber
  -email
}

class Receptionist {
}

class Test {
  -code
  -nhsCode
  -description
  -state
  -createdAt
}

class TestType {
  -code
  -description
}

class Parameter {
  -name
  -code
}

class Sample {
}


class Company {
  -designation
}

Company "1" - -u- - "*" Parameter: capable of analysing >
Company "1" - -u- - "*" TestType: conducts >
Company "1" - -u- - "*" Test: performs >
Company "1" - -u- - "0..*" Receptionist: has >
Company "1" - -u- - "0..*" Client: knows >
Client "0..1" -u- "1" User : relates to >
Client "0..1" -l- "*" Test : requests >

Receptionist "1" -l- "1..*" Test : registers >

Test "*" - -u- "1" ClinicalAnalysisLaboratory : performed at >
Test "1" - - - "*" Parameter : of >
Test "1" - - - "1" TestType : is of >
Test "1" - - - "1..*" Sample : contains >
@enduml

PlantUML version 1.2020.22(Sun Dec 06 09:36:27 UTC 2020)
(GPL source distribution)
Java Runtime: OpenJDK Runtime Environment
JVM: OpenJDK 64-Bit Server VM
Default Encoding: UTF-8
Language: en
Country: US
--></g></svg>