<?xml version="1.0" encoding="UTF-8" standalone="no"?><svg xmlns="http://www.w3.org/2000/svg" xmlns:xlink="http://www.w3.org/1999/xlink" contentScriptType="application/ecmascript" contentStyleType="text/css" height="1755px" preserveAspectRatio="none" style="width:791px;height:1755px;" version="1.1" viewBox="0 0 791 1755" width="791px" zoomAndPan="magnify"><defs><filter height="300%" id="f1bcg4arogusoh" width="300%" x="-1" y="-1"><feGaussianBlur result="blurOut" stdDeviation="2.0"/><feColorMatrix in="blurOut" result="blurOut2" type="matrix" values="0 0 0 0 0 0 0 0 0 0 0 0 0 0 0 0 0 0 .4 0"/><feOffset dx="4.0" dy="4.0" in="blurOut2" result="blurOut3"/><feBlend in="SourceGraphic" in2="blurOut3" mode="normal"/></filter></defs><g><!--MD5=[5aa47fd7ee03a674c38a8ec64629ba08]
cluster ManyLabsApp--><rect fill="#FFFFFF" filter="url(#f1bcg4arogusoh)" height="1734" style="stroke:#000000;stroke-width:1.5;" width="301" x="272" y="7"/><text fill="#000000" font-family="sans-serif" font-size="14" font-weight="bold" lengthAdjust="spacingAndGlyphs" textLength="109" x="368" y="21.9951">ManyLabsApp</text><ellipse cx="422.3859" cy="49.9772" fill="#FEFECE" filter="url(#f1bcg4arogusoh)" rx="67.8859" ry="15.9772" style="stroke:#A80036;stroke-width:1.5;"/><text fill="#000000" font-family="sans-serif" font-size="14" lengthAdjust="spacingAndGlyphs" textLength="101" x="371.8859" y="54.6256">Register Client</text><ellipse cx="422.3859" cy="116.9772" fill="#FEFECE" filter="url(#f1bcg4arogusoh)" rx="67.8859" ry="15.9772" style="stroke:#A80036;stroke-width:1.5;"/><text fill="#000000" font-family="sans-serif" font-size="14" lengthAdjust="spacingAndGlyphs" textLength="101" x="371.8859" y="121.6256">Edit client data</text><ellipse cx="422.3339" cy="183.0668" fill="#FEFECE" filter="url(#f1bcg4arogusoh)" rx="63.3339" ry="15.0668" style="stroke:#A80036;stroke-width:1.5;"/><text fill="#000000" font-family="sans-serif" font-size="14" lengthAdjust="spacingAndGlyphs" textLength="89" x="377.8339" y="187.7152">Register test</text><ellipse cx="422.7362" cy="247.8472" fill="#FEFECE" filter="url(#f1bcg4arogusoh)" rx="62.2362" ry="14.8472" style="stroke:#A80036;stroke-width:1.5;"/><text fill="#000000" font-family="sans-serif" font-size="14" lengthAdjust="spacingAndGlyphs" textLength="86" x="379.7362" y="252.4957">Edit test info</text><ellipse cx="422.2526" cy="314.8505" fill="#FEFECE" filter="url(#f1bcg4arogusoh)" rx="72.2526" ry="16.8505" style="stroke:#A80036;stroke-width:1.5;"/><text fill="#000000" font-family="sans-serif" font-size="14" lengthAdjust="spacingAndGlyphs" textLength="112" x="366.2526" y="319.499">Record samples</text><ellipse cx="422.3859" cy="382.9772" fill="#FEFECE" filter="url(#f1bcg4arogusoh)" rx="67.8859" ry="15.9772" style="stroke:#A80036;stroke-width:1.5;"/><text fill="#000000" font-family="sans-serif" font-size="14" lengthAdjust="spacingAndGlyphs" textLength="101" x="371.8859" y="387.6256">Record results</text><ellipse cx="422.3991" cy="464.0798" fill="#FEFECE" filter="url(#f1bcg4arogusoh)" rx="135.8991" ry="29.5798" style="stroke:#A80036;stroke-width:1.5;"/><text fill="#000000" font-family="sans-serif" font-size="14" lengthAdjust="spacingAndGlyphs" textLength="253" x="295.8991" y="468.7283">Obtain automatic validation of results</text><ellipse cx="422.4597" cy="544.0919" fill="#FEFECE" filter="url(#f1bcg4arogusoh)" rx="65.9597" ry="15.5919" style="stroke:#A80036;stroke-width:1.5;"/><text fill="#000000" font-family="sans-serif" font-size="14" lengthAdjust="spacingAndGlyphs" textLength="96" x="374.4597" y="548.7404">Record report</text><ellipse cx="422.2894" cy="611.7579" fill="#FEFECE" filter="url(#f1bcg4arogusoh)" rx="74.2894" ry="17.2579" style="stroke:#A80036;stroke-width:1.5;"/><text fill="#000000" font-family="sans-serif" font-size="14" lengthAdjust="spacingAndGlyphs" textLength="117" x="363.7894" y="616.4063">Acess client data</text><ellipse cx="422.3004" cy="690.0601" fill="#FEFECE" filter="url(#f1bcg4arogusoh)" rx="113.3004" ry="25.0601" style="stroke:#A80036;stroke-width:1.5;"/><text fill="#000000" font-family="sans-serif" font-size="14" lengthAdjust="spacingAndGlyphs" textLength="205" x="319.8004" y="694.7085">Validate results and diagnosis</text><ellipse cx="422.5786" cy="780.9157" fill="#FEFECE" filter="url(#f1bcg4arogusoh)" rx="142.5786" ry="30.9157" style="stroke:#A80036;stroke-width:1.5;"/><text fill="#000000" font-family="sans-serif" font-size="14" lengthAdjust="spacingAndGlyphs" textLength="267" x="289.0786" y="785.5642">Check evaluation of internal processes</text><ellipse cx="422.56" cy="863.212" fill="#FEFECE" filter="url(#f1bcg4arogusoh)" rx="69.06" ry="16.212" style="stroke:#A80036;stroke-width:1.5;"/><text fill="#000000" font-family="sans-serif" font-size="14" lengthAdjust="spacingAndGlyphs" textLength="104" x="370.56" y="867.8604">Get notification</text><ellipse cx="422.3859" cy="929.9772" fill="#FEFECE" filter="url(#f1bcg4arogusoh)" rx="67.8859" ry="15.9772" style="stroke:#A80036;stroke-width:1.5;"/><text fill="#000000" font-family="sans-serif" font-size="14" lengthAdjust="spacingAndGlyphs" textLength="101" x="371.8859" y="934.6256">Access results</text><ellipse cx="422.2771" cy="1001.9554" fill="#FEFECE" filter="url(#f1bcg4arogusoh)" rx="92.7771" ry="20.9554" style="stroke:#A80036;stroke-width:1.5;"/><text fill="#000000" font-family="sans-serif" font-size="14" lengthAdjust="spacingAndGlyphs" textLength="160" x="342.2771" y="1006.6039">Create New Staff Profile</text><ellipse cx="422.2711" cy="1075.7542" fill="#FEFECE" filter="url(#f1bcg4arogusoh)" rx="76.7711" ry="17.7542" style="stroke:#A80036;stroke-width:1.5;"/><text fill="#000000" font-family="sans-serif" font-size="14" lengthAdjust="spacingAndGlyphs" textLength="123" x="360.7711" y="1080.4027">Modify staff profile</text><ellipse cx="422.5368" cy="1148.8074" fill="#FEFECE" filter="url(#f1bcg4arogusoh)" rx="87.0368" ry="19.8074" style="stroke:#A80036;stroke-width:1.5;"/><text fill="#000000" font-family="sans-serif" font-size="14" lengthAdjust="spacingAndGlyphs" textLength="147" x="349.0368" y="1153.4558">Specify new test type</text><ellipse cx="422.4496" cy="1227.9899" fill="#FEFECE" filter="url(#f1bcg4arogusoh)" rx="105.4496" ry="23.4899" style="stroke:#A80036;stroke-width:1.5;"/><text fill="#000000" font-family="sans-serif" font-size="14" lengthAdjust="spacingAndGlyphs" textLength="188" x="328.4496" y="1232.6384">Specify new test parameter</text><ellipse cx="422.2717" cy="1313.0543" fill="#FEFECE" filter="url(#f1bcg4arogusoh)" rx="120.7717" ry="26.5543" style="stroke:#A80036;stroke-width:1.5;"/><text fill="#000000" font-family="sans-serif" font-size="14" lengthAdjust="spacingAndGlyphs" textLength="221" x="311.7717" y="1317.7028">Specify new parameter category</text><ellipse cx="422.3359" cy="1399.9672" fill="#FEFECE" filter="url(#f1bcg4arogusoh)" rx="112.8359" ry="24.9672" style="stroke:#A80036;stroke-width:1.5;"/><text fill="#000000" font-family="sans-serif" font-size="14" lengthAdjust="spacingAndGlyphs" textLength="204" x="320.3359" y="1404.6156">Change test reference values</text><ellipse cx="422.3371" cy="1483.1674" fill="#FEFECE" filter="url(#f1bcg4arogusoh)" rx="101.3371" ry="22.6674" style="stroke:#A80036;stroke-width:1.5;"/><text fill="#000000" font-family="sans-serif" font-size="14" lengthAdjust="spacingAndGlyphs" textLength="179" x="332.8371" y="1487.8158">Change configuration files</text><ellipse cx="422.4095" cy="1562.0819" fill="#FEFECE" filter="url(#f1bcg4arogusoh)" rx="95.9095" ry="21.5819" style="stroke:#A80036;stroke-width:1.5;"/><text fill="#000000" font-family="sans-serif" font-size="14" lengthAdjust="spacingAndGlyphs" textLength="167" x="338.9095" y="1566.7303">Edit Parameter Category</text><ellipse cx="422.6456" cy="1635.0291" fill="#FEFECE" filter="url(#f1bcg4arogusoh)" rx="70.6456" ry="16.5291" style="stroke:#A80036;stroke-width:1.5;"/><text fill="#000000" font-family="sans-serif" font-size="14" lengthAdjust="spacingAndGlyphs" textLength="108" x="368.6456" y="1639.6776">Edit type of test</text><ellipse cx="422.6177" cy="1710.1235" fill="#FEFECE" filter="url(#f1bcg4arogusoh)" rx="103.6177" ry="23.1235" style="stroke:#A80036;stroke-width:1.5;"/><text fill="#000000" font-family="sans-serif" font-size="14" lengthAdjust="spacingAndGlyphs" textLength="184" x="330.6177" y="1714.772">Generate Covid-19 reports</text><!--MD5=[87a04b683345c3cce94ac9a6e159ab2f]
entity Receptionist--><ellipse cx="113" cy="119" fill="#FEFECE" filter="url(#f1bcg4arogusoh)" rx="8" ry="8" style="stroke:#A80036;stroke-width:1.5;"/><path d="M113,127 L113,154 M100,135 L126,135 M113,154 L100,169 M113,154 L126,169 " fill="none" filter="url(#f1bcg4arogusoh)" style="stroke:#A80036;stroke-width:1.5;"/><text fill="#000000" font-family="sans-serif" font-size="14" lengthAdjust="spacingAndGlyphs" textLength="87" x="69.5" y="187.4951">Receptionist</text><!--MD5=[e7d38603a700bedb049d1f5e1789c8aa]
entity MLT--><ellipse cx="704.5" cy="284" fill="#FEFECE" filter="url(#f1bcg4arogusoh)" rx="8" ry="8" style="stroke:#A80036;stroke-width:1.5;"/><path d="M704.5,292 L704.5,319 M691.5,300 L717.5,300 M704.5,319 L691.5,334 M704.5,319 L717.5,334 " fill="none" filter="url(#f1bcg4arogusoh)" style="stroke:#A80036;stroke-width:1.5;"/><text fill="#000000" font-family="sans-serif" font-size="14" lengthAdjust="spacingAndGlyphs" textLength="159" x="625" y="352.4951">Medical Lab Technician</text><!--MD5=[234b11d210a3d78b3bcac40f493e1b07]
entity CCT--><ellipse cx="113" cy="352" fill="#FEFECE" filter="url(#f1bcg4arogusoh)" rx="8" ry="8" style="stroke:#A80036;stroke-width:1.5;"/><path d="M113,360 L113,387 M100,368 L126,368 M113,387 L100,402 M113,387 L126,402 " fill="none" filter="url(#f1bcg4arogusoh)" style="stroke:#A80036;stroke-width:1.5;"/><text fill="#000000" font-family="sans-serif" font-size="14" lengthAdjust="spacingAndGlyphs" textLength="214" x="6" y="420.4951">Clinical Chemistry Technologist</text><!--MD5=[f0e91d5aa74c2411969e7ef072c6f268]
entity SD--><ellipse cx="704.5" cy="513" fill="#FEFECE" filter="url(#f1bcg4arogusoh)" rx="8" ry="8" style="stroke:#A80036;stroke-width:1.5;"/><path d="M704.5,521 L704.5,548 M691.5,529 L717.5,529 M704.5,548 L691.5,563 M704.5,548 L717.5,563 " fill="none" filter="url(#f1bcg4arogusoh)" style="stroke:#A80036;stroke-width:1.5;"/><text fill="#000000" font-family="sans-serif" font-size="14" lengthAdjust="spacingAndGlyphs" textLength="116" x="646.5" y="581.4951">Specialist Doctor</text><!--MD5=[b0100dfa164aec77c855c16afe11d7ec]
entity LC--><ellipse cx="113" cy="705" fill="#FEFECE" filter="url(#f1bcg4arogusoh)" rx="8" ry="8" style="stroke:#A80036;stroke-width:1.5;"/><path d="M113,713 L113,740 M100,721 L126,721 M113,740 L100,755 M113,740 L126,755 " fill="none" filter="url(#f1bcg4arogusoh)" style="stroke:#A80036;stroke-width:1.5;"/><text fill="#000000" font-family="sans-serif" font-size="14" lengthAdjust="spacingAndGlyphs" textLength="157" x="34.5" y="773.4951">Laboratory Coordinator</text><!--MD5=[97ab183161fd5d1db7fba7485cf76add]
entity Admin--><ellipse cx="113" cy="1282" fill="#FEFECE" filter="url(#f1bcg4arogusoh)" rx="8" ry="8" style="stroke:#A80036;stroke-width:1.5;"/><path d="M113,1290 L113,1317 M100,1298 L126,1298 M113,1317 L100,1332 M113,1317 L126,1332 " fill="none" filter="url(#f1bcg4arogusoh)" style="stroke:#A80036;stroke-width:1.5;"/><text fill="#000000" font-family="sans-serif" font-size="14" lengthAdjust="spacingAndGlyphs" textLength="146" x="40" y="1350.4951">System Administrator</text><!--MD5=[0ba5ee7700168656dc1b457c6fe9fdac]
entity Client--><ellipse cx="704.5" cy="865" fill="#FEFECE" filter="url(#f1bcg4arogusoh)" rx="8" ry="8" style="stroke:#A80036;stroke-width:1.5;"/><path d="M704.5,873 L704.5,900 M691.5,881 L717.5,881 M704.5,900 L691.5,915 M704.5,900 L717.5,915 " fill="none" filter="url(#f1bcg4arogusoh)" style="stroke:#A80036;stroke-width:1.5;"/><text fill="#000000" font-family="sans-serif" font-size="14" lengthAdjust="spacingAndGlyphs" textLength="39" x="685" y="933.4951">Client</text><!--MD5=[52244217770951987a130bd5b09c96eb]
entity Time--><ellipse cx="113" cy="1679" fill="#FEFECE" filter="url(#f1bcg4arogusoh)" rx="8" ry="8" style="stroke:#A80036;stroke-width:1.5;"/><path d="M113,1687 L113,1714 M100,1695 L126,1695 M113,1714 L100,1729 M113,1714 L126,1729 " fill="none" filter="url(#f1bcg4arogusoh)" style="stroke:#A80036;stroke-width:1.5;"/><text fill="#000000" font-family="sans-serif" font-size="14" lengthAdjust="spacingAndGlyphs" textLength="90" x="68" y="1747.4951">System/Time</text><!--MD5=[2b45617c0549490b7c6f8746acf02284]
link Receptionist to Register Client--><path d="M156.7317,129.0116 C188.223,114.5349 232.0282,95.6864 272,83 C301.2824,73.7062 334.5825,66.1094 362.4015,60.5575 " fill="none" id="Receptionist-to-Register Client" style="stroke:#A80036;stroke-width:1.0;"/><polygon fill="#A80036" points="367.5299,59.5447,357.9255,57.3642,362.6246,60.5134,359.4754,65.2126,367.5299,59.5447" style="stroke:#A80036;stroke-width:1.0;"/><!--MD5=[77fa00d7a04f158da391876d18b87f6e]
link Receptionist to Edit client data--><path d="M156.6874,145.3419 C208.3885,139.8293 295.0461,130.5896 355.305,124.1646 " fill="none" id="Receptionist-to-Edit client data" style="stroke:#A80036;stroke-width:1.0;"/><polygon fill="#A80036" points="360.3232,123.6295,350.9498,120.6063,355.3514,124.1596,351.798,128.5612,360.3232,123.6295" style="stroke:#A80036;stroke-width:1.0;"/><!--MD5=[4baf46e1f5f8e3e6b0ad81e752020039]
link Receptionist to Register test--><path d="M156.6874,154.6581 C209.604,160.3003 299.1402,169.8469 359.5107,176.2839 " fill="none" id="Receptionist-to-Register test" style="stroke:#A80036;stroke-width:1.0;"/><polygon fill="#A80036" points="364.5316,176.8192,356.0065,171.8875,359.5598,176.289,355.1582,179.8424,364.5316,176.8192" style="stroke:#A80036;stroke-width:1.0;"/><!--MD5=[30d8f6a2098074b899db4fb284ca576e]
link Receptionist to Edit test info--><path d="M156.7998,170.295 C188.3231,184.308 232.1386,202.5836 272,215 C303.0228,224.6633 338.4903,232.5861 367.1996,238.2444 " fill="none" id="Receptionist-to-Edit test info" style="stroke:#A80036;stroke-width:1.0;"/><polygon fill="#A80036" points="372.1121,239.2036,364.0456,233.5528,367.2048,238.2453,362.5123,241.4045,372.1121,239.2036" style="stroke:#A80036;stroke-width:1.0;"/><!--MD5=[907478714b0e386eef24847c6354740e]
reverse link Record samples to MLT--><path d="M500.2959,315 C539.0802,315 585.9094,315 624.934,315 " fill="none" id="Record samples-backto-MLT" style="stroke:#A80036;stroke-width:1.0;"/><polygon fill="#A80036" points="495.122,315,504.122,319,500.122,315,504.122,311,495.122,315" style="stroke:#A80036;stroke-width:1.0;"/><!--MD5=[c08a9ebe08d64377a3b84292f28095a7]
link CCT to Record results--><path d="M220.3795,383 C262.9874,383 310.8976,383 349.3753,383 " fill="none" id="CCT-to-Record results" style="stroke:#A80036;stroke-width:1.0;"/><polygon fill="#A80036" points="354.4996,383,345.4996,379,349.4996,383,345.4996,387,354.4996,383" style="stroke:#A80036;stroke-width:1.0;"/><!--MD5=[2612365320c5dc51bed2b6cb72107a22]
reverse link Obtain automatic validation of results to SD--><path d="M510.0213,488.8287 C554.4037,501.4195 607.0852,516.3646 646.416,527.5223 " fill="none" id="Obtain automatic validation of results-backto-SD" style="stroke:#A80036;stroke-width:1.0;"/><polygon fill="#A80036" points="505.2039,487.4621,512.7704,493.7667,510.0141,488.8268,514.9539,486.0705,505.2039,487.4621" style="stroke:#A80036;stroke-width:1.0;"/><!--MD5=[ea6684d9d6c1a15ef1ae5050b7d5fd25]
reverse link Record report to SD--><path d="M493.723,544 C540.961,544 602.1695,544 646.446,544 " fill="none" id="Record report-backto-SD" style="stroke:#A80036;stroke-width:1.0;"/><polygon fill="#A80036" points="488.6165,544,497.6165,548,493.6165,544,497.6165,540,488.6165,544" style="stroke:#A80036;stroke-width:1.0;"/><!--MD5=[1d2da895b743397a1523a0f044b0e061]
reverse link Acess client data to SD--><path d="M481.3124,598.572 C509.1371,592.1553 542.8073,584.2986 573,577 C597.0227,571.1929 623.4613,564.5979 646.2927,558.8382 " fill="none" id="Acess client data-backto-SD" style="stroke:#A80036;stroke-width:1.0;"/><polygon fill="#A80036" points="476.1871,599.7529,485.8554,601.6299,481.0594,598.6302,484.0591,593.8342,476.1871,599.7529" style="stroke:#A80036;stroke-width:1.0;"/><!--MD5=[3b2d689992772c884db719094539be9b]
link LC to Validate results and diagnosis--><path d="M191.5,724.3328 C231.5113,718.386 280.589,711.0918 323.202,704.7583 " fill="none" id="LC-to-Validate results and diagnosis" style="stroke:#A80036;stroke-width:1.0;"/><polygon fill="#A80036" points="328.3657,703.9909,318.8754,701.3576,323.42,704.726,320.0516,709.2707,328.3657,703.9909" style="stroke:#A80036;stroke-width:1.0;"/><!--MD5=[8946f2555b17880b51d6d55013831816]
link LC to Check evaluation of internal processes--><path d="M191.5,747.4136 C224.0169,752.1414 262.5219,757.7399 298.6786,762.9969 " fill="none" id="LC-to-Check evaluation of internal processes" style="stroke:#A80036;stroke-width:1.0;"/><polygon fill="#A80036" points="303.9951,763.7699,295.6644,758.5163,299.0471,763.0503,294.5131,766.433,303.9951,763.7699" style="stroke:#A80036;stroke-width:1.0;"/><!--MD5=[bc21b31a93b312f6fd8b4c156a260770]
reverse link Get notification to Client--><path d="M489.6963,870.8634 C553.4699,878.3263 645.2935,889.0716 684.9935,893.7173 " fill="none" id="Get notification-backto-Client" style="stroke:#A80036;stroke-width:1.0;"/><polygon fill="#A80036" points="484.3861,870.242,492.8602,875.2609,489.3522,870.8231,493.79,867.3152,484.3861,870.242" style="stroke:#A80036;stroke-width:1.0;"/><!--MD5=[ea0a11f2c830fbbf636e1ecce5fd6a2e]
reverse link Access results to Client--><path d="M488.6475,922.0248 C552.377,914.3411 644.837,903.1934 684.8392,898.3705 " fill="none" id="Access results-backto-Client" style="stroke:#A80036;stroke-width:1.0;"/><polygon fill="#A80036" points="483.3426,922.6644,492.7567,925.5582,488.3066,922.0658,491.799,917.6157,483.3426,922.6644" style="stroke:#A80036;stroke-width:1.0;"/><!--MD5=[07e9beeb86cfb6b0cdf84b3a16d04a68]
link Admin to Create New Staff Profile--><path d="M125.3539,1272.3089 C145.7891,1212.0769 192.4714,1099.8782 272,1040 C289.8133,1026.5881 311.8337,1017.8763 333.4808,1012.2274 " fill="none" id="Admin-to-Create New Staff Profile" style="stroke:#A80036;stroke-width:1.0;"/><polygon fill="#A80036" points="338.384,1010.9976,328.6812,1009.3076,333.5343,1012.2142,330.6277,1017.0672,338.384,1010.9976" style="stroke:#A80036;stroke-width:1.0;"/><!--MD5=[13697576b7dce6e572da0edca447792e]
link Admin to Modify staff profile--><path d="M133.7847,1272.4748 C159.7317,1226.0903 208.5347,1151.3421 272,1111 C293.967,1097.0366 320.903,1088.63 345.8853,1083.5739 " fill="none" id="Admin-to-Modify staff profile" style="stroke:#A80036;stroke-width:1.0;"/><polygon fill="#A80036" points="350.8537,1082.6067,341.2552,1080.4002,345.9458,1083.5621,342.7839,1088.2528,350.8537,1082.6067" style="stroke:#A80036;stroke-width:1.0;"/><!--MD5=[5a3a1cc1615e0ee5a2e9caf64492eec3]
link Admin to Specify new test type--><path d="M154.1202,1272.2826 C184.3808,1244.4704 227.7885,1208.8342 272,1187 C294.8963,1175.6924 321.463,1167.5494 345.8457,1161.7775 " fill="none" id="Admin-to-Specify new test type" style="stroke:#A80036;stroke-width:1.0;"/><polygon fill="#A80036" points="351.0135,1160.5815,341.3433,1158.7139,346.1423,1161.7089,343.1472,1166.5078,351.0135,1160.5815" style="stroke:#A80036;stroke-width:1.0;"/><!--MD5=[cd28c4d6652a44754bd56a7ef10e66af]
link Admin to Specify new test parameter--><path d="M186.2035,1292.6765 C213.1677,1285.2078 243.9663,1276.6974 272,1269 C297.5837,1261.9753 325.6272,1254.3227 350.5009,1247.5514 " fill="none" id="Admin-to-Specify new test parameter" style="stroke:#A80036;stroke-width:1.0;"/><polygon fill="#A80036" points="355.4318,1246.2094,345.6972,1244.7134,350.6073,1247.5225,347.7982,1252.4326,355.4318,1246.2094" style="stroke:#A80036;stroke-width:1.0;"/><!--MD5=[c1d494e05cf816c04c7226b069af41bb]
link Admin to Specify new parameter category--><path d="M186.3472,1313 C219.1937,1313 258.8803,1313 296.2666,1313 " fill="none" id="Admin-to-Specify new parameter category" style="stroke:#A80036;stroke-width:1.0;"/><polygon fill="#A80036" points="301.2876,1313,292.2876,1309,296.2876,1313,292.2876,1317,301.2876,1313" style="stroke:#A80036;stroke-width:1.0;"/><!--MD5=[eb7ff491e7a8475a14c51324a3564472]
link Admin to Change test reference values--><path d="M186.3472,1333.6178 C234.9964,1347.293 298.6504,1365.1861 347.6121,1378.9491 " fill="none" id="Admin-to-Change test reference values" style="stroke:#A80036;stroke-width:1.0;"/><polygon fill="#A80036" points="352.6034,1380.3522,345.0217,1374.0659,347.79,1378.9991,342.8567,1381.7674,352.6034,1380.3522" style="stroke:#A80036;stroke-width:1.0;"/><!--MD5=[512a6445c94c3dd9c623e846b89667ed]
link Admin to Change configuration files--><path d="M153.1085,1353.561 C183.3857,1382.0597 227.2421,1419.0508 272,1442 C292.9471,1452.7404 317.021,1460.9141 339.6832,1467.0258 " fill="none" id="Admin-to-Change configuration files" style="stroke:#A80036;stroke-width:1.0;"/><polygon fill="#A80036" points="344.7988,1468.3773,337.1191,1462.2111,339.9647,1467.1002,335.0756,1469.9458,344.7988,1468.3773" style="stroke:#A80036;stroke-width:1.0;"/><!--MD5=[4d5a6326f65ccd649c4c911e4f72b863]
link Admin to Edit Parameter ParameterCategory--><path d="M132.878,1353.5721 C158.4291,1401.415 207.3224,1479.8679 272,1523 C290.685,1535.4607 313.123,1543.9413 334.9004,1549.7127 " fill="none" id="Admin-to-Edit Parameter Category" style="stroke:#A80036;stroke-width:1.0;"/><polygon fill="#A80036" points="339.8283,1550.9763,332.1039,1544.8661,334.985,1549.7343,330.1168,1552.6154,339.8283,1550.9763" style="stroke:#A80036;stroke-width:1.0;"/><!--MD5=[88f64e8e990b707612e9d48e83fdafb2]
link Admin to Edit type of test--><path d="M123.7177,1353.551 C142.5974,1416.7147 187.9769,1537.8818 272,1601 C293.7853,1617.3651 322.019,1626.0931 348.1372,1630.6693 " fill="none" id="Admin-to-Edit type of test" style="stroke:#A80036;stroke-width:1.0;"/><polygon fill="#A80036" points="353.3301,1631.5303,345.1056,1626.112,348.3974,1630.7124,343.797,1634.0043,353.3301,1631.5303" style="stroke:#A80036;stroke-width:1.0;"/><!--MD5=[41073721dbc814a0f862a2505bd611af]
link Time to Generate Covid-19 reports--><path d="M158.004,1710 C198.689,1710 260.2252,1710 313.7072,1710 " fill="none" id="Time-to-Generate Covid-19 reports" style="stroke:#A80036;stroke-width:1.0;"/><polygon fill="#A80036" points="318.8568,1710,309.8568,1706,313.8568,1710,309.8568,1714,318.8568,1710" style="stroke:#A80036;stroke-width:1.0;"/><!--MD5=[daaac60e6ab062d07296b42f57ba0eab]
@startuml
left to right direction
skinparam packageStyle rectangle
actor Receptionist 
actor "Medical Lab Technician" as MLT
actor "Clinical Chemistry Technologist" as CCT
actor "Specialist Doctor" as SD
actor "Laboratory Coordinator" as LC
actor "System Administrator" as Admin
actor Client
actor "System/Time" as Time


rectangle ManyLabsApp {
Receptionist - ->  (Register Client)
Receptionist - -> (Edit client data)
Receptionist - -> (Register test)
Receptionist - -> (Edit test info)
(Record samples) <- - MLT
CCT - -> (Record results)
(Obtain automatic validation of results) <- - SD
(Record report) <- - SD
(Acess client data) <- - SD
LC - -> (Validate results and diagnosis)
LC - -> (Check evaluation of internal processes)
(Get notification) <- - Client
(Access results) <- - Client
Admin - -> (Create New Staff Profile)
Admin - -> (Modify staff profile)
Admin - -> (Specify new test type)
Admin - -> (Specify new test parameter)
Admin - -> (Specify new parameter category)
Admin - -> (Change test reference values)
Admin - -> (Change configuration files)
Admin - -> (Edit Parameter ParameterCategory)
Admin - -> (Edit type of test)
Time - -> (Generate Covid-19 reports)

}
@enduml

PlantUML version 1.2020.22(Sun Dec 06 09:36:27 UTC 2020)
(GPL source distribution)
Java Runtime: OpenJDK Runtime Environment
JVM: OpenJDK 64-Bit Server VM
Default Encoding: UTF-8
Language: en
Country: US
--></g></svg>