<?xml version="1.0" encoding="UTF-8" standalone="no"?><svg xmlns="http://www.w3.org/2000/svg" xmlns:xlink="http://www.w3.org/1999/xlink" contentScriptType="application/ecmascript" contentStyleType="text/css" height="521px" preserveAspectRatio="none" style="width:533px;height:521px;" version="1.1" viewBox="0 0 533 521" width="533px" zoomAndPan="magnify"><defs><filter height="300%" id="f12jvx7ji7d1th" width="300%" x="-1" y="-1"><feGaussianBlur result="blurOut" stdDeviation="2.0"/><feColorMatrix in="blurOut" result="blurOut2" type="matrix" values="0 0 0 0 0 0 0 0 0 0 0 0 0 0 0 0 0 0 .4 0"/><feOffset dx="4.0" dy="4.0" in="blurOut2" result="blurOut3"/><feBlend in="SourceGraphic" in2="blurOut3" mode="normal"/></filter></defs><g><text fill="#000000" font-family="sans-serif" font-size="18" lengthAdjust="spacingAndGlyphs" textLength="258" x="131" y="17.4023">US 8 - Domain Model Excerpt</text><!--MD5=[02e4b9b7573f1156f41e60aa5b4e25a4]
class Company--><rect codeLine="8" fill="#FEFECE" filter="url(#f12jvx7ji7d1th)" height="52.9551" id="Company" style="stroke: #A80036; stroke-width: 1.5;" width="86" x="271" y="28.1992"/><ellipse cx="286" cy="44.1992" fill="#ADD1B2" rx="11" ry="11" style="stroke: #A80036; stroke-width: 1.0;"/><path d="M288.4731,50.3423 Q287.8921,50.6411 287.2529,50.7905 Q286.6138,50.9399 285.9082,50.9399 Q283.4014,50.9399 282.0815,49.2881 Q280.7617,47.6362 280.7617,44.5151 Q280.7617,41.3857 282.0815,39.7339 Q283.4014,38.082 285.9082,38.082 Q286.6138,38.082 287.2612,38.2314 Q287.9087,38.3809 288.4731,38.6797 L288.4731,41.4023 Q287.8423,40.8213 287.2488,40.5515 Q286.6553,40.2817 286.0244,40.2817 Q284.6797,40.2817 283.9949,41.3484 Q283.3101,42.415 283.3101,44.5151 Q283.3101,46.6069 283.9949,47.6736 Q284.6797,48.7402 286.0244,48.7402 Q286.6553,48.7402 287.2488,48.4705 Q287.8423,48.2007 288.4731,47.6196 Z " fill="#000000"/><text fill="#000000" font-family="sans-serif" font-size="12" lengthAdjust="spacingAndGlyphs" textLength="54" x="300" y="48.7344">Company</text><line style="stroke: #A80036; stroke-width: 1.5;" x1="272" x2="356" y1="60.1992" y2="60.1992"/><text fill="#000000" font-family="sans-serif" font-size="11" lengthAdjust="spacingAndGlyphs" textLength="69" x="277" y="74.834">-designation</text><!--MD5=[0caf3a413731a0de34fc6162fe213ed9]
class Laboratory--><rect codeLine="12" fill="#FEFECE" filter="url(#f12jvx7ji7d1th)" height="91.8203" id="Laboratory" style="stroke: #A80036; stroke-width: 1.5;" width="141" x="314.5" y="415.1992"/><ellipse cx="350.65" cy="431.1992" fill="#ADD1B2" rx="11" ry="11" style="stroke: #A80036; stroke-width: 1.0;"/><path d="M353.1231,437.3423 Q352.5421,437.6411 351.9029,437.7905 Q351.2638,437.9399 350.5582,437.9399 Q348.0514,437.9399 346.7315,436.2881 Q345.4117,434.6362 345.4117,431.5151 Q345.4117,428.3857 346.7315,426.7339 Q348.0514,425.082 350.5582,425.082 Q351.2638,425.082 351.9112,425.2314 Q352.5587,425.3809 353.1231,425.6797 L353.1231,428.4023 Q352.4923,427.8213 351.8988,427.5515 Q351.3053,427.2817 350.6744,427.2817 Q349.3297,427.2817 348.6449,428.3484 Q347.9601,429.415 347.9601,431.5151 Q347.9601,433.6069 348.6449,434.6736 Q349.3297,435.7402 350.6744,435.7402 Q351.3053,435.7402 351.8988,435.4705 Q352.4923,435.2007 353.1231,434.6196 Z " fill="#000000"/><text fill="#000000" font-family="sans-serif" font-size="12" lengthAdjust="spacingAndGlyphs" textLength="62" x="369.35" y="435.7344">Laboratory</text><line style="stroke: #A80036; stroke-width: 1.5;" x1="315.5" x2="454.5" y1="447.1992" y2="447.1992"/><text fill="#000000" font-family="sans-serif" font-size="11" lengthAdjust="spacingAndGlyphs" textLength="35" x="320.5" y="461.834">-name</text><text fill="#000000" font-family="sans-serif" font-size="11" lengthAdjust="spacingAndGlyphs" textLength="49" x="320.5" y="474.7891">-address</text><text fill="#000000" font-family="sans-serif" font-size="11" lengthAdjust="spacingAndGlyphs" textLength="83" x="320.5" y="487.7441">-phoneNumber</text><text fill="#000000" font-family="sans-serif" font-size="11" lengthAdjust="spacingAndGlyphs" textLength="129" x="320.5" y="500.6992">-taxIdenticationNumber</text><!--MD5=[1934a092c0e7d4da7dc7075b6f4b6b03]
class ClinicalAnalysisLaboratory--><rect codeLine="19" fill="#FEFECE" filter="url(#f12jvx7ji7d1th)" height="52.9551" id="ClinicalAnalysisLaboratory" style="stroke: #A80036; stroke-width: 1.5;" width="180" x="224" y="288.1992"/><ellipse cx="239" cy="304.1992" fill="#ADD1B2" rx="11" ry="11" style="stroke: #A80036; stroke-width: 1.0;"/><path d="M241.4731,310.3423 Q240.8921,310.6411 240.2529,310.7905 Q239.6138,310.9399 238.9082,310.9399 Q236.4014,310.9399 235.0815,309.2881 Q233.7617,307.6362 233.7617,304.5151 Q233.7617,301.3857 235.0815,299.7339 Q236.4014,298.082 238.9082,298.082 Q239.6138,298.082 240.2612,298.2314 Q240.9087,298.3809 241.4731,298.6797 L241.4731,301.4023 Q240.8423,300.8213 240.2488,300.5515 Q239.6553,300.2817 239.0244,300.2817 Q237.6797,300.2817 236.9949,301.3484 Q236.3101,302.415 236.3101,304.5151 Q236.3101,306.6069 236.9949,307.6736 Q237.6797,308.7402 239.0244,308.7402 Q239.6553,308.7402 240.2488,308.4705 Q240.8423,308.2007 241.4731,307.6196 Z " fill="#000000"/><text fill="#000000" font-family="sans-serif" font-size="12" lengthAdjust="spacingAndGlyphs" textLength="148" x="253" y="308.7344">ClinicalAnalysisLaboratory</text><line style="stroke: #A80036; stroke-width: 1.5;" x1="225" x2="403" y1="320.1992" y2="320.1992"/><text fill="#000000" font-family="sans-serif" font-size="11" lengthAdjust="spacingAndGlyphs" textLength="16" x="230" y="334.834">-id</text><!--MD5=[a64badb107d3691f2dc6af242cdbeb21]
class ChemicalLaboratory--><rect codeLine="23" fill="#FEFECE" filter="url(#f12jvx7ji7d1th)" height="40" id="ChemicalLaboratory" style="stroke: #A80036; stroke-width: 1.5;" width="146" x="373" y="205.1992"/><ellipse cx="388" cy="221.1992" fill="#ADD1B2" rx="11" ry="11" style="stroke: #A80036; stroke-width: 1.0;"/><path d="M390.4731,227.3423 Q389.8921,227.6411 389.2529,227.7905 Q388.6138,227.9399 387.9082,227.9399 Q385.4014,227.9399 384.0815,226.2881 Q382.7617,224.6362 382.7617,221.5151 Q382.7617,218.3857 384.0815,216.7339 Q385.4014,215.082 387.9082,215.082 Q388.6138,215.082 389.2612,215.2314 Q389.9087,215.3809 390.4731,215.6797 L390.4731,218.4023 Q389.8423,217.8213 389.2488,217.5515 Q388.6553,217.2817 388.0244,217.2817 Q386.6797,217.2817 385.9949,218.3484 Q385.3101,219.415 385.3101,221.5151 Q385.3101,223.6069 385.9949,224.6736 Q386.6797,225.7402 388.0244,225.7402 Q388.6553,225.7402 389.2488,225.4705 Q389.8423,225.2007 390.4731,224.6196 Z " fill="#000000"/><text fill="#000000" font-family="sans-serif" font-size="12" lengthAdjust="spacingAndGlyphs" textLength="114" x="402" y="225.7344">ChemicalLaboratory</text><line style="stroke: #A80036; stroke-width: 1.5;" x1="374" x2="518" y1="237.1992" y2="237.1992"/><!--MD5=[aeb3272166074d8737a70b61b1e71682]
class TestType--><rect codeLine="26" fill="#FEFECE" filter="url(#f12jvx7ji7d1th)" height="78.8652" id="TestType" style="stroke: #A80036; stroke-width: 1.5;" width="110" x="7" y="275.1992"/><ellipse cx="32.8" cy="291.1992" fill="#ADD1B2" rx="11" ry="11" style="stroke: #A80036; stroke-width: 1.0;"/><path d="M35.2731,297.3423 Q34.6921,297.6411 34.0529,297.7905 Q33.4138,297.9399 32.7082,297.9399 Q30.2014,297.9399 28.8815,296.2881 Q27.5617,294.6362 27.5617,291.5151 Q27.5617,288.3857 28.8815,286.7339 Q30.2014,285.082 32.7082,285.082 Q33.4138,285.082 34.0612,285.2314 Q34.7087,285.3809 35.2731,285.6797 L35.2731,288.4023 Q34.6423,287.8213 34.0488,287.5515 Q33.4553,287.2817 32.8244,287.2817 Q31.4797,287.2817 30.7949,288.3484 Q30.1101,289.415 30.1101,291.5151 Q30.1101,293.6069 30.7949,294.6736 Q31.4797,295.7402 32.8244,295.7402 Q33.4553,295.7402 34.0488,295.4705 Q34.6423,295.2007 35.2731,294.6196 Z " fill="#000000"/><text fill="#000000" font-family="sans-serif" font-size="12" lengthAdjust="spacingAndGlyphs" textLength="54" x="49.2" y="295.7344">TestType</text><line style="stroke: #A80036; stroke-width: 1.5;" x1="8" x2="116" y1="307.1992" y2="307.1992"/><text fill="#000000" font-family="sans-serif" font-size="11" lengthAdjust="spacingAndGlyphs" textLength="32" x="13" y="321.834">-code</text><text fill="#000000" font-family="sans-serif" font-size="11" lengthAdjust="spacingAndGlyphs" textLength="67" x="13" y="334.7891">-description</text><text fill="#000000" font-family="sans-serif" font-size="11" lengthAdjust="spacingAndGlyphs" textLength="98" x="13" y="347.7441">-collectionMethod</text><!--MD5=[aafc5d8a5829a6a8d6dc892cb1ff5d24]
link Company to ClinicalAnalysisLaboratory--><path codeLine="33" d="M314,81.3792 C314,130.8292 314,238.7492 314,288.1192 " fill="none" id="Company-ClinicalAnalysisLaboratory" style="stroke: #A80036; stroke-width: 1.0;"/><polygon fill="#000000" points="319,171.8545,321.9389,162.8094,316.0611,162.8094,319,171.8545" style="stroke: #000000; stroke-width: 1.0;"/><text fill="#000000" font-family="sans-serif" font-size="13" lengthAdjust="spacingAndGlyphs" textLength="33" x="328" y="171.7676">owns</text><text fill="#000000" font-family="sans-serif" font-size="13" lengthAdjust="spacingAndGlyphs" textLength="8" x="305.075" y="101.8928">1</text><text fill="#000000" font-family="sans-serif" font-size="13" lengthAdjust="spacingAndGlyphs" textLength="6" x="307.2688" y="277.4239">*</text><!--MD5=[d6a5ae732362cd0f86c2003645f951b1]
link Company to ChemicalLaboratory--><path codeLine="34" d="M334.05,81.2892 C360.73,115.3592 407.31,174.8192 431.1,205.1792 " fill="none" id="Company-ChemicalLaboratory" style="stroke: #A80036; stroke-width: 1.0;"/><polygon fill="#000000" points="377.0834,123.7906,373.8191,114.8578,369.1919,118.4825,377.0834,123.7906" style="stroke: #000000; stroke-width: 1.0;"/><text fill="#000000" font-family="sans-serif" font-size="13" lengthAdjust="spacingAndGlyphs" textLength="33" x="383" y="124.7676">owns</text><text fill="#000000" font-family="sans-serif" font-size="13" lengthAdjust="spacingAndGlyphs" textLength="8" x="329.7616" y="101.782">1</text><text fill="#000000" font-family="sans-serif" font-size="13" lengthAdjust="spacingAndGlyphs" textLength="24" x="398.8619" y="194.3671">0..1</text><!--MD5=[742a261f27a3dcd734c626287d811acd]
link Company to TestType--><path codeLine="35" d="M288.92,81.3792 C244.6,126.7592 152.2,221.3492 100.02,274.7792 " fill="none" id="Company-TestType" style="stroke: #A80036; stroke-width: 1.0;"/><polygon fill="#000000" points="215.5063,170.4314,223.9289,166.0142,219.724,161.9072,215.5063,170.4314" style="stroke: #000000; stroke-width: 1.0;"/><text fill="#000000" font-family="sans-serif" font-size="13" lengthAdjust="spacingAndGlyphs" textLength="58" x="228" y="171.7676">conducts</text><text fill="#000000" font-family="sans-serif" font-size="13" lengthAdjust="spacingAndGlyphs" textLength="8" x="274.1953" y="101.8928">1</text><text fill="#000000" font-family="sans-serif" font-size="13" lengthAdjust="spacingAndGlyphs" textLength="6" x="99.8202" y="264.5305">*</text><!--MD5=[ca241da2d6b7ba1ad04f00d8baddcc83]
link ChemicalLaboratory to Laboratory--><path codeLine="37" d="M443.07,245.4692 C439.04,270.6792 431.13,316.1292 421,354.1992 C417.39,367.7692 412.95,382.1092 408.44,395.7192 " fill="none" id="ChemicalLaboratory-to-Laboratory" style="stroke: #A80036; stroke-width: 1.0;"/><polygon fill="none" points="414.96,398.2992,401.86,414.9592,401.71,393.7692,414.96,398.2992" style="stroke: #A80036; stroke-width: 1.0;"/><!--MD5=[6d0dfcacb99e5b6ea3de933623cb0bd1]
link ClinicalAnalysisLaboratory to Laboratory--><path codeLine="38" d="M326.53,341.1992 C334.17,356.7492 344.3,377.3692 353.98,397.0692 " fill="none" id="ClinicalAnalysisLaboratory-to-Laboratory" style="stroke: #A80036; stroke-width: 1.0;"/><polygon fill="none" points="360.3,394.0592,362.84,415.0992,347.74,400.2392,360.3,394.0592" style="stroke: #A80036; stroke-width: 1.0;"/><!--MD5=[d0d7fe16e8273ceba79e94c711fc9212]
link TestType to ClinicalAnalysisLaboratory--><path codeLine="40" d="M117.3,314.6992 C148.45,314.6992 188.13,314.6992 223.67,314.6992 " fill="none" id="TestType-ClinicalAnalysisLaboratory" style="stroke: #A80036; stroke-width: 1.0;"/><polygon fill="#000000" points="134.5,303.3545,143.5451,306.2934,143.5451,300.4156,134.5,303.3545" style="stroke: #000000; stroke-width: 1.0;"/><text fill="#000000" font-family="sans-serif" font-size="13" lengthAdjust="spacingAndGlyphs" textLength="57" x="148.5" y="308.2676">performs</text><text fill="#000000" font-family="sans-serif" font-size="13" lengthAdjust="spacingAndGlyphs" textLength="6" x="125.1341" y="311.2897">*</text><text fill="#000000" font-family="sans-serif" font-size="13" lengthAdjust="spacingAndGlyphs" textLength="6" x="209.9411" y="311.6612">*</text><!--MD5=[83ea4beab133db6163326eb63630e32e]
@startuml
skinparam classAttributeIconSize 0
hide methods

title
US 8 - Domain Model Excerpt
end title

class Company {
-designation
}

class Laboratory {
-name
-address
-phoneNumber
-taxIdenticationNumber
}

class ClinicalAnalysisLaboratory{
-id
}

class ChemicalLaboratory{
}

class TestType {
-code
-description
-collectionMethod
}


Company "1" - - "*" ClinicalAnalysisLaboratory : owns >
Company "1" - - "0..1" ChemicalLaboratory : owns >
Company "1" - - - "*" TestType: conducts >

ChemicalLaboratory - -|>Laboratory
ClinicalAnalysisLaboratory - -|>Laboratory

ClinicalAnalysisLaboratory "*" -left- "*" TestType: performs >


@enduml

PlantUML version 1.2020.20(Sat Nov 21 10:02:45 WET 2020)
(GPL source distribution)
Java Runtime: OpenJDK Runtime Environment
JVM: OpenJDK 64-Bit Server VM
Default Encoding: UTF-8
Language: en
Country: PT
--></g></svg>