<?xml version="1.0" encoding="UTF-8" standalone="no"?><svg xmlns="http://www.w3.org/2000/svg" xmlns:xlink="http://www.w3.org/1999/xlink" contentScriptType="application/ecmascript" contentStyleType="text/css" height="886px" preserveAspectRatio="none" style="width:880px;height:886px;" version="1.1" viewBox="0 0 880 886" width="880px" zoomAndPan="magnify"><defs><filter height="300%" id="fg92lsbgavwnb" width="300%" x="-1" y="-1"><feGaussianBlur result="blurOut" stdDeviation="2.0"/><feColorMatrix in="blurOut" result="blurOut2" type="matrix" values="0 0 0 0 0 0 0 0 0 0 0 0 0 0 0 0 0 0 .4 0"/><feOffset dx="4.0" dy="4.0" in="blurOut2" result="blurOut3"/><feBlend in="SourceGraphic" in2="blurOut3" mode="normal"/></filter></defs><g><!--MD5=[9681dc6e01e10c6b4fe06895ae94f592]
cluster UI--><polygon fill="#FFFFFF" filter="url(#fg92lsbgavwnb)" points="234,6,255,6,262,28.2969,336,28.2969,336,89,234,89,234,6" style="stroke:#000000;stroke-width:1.5;"/><line style="stroke:#000000;stroke-width:1.5;" x1="234" x2="262" y1="28.2969" y2="28.2969"/><text fill="#000000" font-family="sans-serif" font-size="14" font-weight="bold" lengthAdjust="spacingAndGlyphs" textLength="15" x="238" y="20.9951">UI</text><!--MD5=[1f2cfc53d9d308f53762fd0fcbaa4873]
cluster Controller--><polygon fill="#FFFFFF" filter="url(#fg92lsbgavwnb)" points="167,114,252,114,259,136.2969,403,136.2969,403,299,167,299,167,114" style="stroke:#000000;stroke-width:1.5;"/><line style="stroke:#000000;stroke-width:1.5;" x1="167" x2="259" y1="136.2969" y2="136.2969"/><text fill="#000000" font-family="sans-serif" font-size="14" font-weight="bold" lengthAdjust="spacingAndGlyphs" textLength="79" x="171" y="128.9951">Controller</text><!--MD5=[121a8bf1197281ab89ed693fab589f94]
cluster Domain--><polygon fill="#FFFFFF" filter="url(#fg92lsbgavwnb)" points="16,324,80,324,87,346.2969,605,346.2969,605,707,16,707,16,324" style="stroke:#000000;stroke-width:1.5;"/><line style="stroke:#000000;stroke-width:1.5;" x1="16" x2="87" y1="346.2969" y2="346.2969"/><text fill="#000000" font-family="sans-serif" font-size="14" font-weight="bold" lengthAdjust="spacingAndGlyphs" textLength="58" x="20" y="338.9951">Domain</text><!--MD5=[32ff0bc6350c7c18bc045f793eb2f657]
cluster Mapper--><polygon fill="#FFFFFF" filter="url(#fg92lsbgavwnb)" points="613,560,678,560,685,582.2969,863,582.2969,863,879,613,879,613,560" style="stroke:#000000;stroke-width:1.5;"/><line style="stroke:#000000;stroke-width:1.5;" x1="613" x2="685" y1="582.2969" y2="582.2969"/><text fill="#000000" font-family="sans-serif" font-size="14" font-weight="bold" lengthAdjust="spacingAndGlyphs" textLength="59" x="617" y="574.9951">Mapper</text><!--MD5=[72b18e9bfc2a4f9b9171278f13c62223]
class ReportUI--><rect codeLine="2" fill="#FEFECE" filter="url(#fg92lsbgavwnb)" height="48" id="ReportUI" style="stroke:#A80036;stroke-width:1.5;" width="86" x="242" y="33"/><ellipse cx="257" cy="49" fill="#ADD1B2" rx="11" ry="11" style="stroke:#A80036;stroke-width:1.0;"/><path d="M259.9688,54.6406 Q259.3906,54.9375 258.75,55.0781 Q258.1094,55.2344 257.4063,55.2344 Q254.9063,55.2344 253.5781,53.5938 Q252.2656,51.9375 252.2656,48.8125 Q252.2656,45.6875 253.5781,44.0313 Q254.9063,42.375 257.4063,42.375 Q258.1094,42.375 258.75,42.5313 Q259.4063,42.6875 259.9688,42.9844 L259.9688,45.7031 Q259.3438,45.125 258.75,44.8594 Q258.1563,44.5781 257.5313,44.5781 Q256.1875,44.5781 255.5,45.6563 Q254.8125,46.7188 254.8125,48.8125 Q254.8125,50.9063 255.5,51.9844 Q256.1875,53.0469 257.5313,53.0469 Q258.1563,53.0469 258.75,52.7813 Q259.3438,52.5 259.9688,51.9219 L259.9688,54.6406 Z " fill="#000000"/><text fill="#000000" font-family="sans-serif" font-size="12" lengthAdjust="spacingAndGlyphs" textLength="54" x="271" y="53.1543">ReportUI</text><line style="stroke:#A80036;stroke-width:1.5;" x1="243" x2="327" y1="65" y2="65"/><line style="stroke:#A80036;stroke-width:1.5;" x1="243" x2="327" y1="73" y2="73"/><!--MD5=[21f4ec93ba84274457fc51ba6e7f8a05]
class ReportController--><rect codeLine="7" fill="#FEFECE" filter="url(#fg92lsbgavwnb)" height="150.4375" id="ReportController" style="stroke:#A80036;stroke-width:1.5;" width="220" x="175" y="141"/><ellipse cx="229.25" cy="157" fill="#ADD1B2" rx="11" ry="11" style="stroke:#A80036;stroke-width:1.0;"/><path d="M232.2188,162.6406 Q231.6406,162.9375 231,163.0781 Q230.3594,163.2344 229.6563,163.2344 Q227.1563,163.2344 225.8281,161.5938 Q224.5156,159.9375 224.5156,156.8125 Q224.5156,153.6875 225.8281,152.0313 Q227.1563,150.375 229.6563,150.375 Q230.3594,150.375 231,150.5313 Q231.6563,150.6875 232.2188,150.9844 L232.2188,153.7031 Q231.5938,153.125 231,152.8594 Q230.4063,152.5781 229.7813,152.5781 Q228.4375,152.5781 227.75,153.6563 Q227.0625,154.7188 227.0625,156.8125 Q227.0625,158.9063 227.75,159.9844 Q228.4375,161.0469 229.7813,161.0469 Q230.4063,161.0469 231,160.7813 Q231.5938,160.5 232.2188,159.9219 L232.2188,162.6406 Z " fill="#000000"/><text fill="#000000" font-family="sans-serif" font-size="12" lengthAdjust="spacingAndGlyphs" textLength="103" x="249.75" y="161.1543">ReportController</text><line style="stroke:#A80036;stroke-width:1.5;" x1="176" x2="394" y1="173" y2="173"/><line style="stroke:#A80036;stroke-width:1.5;" x1="176" x2="394" y1="181" y2="181"/><ellipse cx="186" cy="192" fill="#84BE84" rx="3" ry="3" style="stroke:#038048;stroke-width:1.0;"/><text fill="#000000" font-family="sans-serif" font-size="11" lengthAdjust="spacingAndGlyphs" textLength="194" x="195" y="195.2104">createReport(nhsCode, diagnosis)</text><ellipse cx="186" cy="204.8047" fill="#84BE84" rx="3" ry="3" style="stroke:#038048;stroke-width:1.0;"/><text fill="#000000" font-family="sans-serif" font-size="11" lengthAdjust="spacingAndGlyphs" textLength="168" x="195" y="208.0151">getTestByNHSCode(nhsCode)</text><ellipse cx="186" cy="217.6094" fill="#84BE84" rx="3" ry="3" style="stroke:#038048;stroke-width:1.0;"/><text fill="#000000" font-family="sans-serif" font-size="11" lengthAdjust="spacingAndGlyphs" textLength="76" x="195" y="220.8198">ShowReport()</text><ellipse cx="186" cy="230.4141" fill="#84BE84" rx="3" ry="3" style="stroke:#038048;stroke-width:1.0;"/><text fill="#000000" font-family="sans-serif" font-size="11" lengthAdjust="spacingAndGlyphs" textLength="73" x="195" y="233.6245">SaveReport()</text><ellipse cx="186" cy="243.2188" fill="#84BE84" rx="3" ry="3" style="stroke:#038048;stroke-width:1.0;"/><text fill="#000000" font-family="sans-serif" font-size="11" lengthAdjust="spacingAndGlyphs" textLength="117" x="195" y="246.4292">UnreportedTestList()</text><ellipse cx="186" cy="256.0234" fill="#84BE84" rx="3" ry="3" style="stroke:#038048;stroke-width:1.0;"/><text fill="#000000" font-family="sans-serif" font-size="11" lengthAdjust="spacingAndGlyphs" textLength="176" x="195" y="259.2339">getNhsCodeByTestIndex(index)</text><ellipse cx="186" cy="268.8281" fill="#84BE84" rx="3" ry="3" style="stroke:#038048;stroke-width:1.0;"/><text fill="#000000" font-family="sans-serif" font-size="11" lengthAdjust="spacingAndGlyphs" textLength="194" x="195" y="272.0386">getUnreportedTestDtoIndex(index)</text><ellipse cx="186" cy="281.6328" fill="#84BE84" rx="3" ry="3" style="stroke:#038048;stroke-width:1.0;"/><text fill="#000000" font-family="sans-serif" font-size="11" lengthAdjust="spacingAndGlyphs" textLength="181" x="195" y="284.8433">getTestParameterList(nhsCode)</text><!--MD5=[0f6f7964b844a64b0496af0dda7914bd]
class TestStore--><rect codeLine="21" fill="#FEFECE" filter="url(#fg92lsbgavwnb)" height="86.4141" id="TestStore" style="stroke:#A80036;stroke-width:1.5;" width="194" x="403" y="383"/><ellipse cx="465.25" cy="399" fill="#ADD1B2" rx="11" ry="11" style="stroke:#A80036;stroke-width:1.0;"/><path d="M468.2188,404.6406 Q467.6406,404.9375 467,405.0781 Q466.3594,405.2344 465.6563,405.2344 Q463.1563,405.2344 461.8281,403.5938 Q460.5156,401.9375 460.5156,398.8125 Q460.5156,395.6875 461.8281,394.0313 Q463.1563,392.375 465.6563,392.375 Q466.3594,392.375 467,392.5313 Q467.6563,392.6875 468.2188,392.9844 L468.2188,395.7031 Q467.5938,395.125 467,394.8594 Q466.4063,394.5781 465.7813,394.5781 Q464.4375,394.5781 463.75,395.6563 Q463.0625,396.7188 463.0625,398.8125 Q463.0625,400.9063 463.75,401.9844 Q464.4375,403.0469 465.7813,403.0469 Q466.4063,403.0469 467,402.7813 Q467.5938,402.5 468.2188,401.9219 L468.2188,404.6406 Z " fill="#000000"/><text fill="#000000" font-family="sans-serif" font-size="12" lengthAdjust="spacingAndGlyphs" textLength="61" x="485.75" y="403.1543">TestStore</text><line style="stroke:#A80036;stroke-width:1.5;" x1="404" x2="596" y1="415" y2="415"/><line style="stroke:#A80036;stroke-width:1.5;" x1="404" x2="596" y1="423" y2="423"/><ellipse cx="414" cy="434" fill="#84BE84" rx="3" ry="3" style="stroke:#038048;stroke-width:1.0;"/><text fill="#000000" font-family="sans-serif" font-size="11" lengthAdjust="spacingAndGlyphs" textLength="168" x="423" y="437.2104">getTestByNHSCode(nhsCode)</text><ellipse cx="414" cy="446.8047" fill="#84BE84" rx="3" ry="3" style="stroke:#038048;stroke-width:1.0;"/><text fill="#000000" font-family="sans-serif" font-size="11" lengthAdjust="spacingAndGlyphs" textLength="147" x="423" y="450.0151">showUnreportedTestList()</text><ellipse cx="414" cy="459.6094" fill="#84BE84" rx="3" ry="3" style="stroke:#038048;stroke-width:1.0;"/><text fill="#000000" font-family="sans-serif" font-size="11" lengthAdjust="spacingAndGlyphs" textLength="160" x="423" y="462.8198">findNHSCodeByIndex (index)</text><!--MD5=[df38be88ccee13e832d6fafd6288a4ca]
class Test--><rect codeLine="28" fill="#FEFECE" filter="url(#fg92lsbgavwnb)" height="150.4375" id="Test" style="stroke:#A80036;stroke-width:1.5;" width="165" x="202.5" y="351"/><ellipse cx="267.25" cy="367" fill="#ADD1B2" rx="11" ry="11" style="stroke:#A80036;stroke-width:1.0;"/><path d="M270.2188,372.6406 Q269.6406,372.9375 269,373.0781 Q268.3594,373.2344 267.6563,373.2344 Q265.1563,373.2344 263.8281,371.5938 Q262.5156,369.9375 262.5156,366.8125 Q262.5156,363.6875 263.8281,362.0313 Q265.1563,360.375 267.6563,360.375 Q268.3594,360.375 269,360.5313 Q269.6563,360.6875 270.2188,360.9844 L270.2188,363.7031 Q269.5938,363.125 269,362.8594 Q268.4063,362.5781 267.7813,362.5781 Q266.4375,362.5781 265.75,363.6563 Q265.0625,364.7188 265.0625,366.8125 Q265.0625,368.9063 265.75,369.9844 Q266.4375,371.0469 267.7813,371.0469 Q268.4063,371.0469 269,370.7813 Q269.5938,370.5 270.2188,369.9219 L270.2188,372.6406 Z " fill="#000000"/><text fill="#000000" font-family="sans-serif" font-size="12" lengthAdjust="spacingAndGlyphs" textLength="27" x="287.75" y="371.1543">Test</text><line style="stroke:#A80036;stroke-width:1.5;" x1="203.5" x2="366.5" y1="383" y2="383"/><rect fill="none" height="6" style="stroke:#C82930;stroke-width:1.0;" width="6" x="210.5" y="391"/><text fill="#000000" font-family="sans-serif" font-size="11" lengthAdjust="spacingAndGlyphs" textLength="50" x="222.5" y="397.2104">nhsCode</text><rect fill="none" height="6" style="stroke:#C82930;stroke-width:1.0;" width="6" x="210.5" y="403.8047"/><text fill="#000000" font-family="sans-serif" font-size="11" lengthAdjust="spacingAndGlyphs" textLength="35" x="222.5" y="410.0151">report</text><rect fill="none" height="6" style="stroke:#C82930;stroke-width:1.0;" width="6" x="210.5" y="416.6094"/><text fill="#000000" font-family="sans-serif" font-size="11" lengthAdjust="spacingAndGlyphs" textLength="30" x="222.5" y="422.8198">State</text><rect fill="none" height="6" style="stroke:#C82930;stroke-width:1.0;" width="6" x="210.5" y="429.4141"/><text fill="#000000" font-family="sans-serif" font-size="11" lengthAdjust="spacingAndGlyphs" textLength="71" x="222.5" y="435.6245">currentState</text><line style="stroke:#A80036;stroke-width:1.5;" x1="203.5" x2="366.5" y1="442.2188" y2="442.2188"/><ellipse cx="213.5" cy="453.2188" fill="#84BE84" rx="3" ry="3" style="stroke:#038048;stroke-width:1.0;"/><text fill="#000000" font-family="sans-serif" font-size="11" lengthAdjust="spacingAndGlyphs" textLength="99" x="222.5" y="456.4292">getCurrentState()</text><ellipse cx="213.5" cy="466.0234" fill="#84BE84" rx="3" ry="3" style="stroke:#038048;stroke-width:1.0;"/><text fill="#000000" font-family="sans-serif" font-size="11" lengthAdjust="spacingAndGlyphs" textLength="139" x="222.5" y="469.2339">createReport(diagnostic)</text><ellipse cx="213.5" cy="478.8281" fill="#84BE84" rx="3" ry="3" style="stroke:#038048;stroke-width:1.0;"/><text fill="#000000" font-family="sans-serif" font-size="11" lengthAdjust="spacingAndGlyphs" textLength="73" x="222.5" y="482.0386">SaveReport()</text><ellipse cx="213.5" cy="491.6328" fill="#84BE84" rx="3" ry="3" style="stroke:#038048;stroke-width:1.0;"/><text fill="#000000" font-family="sans-serif" font-size="11" lengthAdjust="spacingAndGlyphs" textLength="76" x="222.5" y="494.8433">ShowReport()</text><!--MD5=[f00dbe8c0302c6aec2cb26b3c659c8fc]
class Report--><rect codeLine="39" fill="#FEFECE" filter="url(#fg92lsbgavwnb)" height="137.6328" id="Report" style="stroke:#A80036;stroke-width:1.5;" width="188" x="223" y="561"/><ellipse cx="291.75" cy="577" fill="#ADD1B2" rx="11" ry="11" style="stroke:#A80036;stroke-width:1.0;"/><path d="M294.7188,582.6406 Q294.1406,582.9375 293.5,583.0781 Q292.8594,583.2344 292.1563,583.2344 Q289.6563,583.2344 288.3281,581.5938 Q287.0156,579.9375 287.0156,576.8125 Q287.0156,573.6875 288.3281,572.0313 Q289.6563,570.375 292.1563,570.375 Q292.8594,570.375 293.5,570.5313 Q294.1563,570.6875 294.7188,570.9844 L294.7188,573.7031 Q294.0938,573.125 293.5,572.8594 Q292.9063,572.5781 292.2813,572.5781 Q290.9375,572.5781 290.25,573.6563 Q289.5625,574.7188 289.5625,576.8125 Q289.5625,578.9063 290.25,579.9844 Q290.9375,581.0469 292.2813,581.0469 Q292.9063,581.0469 293.5,580.7813 Q294.0938,580.5 294.7188,579.9219 L294.7188,582.6406 Z " fill="#000000"/><text fill="#000000" font-family="sans-serif" font-size="12" lengthAdjust="spacingAndGlyphs" textLength="42" x="312.25" y="581.1543">Report</text><line style="stroke:#A80036;stroke-width:1.5;" x1="224" x2="410" y1="593" y2="593"/><rect fill="none" height="6" style="stroke:#C82930;stroke-width:1.0;" width="6" x="231" y="601"/><text fill="#000000" font-family="sans-serif" font-size="11" lengthAdjust="spacingAndGlyphs" textLength="58" x="243" y="607.2104">diagnostic</text><rect fill="none" height="6" style="stroke:#C82930;stroke-width:1.0;" width="6" x="231" y="613.8047"/><text fill="#000000" font-family="sans-serif" font-size="11" lengthAdjust="spacingAndGlyphs" textLength="53" x="243" y="620.0151">dateTime</text><line style="stroke:#A80036;stroke-width:1.5;" x1="224" x2="410" y1="626.6094" y2="626.6094"/><ellipse cx="234" cy="637.6094" fill="#84BE84" rx="3" ry="3" style="stroke:#038048;stroke-width:1.0;"/><text fill="#000000" font-family="sans-serif" font-size="11" lengthAdjust="spacingAndGlyphs" textLength="103" x="243" y="640.8198">Report(diagnostic)</text><rect fill="#F24D5C" height="6" style="stroke:#C82930;stroke-width:1.0;" width="6" x="231" y="647.4141"/><text fill="#000000" font-family="sans-serif" font-size="11" lengthAdjust="spacingAndGlyphs" textLength="162" x="243" y="653.6245">isDiagnosticValid(diagnostic)</text><rect fill="#F24D5C" height="6" style="stroke:#C82930;stroke-width:1.0;" width="6" x="231" y="660.2188"/><text fill="#000000" font-family="sans-serif" font-size="11" lengthAdjust="spacingAndGlyphs" textLength="123" x="243" y="666.4292">getSystemDateTime()</text><ellipse cx="234" cy="676.0234" fill="#84BE84" rx="3" ry="3" style="stroke:#038048;stroke-width:1.0;"/><text fill="#000000" font-family="sans-serif" font-size="11" lengthAdjust="spacingAndGlyphs" textLength="53" x="243" y="679.2339">toString()</text><ellipse cx="234" cy="688.8281" fill="#84BE84" rx="3" ry="3" style="stroke:#038048;stroke-width:1.0;"/><text fill="#000000" font-family="sans-serif" font-size="11" lengthAdjust="spacingAndGlyphs" textLength="143" x="243" y="692.0386">setDiagnostic(diagnostic)</text><!--MD5=[0f07739f46effee96e095e9c408da841]
class TestParameter--><rect codeLine="49" fill="#FEFECE" filter="url(#fg92lsbgavwnb)" height="99.2188" id="TestParameter" style="stroke:#A80036;stroke-width:1.5;" width="143" x="24.5" y="376.5"/><ellipse cx="47.6" cy="392.5" fill="#ADD1B2" rx="11" ry="11" style="stroke:#A80036;stroke-width:1.0;"/><path d="M50.5688,398.1406 Q49.9906,398.4375 49.35,398.5781 Q48.7094,398.7344 48.0063,398.7344 Q45.5063,398.7344 44.1781,397.0938 Q42.8656,395.4375 42.8656,392.3125 Q42.8656,389.1875 44.1781,387.5313 Q45.5063,385.875 48.0063,385.875 Q48.7094,385.875 49.35,386.0313 Q50.0063,386.1875 50.5688,386.4844 L50.5688,389.2031 Q49.9438,388.625 49.35,388.3594 Q48.7563,388.0781 48.1313,388.0781 Q46.7875,388.0781 46.1,389.1563 Q45.4125,390.2188 45.4125,392.3125 Q45.4125,394.4063 46.1,395.4844 Q46.7875,396.5469 48.1313,396.5469 Q48.7563,396.5469 49.35,396.2813 Q49.9438,396 50.5688,395.4219 L50.5688,398.1406 Z " fill="#000000"/><text fill="#000000" font-family="sans-serif" font-size="12" lengthAdjust="spacingAndGlyphs" textLength="93" x="63.4" y="396.6543">TestParameter</text><line style="stroke:#A80036;stroke-width:1.5;" x1="25.5" x2="166.5" y1="408.5" y2="408.5"/><rect fill="none" height="6" style="stroke:#C82930;stroke-width:1.0;" width="6" x="32.5" y="416.5"/><text fill="#000000" font-family="sans-serif" font-size="11" lengthAdjust="spacingAndGlyphs" textLength="117" x="44.5" y="422.7104">testParameterResult</text><rect fill="none" height="6" style="stroke:#C82930;stroke-width:1.0;" width="6" x="32.5" y="429.3047"/><text fill="#000000" font-family="sans-serif" font-size="11" lengthAdjust="spacingAndGlyphs" textLength="60" x="44.5" y="435.5151">parameter</text><line style="stroke:#A80036;stroke-width:1.5;" x1="25.5" x2="166.5" y1="442.1094" y2="442.1094"/><ellipse cx="35.5" cy="453.1094" fill="#84BE84" rx="3" ry="3" style="stroke:#038048;stroke-width:1.0;"/><text fill="#000000" font-family="sans-serif" font-size="11" lengthAdjust="spacingAndGlyphs" textLength="64" x="44.5" y="456.3198">addResult()</text><ellipse cx="35.5" cy="465.9141" fill="#84BE84" rx="3" ry="3" style="stroke:#038048;stroke-width:1.0;"/><text fill="#000000" font-family="sans-serif" font-size="11" lengthAdjust="spacingAndGlyphs" textLength="53" x="44.5" y="469.1245">toString()</text><!--MD5=[4e608140b854dae633589343bce77383]
class TestParameterResult--><rect codeLine="56" fill="#FEFECE" filter="url(#fg92lsbgavwnb)" height="124.8281" id="TestParameterResult" style="stroke:#A80036;stroke-width:1.5;" width="164" x="24" y="567.5"/><ellipse cx="39" cy="583.5" fill="#ADD1B2" rx="11" ry="11" style="stroke:#A80036;stroke-width:1.0;"/><path d="M41.9688,589.1406 Q41.3906,589.4375 40.75,589.5781 Q40.1094,589.7344 39.4063,589.7344 Q36.9063,589.7344 35.5781,588.0938 Q34.2656,586.4375 34.2656,583.3125 Q34.2656,580.1875 35.5781,578.5313 Q36.9063,576.875 39.4063,576.875 Q40.1094,576.875 40.75,577.0313 Q41.4063,577.1875 41.9688,577.4844 L41.9688,580.2031 Q41.3438,579.625 40.75,579.3594 Q40.1563,579.0781 39.5313,579.0781 Q38.1875,579.0781 37.5,580.1563 Q36.8125,581.2188 36.8125,583.3125 Q36.8125,585.4063 37.5,586.4844 Q38.1875,587.5469 39.5313,587.5469 Q40.1563,587.5469 40.75,587.2813 Q41.3438,587 41.9688,586.4219 L41.9688,589.1406 Z " fill="#000000"/><text fill="#000000" font-family="sans-serif" font-size="12" lengthAdjust="spacingAndGlyphs" textLength="132" x="53" y="587.6543">TestParameterResult</text><line style="stroke:#A80036;stroke-width:1.5;" x1="25" x2="187" y1="599.5" y2="599.5"/><rect fill="none" height="6" style="stroke:#C82930;stroke-width:1.0;" width="6" x="32" y="607.5"/><text fill="#000000" font-family="sans-serif" font-size="11" lengthAdjust="spacingAndGlyphs" textLength="30" x="44" y="613.7104">value</text><rect fill="none" height="6" style="stroke:#C82930;stroke-width:1.0;" width="6" x="32" y="620.3047"/><text fill="#000000" font-family="sans-serif" font-size="11" lengthAdjust="spacingAndGlyphs" textLength="36" x="44" y="626.5151">metric</text><rect fill="none" height="6" style="stroke:#C82930;stroke-width:1.0;" width="6" x="32" y="633.1094"/><text fill="#000000" font-family="sans-serif" font-size="11" lengthAdjust="spacingAndGlyphs" textLength="86" x="44" y="639.3198">referenceValue</text><rect fill="none" height="6" style="stroke:#C82930;stroke-width:1.0;" width="6" x="32" y="645.9141"/><text fill="#000000" font-family="sans-serif" font-size="11" lengthAdjust="spacingAndGlyphs" textLength="54" x="44" y="652.1245">createdAt</text><line style="stroke:#A80036;stroke-width:1.5;" x1="25" x2="187" y1="658.7188" y2="658.7188"/><ellipse cx="35" cy="669.7188" fill="#84BE84" rx="3" ry="3" style="stroke:#038048;stroke-width:1.0;"/><text fill="#000000" font-family="sans-serif" font-size="11" lengthAdjust="spacingAndGlyphs" textLength="82" x="44" y="672.9292">getCreatedAt()</text><ellipse cx="35" cy="682.5234" fill="#84BE84" rx="3" ry="3" style="stroke:#038048;stroke-width:1.0;"/><text fill="#000000" font-family="sans-serif" font-size="11" lengthAdjust="spacingAndGlyphs" textLength="53" x="44" y="685.7339">toString()</text><!--MD5=[f1d73c061b1341b7bb3b2477935c8744]
class unreportedTestMapper--><rect codeLine="69" fill="#FEFECE" filter="url(#fg92lsbgavwnb)" height="86.4141" id="unreportedTestMapper" style="stroke:#A80036;stroke-width:1.5;" width="206" x="628" y="587"/><ellipse cx="656.05" cy="603" fill="#ADD1B2" rx="11" ry="11" style="stroke:#A80036;stroke-width:1.0;"/><path d="M659.0188,608.6406 Q658.4406,608.9375 657.8,609.0781 Q657.1594,609.2344 656.4563,609.2344 Q653.9563,609.2344 652.6281,607.5938 Q651.3156,605.9375 651.3156,602.8125 Q651.3156,599.6875 652.6281,598.0313 Q653.9563,596.375 656.4563,596.375 Q657.1594,596.375 657.8,596.5313 Q658.4563,596.6875 659.0188,596.9844 L659.0188,599.7031 Q658.3938,599.125 657.8,598.8594 Q657.2063,598.5781 656.5813,598.5781 Q655.2375,598.5781 654.55,599.6563 Q653.8625,600.7188 653.8625,602.8125 Q653.8625,604.9063 654.55,605.9844 Q655.2375,607.0469 656.5813,607.0469 Q657.2063,607.0469 657.8,606.7813 Q658.3938,606.5 659.0188,605.9219 L659.0188,608.6406 Z " fill="#000000"/><text fill="#000000" font-family="sans-serif" font-size="12" lengthAdjust="spacingAndGlyphs" textLength="145" x="672.95" y="607.1543">unreportedTestMapper</text><line style="stroke:#A80036;stroke-width:1.5;" x1="629" x2="833" y1="619" y2="619"/><rect fill="none" height="6" style="stroke:#C82930;stroke-width:1.0;" width="6" x="636" y="627"/><text fill="#000000" font-family="sans-serif" font-size="11" lengthAdjust="spacingAndGlyphs" textLength="66" x="648" y="633.2104">testListDTO</text><line style="stroke:#A80036;stroke-width:1.5;" x1="629" x2="833" y1="639.8047" y2="639.8047"/><rect fill="#F24D5C" height="6" style="stroke:#C82930;stroke-width:1.0;" width="6" x="636" y="647.8047"/><text fill="#000000" font-family="sans-serif" font-size="11" lengthAdjust="spacingAndGlyphs" textLength="131" x="648" y="654.0151">toDTO(index, nhsCode)</text><ellipse cx="639" cy="663.6094" fill="#84BE84" rx="3" ry="3" style="stroke:#038048;stroke-width:1.0;"/><text fill="#000000" font-family="sans-serif" font-size="11" lengthAdjust="spacingAndGlyphs" textLength="180" x="648" y="666.8198">ListDTO(indexList, nhsCodeList)</text><!--MD5=[34098498b2a989bce2bca8202418de13]
class unreportedTestDTO--><rect codeLine="75" fill="#FEFECE" filter="url(#fg92lsbgavwnb)" height="112.0234" id="unreportedTestDTO" style="stroke:#A80036;stroke-width:1.5;" width="234" x="621" y="759"/><ellipse cx="672.25" cy="775" fill="#ADD1B2" rx="11" ry="11" style="stroke:#A80036;stroke-width:1.0;"/><path d="M675.2188,780.6406 Q674.6406,780.9375 674,781.0781 Q673.3594,781.2344 672.6563,781.2344 Q670.1563,781.2344 668.8281,779.5938 Q667.5156,777.9375 667.5156,774.8125 Q667.5156,771.6875 668.8281,770.0313 Q670.1563,768.375 672.6563,768.375 Q673.3594,768.375 674,768.5313 Q674.6563,768.6875 675.2188,768.9844 L675.2188,771.7031 Q674.5938,771.125 674,770.8594 Q673.4063,770.5781 672.7813,770.5781 Q671.4375,770.5781 670.75,771.6563 Q670.0625,772.7188 670.0625,774.8125 Q670.0625,776.9063 670.75,777.9844 Q671.4375,779.0469 672.7813,779.0469 Q673.4063,779.0469 674,778.7813 Q674.5938,778.5 675.2188,777.9219 L675.2188,780.6406 Z " fill="#000000"/><text fill="#000000" font-family="sans-serif" font-size="12" lengthAdjust="spacingAndGlyphs" textLength="123" x="692.75" y="779.1543">unreportedTestDTO</text><line style="stroke:#A80036;stroke-width:1.5;" x1="622" x2="854" y1="791" y2="791"/><rect fill="none" height="6" style="stroke:#C82930;stroke-width:1.0;" width="6" x="629" y="799"/><text fill="#000000" font-family="sans-serif" font-size="11" lengthAdjust="spacingAndGlyphs" textLength="50" x="641" y="805.2104">nhsCode</text><rect fill="none" height="6" style="stroke:#C82930;stroke-width:1.0;" width="6" x="629" y="811.8047"/><text fill="#000000" font-family="sans-serif" font-size="11" lengthAdjust="spacingAndGlyphs" textLength="30" x="641" y="818.0151">index</text><line style="stroke:#A80036;stroke-width:1.5;" x1="622" x2="854" y1="824.6094" y2="824.6094"/><ellipse cx="632" cy="835.6094" fill="#84BE84" rx="3" ry="3" style="stroke:#038048;stroke-width:1.0;"/><text fill="#000000" font-family="sans-serif" font-size="11" lengthAdjust="spacingAndGlyphs" textLength="208" x="641" y="838.8198">unreportedTestDTO(index, nhsCode)</text><ellipse cx="632" cy="848.4141" fill="#84BE84" rx="3" ry="3" style="stroke:#038048;stroke-width:1.0;"/><text fill="#000000" font-family="sans-serif" font-size="11" lengthAdjust="spacingAndGlyphs" textLength="56" x="641" y="851.6245">getIndex()</text><ellipse cx="632" cy="861.2188" fill="#84BE84" rx="3" ry="3" style="stroke:#038048;stroke-width:1.0;"/><text fill="#000000" font-family="sans-serif" font-size="11" lengthAdjust="spacingAndGlyphs" textLength="53" x="641" y="864.4292">toString()</text><!--MD5=[377911caed16a8d98aac25669b241462]
link ReportUI to ReportController--><path codeLine="86" d="M285,81.1487 C285,97.2205 285,119.2838 285,140.9105 " fill="none" id="ReportUI-ReportController" style="stroke:#A80036;stroke-width:1.0;"/><!--MD5=[7a6d8605c44dd89faf3918d16e52f94a]
link ReportController to TestParameter--><path codeLine="87" d="M214.7782,291.2704 C204.7324,302.2034 194.5662,313.3577 185,324 C169.7603,340.954 153.2917,359.7042 138.7135,376.4553 " fill="none" id="ReportController-TestParameter" style="stroke:#A80036;stroke-width:1.0;"/><!--MD5=[0e00e25ac6b8c14659aaff2cf7e5df08]
link TestParameter to TestParameterResult--><path codeLine="88" d="M98.4335,475.6432 C99.7863,503.2408 101.483,537.8541 102.9268,567.3059 " fill="none" id="TestParameter-TestParameterResult" style="stroke:#A80036;stroke-width:1.0;"/><!--MD5=[639f3d11a427230491f505d781ca2b69]
link ReportController to TestStore--><path codeLine="89" d="M362.0127,291.2217 C393.4611,321.9388 428.7044,356.3624 455.7014,382.7316 " fill="none" id="ReportController-TestStore" style="stroke:#A80036;stroke-width:1.0;"/><!--MD5=[5203889bb4806e4ada89830db762c4f9]
link TestStore to unreportedTestMapper--><path codeLine="90" d="M548.7069,469.0139 C587.888,503.6154 642.6935,552.0151 681.9623,586.694 " fill="none" id="TestStore-unreportedTestMapper" style="stroke:#A80036;stroke-width:1.0;"/><!--MD5=[5e46c4f12b978487cb40a8e9a5d7cb72]
link unreportedTestMapper to unreportedTestDTO--><path codeLine="91" d="M732.6412,673.3743 C733.607,698.8989 734.8388,731.4541 735.8778,758.9143 " fill="none" id="unreportedTestMapper-unreportedTestDTO" style="stroke:#A80036;stroke-width:1.0;"/><!--MD5=[0d0c7f686b56ecb045b5a1f6b52a3084]
link ReportController to Test--><path codeLine="92" d="M285,291.2217 C285,310.6405 285,331.5407 285,350.9508 " fill="none" id="ReportController-Test" style="stroke:#A80036;stroke-width:1.0;"/><!--MD5=[72163acd41df4db10e2bb78c0e4b52d4]
link Test to Report--><path codeLine="93" d="M296.7793,501.093 C299.8445,520.6335 303.1322,541.5929 306.1471,560.8126 " fill="none" id="Test-Report" style="stroke:#A80036;stroke-width:1.0;"/><!--MD5=[d75a7fb53688bbaf5abf1e7c9c89267b]
@startuml
package UI  {
  Class ReportUI

}

package Controller{
  class ReportController {

  +createReport(nhsCode, diagnosis)
  +getTestByNHSCode(nhsCode)
  +ShowReport()
  +SaveReport()
  +UnreportedTestList()
  +getNhsCodeByTestIndex(index)
  +getUnreportedTestDtoIndex(index)
  +getTestParameterList(nhsCode)
}
  }

package Domain{
  class TestStore {
  +getTestByNHSCode(nhsCode)
  +showUnreportedTestList()
  +findNHSCodeByIndex (index)
  
}

class Test{
  -nhsCode
  -report
  -State
  -currentState
  +getCurrentState()
  +createReport(diagnostic)
  +SaveReport()
  +ShowReport()
}

class Report{
  -diagnostic
  -dateTime
  +Report(diagnostic)
  -isDiagnosticValid(diagnostic)
  -getSystemDateTime()
  +toString()
  +setDiagnostic(diagnostic)
}
  
class TestParameter{
  -testParameterResult
  -parameter
  +addResult()
  +toString()
  }

class TestParameterResult{
  -value
  -metric
  -referenceValue
  -createdAt
  +getCreatedAt()
  +toString()
  
  } 
  
  }

package Mapper{
class unreportedTestMapper{
  -testListDTO
  -toDTO(index, nhsCode)
  +ListDTO(indexList, nhsCodeList)
}

 class unreportedTestDTO{
  -nhsCode
  -index
  +unreportedTestDTO(index, nhsCode)
  +getIndex()
  +toString()
 }
  
  }


ReportUI - - ReportController
ReportController - - TestParameter
TestParameter - - TestParameterResult
ReportController - - TestStore
TestStore - - unreportedTestMapper
unreportedTestMapper - - unreportedTestDTO
ReportController - - Test
Test - - Report
@enduml

PlantUML version 1.2020.22(Sun Dec 06 09:36:27 UTC 2020)
(GPL source distribution)
Java Runtime: OpenJDK Runtime Environment
JVM: OpenJDK 64-Bit Server VM
Default Encoding: UTF-8
Language: en
Country: US
--></g></svg>