<?xml version="1.0" encoding="UTF-8" standalone="no"?><svg xmlns="http://www.w3.org/2000/svg" xmlns:xlink="http://www.w3.org/1999/xlink" contentScriptType="application/ecmascript" contentStyleType="text/css" height="375px" preserveAspectRatio="none" style="width:994px;height:375px;" version="1.1" viewBox="0 0 994 375" width="994px" zoomAndPan="magnify"><defs><filter height="300%" id="fuqjzttkysryr" width="300%" x="-1" y="-1"><feGaussianBlur result="blurOut" stdDeviation="2.0"/><feColorMatrix in="blurOut" result="blurOut2" type="matrix" values="0 0 0 0 0 0 0 0 0 0 0 0 0 0 0 0 0 0 .4 0"/><feOffset dx="4.0" dy="4.0" in="blurOut2" result="blurOut3"/><feBlend in="SourceGraphic" in2="blurOut3" mode="normal"/></filter></defs><g><!--MD5=[02e4b9b7573f1156f41e60aa5b4e25a4]
class Company--><rect codeLine="3" fill="#FEFECE" filter="url(#fuqjzttkysryr)" height="112.0234" id="Company" style="stroke:#A80036;stroke-width:1.5;" width="313" x="7" y="249"/><ellipse cx="130.75" cy="265" fill="#ADD1B2" rx="11" ry="11" style="stroke:#A80036;stroke-width:1.0;"/><path d="M133.7188,270.6406 Q133.1406,270.9375 132.5,271.0781 Q131.8594,271.2344 131.1563,271.2344 Q128.6563,271.2344 127.3281,269.5938 Q126.0156,267.9375 126.0156,264.8125 Q126.0156,261.6875 127.3281,260.0313 Q128.6563,258.375 131.1563,258.375 Q131.8594,258.375 132.5,258.5313 Q133.1563,258.6875 133.7188,258.9844 L133.7188,261.7031 Q133.0938,261.125 132.5,260.8594 Q131.9063,260.5781 131.2813,260.5781 Q129.9375,260.5781 129.25,261.6563 Q128.5625,262.7188 128.5625,264.8125 Q128.5625,266.9063 129.25,267.9844 Q129.9375,269.0469 131.2813,269.0469 Q131.9063,269.0469 132.5,268.7813 Q133.0938,268.5 133.7188,267.9219 L133.7188,270.6406 Z " fill="#000000"/><text fill="#000000" font-family="sans-serif" font-size="12" lengthAdjust="spacingAndGlyphs" textLength="57" x="151.25" y="269.1543">Company</text><line style="stroke:#A80036;stroke-width:1.5;" x1="8" x2="319" y1="281" y2="281"/><text fill="#000000" font-family="sans-serif" font-size="11" lengthAdjust="spacingAndGlyphs" textLength="70" x="13" y="295.2104">-designation</text><line style="stroke:#A80036;stroke-width:1.5;" x1="8" x2="319" y1="301.8047" y2="301.8047"/><text fill="#000000" font-family="sans-serif" font-size="11" lengthAdjust="spacingAndGlyphs" textLength="301" x="13" y="316.0151">+createParameterCategory(code, description, nhsId)</text><text fill="#000000" font-family="sans-serif" font-size="11" lengthAdjust="spacingAndGlyphs" textLength="185" x="13" y="328.8198">+validateParameterCategory(pc)</text><text fill="#000000" font-family="sans-serif" font-size="11" lengthAdjust="spacingAndGlyphs" textLength="168" x="13" y="341.6245">+saveParameterCategory(pc)</text><text fill="#000000" font-family="sans-serif" font-size="11" lengthAdjust="spacingAndGlyphs" textLength="157" x="13" y="354.4292">-addParameterCategory(pc)</text><!--MD5=[36afb6bbd95a8ac778c4537c55a683d5]
class ParameterCategory--><rect codeLine="12" fill="#FEFECE" filter="url(#fuqjzttkysryr)" height="99.2188" id="ParameterCategory" style="stroke:#A80036;stroke-width:1.5;" width="277" x="703" y="255.5"/><ellipse cx="776.25" cy="271.5" fill="#ADD1B2" rx="11" ry="11" style="stroke:#A80036;stroke-width:1.0;"/><path d="M779.2188,277.1406 Q778.6406,277.4375 778,277.5781 Q777.3594,277.7344 776.6563,277.7344 Q774.1563,277.7344 772.8281,276.0938 Q771.5156,274.4375 771.5156,271.3125 Q771.5156,268.1875 772.8281,266.5313 Q774.1563,264.875 776.6563,264.875 Q777.3594,264.875 778,265.0313 Q778.6563,265.1875 779.2188,265.4844 L779.2188,268.2031 Q778.5938,267.625 778,267.3594 Q777.4063,267.0781 776.7813,267.0781 Q775.4375,267.0781 774.75,268.1563 Q774.0625,269.2188 774.0625,271.3125 Q774.0625,273.4063 774.75,274.4844 Q775.4375,275.5469 776.7813,275.5469 Q777.4063,275.5469 778,275.2813 Q778.5938,275 779.2188,274.4219 L779.2188,277.1406 Z " fill="#000000"/><text fill="#000000" font-family="sans-serif" font-size="12" lengthAdjust="spacingAndGlyphs" textLength="122" x="796.75" y="275.6543">ParameterCategory</text><line style="stroke:#A80036;stroke-width:1.5;" x1="704" x2="979" y1="287.5" y2="287.5"/><text fill="#000000" font-family="sans-serif" font-size="11" lengthAdjust="spacingAndGlyphs" textLength="31" x="709" y="301.7104">-code</text><text fill="#000000" font-family="sans-serif" font-size="11" lengthAdjust="spacingAndGlyphs" textLength="67" x="709" y="314.5151">-description</text><text fill="#000000" font-family="sans-serif" font-size="11" lengthAdjust="spacingAndGlyphs" textLength="35" x="709" y="327.3198">-nhsId</text><line style="stroke:#A80036;stroke-width:1.5;" x1="704" x2="979" y1="333.9141" y2="333.9141"/><text fill="#000000" font-family="sans-serif" font-size="11" lengthAdjust="spacingAndGlyphs" textLength="265" x="709" y="348.1245">+ParameterCategory(code, description, nhsId)</text><!--MD5=[43bb81d93caae6cc68206df5797cd1c4]
class CreateParameterCategoryController--><rect codeLine="20" fill="#FEFECE" filter="url(#fuqjzttkysryr)" height="73.6094" id="CreateParameterCategoryController" style="stroke:#A80036;stroke-width:1.5;" width="313" x="355" y="115"/><ellipse cx="395.2" cy="131" fill="#ADD1B2" rx="11" ry="11" style="stroke:#A80036;stroke-width:1.0;"/><path d="M398.1688,136.6406 Q397.5906,136.9375 396.95,137.0781 Q396.3094,137.2344 395.6063,137.2344 Q393.1063,137.2344 391.7781,135.5938 Q390.4656,133.9375 390.4656,130.8125 Q390.4656,127.6875 391.7781,126.0313 Q393.1063,124.375 395.6063,124.375 Q396.3094,124.375 396.95,124.5313 Q397.6063,124.6875 398.1688,124.9844 L398.1688,127.7031 Q397.5438,127.125 396.95,126.8594 Q396.3563,126.5781 395.7313,126.5781 Q394.3875,126.5781 393.7,127.6563 Q393.0125,128.7188 393.0125,130.8125 Q393.0125,132.9063 393.7,133.9844 Q394.3875,135.0469 395.7313,135.0469 Q396.3563,135.0469 396.95,134.7813 Q397.5438,134.5 398.1688,133.9219 L398.1688,136.6406 Z " fill="#000000"/><text fill="#000000" font-family="sans-serif" font-size="12" lengthAdjust="spacingAndGlyphs" textLength="225" x="414.8" y="135.1543">CreateParameterCategoryController</text><line style="stroke:#A80036;stroke-width:1.5;" x1="356" x2="667" y1="147" y2="147"/><line style="stroke:#A80036;stroke-width:1.5;" x1="356" x2="667" y1="155" y2="155"/><text fill="#000000" font-family="sans-serif" font-size="11" lengthAdjust="spacingAndGlyphs" textLength="301" x="361" y="169.2104">+createParameterCategory(code, description, nhsId)</text><text fill="#000000" font-family="sans-serif" font-size="11" lengthAdjust="spacingAndGlyphs" textLength="155" x="361" y="182.0151">+saveParameterCategory()</text><!--MD5=[d802db621b5b215a6f0466f93cefcb42]
class ParameterCategoryStore--><rect codeLine="25" fill="#FEFECE" filter="url(#fuqjzttkysryr)" height="99.2188" id="ParameterCategoryStore" style="stroke:#A80036;stroke-width:1.5;" width="313" x="355" y="255.5"/><ellipse cx="429.25" cy="271.5" fill="#ADD1B2" rx="11" ry="11" style="stroke:#A80036;stroke-width:1.0;"/><path d="M432.2188,277.1406 Q431.6406,277.4375 431,277.5781 Q430.3594,277.7344 429.6563,277.7344 Q427.1563,277.7344 425.8281,276.0938 Q424.5156,274.4375 424.5156,271.3125 Q424.5156,268.1875 425.8281,266.5313 Q427.1563,264.875 429.6563,264.875 Q430.3594,264.875 431,265.0313 Q431.6563,265.1875 432.2188,265.4844 L432.2188,268.2031 Q431.5938,267.625 431,267.3594 Q430.4063,267.0781 429.7813,267.0781 Q428.4375,267.0781 427.75,268.1563 Q427.0625,269.2188 427.0625,271.3125 Q427.0625,273.4063 427.75,274.4844 Q428.4375,275.5469 429.7813,275.5469 Q430.4063,275.5469 431,275.2813 Q431.5938,275 432.2188,274.4219 L432.2188,277.1406 Z " fill="#000000"/><text fill="#000000" font-family="sans-serif" font-size="12" lengthAdjust="spacingAndGlyphs" textLength="156" x="449.75" y="275.6543">ParameterCategoryStore</text><line style="stroke:#A80036;stroke-width:1.5;" x1="356" x2="667" y1="287.5" y2="287.5"/><line style="stroke:#A80036;stroke-width:1.5;" x1="356" x2="667" y1="295.5" y2="295.5"/><text fill="#000000" font-family="sans-serif" font-size="11" lengthAdjust="spacingAndGlyphs" textLength="301" x="361" y="309.7104">+createParameterCategory(code, description, nhsId)</text><text fill="#000000" font-family="sans-serif" font-size="11" lengthAdjust="spacingAndGlyphs" textLength="185" x="361" y="322.5151">+validateParameterCategory(pc)</text><text fill="#000000" font-family="sans-serif" font-size="11" lengthAdjust="spacingAndGlyphs" textLength="168" x="361" y="335.3198">+saveParameterCategory(pc)</text><text fill="#000000" font-family="sans-serif" font-size="11" lengthAdjust="spacingAndGlyphs" textLength="157" x="361" y="348.1245">-addParameterCategory(pc)</text><!--MD5=[6017f56a87b244e108fd0d8749edd53c]
class CreateParameterCategoryUI--><rect fill="#FEFECE" filter="url(#fuqjzttkysryr)" height="48" id="CreateParameterCategoryUI" style="stroke:#A80036;stroke-width:1.5;" width="208" x="407.5" y="7"/><ellipse cx="422.5" cy="23" fill="#ADD1B2" rx="11" ry="11" style="stroke:#A80036;stroke-width:1.0;"/><path d="M425.4688,28.6406 Q424.8906,28.9375 424.25,29.0781 Q423.6094,29.2344 422.9063,29.2344 Q420.4063,29.2344 419.0781,27.5938 Q417.7656,25.9375 417.7656,22.8125 Q417.7656,19.6875 419.0781,18.0313 Q420.4063,16.375 422.9063,16.375 Q423.6094,16.375 424.25,16.5313 Q424.9063,16.6875 425.4688,16.9844 L425.4688,19.7031 Q424.8438,19.125 424.25,18.8594 Q423.6563,18.5781 423.0313,18.5781 Q421.6875,18.5781 421,19.6563 Q420.3125,20.7188 420.3125,22.8125 Q420.3125,24.9063 421,25.9844 Q421.6875,27.0469 423.0313,27.0469 Q423.6563,27.0469 424.25,26.7813 Q424.8438,26.5 425.4688,25.9219 L425.4688,28.6406 Z " fill="#000000"/><text fill="#000000" font-family="sans-serif" font-size="12" lengthAdjust="spacingAndGlyphs" textLength="176" x="436.5" y="27.1543">CreateParameterCategoryUI</text><line style="stroke:#A80036;stroke-width:1.5;" x1="408.5" x2="614.5" y1="39" y2="39"/><line style="stroke:#A80036;stroke-width:1.5;" x1="408.5" x2="614.5" y1="47" y2="47"/><!--MD5=[d53d7490e5836ca5709858d7326f212b]
link Company to ParameterCategoryStore--><path codeLine="32" d="M320.168,305 C330.0329,305 339.8979,305 349.7629,305 " fill="none" id="Company-to-ParameterCategoryStore" style="stroke:#A80036;stroke-width:1.0;"/><polygon fill="#A80036" points="354.9216,305,345.9216,301,349.9216,305,345.9216,309,354.9216,305" style="stroke:#A80036;stroke-width:1.0;"/><!--MD5=[d6274e3b73b5bc8f467c6cfbf5bf003e]
link ParameterCategoryStore to ParameterCategory--><path codeLine="33" d="M668.1211,305 C677.9255,305 687.7299,305 697.5343,305 " fill="none" id="ParameterCategoryStore-to-ParameterCategory" style="stroke:#A80036;stroke-width:1.0;"/><polygon fill="#A80036" points="702.6614,305,693.6614,301,697.6614,305,693.6614,309,702.6614,305" style="stroke:#A80036;stroke-width:1.0;"/><!--MD5=[a00c31f7a5d66db29f7adf0293377a3b]
link CreateParameterCategoryController to Company--><path codeLine="34" d="M427.2589,189.037 C387.8599,206.359 340.006,227.3982 295.9316,246.7757 " fill="none" id="CreateParameterCategoryController-to-Company" style="stroke:#A80036;stroke-width:1.0;stroke-dasharray:7.0,7.0;"/><polygon fill="#A80036" points="291.1294,248.8871,300.9782,248.9264,295.7065,246.8747,297.7583,241.603,291.1294,248.8871" style="stroke:#A80036;stroke-width:1.0;"/><!--MD5=[869a0022b647c5cba08cf9438b652be2]
link CreateParameterCategoryController to ParameterCategory--><path codeLine="35" d="M591.3838,189.037 C632.9699,208.3179 684.4895,232.2042 729.9432,253.2782 " fill="none" id="CreateParameterCategoryController-to-ParameterCategory" style="stroke:#A80036;stroke-width:1.0;stroke-dasharray:7.0,7.0;"/><polygon fill="#A80036" points="734.6042,255.4392,728.1216,248.0246,730.068,253.336,724.7566,255.2825,734.6042,255.4392" style="stroke:#A80036;stroke-width:1.0;"/><!--MD5=[be6e87e2c6f1800ec3da53612c46e11a]
link CreateParameterCategoryController to ParameterCategoryStore--><path codeLine="36" d="M511.5,189.037 C511.5,207.3812 511.5,229.8944 511.5,250.1879 " fill="none" id="CreateParameterCategoryController-to-ParameterCategoryStore" style="stroke:#A80036;stroke-width:1.0;stroke-dasharray:7.0,7.0;"/><polygon fill="#A80036" points="511.5,255.2956,515.5,246.2956,511.5,250.2956,507.5,246.2956,511.5,255.2956" style="stroke:#A80036;stroke-width:1.0;"/><!--MD5=[93b1b9218398b0464d36d46d0f539949]
link CreateParameterCategoryUI to CreateParameterCategoryController--><path codeLine="37" d="M511.5,55.1953 C511.5,70.8292 511.5,91.5956 511.5,109.885 " fill="none" id="CreateParameterCategoryUI-to-CreateParameterCategoryController" style="stroke:#A80036;stroke-width:1.0;stroke-dasharray:7.0,7.0;"/><polygon fill="#A80036" points="511.5,114.9716,515.5,105.9716,511.5,109.9716,507.5,105.9716,511.5,114.9716" style="stroke:#A80036;stroke-width:1.0;"/><!--MD5=[9a3cf3c95f60b58e92dfe327ed015891]
@startuml
skinparam classAttributeIconSize 0

class Company {
  -designation
  
  +createParameterCategory(code, description, nhsId)
  +validateParameterCategory(pc)
  +saveParameterCategory(pc)
  -addParameterCategory(pc)
}

class ParameterCategory {
  -code
  -description
  -nhsId
  
  +ParameterCategory(code, description, nhsId)
}

class CreateParameterCategoryController {
  +createParameterCategory(code, description, nhsId)
  +saveParameterCategory()
}

class ParameterCategoryStore {
  +createParameterCategory(code, description, nhsId)
  +validateParameterCategory(pc)
  +saveParameterCategory(pc)
  -addParameterCategory(pc)
}

Company -> ParameterCategoryStore
ParameterCategoryStore -> ParameterCategory
CreateParameterCategoryController ..> Company
CreateParameterCategoryController ..> ParameterCategory
CreateParameterCategoryController ..> ParameterCategoryStore
CreateParameterCategoryUI ..> CreateParameterCategoryController
@enduml

PlantUML version 1.2020.22(Sun Dec 06 09:36:27 UTC 2020)
(GPL source distribution)
Java Runtime: OpenJDK Runtime Environment
JVM: OpenJDK 64-Bit Server VM
Default Encoding: UTF-8
Language: en
Country: US
--></g></svg>