<?xml version="1.0" encoding="UTF-8" standalone="no"?><svg xmlns="http://www.w3.org/2000/svg" xmlns:xlink="http://www.w3.org/1999/xlink" contentScriptType="application/ecmascript" contentStyleType="text/css" height="426px" preserveAspectRatio="none" style="width:1468px;height:426px;" version="1.1" viewBox="0 0 1468 426" width="1468px" zoomAndPan="magnify"><defs><filter height="300%" id="f1gp9yrmx44y1k" width="300%" x="-1" y="-1"><feGaussianBlur result="blurOut" stdDeviation="2.0"/><feColorMatrix in="blurOut" result="blurOut2" type="matrix" values="0 0 0 0 0 0 0 0 0 0 0 0 0 0 0 0 0 0 .4 0"/><feOffset dx="4.0" dy="4.0" in="blurOut2" result="blurOut3"/><feBlend in="SourceGraphic" in2="blurOut3" mode="normal"/></filter></defs><g><!--MD5=[02e4b9b7573f1156f41e60aa5b4e25a4]
class Company--><rect codeLine="3" fill="#FEFECE" filter="url(#f1gp9yrmx44y1k)" height="112.0234" id="Company" style="stroke:#A80036;stroke-width:1.5;" width="471" x="7" y="274.5"/><ellipse cx="209.75" cy="290.5" fill="#ADD1B2" rx="11" ry="11" style="stroke:#A80036;stroke-width:1.0;"/><path d="M212.7188,296.1406 Q212.1406,296.4375 211.5,296.5781 Q210.8594,296.7344 210.1563,296.7344 Q207.6563,296.7344 206.3281,295.0938 Q205.0156,293.4375 205.0156,290.3125 Q205.0156,287.1875 206.3281,285.5313 Q207.6563,283.875 210.1563,283.875 Q210.8594,283.875 211.5,284.0313 Q212.1563,284.1875 212.7188,284.4844 L212.7188,287.2031 Q212.0938,286.625 211.5,286.3594 Q210.9063,286.0781 210.2813,286.0781 Q208.9375,286.0781 208.25,287.1563 Q207.5625,288.2188 207.5625,290.3125 Q207.5625,292.4063 208.25,293.4844 Q208.9375,294.5469 210.2813,294.5469 Q210.9063,294.5469 211.5,294.2813 Q212.0938,294 212.7188,293.4219 L212.7188,296.1406 Z " fill="#000000"/><text fill="#000000" font-family="sans-serif" font-size="12" lengthAdjust="spacingAndGlyphs" textLength="57" x="230.25" y="294.6543">Company</text><line style="stroke:#A80036;stroke-width:1.5;" x1="8" x2="477" y1="306.5" y2="306.5"/><text fill="#000000" font-family="sans-serif" font-size="11" lengthAdjust="spacingAndGlyphs" textLength="70" x="13" y="320.7104">-designation</text><line style="stroke:#A80036;stroke-width:1.5;" x1="8" x2="477" y1="327.3047" y2="327.3047"/><text fill="#000000" font-family="sans-serif" font-size="11" lengthAdjust="spacingAndGlyphs" textLength="459" x="13" y="341.5151">+createClient(ccn, nhsNumber, birthDate, sex, TIN, phoneNumber, email, name)</text><text fill="#000000" font-family="sans-serif" font-size="11" lengthAdjust="spacingAndGlyphs" textLength="99" x="13" y="354.3198">+validateClient(c)</text><text fill="#000000" font-family="sans-serif" font-size="11" lengthAdjust="spacingAndGlyphs" textLength="100" x="13" y="367.1245">+registerClient(c)</text><text fill="#000000" font-family="sans-serif" font-size="11" lengthAdjust="spacingAndGlyphs" textLength="71" x="13" y="379.9292">-addClient(c)</text><!--MD5=[ed6624c6556d5e7b1bd23032162d20b7]
class Client--><rect codeLine="12" fill="#FEFECE" filter="url(#f1gp9yrmx44y1k)" height="163.2422" id="Client" style="stroke:#A80036;stroke-width:1.5;" width="435" x="1019" y="249"/><ellipse cx="1214.75" cy="265" fill="#ADD1B2" rx="11" ry="11" style="stroke:#A80036;stroke-width:1.0;"/><path d="M1217.7188,270.6406 Q1217.1406,270.9375 1216.5,271.0781 Q1215.8594,271.2344 1215.1563,271.2344 Q1212.6563,271.2344 1211.3281,269.5938 Q1210.0156,267.9375 1210.0156,264.8125 Q1210.0156,261.6875 1211.3281,260.0313 Q1212.6563,258.375 1215.1563,258.375 Q1215.8594,258.375 1216.5,258.5313 Q1217.1563,258.6875 1217.7188,258.9844 L1217.7188,261.7031 Q1217.0938,261.125 1216.5,260.8594 Q1215.9063,260.5781 1215.2813,260.5781 Q1213.9375,260.5781 1213.25,261.6563 Q1212.5625,262.7188 1212.5625,264.8125 Q1212.5625,266.9063 1213.25,267.9844 Q1213.9375,269.0469 1215.2813,269.0469 Q1215.9063,269.0469 1216.5,268.7813 Q1217.0938,268.5 1217.7188,267.9219 L1217.7188,270.6406 Z " fill="#000000"/><text fill="#000000" font-family="sans-serif" font-size="12" lengthAdjust="spacingAndGlyphs" textLength="35" x="1235.25" y="269.1543">Client</text><line style="stroke:#A80036;stroke-width:1.5;" x1="1020" x2="1453" y1="281" y2="281"/><text fill="#000000" font-family="sans-serif" font-size="11" lengthAdjust="spacingAndGlyphs" textLength="36" x="1025" y="295.2104">-name</text><text fill="#000000" font-family="sans-serif" font-size="11" lengthAdjust="spacingAndGlyphs" textLength="23" x="1025" y="308.0151">-ccn</text><text fill="#000000" font-family="sans-serif" font-size="11" lengthAdjust="spacingAndGlyphs" textLength="70" x="1025" y="320.8198">-nhsNumber</text><text fill="#000000" font-family="sans-serif" font-size="11" lengthAdjust="spacingAndGlyphs" textLength="56" x="1025" y="333.6245">-birthDate</text><text fill="#000000" font-family="sans-serif" font-size="11" lengthAdjust="spacingAndGlyphs" textLength="24" x="1025" y="346.4292">-sex</text><text fill="#000000" font-family="sans-serif" font-size="11" lengthAdjust="spacingAndGlyphs" textLength="22" x="1025" y="359.2339">-TIN</text><text fill="#000000" font-family="sans-serif" font-size="11" lengthAdjust="spacingAndGlyphs" textLength="84" x="1025" y="372.0386">-phoneNumber</text><text fill="#000000" font-family="sans-serif" font-size="11" lengthAdjust="spacingAndGlyphs" textLength="35" x="1025" y="384.8433">-email</text><line style="stroke:#A80036;stroke-width:1.5;" x1="1020" x2="1453" y1="391.4375" y2="391.4375"/><text fill="#000000" font-family="sans-serif" font-size="11" lengthAdjust="spacingAndGlyphs" textLength="423" x="1025" y="405.6479">+Client(ccn, nhsNumber, birthDate, sex, TIN, phoneNumber, email, name)</text><!--MD5=[1a7fda4a36185bcd740bdf14b2b3a45e]
class RegisterClientController--><rect codeLine="25" fill="#FEFECE" filter="url(#f1gp9yrmx44y1k)" height="73.6094" id="RegisterClientController" style="stroke:#A80036;stroke-width:1.5;" width="471" x="513" y="115"/><ellipse cx="670.25" cy="131" fill="#ADD1B2" rx="11" ry="11" style="stroke:#A80036;stroke-width:1.0;"/><path d="M673.2188,136.6406 Q672.6406,136.9375 672,137.0781 Q671.3594,137.2344 670.6563,137.2344 Q668.1563,137.2344 666.8281,135.5938 Q665.5156,133.9375 665.5156,130.8125 Q665.5156,127.6875 666.8281,126.0313 Q668.1563,124.375 670.6563,124.375 Q671.3594,124.375 672,124.5313 Q672.6563,124.6875 673.2188,124.9844 L673.2188,127.7031 Q672.5938,127.125 672,126.8594 Q671.4063,126.5781 670.7813,126.5781 Q669.4375,126.5781 668.75,127.6563 Q668.0625,128.7188 668.0625,130.8125 Q668.0625,132.9063 668.75,133.9844 Q669.4375,135.0469 670.7813,135.0469 Q671.4063,135.0469 672,134.7813 Q672.5938,134.5 673.2188,133.9219 L673.2188,136.6406 Z " fill="#000000"/><text fill="#000000" font-family="sans-serif" font-size="12" lengthAdjust="spacingAndGlyphs" textLength="148" x="690.75" y="135.1543">RegisterClientController</text><line style="stroke:#A80036;stroke-width:1.5;" x1="514" x2="983" y1="147" y2="147"/><line style="stroke:#A80036;stroke-width:1.5;" x1="514" x2="983" y1="155" y2="155"/><text fill="#000000" font-family="sans-serif" font-size="11" lengthAdjust="spacingAndGlyphs" textLength="459" x="519" y="169.2104">+createClient(ccn, nhsNumber, birthDate, sex, TIN, phoneNumber, email, name)</text><text fill="#000000" font-family="sans-serif" font-size="11" lengthAdjust="spacingAndGlyphs" textLength="94" x="519" y="182.0151">+registerClient()</text><!--MD5=[55cb992be19579b505cea3c5691093cb]
class ClientStore--><rect codeLine="30" fill="#FEFECE" filter="url(#f1gp9yrmx44y1k)" height="99.2188" id="ClientStore" style="stroke:#A80036;stroke-width:1.5;" width="471" x="513" y="281"/><ellipse cx="709.75" cy="297" fill="#ADD1B2" rx="11" ry="11" style="stroke:#A80036;stroke-width:1.0;"/><path d="M712.7188,302.6406 Q712.1406,302.9375 711.5,303.0781 Q710.8594,303.2344 710.1563,303.2344 Q707.6563,303.2344 706.3281,301.5938 Q705.0156,299.9375 705.0156,296.8125 Q705.0156,293.6875 706.3281,292.0313 Q707.6563,290.375 710.1563,290.375 Q710.8594,290.375 711.5,290.5313 Q712.1563,290.6875 712.7188,290.9844 L712.7188,293.7031 Q712.0938,293.125 711.5,292.8594 Q710.9063,292.5781 710.2813,292.5781 Q708.9375,292.5781 708.25,293.6563 Q707.5625,294.7188 707.5625,296.8125 Q707.5625,298.9063 708.25,299.9844 Q708.9375,301.0469 710.2813,301.0469 Q710.9063,301.0469 711.5,300.7813 Q712.0938,300.5 712.7188,299.9219 L712.7188,302.6406 Z " fill="#000000"/><text fill="#000000" font-family="sans-serif" font-size="12" lengthAdjust="spacingAndGlyphs" textLength="69" x="730.25" y="301.1543">ClientStore</text><line style="stroke:#A80036;stroke-width:1.5;" x1="514" x2="983" y1="313" y2="313"/><line style="stroke:#A80036;stroke-width:1.5;" x1="514" x2="983" y1="321" y2="321"/><text fill="#000000" font-family="sans-serif" font-size="11" lengthAdjust="spacingAndGlyphs" textLength="459" x="519" y="335.2104">+createClient(ccn, nhsNumber, birthDate, sex, TIN, phoneNumber, email, name)</text><text fill="#000000" font-family="sans-serif" font-size="11" lengthAdjust="spacingAndGlyphs" textLength="99" x="519" y="348.0151">+validateClient(c)</text><text fill="#000000" font-family="sans-serif" font-size="11" lengthAdjust="spacingAndGlyphs" textLength="100" x="519" y="360.8198">+registerClient(c)</text><text fill="#000000" font-family="sans-serif" font-size="11" lengthAdjust="spacingAndGlyphs" textLength="71" x="519" y="373.6245">-addClient(c)</text><!--MD5=[71152100d89f377ebd8dc97f1c2b0d02]
class RegisterClientUI--><rect fill="#FEFECE" filter="url(#f1gp9yrmx44y1k)" height="48" id="RegisterClientUI" style="stroke:#A80036;stroke-width:1.5;" width="131" x="683" y="7"/><ellipse cx="698" cy="23" fill="#ADD1B2" rx="11" ry="11" style="stroke:#A80036;stroke-width:1.0;"/><path d="M700.9688,28.6406 Q700.3906,28.9375 699.75,29.0781 Q699.1094,29.2344 698.4063,29.2344 Q695.9063,29.2344 694.5781,27.5938 Q693.2656,25.9375 693.2656,22.8125 Q693.2656,19.6875 694.5781,18.0313 Q695.9063,16.375 698.4063,16.375 Q699.1094,16.375 699.75,16.5313 Q700.4063,16.6875 700.9688,16.9844 L700.9688,19.7031 Q700.3438,19.125 699.75,18.8594 Q699.1563,18.5781 698.5313,18.5781 Q697.1875,18.5781 696.5,19.6563 Q695.8125,20.7188 695.8125,22.8125 Q695.8125,24.9063 696.5,25.9844 Q697.1875,27.0469 698.5313,27.0469 Q699.1563,27.0469 699.75,26.7813 Q700.3438,26.5 700.9688,25.9219 L700.9688,28.6406 Z " fill="#000000"/><text fill="#000000" font-family="sans-serif" font-size="12" lengthAdjust="spacingAndGlyphs" textLength="99" x="712" y="27.1543">RegisterClientUI</text><line style="stroke:#A80036;stroke-width:1.5;" x1="684" x2="813" y1="39" y2="39"/><line style="stroke:#A80036;stroke-width:1.5;" x1="684" x2="813" y1="47" y2="47"/><!--MD5=[198be3749d42ca56b2a20022cdc44bdd]
link RegisterClientController to Company--><path codeLine="37" d="M643.3493,189.0937 C574.9239,213.2319 484.2706,245.2113 406.4842,272.6518 " fill="none" id="RegisterClientController-to-Company" style="stroke:#A80036;stroke-width:1.0;stroke-dasharray:7.0,7.0;"/><polygon fill="#A80036" points="401.3795,274.4526,411.1976,275.2306,406.0947,272.7892,408.5361,267.6863,401.3795,274.4526" style="stroke:#A80036;stroke-width:1.0;"/><!--MD5=[a11230341c8e65219708844feaa40162]
link Company to ClientStore--><path codeLine="38" d="M478.2051,330.5 C488.0204,330.5 497.8357,330.5 507.651,330.5 " fill="none" id="Company-to-ClientStore" style="stroke:#A80036;stroke-width:1.0;"/><polygon fill="#A80036" points="512.7838,330.5,503.7838,326.5,507.7838,330.5,503.7838,334.5,512.7838,330.5" style="stroke:#A80036;stroke-width:1.0;"/><!--MD5=[1d934105a045dbf126514c6917bd5072]
link ClientStore to Client--><path codeLine="39" d="M984.3984,330.5 C994.182,330.5 1003.9656,330.5 1013.7493,330.5 " fill="none" id="ClientStore-to-Client" style="stroke:#A80036;stroke-width:1.0;"/><polygon fill="#A80036" points="1018.8654,330.5,1009.8654,326.5,1013.8654,330.5,1009.8654,334.5,1018.8654,330.5" style="stroke:#A80036;stroke-width:1.0;"/><!--MD5=[d17ba2de69bcbdc84560ba08c091bb6c]
link RegisterClientController to ClientStore--><path codeLine="40" d="M748.5,189.4194 C748.5,214.4419 748.5,247.7825 748.5,275.7694 " fill="none" id="RegisterClientController-to-ClientStore" style="stroke:#A80036;stroke-width:1.0;stroke-dasharray:7.0,7.0;"/><polygon fill="#A80036" points="748.5,280.9297,752.5,271.9297,748.5,275.9297,744.5,271.9297,748.5,280.9297" style="stroke:#A80036;stroke-width:1.0;"/><!--MD5=[ed103a8ea2b4d350bb3452ad82ebe4da]
link RegisterClientController to Client--><path codeLine="41" d="M849.9102,189.0937 C897.6473,206.5549 956.6022,228.1194 1013.9628,249.1006 " fill="none" id="RegisterClientController-to-Client" style="stroke:#A80036;stroke-width:1.0;stroke-dasharray:7.0,7.0;"/><polygon fill="#A80036" points="1018.7964,250.8687,1011.7183,244.0203,1014.1007,249.151,1008.97,251.5334,1018.7964,250.8687" style="stroke:#A80036;stroke-width:1.0;"/><!--MD5=[98d2d934d445daef8d5bcbeea20c1f70]
link RegisterClientUI to RegisterClientController--><path codeLine="42" d="M748.5,55.1953 C748.5,70.8292 748.5,91.5956 748.5,109.885 " fill="none" id="RegisterClientUI-to-RegisterClientController" style="stroke:#A80036;stroke-width:1.0;stroke-dasharray:7.0,7.0;"/><polygon fill="#A80036" points="748.5,114.9716,752.5,105.9716,748.5,109.9716,744.5,105.9716,748.5,114.9716" style="stroke:#A80036;stroke-width:1.0;"/><!--MD5=[ffe0d38b592d066e062157502a4cfe8f]
@startuml
skinparam classAttributeIconSize 0

class Company {
  -designation
  
  +createClient(ccn, nhsNumber, birthDate, sex, TIN, phoneNumber, email, name)
  +validateClient(c)
  +registerClient(c)
  -addClient(c)
}

class Client {
  -name
  -ccn
  -nhsNumber
  -birthDate
  -sex
  -TIN
  -phoneNumber
  -email
  
  +Client(ccn, nhsNumber, birthDate, sex, TIN, phoneNumber, email, name)
}

class RegisterClientController {
  +createClient(ccn, nhsNumber, birthDate, sex, TIN, phoneNumber, email, name)
  +registerClient()
}

class ClientStore {
  +createClient(ccn, nhsNumber, birthDate, sex, TIN, phoneNumber, email, name)
  +validateClient(c)
  +registerClient(c)
  -addClient(c)
}

RegisterClientController ..> Company
Company -> ClientStore
ClientStore -> Client
RegisterClientController ..> ClientStore
RegisterClientController ..> Client
RegisterClientUI ..> RegisterClientController
@enduml

PlantUML version 1.2020.22(Sun Dec 06 09:36:27 UTC 2020)
(GPL source distribution)
Java Runtime: OpenJDK Runtime Environment
JVM: OpenJDK 64-Bit Server VM
Default Encoding: UTF-8
Language: en
Country: US
--></g></svg>