<?xml version="1.0" encoding="UTF-8" standalone="no"?><svg xmlns="http://www.w3.org/2000/svg" xmlns:xlink="http://www.w3.org/1999/xlink" contentScriptType="application/ecmascript" contentStyleType="text/css" height="205px" preserveAspectRatio="none" style="width:943px;height:205px;background:#FFFFFF;" version="1.1" viewBox="0 0 943 205" width="943px" zoomAndPan="magnify"><defs><filter height="300%" id="f1p5qyn5173x4n" width="300%" x="-1" y="-1"><feGaussianBlur result="blurOut" stdDeviation="2.0"/><feColorMatrix in="blurOut" result="blurOut2" type="matrix" values="0 0 0 0 0 0 0 0 0 0 0 0 0 0 0 0 0 0 .4 0"/><feOffset dx="4.0" dy="4.0" in="blurOut2" result="blurOut3"/><feBlend in="SourceGraphic" in2="blurOut3" mode="normal"/></filter></defs><g><!--MD5=[02e4b9b7573f1156f41e60aa5b4e25a4]
class Company--><rect codeLine="1" fill="#FEFECE" filter="url(#f1p5qyn5173x4n)" height="60.8047" id="Company" style="stroke:#A80036;stroke-width:1.5;" width="92" x="7" y="92.0659"/><ellipse cx="23.8" cy="108.0659" fill="#ADD1B2" rx="11" ry="11" style="stroke:#A80036;stroke-width:1.0;"/><path d="M26.1438,103.7378 C25.2063,103.3003 24.6125,103.1597 23.7375,103.1597 C21.1125,103.1597 19.1125,105.2378 19.1125,107.9565 L19.1125,109.0815 C19.1125,111.6597 21.2219,113.5503 24.1125,113.5503 C25.3313,113.5503 26.4875,113.2534 27.2375,112.7065 C27.8156,112.3003 28.1438,111.8472 28.1438,111.4565 C28.1438,111.0034 27.7531,110.6128 27.2844,110.6128 C27.0656,110.6128 26.8625,110.6909 26.675,110.8784 C26.2219,111.3628 26.2219,111.3628 26.0344,111.4565 C25.6125,111.7222 24.925,111.8472 24.1594,111.8472 C22.1125,111.8472 20.8156,110.7534 20.8156,109.0503 L20.8156,107.9565 C20.8156,106.1753 22.0656,104.8628 23.8,104.8628 C24.3781,104.8628 24.9875,105.019 25.4563,105.269 C25.9406,105.5503 26.1125,105.769 26.2063,106.1753 C26.2688,106.5815 26.3,106.7065 26.4406,106.8315 C26.5813,106.9722 26.8156,107.0815 27.0344,107.0815 C27.3,107.0815 27.5656,106.9409 27.7375,106.7222 C27.8469,106.5659 27.8781,106.3784 27.8781,105.9565 L27.8781,104.5347 C27.8781,104.0972 27.8625,103.9722 27.7688,103.8159 C27.6125,103.5503 27.3313,103.4097 27.0344,103.4097 C26.7375,103.4097 26.5344,103.5034 26.3156,103.8159 L26.1438,103.7378 Z " fill="#000000"/><text fill="#000000" font-family="sans-serif" font-size="12" lengthAdjust="spacing" textLength="56" x="38.2" y="112.2202">Company</text><line style="stroke:#A80036;stroke-width:1.5;" x1="8" x2="98" y1="124.0659" y2="124.0659"/><rect fill="none" height="6" style="stroke:#C82930;stroke-width:1.0;" width="6" x="15" y="132.0659"/><text fill="#000000" font-family="sans-serif" font-size="11" lengthAdjust="spacing" textLength="66" x="27" y="138.2764">designation</text><line style="stroke:#A80036;stroke-width:1.5;" x1="8" x2="98" y1="144.8706" y2="144.8706"/><!--MD5=[df38be88ccee13e832d6fafd6288a4ca]
class Test--><rect codeLine="5" fill="#FEFECE" filter="url(#f1p5qyn5173x4n)" height="99.2188" id="Test" style="stroke:#A80036;stroke-width:1.5;" width="88" x="208" y="73.0659"/><ellipse cx="236.5" cy="89.0659" fill="#ADD1B2" rx="11" ry="11" style="stroke:#A80036;stroke-width:1.0;"/><path d="M238.8438,84.7378 C237.9063,84.3003 237.3125,84.1597 236.4375,84.1597 C233.8125,84.1597 231.8125,86.2378 231.8125,88.9565 L231.8125,90.0815 C231.8125,92.6597 233.9219,94.5503 236.8125,94.5503 C238.0313,94.5503 239.1875,94.2534 239.9375,93.7065 C240.5156,93.3003 240.8438,92.8472 240.8438,92.4565 C240.8438,92.0034 240.4531,91.6128 239.9844,91.6128 C239.7656,91.6128 239.5625,91.6909 239.375,91.8784 C238.9219,92.3628 238.9219,92.3628 238.7344,92.4565 C238.3125,92.7222 237.625,92.8472 236.8594,92.8472 C234.8125,92.8472 233.5156,91.7534 233.5156,90.0503 L233.5156,88.9565 C233.5156,87.1753 234.7656,85.8628 236.5,85.8628 C237.0781,85.8628 237.6875,86.019 238.1563,86.269 C238.6406,86.5503 238.8125,86.769 238.9063,87.1753 C238.9688,87.5815 239,87.7065 239.1406,87.8315 C239.2813,87.9722 239.5156,88.0815 239.7344,88.0815 C240,88.0815 240.2656,87.9409 240.4375,87.7222 C240.5469,87.5659 240.5781,87.3784 240.5781,86.9565 L240.5781,85.5347 C240.5781,85.0972 240.5625,84.9722 240.4688,84.8159 C240.3125,84.5503 240.0313,84.4097 239.7344,84.4097 C239.4375,84.4097 239.2344,84.5034 239.0156,84.8159 L238.8438,84.7378 Z " fill="#000000"/><text fill="#000000" font-family="sans-serif" font-size="12" lengthAdjust="spacing" textLength="26" x="253.5" y="93.2202">Test</text><line style="stroke:#A80036;stroke-width:1.5;" x1="209" x2="295" y1="105.0659" y2="105.0659"/><rect fill="none" height="6" style="stroke:#C82930;stroke-width:1.0;" width="6" x="216" y="113.0659"/><text fill="#000000" font-family="sans-serif" font-size="11" lengthAdjust="spacing" textLength="28" x="228" y="119.2764">code</text><rect fill="none" height="6" style="stroke:#C82930;stroke-width:1.0;" width="6" x="216" y="125.8706"/><text fill="#000000" font-family="sans-serif" font-size="11" lengthAdjust="spacing" textLength="50" x="228" y="132.0811">nhsCode</text><rect fill="none" height="6" style="stroke:#C82930;stroke-width:1.0;" width="6" x="216" y="138.6753"/><text fill="#000000" font-family="sans-serif" font-size="11" lengthAdjust="spacing" textLength="26" x="228" y="144.8857">type</text><rect fill="none" height="6" style="stroke:#C82930;stroke-width:1.0;" width="6" x="216" y="151.48"/><text fill="#000000" font-family="sans-serif" font-size="11" lengthAdjust="spacing" textLength="62" x="228" y="157.6904">description</text><line style="stroke:#A80036;stroke-width:1.5;" x1="209" x2="295" y1="164.2847" y2="164.2847"/><!--MD5=[0caf3a413731a0de34fc6162fe213ed9]
class Laboratory--><rect codeLine="12" fill="#FEFECE" filter="url(#f1p5qyn5173x4n)" height="99.2188" id="Laboratory" style="stroke:#A80036;stroke-width:1.5;" width="107" x="822.5" y="73.0659"/><ellipse cx="842" cy="89.0659" fill="#ADD1B2" rx="11" ry="11" style="stroke:#A80036;stroke-width:1.0;"/><path d="M844.3438,84.7378 C843.4063,84.3003 842.8125,84.1597 841.9375,84.1597 C839.3125,84.1597 837.3125,86.2378 837.3125,88.9565 L837.3125,90.0815 C837.3125,92.6597 839.4219,94.5503 842.3125,94.5503 C843.5313,94.5503 844.6875,94.2534 845.4375,93.7065 C846.0156,93.3003 846.3438,92.8472 846.3438,92.4565 C846.3438,92.0034 845.9531,91.6128 845.4844,91.6128 C845.2656,91.6128 845.0625,91.6909 844.875,91.8784 C844.4219,92.3628 844.4219,92.3628 844.2344,92.4565 C843.8125,92.7222 843.125,92.8472 842.3594,92.8472 C840.3125,92.8472 839.0156,91.7534 839.0156,90.0503 L839.0156,88.9565 C839.0156,87.1753 840.2656,85.8628 842,85.8628 C842.5781,85.8628 843.1875,86.019 843.6563,86.269 C844.1406,86.5503 844.3125,86.769 844.4063,87.1753 C844.4688,87.5815 844.5,87.7065 844.6406,87.8315 C844.7813,87.9722 845.0156,88.0815 845.2344,88.0815 C845.5,88.0815 845.7656,87.9409 845.9375,87.7222 C846.0469,87.5659 846.0781,87.3784 846.0781,86.9565 L846.0781,85.5347 C846.0781,85.0972 846.0625,84.9722 845.9688,84.8159 C845.8125,84.5503 845.5313,84.4097 845.2344,84.4097 C844.9375,84.4097 844.7344,84.5034 844.5156,84.8159 L844.3438,84.7378 Z " fill="#000000"/><text fill="#000000" font-family="sans-serif" font-size="12" lengthAdjust="spacing" textLength="65" x="857" y="93.2202">Laboratory</text><line style="stroke:#A80036;stroke-width:1.5;" x1="823.5" x2="928.5" y1="105.0659" y2="105.0659"/><rect fill="none" height="6" style="stroke:#C82930;stroke-width:1.0;" width="6" x="830.5" y="113.0659"/><text fill="#000000" font-family="sans-serif" font-size="11" lengthAdjust="spacing" textLength="33" x="842.5" y="119.2764">name</text><rect fill="none" height="6" style="stroke:#C82930;stroke-width:1.0;" width="6" x="830.5" y="125.8706"/><text fill="#000000" font-family="sans-serif" font-size="11" lengthAdjust="spacing" textLength="45" x="842.5" y="132.0811">address</text><rect fill="none" height="6" style="stroke:#C82930;stroke-width:1.0;" width="6" x="830.5" y="138.6753"/><text fill="#000000" font-family="sans-serif" font-size="11" lengthAdjust="spacing" textLength="81" x="842.5" y="144.8857">phoneNumber</text><rect fill="none" height="6" style="stroke:#C82930;stroke-width:1.0;" width="6" x="830.5" y="151.48"/><text fill="#000000" font-family="sans-serif" font-size="11" lengthAdjust="spacing" textLength="59" x="842.5" y="157.6904">tinNumber</text><line style="stroke:#A80036;stroke-width:1.5;" x1="823.5" x2="928.5" y1="164.2847" y2="164.2847"/><!--MD5=[1934a092c0e7d4da7dc7075b6f4b6b03]
class ClinicalAnalysisLaboratory--><rect codeLine="19" fill="#FEFECE" filter="url(#f1p5qyn5173x4n)" height="60.8047" id="ClinicalAnalysisLaboratory" style="stroke:#A80036;stroke-width:1.5;" width="187" x="558.5" y="92.0659"/><ellipse cx="573.5" cy="108.0659" fill="#ADD1B2" rx="11" ry="11" style="stroke:#A80036;stroke-width:1.0;"/><path d="M575.8438,103.7378 C574.9063,103.3003 574.3125,103.1597 573.4375,103.1597 C570.8125,103.1597 568.8125,105.2378 568.8125,107.9565 L568.8125,109.0815 C568.8125,111.6597 570.9219,113.5503 573.8125,113.5503 C575.0313,113.5503 576.1875,113.2534 576.9375,112.7065 C577.5156,112.3003 577.8438,111.8472 577.8438,111.4565 C577.8438,111.0034 577.4531,110.6128 576.9844,110.6128 C576.7656,110.6128 576.5625,110.6909 576.375,110.8784 C575.9219,111.3628 575.9219,111.3628 575.7344,111.4565 C575.3125,111.7222 574.625,111.8472 573.8594,111.8472 C571.8125,111.8472 570.5156,110.7534 570.5156,109.0503 L570.5156,107.9565 C570.5156,106.1753 571.7656,104.8628 573.5,104.8628 C574.0781,104.8628 574.6875,105.019 575.1563,105.269 C575.6406,105.5503 575.8125,105.769 575.9063,106.1753 C575.9688,106.5815 576,106.7065 576.1406,106.8315 C576.2813,106.9722 576.5156,107.0815 576.7344,107.0815 C577,107.0815 577.2656,106.9409 577.4375,106.7222 C577.5469,106.5659 577.5781,106.3784 577.5781,105.9565 L577.5781,104.5347 C577.5781,104.0972 577.5625,103.9722 577.4688,103.8159 C577.3125,103.5503 577.0313,103.4097 576.7344,103.4097 C576.4375,103.4097 576.2344,103.5034 576.0156,103.8159 L575.8438,103.7378 Z " fill="#000000"/><text fill="#000000" font-family="sans-serif" font-size="12" lengthAdjust="spacing" textLength="155" x="587.5" y="112.2202">ClinicalAnalysisLaboratory</text><line style="stroke:#A80036;stroke-width:1.5;" x1="559.5" x2="744.5" y1="124.0659" y2="124.0659"/><rect fill="none" height="6" style="stroke:#C82930;stroke-width:1.0;" width="6" x="566.5" y="132.0659"/><text fill="#000000" font-family="sans-serif" font-size="11" lengthAdjust="spacing" textLength="69" x="578.5" y="138.2764">laboratoryID</text><line style="stroke:#A80036;stroke-width:1.5;" x1="559.5" x2="744.5" y1="144.8706" y2="144.8706"/><!--MD5=[da547346deef918ea16944ba046651ef]
class Administrator--><rect codeLine="23" fill="#FEFECE" filter="url(#f1p5qyn5173x4n)" height="137.6328" id="Administrator" style="stroke:#A80036;stroke-width:1.5;" width="121" x="331.5" y="53.5659"/><ellipse cx="350.55" cy="69.5659" fill="#ADD1B2" rx="11" ry="11" style="stroke:#A80036;stroke-width:1.0;"/><path d="M352.8938,65.2378 C351.9563,64.8003 351.3625,64.6597 350.4875,64.6597 C347.8625,64.6597 345.8625,66.7378 345.8625,69.4565 L345.8625,70.5815 C345.8625,73.1597 347.9719,75.0503 350.8625,75.0503 C352.0813,75.0503 353.2375,74.7534 353.9875,74.2065 C354.5656,73.8003 354.8938,73.3472 354.8938,72.9565 C354.8938,72.5034 354.5031,72.1128 354.0344,72.1128 C353.8156,72.1128 353.6125,72.1909 353.425,72.3784 C352.9719,72.8628 352.9719,72.8628 352.7844,72.9565 C352.3625,73.2222 351.675,73.3472 350.9094,73.3472 C348.8625,73.3472 347.5656,72.2534 347.5656,70.5503 L347.5656,69.4565 C347.5656,67.6753 348.8156,66.3628 350.55,66.3628 C351.1281,66.3628 351.7375,66.519 352.2063,66.769 C352.6906,67.0503 352.8625,67.269 352.9563,67.6753 C353.0188,68.0815 353.05,68.2065 353.1906,68.3315 C353.3313,68.4722 353.5656,68.5815 353.7844,68.5815 C354.05,68.5815 354.3156,68.4409 354.4875,68.2222 C354.5969,68.0659 354.6281,67.8784 354.6281,67.4565 L354.6281,66.0347 C354.6281,65.5972 354.6125,65.4722 354.5188,65.3159 C354.3625,65.0503 354.0813,64.9097 353.7844,64.9097 C353.4875,64.9097 353.2844,65.0034 353.0656,65.3159 L352.8938,65.2378 Z " fill="#000000"/><text fill="#000000" font-family="sans-serif" font-size="12" lengthAdjust="spacing" textLength="80" x="365.45" y="73.7202">Administrator</text><line style="stroke:#A80036;stroke-width:1.5;" x1="332.5" x2="451.5" y1="85.5659" y2="85.5659"/><rect fill="none" height="6" style="stroke:#C82930;stroke-width:1.0;" width="6" x="339.5" y="93.5659"/><text fill="#000000" font-family="sans-serif" font-size="11" lengthAdjust="spacing" textLength="71" x="351.5" y="99.7764">employeeID</text><rect fill="none" height="6" style="stroke:#C82930;stroke-width:1.0;" width="6" x="339.5" y="106.3706"/><text fill="#000000" font-family="sans-serif" font-size="11" lengthAdjust="spacing" textLength="95" x="351.5" y="112.5811">organizationRole</text><rect fill="none" height="6" style="stroke:#C82930;stroke-width:1.0;" width="6" x="339.5" y="119.1753"/><text fill="#000000" font-family="sans-serif" font-size="11" lengthAdjust="spacing" textLength="33" x="351.5" y="125.3857">name</text><rect fill="none" height="6" style="stroke:#C82930;stroke-width:1.0;" width="6" x="339.5" y="131.98"/><text fill="#000000" font-family="sans-serif" font-size="11" lengthAdjust="spacing" textLength="45" x="351.5" y="138.1904">address</text><rect fill="none" height="6" style="stroke:#C82930;stroke-width:1.0;" width="6" x="339.5" y="144.7847"/><text fill="#000000" font-family="sans-serif" font-size="11" lengthAdjust="spacing" textLength="81" x="351.5" y="150.9951">phoneNumber</text><rect fill="none" height="6" style="stroke:#C82930;stroke-width:1.0;" width="6" x="339.5" y="157.5894"/><text fill="#000000" font-family="sans-serif" font-size="11" lengthAdjust="spacing" textLength="32" x="351.5" y="163.7998">email</text><rect fill="none" height="6" style="stroke:#C82930;stroke-width:1.0;" width="6" x="339.5" y="170.394"/><text fill="#000000" font-family="sans-serif" font-size="11" lengthAdjust="spacing" textLength="25" x="351.5" y="176.6045">SOC</text><line style="stroke:#A80036;stroke-width:1.5;" x1="332.5" x2="451.5" y1="183.1987" y2="183.1987"/><!--MD5=[7e4bc624457760b649895ff2ead938fa]
link Company to Test--><path codeLine="34" d="M99.1548,122.5659 C131.878,122.5659 175.53,122.5659 207.805,122.5659 " fill="none" id="Company-Test" style="stroke:#A80036;stroke-width:1.0;"/><polygon fill="#000000" points="126.5,111.1323,117.4549,108.1934,117.4549,114.0713,126.5,111.1323" style="stroke:#000000;stroke-width:1.0;"/><text fill="#000000" font-family="sans-serif" font-size="13" lengthAdjust="spacing" textLength="59" x="130.5" y="115.6328">performs</text><text fill="#000000" font-family="sans-serif" font-size="13" lengthAdjust="spacing" textLength="8" x="107.1482" y="118.4636">1</text><text fill="#000000" font-family="sans-serif" font-size="13" lengthAdjust="spacing" textLength="23" x="176.9729" y="135.6815">1..*</text><!--MD5=[b921f878c1b19577ef94d929b3e93a58]
link Company to Laboratory--><path codeLine="35" d="M99.1904,94.2586 C124.997,79.7589 158.268,63.1759 190,53.5659 C295.204,21.7039 325.78,30.2449 435.5,23.5659 C581.395,14.6849 624.615,6.5139 763,53.5659 C783.566,60.5589 804.346,71.7909 822.38,83.1799 " fill="none" id="Company-Laboratory" style="stroke:#A80036;stroke-width:1.0;"/><polygon fill="#000000" points="445.4994,15.0557,436.4104,12.2557,436.5004,18.1329,445.4994,15.0557" style="stroke:#000000;stroke-width:1.0;"/><text fill="#000000" font-family="sans-serif" font-size="13" lengthAdjust="spacing" textLength="34" x="449.5" y="19.6328">owns</text><text fill="#000000" font-family="sans-serif" font-size="13" lengthAdjust="spacing" textLength="8" x="106.8758" y="85.868">1</text><text fill="#000000" font-family="sans-serif" font-size="13" lengthAdjust="spacing" textLength="23" x="791.4435" y="74.5273">2..*</text><!--MD5=[6d0dfcacb99e5b6ea3de933623cb0bd1]
link ClinicalAnalysisLaboratory to Laboratory--><path codeLine="36" d="M745.698,122.5659 C771.833,122.5659 799.335,122.5659 822.302,122.5659 " fill="none" id="ClinicalAnalysisLaboratory-Laboratory" style="stroke:#A80036;stroke-width:1.0;"/><polygon fill="#000000" points="773,111.1323,763.9549,108.1934,763.9549,114.0713,773,111.1323" style="stroke:#000000;stroke-width:1.0;"/><text fill="#000000" font-family="sans-serif" font-size="13" lengthAdjust="spacing" textLength="27" x="777" y="115.6328">is of</text><text fill="#000000" font-family="sans-serif" font-size="13" lengthAdjust="spacing" textLength="7" x="753.4435" y="119.0482">*</text><text fill="#000000" font-family="sans-serif" font-size="13" lengthAdjust="spacing" textLength="8" x="806.5488" y="118.6192">1</text><!--MD5=[23b8a99c177c2cd6d714b2cbaa81b3c4]
link Administrator to ClinicalAnalysisLaboratory--><path codeLine="37" d="M452.63,122.5659 C484.067,122.5659 523.157,122.5659 558.374,122.5659 " fill="none" id="Administrator-ClinicalAnalysisLaboratory" style="stroke:#A80036;stroke-width:1.0;"/><polygon fill="#000000" points="480,111.1323,470.9549,108.1934,470.9549,114.0713,480,111.1323" style="stroke:#000000;stroke-width:1.0;"/><text fill="#000000" font-family="sans-serif" font-size="13" lengthAdjust="spacing" textLength="56" x="484" y="115.6328">registers</text><text fill="#000000" font-family="sans-serif" font-size="13" lengthAdjust="spacing" textLength="23" x="460.5192" y="135.4805">1..*</text><text fill="#000000" font-family="sans-serif" font-size="13" lengthAdjust="spacing" textLength="23" x="527.6538" y="135.1956">1..*</text><!--MD5=[89c4e6809ea4773e1bbe69bad16fe175]
@startuml
class Company{
-designation
}

class Test{
-code
-nhsCode
-type
-description
}

class Laboratory{
-name
-address
-phoneNumber
-tinNumber
}

class ClinicalAnalysisLaboratory{
-laboratoryID
}

class Administrator{
-employeeID
-organizationRole
-name
-address
-phoneNumber
-email
-SOC
}


Company "1" - "1..*" Test : > performs
Company "1" - "2..*" Laboratory : > owns
ClinicalAnalysisLaboratory "*" - "1" Laboratory : > is of
Administrator "1..*" - "1..*" ClinicalAnalysisLaboratory : > registers
@enduml

PlantUML version 1.2021.6beta6(Unknown compile time)
(GPL source distribution)
Java Runtime: Java(TM) SE Runtime Environment
JVM: Java HotSpot(TM) 64-Bit Server VM
Default Encoding: UTF-8
Language: en
Country: US
--></g></svg>