<?xml version="1.0" encoding="UTF-8" standalone="no"?><svg xmlns="http://www.w3.org/2000/svg" xmlns:xlink="http://www.w3.org/1999/xlink" contentScriptType="application/ecmascript" contentStyleType="text/css" height="205px" preserveAspectRatio="none" style="width:740px;height:205px;background:#FFFFFF;" version="1.1" viewBox="0 0 740 205" width="740px" zoomAndPan="magnify"><defs><filter height="300%" id="f169s4sny73o3k" width="300%" x="-1" y="-1"><feGaussianBlur result="blurOut" stdDeviation="2.0"/><feColorMatrix in="blurOut" result="blurOut2" type="matrix" values="0 0 0 0 0 0 0 0 0 0 0 0 0 0 0 0 0 0 .4 0"/><feOffset dx="4.0" dy="4.0" in="blurOut2" result="blurOut3"/><feBlend in="SourceGraphic" in2="blurOut3" mode="normal"/></filter></defs><g><!--MD5=[02e4b9b7573f1156f41e60aa5b4e25a4]
class Company--><rect codeLine="1" fill="#FEFECE" filter="url(#f169s4sny73o3k)" height="60.8047" id="Company" style="stroke:#A80036;stroke-width:1.5;" width="92" x="234.5" y="92.0659"/><ellipse cx="251.3" cy="108.0659" fill="#ADD1B2" rx="11" ry="11" style="stroke:#A80036;stroke-width:1.0;"/><path d="M253.6438,103.7378 C252.7063,103.3003 252.1125,103.1597 251.2375,103.1597 C248.6125,103.1597 246.6125,105.2378 246.6125,107.9565 L246.6125,109.0815 C246.6125,111.6597 248.7219,113.5503 251.6125,113.5503 C252.8313,113.5503 253.9875,113.2534 254.7375,112.7065 C255.3156,112.3003 255.6438,111.8472 255.6438,111.4565 C255.6438,111.0034 255.2531,110.6128 254.7844,110.6128 C254.5656,110.6128 254.3625,110.6909 254.175,110.8784 C253.7219,111.3628 253.7219,111.3628 253.5344,111.4565 C253.1125,111.7222 252.425,111.8472 251.6594,111.8472 C249.6125,111.8472 248.3156,110.7534 248.3156,109.0503 L248.3156,107.9565 C248.3156,106.1753 249.5656,104.8628 251.3,104.8628 C251.8781,104.8628 252.4875,105.019 252.9563,105.269 C253.4406,105.5503 253.6125,105.769 253.7063,106.1753 C253.7688,106.5815 253.8,106.7065 253.9406,106.8315 C254.0813,106.9722 254.3156,107.0815 254.5344,107.0815 C254.8,107.0815 255.0656,106.9409 255.2375,106.7222 C255.3469,106.5659 255.3781,106.3784 255.3781,105.9565 L255.3781,104.5347 C255.3781,104.0972 255.3625,103.9722 255.2688,103.8159 C255.1125,103.5503 254.8313,103.4097 254.5344,103.4097 C254.2375,103.4097 254.0344,103.5034 253.8156,103.8159 L253.6438,103.7378 Z " fill="#000000"/><text fill="#000000" font-family="sans-serif" font-size="12" lengthAdjust="spacing" textLength="56" x="265.7" y="112.2202">Company</text><line style="stroke:#A80036;stroke-width:1.5;" x1="235.5" x2="325.5" y1="124.0659" y2="124.0659"/><rect fill="none" height="6" style="stroke:#C82930;stroke-width:1.0;" width="6" x="242.5" y="132.0659"/><text fill="#000000" font-family="sans-serif" font-size="11" lengthAdjust="spacing" textLength="66" x="254.5" y="138.2764">designation</text><line style="stroke:#A80036;stroke-width:1.5;" x1="235.5" x2="325.5" y1="144.8706" y2="144.8706"/><!--MD5=[df38be88ccee13e832d6fafd6288a4ca]
class Test--><rect codeLine="5" fill="#FEFECE" filter="url(#f169s4sny73o3k)" height="99.2188" id="Test" style="stroke:#A80036;stroke-width:1.5;" width="88" x="435.5" y="73.0659"/><ellipse cx="464" cy="89.0659" fill="#ADD1B2" rx="11" ry="11" style="stroke:#A80036;stroke-width:1.0;"/><path d="M466.3438,84.7378 C465.4063,84.3003 464.8125,84.1597 463.9375,84.1597 C461.3125,84.1597 459.3125,86.2378 459.3125,88.9565 L459.3125,90.0815 C459.3125,92.6597 461.4219,94.5503 464.3125,94.5503 C465.5313,94.5503 466.6875,94.2534 467.4375,93.7065 C468.0156,93.3003 468.3438,92.8472 468.3438,92.4565 C468.3438,92.0034 467.9531,91.6128 467.4844,91.6128 C467.2656,91.6128 467.0625,91.6909 466.875,91.8784 C466.4219,92.3628 466.4219,92.3628 466.2344,92.4565 C465.8125,92.7222 465.125,92.8472 464.3594,92.8472 C462.3125,92.8472 461.0156,91.7534 461.0156,90.0503 L461.0156,88.9565 C461.0156,87.1753 462.2656,85.8628 464,85.8628 C464.5781,85.8628 465.1875,86.019 465.6563,86.269 C466.1406,86.5503 466.3125,86.769 466.4063,87.1753 C466.4688,87.5815 466.5,87.7065 466.6406,87.8315 C466.7813,87.9722 467.0156,88.0815 467.2344,88.0815 C467.5,88.0815 467.7656,87.9409 467.9375,87.7222 C468.0469,87.5659 468.0781,87.3784 468.0781,86.9565 L468.0781,85.5347 C468.0781,85.0972 468.0625,84.9722 467.9688,84.8159 C467.8125,84.5503 467.5313,84.4097 467.2344,84.4097 C466.9375,84.4097 466.7344,84.5034 466.5156,84.8159 L466.3438,84.7378 Z " fill="#000000"/><text fill="#000000" font-family="sans-serif" font-size="12" lengthAdjust="spacing" textLength="26" x="481" y="93.2202">Test</text><line style="stroke:#A80036;stroke-width:1.5;" x1="436.5" x2="522.5" y1="105.0659" y2="105.0659"/><rect fill="none" height="6" style="stroke:#C82930;stroke-width:1.0;" width="6" x="443.5" y="113.0659"/><text fill="#000000" font-family="sans-serif" font-size="11" lengthAdjust="spacing" textLength="28" x="455.5" y="119.2764">code</text><rect fill="none" height="6" style="stroke:#C82930;stroke-width:1.0;" width="6" x="443.5" y="125.8706"/><text fill="#000000" font-family="sans-serif" font-size="11" lengthAdjust="spacing" textLength="50" x="455.5" y="132.0811">nhsCode</text><rect fill="none" height="6" style="stroke:#C82930;stroke-width:1.0;" width="6" x="443.5" y="138.6753"/><text fill="#000000" font-family="sans-serif" font-size="11" lengthAdjust="spacing" textLength="26" x="455.5" y="144.8857">type</text><rect fill="none" height="6" style="stroke:#C82930;stroke-width:1.0;" width="6" x="443.5" y="151.48"/><text fill="#000000" font-family="sans-serif" font-size="11" lengthAdjust="spacing" textLength="62" x="455.5" y="157.6904">description</text><line style="stroke:#A80036;stroke-width:1.5;" x1="436.5" x2="522.5" y1="164.2847" y2="164.2847"/><!--MD5=[aeb3272166074d8737a70b61b1e71682]
class TestType--><rect codeLine="12" fill="#FEFECE" filter="url(#f169s4sny73o3k)" height="99.2188" id="TestType" style="stroke:#A80036;stroke-width:1.5;" width="130" x="596.5" y="73.0659"/><ellipse cx="630.4" cy="89.0659" fill="#ADD1B2" rx="11" ry="11" style="stroke:#A80036;stroke-width:1.0;"/><path d="M632.7438,84.7378 C631.8063,84.3003 631.2125,84.1597 630.3375,84.1597 C627.7125,84.1597 625.7125,86.2378 625.7125,88.9565 L625.7125,90.0815 C625.7125,92.6597 627.8219,94.5503 630.7125,94.5503 C631.9313,94.5503 633.0875,94.2534 633.8375,93.7065 C634.4156,93.3003 634.7438,92.8472 634.7438,92.4565 C634.7438,92.0034 634.3531,91.6128 633.8844,91.6128 C633.6656,91.6128 633.4625,91.6909 633.275,91.8784 C632.8219,92.3628 632.8219,92.3628 632.6344,92.4565 C632.2125,92.7222 631.525,92.8472 630.7594,92.8472 C628.7125,92.8472 627.4156,91.7534 627.4156,90.0503 L627.4156,88.9565 C627.4156,87.1753 628.6656,85.8628 630.4,85.8628 C630.9781,85.8628 631.5875,86.019 632.0563,86.269 C632.5406,86.5503 632.7125,86.769 632.8063,87.1753 C632.8688,87.5815 632.9,87.7065 633.0406,87.8315 C633.1813,87.9722 633.4156,88.0815 633.6344,88.0815 C633.9,88.0815 634.1656,87.9409 634.3375,87.7222 C634.4469,87.5659 634.4781,87.3784 634.4781,86.9565 L634.4781,85.5347 C634.4781,85.0972 634.4625,84.9722 634.3688,84.8159 C634.2125,84.5503 633.9313,84.4097 633.6344,84.4097 C633.3375,84.4097 633.1344,84.5034 632.9156,84.8159 L632.7438,84.7378 Z " fill="#000000"/><text fill="#000000" font-family="sans-serif" font-size="12" lengthAdjust="spacing" textLength="56" x="648.6" y="93.2202">TestType</text><line style="stroke:#A80036;stroke-width:1.5;" x1="597.5" x2="725.5" y1="105.0659" y2="105.0659"/><rect fill="none" height="6" style="stroke:#C82930;stroke-width:1.0;" width="6" x="604.5" y="113.0659"/><text fill="#000000" font-family="sans-serif" font-size="11" lengthAdjust="spacing" textLength="28" x="616.5" y="119.2764">code</text><rect fill="none" height="6" style="stroke:#C82930;stroke-width:1.0;" width="6" x="604.5" y="125.8706"/><text fill="#000000" font-family="sans-serif" font-size="11" lengthAdjust="spacing" textLength="62" x="616.5" y="132.0811">description</text><rect fill="none" height="6" style="stroke:#C82930;stroke-width:1.0;" width="6" x="604.5" y="138.6753"/><text fill="#000000" font-family="sans-serif" font-size="11" lengthAdjust="spacing" textLength="104" x="616.5" y="144.8857">collecting_method</text><rect fill="none" height="6" style="stroke:#C82930;stroke-width:1.0;" width="6" x="604.5" y="151.48"/><text fill="#000000" font-family="sans-serif" font-size="11" lengthAdjust="spacing" textLength="60" x="616.5" y="157.6904">categories</text><line style="stroke:#A80036;stroke-width:1.5;" x1="597.5" x2="725.5" y1="164.2847" y2="164.2847"/><!--MD5=[da547346deef918ea16944ba046651ef]
class Administrator--><rect codeLine="19" fill="#FEFECE" filter="url(#f169s4sny73o3k)" height="137.6328" id="Administrator" style="stroke:#A80036;stroke-width:1.5;" width="121" x="7" y="53.5659"/><ellipse cx="26.05" cy="69.5659" fill="#ADD1B2" rx="11" ry="11" style="stroke:#A80036;stroke-width:1.0;"/><path d="M28.3938,65.2378 C27.4563,64.8003 26.8625,64.6597 25.9875,64.6597 C23.3625,64.6597 21.3625,66.7378 21.3625,69.4565 L21.3625,70.5815 C21.3625,73.1597 23.4719,75.0503 26.3625,75.0503 C27.5813,75.0503 28.7375,74.7534 29.4875,74.2065 C30.0656,73.8003 30.3938,73.3472 30.3938,72.9565 C30.3938,72.5034 30.0031,72.1128 29.5344,72.1128 C29.3156,72.1128 29.1125,72.1909 28.925,72.3784 C28.4719,72.8628 28.4719,72.8628 28.2844,72.9565 C27.8625,73.2222 27.175,73.3472 26.4094,73.3472 C24.3625,73.3472 23.0656,72.2534 23.0656,70.5503 L23.0656,69.4565 C23.0656,67.6753 24.3156,66.3628 26.05,66.3628 C26.6281,66.3628 27.2375,66.519 27.7063,66.769 C28.1906,67.0503 28.3625,67.269 28.4563,67.6753 C28.5188,68.0815 28.55,68.2065 28.6906,68.3315 C28.8313,68.4722 29.0656,68.5815 29.2844,68.5815 C29.55,68.5815 29.8156,68.4409 29.9875,68.2222 C30.0969,68.0659 30.1281,67.8784 30.1281,67.4565 L30.1281,66.0347 C30.1281,65.5972 30.1125,65.4722 30.0188,65.3159 C29.8625,65.0503 29.5813,64.9097 29.2844,64.9097 C28.9875,64.9097 28.7844,65.0034 28.5656,65.3159 L28.3938,65.2378 Z " fill="#000000"/><text fill="#000000" font-family="sans-serif" font-size="12" lengthAdjust="spacing" textLength="80" x="40.95" y="73.7202">Administrator</text><line style="stroke:#A80036;stroke-width:1.5;" x1="8" x2="127" y1="85.5659" y2="85.5659"/><rect fill="none" height="6" style="stroke:#C82930;stroke-width:1.0;" width="6" x="15" y="93.5659"/><text fill="#000000" font-family="sans-serif" font-size="11" lengthAdjust="spacing" textLength="71" x="27" y="99.7764">employeeID</text><rect fill="none" height="6" style="stroke:#C82930;stroke-width:1.0;" width="6" x="15" y="106.3706"/><text fill="#000000" font-family="sans-serif" font-size="11" lengthAdjust="spacing" textLength="95" x="27" y="112.5811">organizationRole</text><rect fill="none" height="6" style="stroke:#C82930;stroke-width:1.0;" width="6" x="15" y="119.1753"/><text fill="#000000" font-family="sans-serif" font-size="11" lengthAdjust="spacing" textLength="33" x="27" y="125.3857">name</text><rect fill="none" height="6" style="stroke:#C82930;stroke-width:1.0;" width="6" x="15" y="131.98"/><text fill="#000000" font-family="sans-serif" font-size="11" lengthAdjust="spacing" textLength="45" x="27" y="138.1904">address</text><rect fill="none" height="6" style="stroke:#C82930;stroke-width:1.0;" width="6" x="15" y="144.7847"/><text fill="#000000" font-family="sans-serif" font-size="11" lengthAdjust="spacing" textLength="81" x="27" y="150.9951">phoneNumber</text><rect fill="none" height="6" style="stroke:#C82930;stroke-width:1.0;" width="6" x="15" y="157.5894"/><text fill="#000000" font-family="sans-serif" font-size="11" lengthAdjust="spacing" textLength="32" x="27" y="163.7998">email</text><rect fill="none" height="6" style="stroke:#C82930;stroke-width:1.0;" width="6" x="15" y="170.394"/><text fill="#000000" font-family="sans-serif" font-size="11" lengthAdjust="spacing" textLength="25" x="27" y="176.6045">SOC</text><line style="stroke:#A80036;stroke-width:1.5;" x1="8" x2="127" y1="183.1987" y2="183.1987"/><!--MD5=[7e4bc624457760b649895ff2ead938fa]
link Company to Test--><path codeLine="30" d="M326.655,122.5659 C359.378,122.5659 403.03,122.5659 435.305,122.5659 " fill="none" id="Company-Test" style="stroke:#A80036;stroke-width:1.0;"/><polygon fill="#000000" points="354,111.1323,344.9549,108.1934,344.9549,114.0713,354,111.1323" style="stroke:#000000;stroke-width:1.0;"/><text fill="#000000" font-family="sans-serif" font-size="13" lengthAdjust="spacing" textLength="59" x="358" y="115.6328">performs</text><text fill="#000000" font-family="sans-serif" font-size="13" lengthAdjust="spacing" textLength="8" x="334.6485" y="118.4636">1</text><text fill="#000000" font-family="sans-serif" font-size="13" lengthAdjust="spacing" textLength="23" x="404.4729" y="135.6815">1..*</text><!--MD5=[71159b3869b6d7a411768e18bcaa697a]
link Administrator to TestType--><path codeLine="31" d="M128.224,90.5199 C180.328,65.3109 258.298,32.9319 331,23.5659 C424.726,11.4909 453.098,20.1659 541.5,53.5659 C560.047,60.5729 579.102,70.2299 596.412,80.1009 " fill="none" id="Administrator-TestType" style="stroke:#A80036;stroke-width:1.0;"/><polygon fill="#000000" points="340.9988,15.0211,331.8905,12.2841,332.0213,18.1605,340.9988,15.0211" style="stroke:#000000;stroke-width:1.0;"/><text fill="#000000" font-family="sans-serif" font-size="13" lengthAdjust="spacing" textLength="48" x="345" y="19.6328">creates</text><text fill="#000000" font-family="sans-serif" font-size="13" lengthAdjust="spacing" textLength="23" x="136.1235" y="83.2888">1..*</text><text fill="#000000" font-family="sans-serif" font-size="13" lengthAdjust="spacing" textLength="7" x="581.4815" y="71.3856">*</text><!--MD5=[304db59a05c0da2cdffc3c882f2d9e9b]
link Administrator to Company--><path codeLine="32" d="M128.252,122.5659 C161.944,122.5659 203.178,122.5659 234.232,122.5659 " fill="none" id="Administrator-Company" style="stroke:#A80036;stroke-width:1.0;"/><polygon fill="#000000" points="155.25,111.1323,146.2049,108.1934,146.2049,114.0713,155.25,111.1323" style="stroke:#000000;stroke-width:1.0;"/><text fill="#000000" font-family="sans-serif" font-size="13" lengthAdjust="spacing" textLength="57" x="159.25" y="115.6328">is part of</text><text fill="#000000" font-family="sans-serif" font-size="13" lengthAdjust="spacing" textLength="23" x="136.1546" y="135.4805">1..*</text><text fill="#000000" font-family="sans-serif" font-size="13" lengthAdjust="spacing" textLength="8" x="218.5347" y="118.5095">1</text><!--MD5=[e981d4f96c4342412d1e68160b30cf70]
link Test to TestType--><path codeLine="33" d="M523.557,122.5659 C545.334,122.5659 572.05,122.5659 596.151,122.5659 " fill="none" id="Test-TestType" style="stroke:#A80036;stroke-width:1.0;"/><polygon fill="#000000" points="551,111.1323,541.9549,108.1934,541.9549,114.0713,551,111.1323" style="stroke:#000000;stroke-width:1.0;"/><text fill="#000000" font-family="sans-serif" font-size="13" lengthAdjust="spacing" textLength="23" x="555" y="115.6328">has</text><text fill="#000000" font-family="sans-serif" font-size="13" lengthAdjust="spacing" textLength="7" x="531.4336" y="118.3835">*</text><text fill="#000000" font-family="sans-serif" font-size="13" lengthAdjust="spacing" textLength="8" x="580.566" y="118.8078">1</text><!--MD5=[b36ffbb66457dc365dc675de523a1f08]
@startuml
class Company{
-designation
}

class Test{
-code
-nhsCode
-type
-description
}

class TestType{
-code
-description
-collecting_method
-categories
}

class Administrator{
-employeeID
-organizationRole
-name
-address
-phoneNumber
-email
-SOC
}


Company "1" - "1..*" Test : > performs
Administrator "1..*" - "*" TestType : > creates
Administrator "1..*" - "1" Company : > is part of
Test "*" - "1" TestType : > has
@enduml

PlantUML version 1.2021.6beta6(Unknown compile time)
(GPL source distribution)
Java Runtime: Java(TM) SE Runtime Environment
JVM: Java HotSpot(TM) 64-Bit Server VM
Default Encoding: UTF-8
Language: en
Country: US
--></g></svg>