<?xml version="1.0" encoding="UTF-8" standalone="no"?><svg xmlns="http://www.w3.org/2000/svg" xmlns:xlink="http://www.w3.org/1999/xlink" contentScriptType="application/ecmascript" contentStyleType="text/css" height="362px" preserveAspectRatio="none" style="width:946px;height:362px;background:#FFFFFF;" version="1.1" viewBox="0 0 946 362" width="946px" zoomAndPan="magnify"><defs><filter height="300%" id="f3hwgju8g6s33" width="300%" x="-1" y="-1"><feGaussianBlur result="blurOut" stdDeviation="2.0"/><feColorMatrix in="blurOut" result="blurOut2" type="matrix" values="0 0 0 0 0 0 0 0 0 0 0 0 0 0 0 0 0 0 .4 0"/><feOffset dx="4.0" dy="4.0" in="blurOut2" result="blurOut3"/><feBlend in="SourceGraphic" in2="blurOut3" mode="normal"/></filter></defs><g><!--MD5=[02e4b9b7573f1156f41e60aa5b4e25a4]
class Company--><rect codeLine="1" fill="#FEFECE" filter="url(#f3hwgju8g6s33)" height="60.8047" id="Company" style="stroke:#A80036;stroke-width:1.5;" width="92" x="7" y="261.5"/><ellipse cx="23.8" cy="277.5" fill="#ADD1B2" rx="11" ry="11" style="stroke:#A80036;stroke-width:1.0;"/><path d="M26.1438,273.1719 C25.2063,272.7344 24.6125,272.5938 23.7375,272.5938 C21.1125,272.5938 19.1125,274.6719 19.1125,277.3906 L19.1125,278.5156 C19.1125,281.0938 21.2219,282.9844 24.1125,282.9844 C25.3313,282.9844 26.4875,282.6875 27.2375,282.1406 C27.8156,281.7344 28.1438,281.2813 28.1438,280.8906 C28.1438,280.4375 27.7531,280.0469 27.2844,280.0469 C27.0656,280.0469 26.8625,280.125 26.675,280.3125 C26.2219,280.7969 26.2219,280.7969 26.0344,280.8906 C25.6125,281.1563 24.925,281.2813 24.1594,281.2813 C22.1125,281.2813 20.8156,280.1875 20.8156,278.4844 L20.8156,277.3906 C20.8156,275.6094 22.0656,274.2969 23.8,274.2969 C24.3781,274.2969 24.9875,274.4531 25.4563,274.7031 C25.9406,274.9844 26.1125,275.2031 26.2063,275.6094 C26.2688,276.0156 26.3,276.1406 26.4406,276.2656 C26.5813,276.4063 26.8156,276.5156 27.0344,276.5156 C27.3,276.5156 27.5656,276.375 27.7375,276.1563 C27.8469,276 27.8781,275.8125 27.8781,275.3906 L27.8781,273.9688 C27.8781,273.5313 27.8625,273.4063 27.7688,273.25 C27.6125,272.9844 27.3313,272.8438 27.0344,272.8438 C26.7375,272.8438 26.5344,272.9375 26.3156,273.25 L26.1438,273.1719 Z " fill="#000000"/><text fill="#000000" font-family="sans-serif" font-size="12" lengthAdjust="spacing" textLength="56" x="38.2" y="281.6543">Company</text><line style="stroke:#A80036;stroke-width:1.5;" x1="8" x2="98" y1="293.5" y2="293.5"/><rect fill="none" height="6" style="stroke:#C82930;stroke-width:1.0;" width="6" x="15" y="301.5"/><text fill="#000000" font-family="sans-serif" font-size="11" lengthAdjust="spacing" textLength="66" x="27" y="307.7104">designation</text><line style="stroke:#A80036;stroke-width:1.5;" x1="8" x2="98" y1="314.3047" y2="314.3047"/><!--MD5=[aeb3272166074d8737a70b61b1e71682]
class TestType--><rect codeLine="7" fill="#FEFECE" filter="url(#f3hwgju8g6s33)" height="112.0234" id="TestType" style="stroke:#A80036;stroke-width:1.5;" width="363" x="569.5" y="236"/><ellipse cx="718.75" cy="252" fill="#ADD1B2" rx="11" ry="11" style="stroke:#A80036;stroke-width:1.0;"/><path d="M721.0938,247.6719 C720.1563,247.2344 719.5625,247.0938 718.6875,247.0938 C716.0625,247.0938 714.0625,249.1719 714.0625,251.8906 L714.0625,253.0156 C714.0625,255.5938 716.1719,257.4844 719.0625,257.4844 C720.2813,257.4844 721.4375,257.1875 722.1875,256.6406 C722.7656,256.2344 723.0938,255.7813 723.0938,255.3906 C723.0938,254.9375 722.7031,254.5469 722.2344,254.5469 C722.0156,254.5469 721.8125,254.625 721.625,254.8125 C721.1719,255.2969 721.1719,255.2969 720.9844,255.3906 C720.5625,255.6563 719.875,255.7813 719.1094,255.7813 C717.0625,255.7813 715.7656,254.6875 715.7656,252.9844 L715.7656,251.8906 C715.7656,250.1094 717.0156,248.7969 718.75,248.7969 C719.3281,248.7969 719.9375,248.9531 720.4063,249.2031 C720.8906,249.4844 721.0625,249.7031 721.1563,250.1094 C721.2188,250.5156 721.25,250.6406 721.3906,250.7656 C721.5313,250.9063 721.7656,251.0156 721.9844,251.0156 C722.25,251.0156 722.5156,250.875 722.6875,250.6563 C722.7969,250.5 722.8281,250.3125 722.8281,249.8906 L722.8281,248.4688 C722.8281,248.0313 722.8125,247.9063 722.7188,247.75 C722.5625,247.4844 722.2813,247.3438 721.9844,247.3438 C721.6875,247.3438 721.4844,247.4375 721.2656,247.75 L721.0938,247.6719 Z " fill="#000000"/><text fill="#000000" font-family="sans-serif" font-size="12" lengthAdjust="spacing" textLength="56" x="739.25" y="256.1543">TestType</text><line style="stroke:#A80036;stroke-width:1.5;" x1="570.5" x2="931.5" y1="268" y2="268"/><rect fill="none" height="6" style="stroke:#C82930;stroke-width:1.0;" width="6" x="577.5" y="276"/><text fill="#000000" font-family="sans-serif" font-size="11" lengthAdjust="spacing" textLength="28" x="589.5" y="282.2104">code</text><rect fill="none" height="6" style="stroke:#C82930;stroke-width:1.0;" width="6" x="577.5" y="288.8047"/><text fill="#000000" font-family="sans-serif" font-size="11" lengthAdjust="spacing" textLength="62" x="589.5" y="295.0151">description</text><rect fill="none" height="6" style="stroke:#C82930;stroke-width:1.0;" width="6" x="577.5" y="301.6094"/><text fill="#000000" font-family="sans-serif" font-size="11" lengthAdjust="spacing" textLength="104" x="589.5" y="307.8198">collecting_method</text><rect fill="none" height="6" style="stroke:#C82930;stroke-width:1.0;" width="6" x="577.5" y="314.4141"/><text fill="#000000" font-family="sans-serif" font-size="11" lengthAdjust="spacing" textLength="60" x="589.5" y="320.6245">categories</text><line style="stroke:#A80036;stroke-width:1.5;" x1="570.5" x2="931.5" y1="327.2188" y2="327.2188"/><ellipse cx="580.5" cy="338.2188" fill="#84BE84" rx="3" ry="3" style="stroke:#038048;stroke-width:1.0;"/><text fill="#000000" font-family="sans-serif" font-size="11" lengthAdjust="spacing" textLength="337" x="589.5" y="341.4292">TestType(code, description, collecting_method, categories)</text><!--MD5=[8234c2e1798cb064336f15504722a1a1]
class TestTypeController--><rect codeLine="19" fill="#FEFECE" filter="url(#f3hwgju8g6s33)" height="60.8047" id="TestTypeController" style="stroke:#A80036;stroke-width:1.5;" width="400" x="134" y="115"/><ellipse cx="272.25" cy="131" fill="#ADD1B2" rx="11" ry="11" style="stroke:#A80036;stroke-width:1.0;"/><path d="M274.5938,126.6719 C273.6563,126.2344 273.0625,126.0938 272.1875,126.0938 C269.5625,126.0938 267.5625,128.1719 267.5625,130.8906 L267.5625,132.0156 C267.5625,134.5938 269.6719,136.4844 272.5625,136.4844 C273.7813,136.4844 274.9375,136.1875 275.6875,135.6406 C276.2656,135.2344 276.5938,134.7813 276.5938,134.3906 C276.5938,133.9375 276.2031,133.5469 275.7344,133.5469 C275.5156,133.5469 275.3125,133.625 275.125,133.8125 C274.6719,134.2969 274.6719,134.2969 274.4844,134.3906 C274.0625,134.6563 273.375,134.7813 272.6094,134.7813 C270.5625,134.7813 269.2656,133.6875 269.2656,131.9844 L269.2656,130.8906 C269.2656,129.1094 270.5156,127.7969 272.25,127.7969 C272.8281,127.7969 273.4375,127.9531 273.9063,128.2031 C274.3906,128.4844 274.5625,128.7031 274.6563,129.1094 C274.7188,129.5156 274.75,129.6406 274.8906,129.7656 C275.0313,129.9063 275.2656,130.0156 275.4844,130.0156 C275.75,130.0156 276.0156,129.875 276.1875,129.6563 C276.2969,129.5 276.3281,129.3125 276.3281,128.8906 L276.3281,127.4688 C276.3281,127.0313 276.3125,126.9063 276.2188,126.75 C276.0625,126.4844 275.7813,126.3438 275.4844,126.3438 C275.1875,126.3438 274.9844,126.4375 274.7656,126.75 L274.5938,126.6719 Z " fill="#000000"/><text fill="#000000" font-family="sans-serif" font-size="12" lengthAdjust="spacing" textLength="115" x="292.75" y="135.1543">TestTypeController</text><line style="stroke:#A80036;stroke-width:1.5;" x1="135" x2="533" y1="147" y2="147"/><line style="stroke:#A80036;stroke-width:1.5;" x1="135" x2="533" y1="155" y2="155"/><ellipse cx="145" cy="166" fill="#84BE84" rx="3" ry="3" style="stroke:#038048;stroke-width:1.0;"/><text fill="#000000" font-family="sans-serif" font-size="11" lengthAdjust="spacing" textLength="374" x="154" y="169.2104">createTestType(code, description, collecting_method, categories)</text><!--MD5=[6ba72ddf03822b91e8d41ca71de58ed3]
class TestTypeStore--><rect codeLine="25" fill="#FEFECE" filter="url(#f3hwgju8g6s33)" height="99.2188" id="TestTypeStore" style="stroke:#A80036;stroke-width:1.5;" width="400" x="134" y="242.5"/><ellipse cx="285.25" cy="258.5" fill="#ADD1B2" rx="11" ry="11" style="stroke:#A80036;stroke-width:1.0;"/><path d="M287.5938,254.1719 C286.6563,253.7344 286.0625,253.5938 285.1875,253.5938 C282.5625,253.5938 280.5625,255.6719 280.5625,258.3906 L280.5625,259.5156 C280.5625,262.0938 282.6719,263.9844 285.5625,263.9844 C286.7813,263.9844 287.9375,263.6875 288.6875,263.1406 C289.2656,262.7344 289.5938,262.2813 289.5938,261.8906 C289.5938,261.4375 289.2031,261.0469 288.7344,261.0469 C288.5156,261.0469 288.3125,261.125 288.125,261.3125 C287.6719,261.7969 287.6719,261.7969 287.4844,261.8906 C287.0625,262.1563 286.375,262.2813 285.6094,262.2813 C283.5625,262.2813 282.2656,261.1875 282.2656,259.4844 L282.2656,258.3906 C282.2656,256.6094 283.5156,255.2969 285.25,255.2969 C285.8281,255.2969 286.4375,255.4531 286.9063,255.7031 C287.3906,255.9844 287.5625,256.2031 287.6563,256.6094 C287.7188,257.0156 287.75,257.1406 287.8906,257.2656 C288.0313,257.4063 288.2656,257.5156 288.4844,257.5156 C288.75,257.5156 289.0156,257.375 289.1875,257.1563 C289.2969,257 289.3281,256.8125 289.3281,256.3906 L289.3281,254.9688 C289.3281,254.5313 289.3125,254.4063 289.2188,254.25 C289.0625,253.9844 288.7813,253.8438 288.4844,253.8438 C288.1875,253.8438 287.9844,253.9375 287.7656,254.25 L287.5938,254.1719 Z " fill="#000000"/><text fill="#000000" font-family="sans-serif" font-size="12" lengthAdjust="spacing" textLength="89" x="305.75" y="262.6543">TestTypeStore</text><line style="stroke:#A80036;stroke-width:1.5;" x1="135" x2="533" y1="274.5" y2="274.5"/><line style="stroke:#A80036;stroke-width:1.5;" x1="135" x2="533" y1="282.5" y2="282.5"/><ellipse cx="145" cy="293.5" fill="#84BE84" rx="3" ry="3" style="stroke:#038048;stroke-width:1.0;"/><text fill="#000000" font-family="sans-serif" font-size="11" lengthAdjust="spacing" textLength="374" x="154" y="296.7104">createTestType(code, description, collecting_method, categories)</text><ellipse cx="145" cy="306.3047" fill="#84BE84" rx="3" ry="3" style="stroke:#038048;stroke-width:1.0;"/><text fill="#000000" font-family="sans-serif" font-size="11" lengthAdjust="spacing" textLength="99" x="154" y="309.5151">showTestType(tt)</text><ellipse cx="145" cy="319.1094" fill="#84BE84" rx="3" ry="3" style="stroke:#038048;stroke-width:1.0;"/><text fill="#000000" font-family="sans-serif" font-size="11" lengthAdjust="spacing" textLength="116" x="154" y="322.3198">validateTestType(tt)</text><ellipse cx="145" cy="331.9141" fill="#84BE84" rx="3" ry="3" style="stroke:#038048;stroke-width:1.0;"/><text fill="#000000" font-family="sans-serif" font-size="11" lengthAdjust="spacing" textLength="91" x="154" y="335.1245">addTestType(tt)</text><!--MD5=[9962a99adf3367992059ce0c33ea4533]
class TestTypeUI--><rect fill="#FEFECE" filter="url(#f3hwgju8g6s33)" height="48" id="TestTypeUI" style="stroke:#A80036;stroke-width:1.5;" width="100" x="284" y="7"/><ellipse cx="299" cy="23" fill="#ADD1B2" rx="11" ry="11" style="stroke:#A80036;stroke-width:1.0;"/><path d="M301.3438,18.6719 C300.4063,18.2344 299.8125,18.0938 298.9375,18.0938 C296.3125,18.0938 294.3125,20.1719 294.3125,22.8906 L294.3125,24.0156 C294.3125,26.5938 296.4219,28.4844 299.3125,28.4844 C300.5313,28.4844 301.6875,28.1875 302.4375,27.6406 C303.0156,27.2344 303.3438,26.7813 303.3438,26.3906 C303.3438,25.9375 302.9531,25.5469 302.4844,25.5469 C302.2656,25.5469 302.0625,25.625 301.875,25.8125 C301.4219,26.2969 301.4219,26.2969 301.2344,26.3906 C300.8125,26.6563 300.125,26.7813 299.3594,26.7813 C297.3125,26.7813 296.0156,25.6875 296.0156,23.9844 L296.0156,22.8906 C296.0156,21.1094 297.2656,19.7969 299,19.7969 C299.5781,19.7969 300.1875,19.9531 300.6563,20.2031 C301.1406,20.4844 301.3125,20.7031 301.4063,21.1094 C301.4688,21.5156 301.5,21.6406 301.6406,21.7656 C301.7813,21.9063 302.0156,22.0156 302.2344,22.0156 C302.5,22.0156 302.7656,21.875 302.9375,21.6563 C303.0469,21.5 303.0781,21.3125 303.0781,20.8906 L303.0781,19.4688 C303.0781,19.0313 303.0625,18.9063 302.9688,18.75 C302.8125,18.4844 302.5313,18.3438 302.2344,18.3438 C301.9375,18.3438 301.7344,18.4375 301.5156,18.75 L301.3438,18.6719 Z " fill="#000000"/><text fill="#000000" font-family="sans-serif" font-size="12" lengthAdjust="spacing" textLength="68" x="313" y="27.1543">TestTypeUI</text><line style="stroke:#A80036;stroke-width:1.5;" x1="285" x2="383" y1="39" y2="39"/><line style="stroke:#A80036;stroke-width:1.5;" x1="285" x2="383" y1="47" y2="47"/><!--MD5=[239275df5187c26117465ff07b80dd4d]
link TestTypeController to Company--><path codeLine="35" d="M243.541,176.027 C203.034,191.136 155.586,211.531 116,236 C105.8419,242.279 95.7079,250.2006 86.6311,258.0613 " fill="none" id="TestTypeController-to-Company" style="stroke:#A80036;stroke-width:1.0;stroke-dasharray:7.0,7.0;"/><polygon fill="#A80036" points="82.8088,261.4215,92.2093,258.4837,86.5641,258.1203,86.9274,252.4752,82.8088,261.4215" style="stroke:#A80036;stroke-width:1.0;"/><!--MD5=[141c3afa12b2b3c0a39ffce56dbd5f19]
link Company to TestTypeStore--><path codeLine="36" d="M99.1016,292 C108.999,292 118.896,292 128.794,292 " fill="none" id="Company-to-TestTypeStore" style="stroke:#A80036;stroke-width:1.0;"/><polygon fill="#A80036" points="133.969,292,124.969,288,128.969,292,124.969,296,133.969,292" style="stroke:#A80036;stroke-width:1.0;"/><!--MD5=[3eebf0e5f359806b77b30e9524c37676]
link TestTypeStore to TestType--><path codeLine="37" d="M534.355,292 C544.324,292 554.293,292 564.262,292 " fill="none" id="TestTypeStore-to-TestType" style="stroke:#A80036;stroke-width:1.0;"/><polygon fill="#A80036" points="569.476,292,560.476,288,564.476,292,560.476,296,569.476,292" style="stroke:#A80036;stroke-width:1.0;"/><!--MD5=[86e8c3a3ce7946cc4b6fe35e2ac36da2]
link TestTypeController to TestTypeStore--><path codeLine="38" d="M334,176.09 C334,193.674 334,216.509 334,237.185 " fill="none" id="TestTypeController-to-TestTypeStore" style="stroke:#A80036;stroke-width:1.0;stroke-dasharray:7.0,7.0;"/><polygon fill="#A80036" points="334,242.391,338,233.391,334,237.391,330,233.391,334,242.391" style="stroke:#A80036;stroke-width:1.0;"/><!--MD5=[bd4e6d524812d679b7f8d94fe5b0d515]
link TestTypeController to TestType--><path codeLine="39" d="M419.14,176.003 C467.564,192.783 529.851,214.367 587.358,234.294 " fill="none" id="TestTypeController-to-TestType" style="stroke:#A80036;stroke-width:1.0;stroke-dasharray:7.0,7.0;"/><polygon fill="#A80036" points="592.196,235.971,585.0019,229.2446,587.4716,234.3338,582.3824,236.8036,592.196,235.971" style="stroke:#A80036;stroke-width:1.0;"/><!--MD5=[7929f6f6631d83f96d2b4321a62a82a2]
link TestTypeUI to TestTypeController--><path codeLine="40" d="M334,55.038 C334,70.65 334,91.582 334,109.273 " fill="none" id="TestTypeUI-to-TestTypeController" style="stroke:#A80036;stroke-width:1.0;stroke-dasharray:7.0,7.0;"/><polygon fill="#A80036" points="334,114.65,338,105.65,334,109.65,330,105.65,334,114.65" style="stroke:#A80036;stroke-width:1.0;"/><!--MD5=[98a89776c1425fdc4398decc94eec7c2]
@startuml
class Company {
  -designation
 
}


class TestType{

 -code
 -description
 -collecting_method
 -categories


 +TestType(code, description, collecting_method, categories)

}

class TestTypeController{

 +createTestType(code, description, collecting_method, categories)

}

class TestTypeStore{


 +createTestType(code, description, collecting_method, categories)
 +showTestType(tt)
 +validateTestType(tt)
 +addTestType(tt)

}

TestTypeController ..> Company
Company -> TestTypeStore
TestTypeStore -> TestType
TestTypeController ..> TestTypeStore
TestTypeController ..> TestType
TestTypeUI ..> TestTypeController
@enduml

PlantUML version 1.2021.6beta6(Unknown compile time)
(GPL source distribution)
Java Runtime: Java(TM) SE Runtime Environment
JVM: Java HotSpot(TM) 64-Bit Server VM
Default Encoding: UTF-8
Language: en
Country: US
--></g></svg>