<?xml version="1.0" encoding="UTF-8" standalone="no"?><svg xmlns="http://www.w3.org/2000/svg" xmlns:xlink="http://www.w3.org/1999/xlink" contentScriptType="application/ecmascript" contentStyleType="text/css" height="761px" preserveAspectRatio="none" style="width:1987px;height:761px;" version="1.1" viewBox="0 0 1987 761" width="1987px" zoomAndPan="magnify"><defs><filter height="300%" id="fmfmls0wp3rcz" width="300%" x="-1" y="-1"><feGaussianBlur result="blurOut" stdDeviation="2.0"/><feColorMatrix in="blurOut" result="blurOut2" type="matrix" values="0 0 0 0 0 0 0 0 0 0 0 0 0 0 0 0 0 0 .4 0"/><feOffset dx="4.0" dy="4.0" in="blurOut2" result="blurOut3"/><feBlend in="SourceGraphic" in2="blurOut3" mode="normal"/></filter></defs><g><rect fill="#FFFFFF" filter="url(#fmfmls0wp3rcz)" height="29.1328" style="stroke:#A80036;stroke-width:1.0;" width="10" x="515" y="119.4297"/><rect fill="#FFFFFF" filter="url(#fmfmls0wp3rcz)" height="220.9609" style="stroke:#A80036;stroke-width:1.0;" width="10" x="515" y="177.6953"/><rect fill="#FFFFFF" filter="url(#fmfmls0wp3rcz)" height="231.6641" style="stroke:#A80036;stroke-width:1.0;" width="10" x="515" y="427.7891"/><rect fill="#FFFFFF" filter="url(#fmfmls0wp3rcz)" height="162.6953" style="stroke:#A80036;stroke-width:1.0;" width="10" x="979" y="206.8281"/><rect fill="#FFFFFF" filter="url(#fmfmls0wp3rcz)" height="166.3984" style="stroke:#A80036;stroke-width:1.0;" width="10" x="979" y="456.9219"/><rect fill="#FFFFFF" filter="url(#fmfmls0wp3rcz)" height="29.1328" style="stroke:#A80036;stroke-width:1.0;" width="10" x="1202" y="206.8281"/><rect fill="#FFFFFF" filter="url(#fmfmls0wp3rcz)" height="29.1328" style="stroke:#A80036;stroke-width:1.0;" width="10" x="1464" y="265.0938"/><rect fill="#FFFFFF" filter="url(#fmfmls0wp3rcz)" height="30" style="stroke:#A80036;stroke-width:1.0;" width="10" x="1464" y="339.5234"/><rect fill="#FFFFFF" filter="url(#fmfmls0wp3rcz)" height="137.2656" style="stroke:#A80036;stroke-width:1.0;" width="10" x="1464" y="486.0547"/><rect fill="#FFFFFF" filter="url(#fmfmls0wp3rcz)" height="28" style="stroke:#A80036;stroke-width:1.0;" width="10" x="1469" y="523.1875"/><rect fill="#FFFFFF" filter="url(#fmfmls0wp3rcz)" height="28" style="stroke:#A80036;stroke-width:1.0;" width="10" x="1469" y="595.3203"/><line style="stroke:#A80036;stroke-width:1.0;stroke-dasharray:5.0,5.0;" x1="58" x2="58" y1="88.2969" y2="677.4531"/><line style="stroke:#A80036;stroke-width:1.0;stroke-dasharray:5.0,5.0;" x1="519.5" x2="519.5" y1="88.2969" y2="677.4531"/><line style="stroke:#A80036;stroke-width:1.0;stroke-dasharray:5.0,5.0;" x1="983.5" x2="983.5" y1="88.2969" y2="677.4531"/><line style="stroke:#A80036;stroke-width:1.0;stroke-dasharray:5.0,5.0;" x1="1207" x2="1207" y1="88.2969" y2="677.4531"/><line style="stroke:#A80036;stroke-width:1.0;stroke-dasharray:5.0,5.0;" x1="1469" x2="1469" y1="88.2969" y2="677.4531"/><line style="stroke:#A80036;stroke-width:1.0;stroke-dasharray:5.0,5.0;" x1="1924" x2="1924" y1="305.7422" y2="677.4531"/><text fill="#000000" font-family="sans-serif" font-size="14" lengthAdjust="spacing" textLength="100" x="5" y="84.9951">Administrator</text><ellipse cx="58" cy="15" fill="#FEFECE" filter="url(#fmfmls0wp3rcz)" rx="8" ry="8" style="stroke:#A80036;stroke-width:2.0;"/><path d="M58,23 L58,50 M45,31 L71,31 M58,50 L45,65 M58,50 L71,65 " fill="none" filter="url(#fmfmls0wp3rcz)" style="stroke:#A80036;stroke-width:2.0;"/><text fill="#000000" font-family="sans-serif" font-size="14" lengthAdjust="spacing" textLength="100" x="5" y="689.4482">Administrator</text><ellipse cx="58" cy="702.75" fill="#FEFECE" filter="url(#fmfmls0wp3rcz)" rx="8" ry="8" style="stroke:#A80036;stroke-width:2.0;"/><path d="M58,710.75 L58,737.75 M45,718.75 L71,718.75 M58,737.75 L45,752.75 M58,737.75 L71,752.75 " fill="none" filter="url(#fmfmls0wp3rcz)" style="stroke:#A80036;stroke-width:2.0;"/><rect fill="#FEFECE" filter="url(#fmfmls0wp3rcz)" height="30.2969" style="stroke:#A80036;stroke-width:1.5;" width="95" x="470.5" y="53"/><text fill="#000000" font-family="sans-serif" font-size="14" lengthAdjust="spacing" textLength="81" x="477.5" y="72.9951">TestTypeUI</text><rect fill="#FEFECE" filter="url(#fmfmls0wp3rcz)" height="30.2969" style="stroke:#A80036;stroke-width:1.5;" width="95" x="470.5" y="676.4531"/><text fill="#000000" font-family="sans-serif" font-size="14" lengthAdjust="spacing" textLength="81" x="477.5" y="696.4482">TestTypeUI</text><rect fill="#FEFECE" filter="url(#fmfmls0wp3rcz)" height="30.2969" style="stroke:#A80036;stroke-width:1.5;" width="155" x="904.5" y="53"/><text fill="#000000" font-family="sans-serif" font-size="14" lengthAdjust="spacing" textLength="141" x="911.5" y="72.9951">TestTypeController</text><rect fill="#FEFECE" filter="url(#fmfmls0wp3rcz)" height="30.2969" style="stroke:#A80036;stroke-width:1.5;" width="155" x="904.5" y="676.4531"/><text fill="#000000" font-family="sans-serif" font-size="14" lengthAdjust="spacing" textLength="141" x="911.5" y="696.4482">TestTypeController</text><rect fill="#FEFECE" filter="url(#fmfmls0wp3rcz)" height="30.2969" style="stroke:#A80036;stroke-width:1.5;" width="82" x="1164" y="53"/><text fill="#000000" font-family="sans-serif" font-size="14" lengthAdjust="spacing" textLength="68" x="1171" y="72.9951">Company</text><rect fill="#FEFECE" filter="url(#fmfmls0wp3rcz)" height="30.2969" style="stroke:#A80036;stroke-width:1.5;" width="82" x="1164" y="676.4531"/><text fill="#000000" font-family="sans-serif" font-size="14" lengthAdjust="spacing" textLength="68" x="1171" y="696.4482">Company</text><rect fill="#FEFECE" filter="url(#fmfmls0wp3rcz)" height="30.2969" style="stroke:#A80036;stroke-width:1.5;" width="124" x="1405" y="53"/><text fill="#000000" font-family="sans-serif" font-size="14" lengthAdjust="spacing" textLength="110" x="1412" y="72.9951">store TestType</text><rect fill="#FEFECE" filter="url(#fmfmls0wp3rcz)" height="30.2969" style="stroke:#A80036;stroke-width:1.5;" width="124" x="1405" y="676.4531"/><text fill="#000000" font-family="sans-serif" font-size="14" lengthAdjust="spacing" textLength="110" x="1412" y="696.4482">store TestType</text><rect fill="#FEFECE" filter="url(#fmfmls0wp3rcz)" height="30.2969" style="stroke:#A80036;stroke-width:1.5;" width="102" x="1871" y="676.4531"/><text fill="#000000" font-family="sans-serif" font-size="14" lengthAdjust="spacing" textLength="88" x="1878" y="696.4482">t : TestType</text><rect fill="#FFFFFF" filter="url(#fmfmls0wp3rcz)" height="29.1328" style="stroke:#A80036;stroke-width:1.0;" width="10" x="515" y="119.4297"/><rect fill="#FFFFFF" filter="url(#fmfmls0wp3rcz)" height="220.9609" style="stroke:#A80036;stroke-width:1.0;" width="10" x="515" y="177.6953"/><rect fill="#FFFFFF" filter="url(#fmfmls0wp3rcz)" height="231.6641" style="stroke:#A80036;stroke-width:1.0;" width="10" x="515" y="427.7891"/><rect fill="#FFFFFF" filter="url(#fmfmls0wp3rcz)" height="162.6953" style="stroke:#A80036;stroke-width:1.0;" width="10" x="979" y="206.8281"/><rect fill="#FFFFFF" filter="url(#fmfmls0wp3rcz)" height="166.3984" style="stroke:#A80036;stroke-width:1.0;" width="10" x="979" y="456.9219"/><rect fill="#FFFFFF" filter="url(#fmfmls0wp3rcz)" height="29.1328" style="stroke:#A80036;stroke-width:1.0;" width="10" x="1202" y="206.8281"/><rect fill="#FFFFFF" filter="url(#fmfmls0wp3rcz)" height="29.1328" style="stroke:#A80036;stroke-width:1.0;" width="10" x="1464" y="265.0938"/><rect fill="#FFFFFF" filter="url(#fmfmls0wp3rcz)" height="30" style="stroke:#A80036;stroke-width:1.0;" width="10" x="1464" y="339.5234"/><rect fill="#FFFFFF" filter="url(#fmfmls0wp3rcz)" height="137.2656" style="stroke:#A80036;stroke-width:1.0;" width="10" x="1464" y="486.0547"/><rect fill="#FFFFFF" filter="url(#fmfmls0wp3rcz)" height="28" style="stroke:#A80036;stroke-width:1.0;" width="10" x="1469" y="523.1875"/><rect fill="#FFFFFF" filter="url(#fmfmls0wp3rcz)" height="28" style="stroke:#A80036;stroke-width:1.0;" width="10" x="1469" y="595.3203"/><polygon fill="#A80036" points="503,115.4297,513,119.4297,503,123.4297,507,119.4297" style="stroke:#A80036;stroke-width:1.0;"/><line style="stroke:#A80036;stroke-width:1.0;" x1="58" x2="509" y1="119.4297" y2="119.4297"/><text fill="#000000" font-family="sans-serif" font-size="13" font-weight="bold" lengthAdjust="spacing" textLength="9" x="65" y="114.3638">1</text><text fill="#000000" font-family="sans-serif" font-size="13" lengthAdjust="spacing" textLength="156" x="78" y="114.3638">specify new type of test</text><polygon fill="#A80036" points="69,144.5625,59,148.5625,69,152.5625,65,148.5625" style="stroke:#A80036;stroke-width:1.0;"/><line style="stroke:#A80036;stroke-width:1.0;stroke-dasharray:2.0,2.0;" x1="63" x2="519" y1="148.5625" y2="148.5625"/><text fill="#000000" font-family="sans-serif" font-size="13" font-weight="bold" lengthAdjust="spacing" textLength="9" x="75" y="143.4966">2</text><text fill="#000000" font-family="sans-serif" font-size="13" lengthAdjust="spacing" textLength="420" x="88" y="143.4966">request data(i.e code, description, collecting_method, categories)</text><polygon fill="#A80036" points="503,173.6953,513,177.6953,503,181.6953,507,177.6953" style="stroke:#A80036;stroke-width:1.0;"/><line style="stroke:#A80036;stroke-width:1.0;" x1="58" x2="509" y1="177.6953" y2="177.6953"/><text fill="#000000" font-family="sans-serif" font-size="13" font-weight="bold" lengthAdjust="spacing" textLength="8" x="65" y="172.6294">3</text><text fill="#000000" font-family="sans-serif" font-size="13" lengthAdjust="spacing" textLength="138" x="77" y="172.6294">types requested data</text><polygon fill="#A80036" points="967,202.8281,977,206.8281,967,210.8281,971,206.8281" style="stroke:#A80036;stroke-width:1.0;"/><line style="stroke:#A80036;stroke-width:1.0;" x1="525" x2="973" y1="206.8281" y2="206.8281"/><text fill="#000000" font-family="sans-serif" font-size="13" font-weight="bold" lengthAdjust="spacing" textLength="9" x="532" y="201.7622">4</text><text fill="#000000" font-family="sans-serif" font-size="13" lengthAdjust="spacing" textLength="422" x="545" y="201.7622">addTestType(i.e code, description, collecting_method, categories)</text><polygon fill="#A80036" points="1195,231.9609,1205,235.9609,1195,239.9609,1199,235.9609" style="stroke:#A80036;stroke-width:1.0;"/><line style="stroke:#A80036;stroke-width:1.0;" x1="989" x2="1201" y1="235.9609" y2="235.9609"/><text fill="#000000" font-family="sans-serif" font-size="13" font-weight="bold" lengthAdjust="spacing" textLength="9" x="996" y="230.895">5</text><text fill="#000000" font-family="sans-serif" font-size="13" lengthAdjust="spacing" textLength="176" x="1009" y="230.895">store = getTestTypeStore()</text><polygon fill="#A80036" points="1452,261.0938,1462,265.0938,1452,269.0938,1456,265.0938" style="stroke:#A80036;stroke-width:1.0;"/><line style="stroke:#A80036;stroke-width:1.0;" x1="989" x2="1458" y1="265.0938" y2="265.0938"/><text fill="#000000" font-family="sans-serif" font-size="13" font-weight="bold" lengthAdjust="spacing" textLength="9" x="996" y="260.0278">6</text><text fill="#000000" font-family="sans-serif" font-size="13" lengthAdjust="spacing" textLength="443" x="1009" y="260.0278">t = createTestType(code, description, collecting_method, categories)</text><polygon fill="#A80036" points="1859,290.2266,1869,294.2266,1859,298.2266,1863,294.2266" style="stroke:#A80036;stroke-width:1.0;"/><line style="stroke:#A80036;stroke-width:1.0;stroke-dasharray:2.0,2.0;" x1="1469" x2="1865" y1="294.2266" y2="294.2266"/><text fill="#000000" font-family="sans-serif" font-size="13" font-weight="bold" lengthAdjust="spacing" textLength="9" x="1476" y="289.1606">7</text><text fill="#000000" font-family="sans-serif" font-size="13" lengthAdjust="spacing" textLength="360" x="1489" y="289.1606">create(code, description, collecting_method, categories)</text><rect fill="#FEFECE" filter="url(#fmfmls0wp3rcz)" height="30.2969" style="stroke:#A80036;stroke-width:1.5;" width="102" x="1871" y="273.0938"/><text fill="#000000" font-family="sans-serif" font-size="14" lengthAdjust="spacing" textLength="88" x="1878" y="293.0889">t : TestType</text><polygon fill="#A80036" points="1452,335.5234,1462,339.5234,1452,343.5234,1456,339.5234" style="stroke:#A80036;stroke-width:1.0;"/><line style="stroke:#A80036;stroke-width:1.0;" x1="989" x2="1458" y1="339.5234" y2="339.5234"/><text fill="#000000" font-family="sans-serif" font-size="13" font-weight="bold" lengthAdjust="spacing" textLength="9" x="996" y="334.4575">8</text><text fill="#000000" font-family="sans-serif" font-size="13" lengthAdjust="spacing" textLength="126" x="1009" y="334.4575">validateTestType(t)</text><polygon fill="#A80036" points="69,394.6563,59,398.6563,69,402.6563,65,398.6563" style="stroke:#A80036;stroke-width:1.0;"/><line style="stroke:#A80036;stroke-width:1.0;" x1="63" x2="519" y1="398.6563" y2="398.6563"/><text fill="#000000" font-family="sans-serif" font-size="13" font-weight="bold" lengthAdjust="spacing" textLength="9" x="75" y="393.5903">9</text><text fill="#000000" font-family="sans-serif" font-size="13" lengthAdjust="spacing" textLength="272" x="88" y="393.5903">shows the data and requests confirmation</text><polygon fill="#A80036" points="503,423.7891,513,427.7891,503,431.7891,507,427.7891" style="stroke:#A80036;stroke-width:1.0;"/><line style="stroke:#A80036;stroke-width:1.0;" x1="58" x2="509" y1="427.7891" y2="427.7891"/><text fill="#000000" font-family="sans-serif" font-size="13" font-weight="bold" lengthAdjust="spacing" textLength="19" x="65" y="422.7231">10</text><text fill="#000000" font-family="sans-serif" font-size="13" lengthAdjust="spacing" textLength="114" x="88" y="422.7231">confirms the data</text><polygon fill="#A80036" points="967,452.9219,977,456.9219,967,460.9219,971,456.9219" style="stroke:#A80036;stroke-width:1.0;"/><line style="stroke:#A80036;stroke-width:1.0;" x1="525" x2="973" y1="456.9219" y2="456.9219"/><text fill="#000000" font-family="sans-serif" font-size="13" font-weight="bold" lengthAdjust="spacing" textLength="18" x="532" y="451.856">11</text><text fill="#000000" font-family="sans-serif" font-size="13" lengthAdjust="spacing" textLength="70" x="554" y="451.856">TestType()</text><polygon fill="#A80036" points="1452,482.0547,1462,486.0547,1452,490.0547,1456,486.0547" style="stroke:#A80036;stroke-width:1.0;"/><line style="stroke:#A80036;stroke-width:1.0;" x1="989" x2="1458" y1="486.0547" y2="486.0547"/><text fill="#000000" font-family="sans-serif" font-size="13" font-weight="bold" lengthAdjust="spacing" textLength="18" x="996" y="480.9888">12</text><text fill="#000000" font-family="sans-serif" font-size="13" lengthAdjust="spacing" textLength="75" x="1018" y="480.9888">TestType(t)</text><line style="stroke:#A80036;stroke-width:1.0;" x1="1479" x2="1521" y1="515.1875" y2="515.1875"/><line style="stroke:#A80036;stroke-width:1.0;" x1="1521" x2="1521" y1="515.1875" y2="528.1875"/><line style="stroke:#A80036;stroke-width:1.0;" x1="1480" x2="1521" y1="528.1875" y2="528.1875"/><polygon fill="#A80036" points="1490,524.1875,1480,528.1875,1490,532.1875,1486,528.1875" style="stroke:#A80036;stroke-width:1.0;"/><text fill="#000000" font-family="sans-serif" font-size="13" font-weight="bold" lengthAdjust="spacing" textLength="17" x="1486" y="510.1216">13</text><text fill="#000000" font-family="sans-serif" font-size="13" lengthAdjust="spacing" textLength="126" x="1507" y="510.1216">validateTestType(t)</text><line style="stroke:#A80036;stroke-width:1.0;" x1="1479" x2="1521" y1="587.3203" y2="587.3203"/><line style="stroke:#A80036;stroke-width:1.0;" x1="1521" x2="1521" y1="587.3203" y2="600.3203"/><line style="stroke:#A80036;stroke-width:1.0;" x1="1480" x2="1521" y1="600.3203" y2="600.3203"/><polygon fill="#A80036" points="1490,596.3203,1480,600.3203,1490,604.3203,1486,600.3203" style="stroke:#A80036;stroke-width:1.0;"/><text fill="#000000" font-family="sans-serif" font-size="13" font-weight="bold" lengthAdjust="spacing" textLength="18" x="1486" y="582.2544">14</text><text fill="#000000" font-family="sans-serif" font-size="13" lengthAdjust="spacing" textLength="99" x="1508" y="582.2544">addTestType(t)</text><polygon fill="#A80036" points="69,655.4531,59,659.4531,69,663.4531,65,659.4531" style="stroke:#A80036;stroke-width:1.0;"/><line style="stroke:#A80036;stroke-width:1.0;stroke-dasharray:2.0,2.0;" x1="63" x2="519" y1="659.4531" y2="659.4531"/><text fill="#000000" font-family="sans-serif" font-size="13" font-weight="bold" lengthAdjust="spacing" textLength="18" x="75" y="654.3872">15</text><text fill="#000000" font-family="sans-serif" font-size="13" lengthAdjust="spacing" textLength="176" x="97" y="654.3872">confirms operation success</text><!--MD5=[c9e8e9332b3a1cad30628714180c4293]
@startuml
autonumber
Actor Administrator

Administrator -> TestTypeUI: specify new type of test
activate TestTypeUI
TestTypeUI - -> Administrator: request data(i.e code, description, collecting_method, categories)
deactivate TestTypeUI

Administrator -> TestTypeUI: types requested data
activate TestTypeUI

TestTypeUI -> TestTypeController: addTestType(i.e code, description, collecting_method, categories)

activate TestTypeController

activate Company
TestTypeController -> Company: store = getTestTypeStore()
deactivate Company

participant "store TestType" as tt
TestTypeController -> tt: t = createTestType(code, description, collecting_method, categories)

create "t : TestType" as TestType
activate tt
tt - -> TestType : create(code, description, collecting_method, categories)
deactivate tt

TestTypeController -> tt: validateTestType(t)
activate tt
deactivate TestTypeController
deactivate tt

TestTypeUI -> Administrator: shows the data and requests confirmation
deactivate TestTypeUI

Administrator -> TestTypeUI: confirms the data

activate TestTypeUI
TestTypeUI -> TestTypeController: TestType()

activate TestTypeController
TestTypeController -> tt: TestType(t)

activate tt
tt -> tt: validateTestType(t)
activate tt
deactivate tt
tt -> tt: addTestType(t)
activate tt
deactivate tt
deactivate TestTypeController
deactivate tt

TestTypeUI - -> Administrator: confirms operation success
deactivate TestTypeUI
@enduml

PlantUML version 1.2021.6beta4(Unknown compile time)
(GPL source distribution)
Java Runtime: Java(TM) SE Runtime Environment
JVM: Java HotSpot(TM) 64-Bit Server VM
Default Encoding: UTF-8
Language: en
Country: US
--></g></svg>