<?xml version="1.0" encoding="UTF-8" standalone="no"?><svg xmlns="http://www.w3.org/2000/svg" xmlns:xlink="http://www.w3.org/1999/xlink" contentScriptType="application/ecmascript" contentStyleType="text/css" height="319px" preserveAspectRatio="none" style="width:589px;height:319px;background:#FFFFFF;" version="1.1" viewBox="0 0 589 319" width="589px" zoomAndPan="magnify"><defs><filter height="300%" id="flg7pi7ehh5oc" width="300%" x="-1" y="-1"><feGaussianBlur result="blurOut" stdDeviation="2.0"/><feColorMatrix in="blurOut" result="blurOut2" type="matrix" values="0 0 0 0 0 0 0 0 0 0 0 0 0 0 0 0 0 0 .4 0"/><feOffset dx="4.0" dy="4.0" in="blurOut2" result="blurOut3"/><feBlend in="SourceGraphic" in2="blurOut3" mode="normal"/></filter></defs><g><!--MD5=[02e4b9b7573f1156f41e60aa5b4e25a4]
class Company--><rect fill="#FEFECE" filter="url(#flg7pi7ehh5oc)" height="48" id="Company" style="stroke:#A80036;stroke-width:1.5;" width="89" x="160" y="7"/><ellipse cx="175" cy="23" fill="#ADD1B2" rx="11" ry="11" style="stroke:#A80036;stroke-width:1.0;"/><path d="M177.9688,28.6406 Q177.3906,28.9375 176.75,29.0781 Q176.1094,29.2344 175.4063,29.2344 Q172.9063,29.2344 171.5781,27.5938 Q170.2656,25.9375 170.2656,22.8125 Q170.2656,19.6875 171.5781,18.0313 Q172.9063,16.375 175.4063,16.375 Q176.1094,16.375 176.75,16.5313 Q177.4063,16.6875 177.9688,16.9844 L177.9688,19.7031 Q177.3438,19.125 176.75,18.8594 Q176.1563,18.5781 175.5313,18.5781 Q174.1875,18.5781 173.5,19.6563 Q172.8125,20.7188 172.8125,22.8125 Q172.8125,24.9063 173.5,25.9844 Q174.1875,27.0469 175.5313,27.0469 Q176.1563,27.0469 176.75,26.7813 Q177.3438,26.5 177.9688,25.9219 L177.9688,28.6406 Z " fill="#000000"/><text fill="#000000" font-family="sans-serif" font-size="12" lengthAdjust="spacing" textLength="57" x="189" y="27.1543">Company</text><line style="stroke:#A80036;stroke-width:1.5;" x1="161" x2="248" y1="39" y2="39"/><line style="stroke:#A80036;stroke-width:1.5;" x1="161" x2="248" y1="47" y2="47"/><!--MD5=[052425de1c0eb6cc1c1b48342b0bb88f]
class LaboratoryCoordinator--><rect fill="#FEFECE" filter="url(#flg7pi7ehh5oc)" height="48" id="LaboratoryCoordinator" style="stroke:#A80036;stroke-width:1.5;" width="173" x="118" y="132"/><ellipse cx="133" cy="148" fill="#ADD1B2" rx="11" ry="11" style="stroke:#A80036;stroke-width:1.0;"/><path d="M135.9688,153.6406 Q135.3906,153.9375 134.75,154.0781 Q134.1094,154.2344 133.4063,154.2344 Q130.9063,154.2344 129.5781,152.5938 Q128.2656,150.9375 128.2656,147.8125 Q128.2656,144.6875 129.5781,143.0313 Q130.9063,141.375 133.4063,141.375 Q134.1094,141.375 134.75,141.5313 Q135.4063,141.6875 135.9688,141.9844 L135.9688,144.7031 Q135.3438,144.125 134.75,143.8594 Q134.1563,143.5781 133.5313,143.5781 Q132.1875,143.5781 131.5,144.6563 Q130.8125,145.7188 130.8125,147.8125 Q130.8125,149.9063 131.5,150.9844 Q132.1875,152.0469 133.5313,152.0469 Q134.1563,152.0469 134.75,151.7813 Q135.3438,151.5 135.9688,150.9219 L135.9688,153.6406 Z " fill="#000000"/><text fill="#000000" font-family="sans-serif" font-size="12" lengthAdjust="spacing" textLength="141" x="147" y="152.1543">LaboratoryCoordinator</text><line style="stroke:#A80036;stroke-width:1.5;" x1="119" x2="290" y1="164" y2="164"/><line style="stroke:#A80036;stroke-width:1.5;" x1="119" x2="290" y1="172" y2="172"/><!--MD5=[55cb992be19579b505cea3c5691093cb]
class ClientStore--><rect fill="#FEFECE" filter="url(#flg7pi7ehh5oc)" height="48" id="ClientStore" style="stroke:#A80036;stroke-width:1.5;" width="101" x="7" y="257"/><ellipse cx="22" cy="273" fill="#ADD1B2" rx="11" ry="11" style="stroke:#A80036;stroke-width:1.0;"/><path d="M24.9688,278.6406 Q24.3906,278.9375 23.75,279.0781 Q23.1094,279.2344 22.4063,279.2344 Q19.9063,279.2344 18.5781,277.5938 Q17.2656,275.9375 17.2656,272.8125 Q17.2656,269.6875 18.5781,268.0313 Q19.9063,266.375 22.4063,266.375 Q23.1094,266.375 23.75,266.5313 Q24.4063,266.6875 24.9688,266.9844 L24.9688,269.7031 Q24.3438,269.125 23.75,268.8594 Q23.1563,268.5781 22.5313,268.5781 Q21.1875,268.5781 20.5,269.6563 Q19.8125,270.7188 19.8125,272.8125 Q19.8125,274.9063 20.5,275.9844 Q21.1875,277.0469 22.5313,277.0469 Q23.1563,277.0469 23.75,276.7813 Q24.3438,276.5 24.9688,275.9219 L24.9688,278.6406 Z " fill="#000000"/><text fill="#000000" font-family="sans-serif" font-size="12" lengthAdjust="spacing" textLength="69" x="36" y="277.1543">ClientStore</text><line style="stroke:#A80036;stroke-width:1.5;" x1="8" x2="107" y1="289" y2="289"/><line style="stroke:#A80036;stroke-width:1.5;" x1="8" x2="107" y1="297" y2="297"/><!--MD5=[0f6f7964b844a64b0496af0dda7914bd]
class TestStore--><rect fill="#FEFECE" filter="url(#flg7pi7ehh5oc)" height="48" id="TestStore" style="stroke:#A80036;stroke-width:1.5;" width="93" x="306" y="257"/><ellipse cx="321" cy="273" fill="#ADD1B2" rx="11" ry="11" style="stroke:#A80036;stroke-width:1.0;"/><path d="M323.9688,278.6406 Q323.3906,278.9375 322.75,279.0781 Q322.1094,279.2344 321.4063,279.2344 Q318.9063,279.2344 317.5781,277.5938 Q316.2656,275.9375 316.2656,272.8125 Q316.2656,269.6875 317.5781,268.0313 Q318.9063,266.375 321.4063,266.375 Q322.1094,266.375 322.75,266.5313 Q323.4063,266.6875 323.9688,266.9844 L323.9688,269.7031 Q323.3438,269.125 322.75,268.8594 Q322.1563,268.5781 321.5313,268.5781 Q320.1875,268.5781 319.5,269.6563 Q318.8125,270.7188 318.8125,272.8125 Q318.8125,274.9063 319.5,275.9844 Q320.1875,277.0469 321.5313,277.0469 Q322.1563,277.0469 322.75,276.7813 Q323.3438,276.5 323.9688,275.9219 L323.9688,278.6406 Z " fill="#000000"/><text fill="#000000" font-family="sans-serif" font-size="12" lengthAdjust="spacing" textLength="61" x="335" y="277.1543">TestStore</text><line style="stroke:#A80036;stroke-width:1.5;" x1="307" x2="398" y1="289" y2="289"/><line style="stroke:#A80036;stroke-width:1.5;" x1="307" x2="398" y1="297" y2="297"/><!--MD5=[baa6ff38ec20def42e063e01f85f91ae]
link Company to LaboratoryCoordinator--><path codeLine="1" d="M204.5,55.1013 C204.5,77.2359 204.5,109.8615 204.5,131.9727 " fill="none" id="Company-LaboratoryCoordinator" style="stroke:#A80036;stroke-width:1.0;"/><text fill="#000000" font-family="sans-serif" font-size="13" lengthAdjust="spacing" textLength="23" x="205.5" y="98.0669">has</text><text fill="#000000" font-family="sans-serif" font-size="13" lengthAdjust="spacing" textLength="8" x="195.525" y="74.8872">1</text><text fill="#000000" font-family="sans-serif" font-size="13" lengthAdjust="spacing" textLength="15" x="187.5781" y="120.9777">1*</text><!--MD5=[e82810048cd8b40ed71921d00fa42dc9]
link LaboratoryCoordinator to ClientStore--><path codeLine="2" d="M117.8148,177.9208 C89.3368,186.9981 62.8156,198.1683 54.5,210 C45.0648,223.4247 46.2431,242.0641 49.5535,256.8763 " fill="none" id="LaboratoryCoordinator-ClientStore" style="stroke:#A80036;stroke-width:1.0;"/><text fill="#000000" font-family="sans-serif" font-size="13" lengthAdjust="spacing" textLength="253" x="55.5" y="223.0669">uses data from to analyse performance</text><text fill="#000000" font-family="sans-serif" font-size="13" lengthAdjust="spacing" textLength="8" x="102.0215" y="176.2327">1</text><!--MD5=[d77cb7f389ecff16ed825f332c510341]
link LaboratoryCoordinator to TestStore--><path codeLine="3" d="M269.2197,180.034 C284.9395,187.93 300.846,197.8706 313.5,210 C327.1046,223.0406 337.1524,241.8823 343.6394,256.8793 " fill="none" id="LaboratoryCoordinator-TestStore" style="stroke:#A80036;stroke-width:1.0;"/><text fill="#000000" font-family="sans-serif" font-size="13" lengthAdjust="spacing" textLength="253" x="328.5" y="223.0669">uses data from to analyse performance</text><text fill="#000000" font-family="sans-serif" font-size="13" lengthAdjust="spacing" textLength="8" x="276.7791" y="200.1985">1</text><!--MD5=[a7839061e456e330e687866f1d446bad]
@startuml
Company "1" - - "1*" LaboratoryCoordinator: has 
LaboratoryCoordinator "1" - - ClientStore: uses data from to analyse performance
LaboratoryCoordinator "1" - - TestStore: uses data from to analyse performance
@enduml

PlantUML version 1.2021.7(Sun May 23 12:40:07 UTC 2021)
(GPL source distribution)
Java Runtime: OpenJDK Runtime Environment
JVM: OpenJDK 64-Bit Server VM
Default Encoding: UTF-8
Language: en
Country: US
--></g></svg>