<?xml version="1.0" encoding="UTF-8" standalone="no"?><svg xmlns="http://www.w3.org/2000/svg" xmlns:xlink="http://www.w3.org/1999/xlink" contentScriptType="application/ecmascript" contentStyleType="text/css" height="983px" preserveAspectRatio="none" style="width:1155px;height:983px;background:#FFFFFF;" version="1.1" viewBox="0 0 1155 983" width="1155px" zoomAndPan="magnify"><defs><filter height="300%" id="f6hcludf6gzze" width="300%" x="-1" y="-1"><feGaussianBlur result="blurOut" stdDeviation="2.0"/><feColorMatrix in="blurOut" result="blurOut2" type="matrix" values="0 0 0 0 0 0 0 0 0 0 0 0 0 0 0 0 0 0 .4 0"/><feOffset dx="4.0" dy="4.0" in="blurOut2" result="blurOut3"/><feBlend in="SourceGraphic" in2="blurOut3" mode="normal"/></filter></defs><g><!--MD5=[9681dc6e01e10c6b4fe06895ae94f592]
cluster UI--><polygon fill="#FFFFFF" filter="url(#f6hcludf6gzze)" points="494,6,515,6,522,28.2969,634,28.2969,634,89,494,89,494,6" style="stroke:#000000;stroke-width:1.5;"/><line style="stroke:#000000;stroke-width:1.5;" x1="494" x2="522" y1="28.2969" y2="28.2969"/><text fill="#000000" font-family="sans-serif" font-size="14" font-weight="bold" lengthAdjust="spacing" textLength="15" x="498" y="20.9951">UI</text><!--MD5=[1f2cfc53d9d308f53762fd0fcbaa4873]
cluster Controller--><polygon fill="#FFFFFF" filter="url(#f6hcludf6gzze)" points="384,114,469,114,476,136.2969,744,136.2969,744,479,384,479,384,114" style="stroke:#000000;stroke-width:1.5;"/><line style="stroke:#000000;stroke-width:1.5;" x1="384" x2="476" y1="136.2969" y2="136.2969"/><text fill="#000000" font-family="sans-serif" font-size="14" font-weight="bold" lengthAdjust="spacing" textLength="79" x="388" y="128.9951">Controller</text><!--MD5=[27f772719433d509ddbc20ff768eba08]
cluster domain--><polygon fill="#FFFFFF" filter="url(#f6hcludf6gzze)" points="16,504,79,504,86,526.2969,646,526.2969,646,702,16,702,16,504" style="stroke:#000000;stroke-width:1.5;"/><line style="stroke:#000000;stroke-width:1.5;" x1="16" x2="86" y1="526.2969" y2="526.2969"/><text fill="#000000" font-family="sans-serif" font-size="14" font-weight="bold" lengthAdjust="spacing" textLength="57" x="20" y="518.9951">domain</text><!--MD5=[0fe2db739ef5a827c28d3107ca79b0f8]
cluster Mapper&DTO--><polygon fill="#FFFFFF" filter="url(#f6hcludf6gzze)" points="654,542.5,765,542.5,772,564.7969,1138,564.7969,1138,976,654,976,654,542.5" style="stroke:#000000;stroke-width:1.5;"/><line style="stroke:#000000;stroke-width:1.5;" x1="654" x2="772" y1="564.7969" y2="564.7969"/><text fill="#000000" font-family="sans-serif" font-size="14" font-weight="bold" lengthAdjust="spacing" textLength="105" x="658" y="557.4951">Mapper&amp;DTO</text><!--MD5=[9fb6dac11bbde13a6b7e8c4e5ea77cec]
class PerformanceUI--><rect codeLine="2" fill="#FEFECE" filter="url(#f6hcludf6gzze)" height="48" id="PerformanceUI" style="stroke:#A80036;stroke-width:1.5;" width="124" x="502" y="33"/><ellipse cx="517" cy="49" fill="#ADD1B2" rx="11" ry="11" style="stroke:#A80036;stroke-width:1.0;"/><path d="M519.9688,54.6406 Q519.3906,54.9375 518.75,55.0781 Q518.1094,55.2344 517.4063,55.2344 Q514.9063,55.2344 513.5781,53.5938 Q512.2656,51.9375 512.2656,48.8125 Q512.2656,45.6875 513.5781,44.0313 Q514.9063,42.375 517.4063,42.375 Q518.1094,42.375 518.75,42.5313 Q519.4063,42.6875 519.9688,42.9844 L519.9688,45.7031 Q519.3438,45.125 518.75,44.8594 Q518.1563,44.5781 517.5313,44.5781 Q516.1875,44.5781 515.5,45.6563 Q514.8125,46.7188 514.8125,48.8125 Q514.8125,50.9063 515.5,51.9844 Q516.1875,53.0469 517.5313,53.0469 Q518.1563,53.0469 518.75,52.7813 Q519.3438,52.5 519.9688,51.9219 L519.9688,54.6406 Z " fill="#000000"/><text fill="#000000" font-family="sans-serif" font-size="12" lengthAdjust="spacing" textLength="92" x="531" y="53.1543">PerformanceUI</text><line style="stroke:#A80036;stroke-width:1.5;" x1="503" x2="625" y1="65" y2="65"/><line style="stroke:#A80036;stroke-width:1.5;" x1="503" x2="625" y1="73" y2="73"/><!--MD5=[61635451a40aa5589ddd4cd28847754f]
class PerformanceController--><rect codeLine="8" fill="#FEFECE" filter="url(#f6hcludf6gzze)" height="329.7031" id="PerformanceController" style="stroke:#A80036;stroke-width:1.5;" width="345" x="391.5" y="141"/><ellipse cx="489.25" cy="157" fill="#ADD1B2" rx="11" ry="11" style="stroke:#A80036;stroke-width:1.0;"/><path d="M492.2188,162.6406 Q491.6406,162.9375 491,163.0781 Q490.3594,163.2344 489.6563,163.2344 Q487.1563,163.2344 485.8281,161.5938 Q484.5156,159.9375 484.5156,156.8125 Q484.5156,153.6875 485.8281,152.0313 Q487.1563,150.375 489.6563,150.375 Q490.3594,150.375 491,150.5313 Q491.6563,150.6875 492.2188,150.9844 L492.2188,153.7031 Q491.5938,153.125 491,152.8594 Q490.4063,152.5781 489.7813,152.5781 Q488.4375,152.5781 487.75,153.6563 Q487.0625,154.7188 487.0625,156.8125 Q487.0625,158.9063 487.75,159.9844 Q488.4375,161.0469 489.7813,161.0469 Q490.4063,161.0469 491,160.7813 Q491.5938,160.5 492.2188,159.9219 L492.2188,162.6406 Z " fill="#000000"/><text fill="#000000" font-family="sans-serif" font-size="12" lengthAdjust="spacing" textLength="141" x="509.75" y="161.1543">PerformanceController</text><line style="stroke:#A80036;stroke-width:1.5;" x1="392.5" x2="735.5" y1="173" y2="173"/><rect fill="none" height="6" style="stroke:#C82930;stroke-width:1.0;" width="6" x="399.5" y="181"/><text fill="#000000" font-family="sans-serif" font-size="11" lengthAdjust="spacing" textLength="21" x="411.5" y="187.2104">app</text><rect fill="none" height="6" style="stroke:#C82930;stroke-width:1.0;" width="6" x="399.5" y="193.8047"/><text fill="#000000" font-family="sans-serif" font-size="11" lengthAdjust="spacing" textLength="51" x="411.5" y="200.0151">company</text><rect fill="none" height="6" style="stroke:#C82930;stroke-width:1.0;" width="6" x="399.5" y="206.6094"/><text fill="#000000" font-family="sans-serif" font-size="11" lengthAdjust="spacing" textLength="61" x="411.5" y="212.8198">clientStore</text><rect fill="none" height="6" style="stroke:#C82930;stroke-width:1.0;" width="6" x="399.5" y="219.4141"/><text fill="#000000" font-family="sans-serif" font-size="11" lengthAdjust="spacing" textLength="53" x="411.5" y="225.6245">testStore</text><rect fill="none" height="6" style="stroke:#C82930;stroke-width:1.0;" width="6" x="399.5" y="232.2188"/><text fill="#000000" font-family="sans-serif" font-size="11" lengthAdjust="spacing" textLength="83" x="411.5" y="238.4292">numberClients</text><rect fill="none" height="6" style="stroke:#C82930;stroke-width:1.0;" width="6" x="399.5" y="245.0234"/><text fill="#000000" font-family="sans-serif" font-size="11" lengthAdjust="spacing" textLength="158" x="411.5" y="251.2339">numberTestsWaitingResults</text><rect fill="none" height="6" style="stroke:#C82930;stroke-width:1.0;" width="6" x="399.5" y="257.8281"/><text fill="#000000" font-family="sans-serif" font-size="11" lengthAdjust="spacing" textLength="172" x="411.5" y="264.0386">numberTestsWaitingDiagnosis</text><rect fill="none" height="6" style="stroke:#C82930;stroke-width:1.0;" width="6" x="399.5" y="270.6328"/><text fill="#000000" font-family="sans-serif" font-size="11" lengthAdjust="spacing" textLength="136" x="411.5" y="276.8433">numberTestsProcessed</text><rect fill="none" height="6" style="stroke:#C82930;stroke-width:1.0;" width="6" x="399.5" y="283.4375"/><text fill="#000000" font-family="sans-serif" font-size="11" lengthAdjust="spacing" textLength="201" x="411.5" y="289.6479">TEST_STATE_SAMPLES_COLLECTED</text><rect fill="none" height="6" style="stroke:#C82930;stroke-width:1.0;" width="6" x="399.5" y="296.2422"/><text fill="#000000" font-family="sans-serif" font-size="11" lengthAdjust="spacing" textLength="194" x="411.5" y="302.4526">TEST_STATE_SAMPLES_ANALYZED</text><rect fill="none" height="6" style="stroke:#C82930;stroke-width:1.0;" width="6" x="399.5" y="309.0469"/><text fill="#000000" font-family="sans-serif" font-size="11" lengthAdjust="spacing" textLength="146" x="411.5" y="315.2573">TEST_STATE_PROCESSED</text><rect fill="none" height="6" style="stroke:#C82930;stroke-width:1.0;" width="6" x="399.5" y="321.8516"/><text fill="#000000" font-family="sans-serif" font-size="11" lengthAdjust="spacing" textLength="55" x="411.5" y="328.062">sumArray</text><rect fill="none" height="6" style="stroke:#C82930;stroke-width:1.0;" width="6" x="399.5" y="334.6563"/><text fill="#000000" font-family="sans-serif" font-size="11" lengthAdjust="spacing" textLength="86" x="411.5" y="340.8667">arrayToAnalyze</text><rect fill="none" height="6" style="stroke:#C82930;stroke-width:1.0;" width="6" x="399.5" y="347.4609"/><text fill="#000000" font-family="sans-serif" font-size="11" lengthAdjust="spacing" textLength="44" x="411.5" y="353.6714">mapper</text><rect fill="none" height="6" style="stroke:#C82930;stroke-width:1.0;" width="6" x="399.5" y="360.2656"/><text fill="#000000" font-family="sans-serif" font-size="11" lengthAdjust="spacing" textLength="18" x="411.5" y="366.4761">dto</text><line style="stroke:#A80036;stroke-width:1.5;" x1="392.5" x2="735.5" y1="373.0703" y2="373.0703"/><ellipse cx="402.5" cy="384.0703" fill="#84BE84" rx="3" ry="3" style="stroke:#038048;stroke-width:1.0;"/><text fill="#000000" font-family="sans-serif" font-size="11" lengthAdjust="spacing" textLength="137" x="411.5" y="387.2808">PerformanceController()</text><ellipse cx="402.5" cy="396.875" fill="#84BE84" rx="3" ry="3" style="stroke:#038048;stroke-width:1.0;"/><text fill="#000000" font-family="sans-serif" font-size="11" lengthAdjust="spacing" textLength="319" x="411.5" y="400.0854">getData(String dateBeginning, String dateEnd, int index)</text><ellipse cx="402.5" cy="409.6797" fill="#84BE84" rx="3" ry="3" style="stroke:#038048;stroke-width:1.0;"/><text fill="#000000" font-family="sans-serif" font-size="11" lengthAdjust="spacing" textLength="313" x="411.5" y="412.8901">getSequenceList(String dateBeginning, String dateEnd)</text><ellipse cx="402.5" cy="422.4844" fill="#84BE84" rx="3" ry="3" style="stroke:#038048;stroke-width:1.0;"/><text fill="#000000" font-family="sans-serif" font-size="11" lengthAdjust="spacing" textLength="123" x="411.5" y="425.6948">getNumberOfClients()</text><ellipse cx="402.5" cy="435.2891" fill="#84BE84" rx="3" ry="3" style="stroke:#038048;stroke-width:1.0;"/><text fill="#000000" font-family="sans-serif" font-size="11" lengthAdjust="spacing" textLength="193" x="411.5" y="438.4995">getNumberTests(String testState)</text><ellipse cx="402.5" cy="448.0938" fill="#84BE84" rx="3" ry="3" style="stroke:#038048;stroke-width:1.0;"/><text fill="#000000" font-family="sans-serif" font-size="11" lengthAdjust="spacing" textLength="196" x="411.5" y="451.3042">getAlgorithm(int index, int[] array )</text><ellipse cx="402.5" cy="460.8984" fill="#84BE84" rx="3" ry="3" style="stroke:#038048;stroke-width:1.0;"/><text fill="#000000" font-family="sans-serif" font-size="11" lengthAdjust="spacing" textLength="64" x="411.5" y="464.1089">showData()</text><!--MD5=[55cb992be19579b505cea3c5691093cb]
class ClientStore--><rect codeLine="36" fill="#FEFECE" filter="url(#f6hcludf6gzze)" height="60.8047" id="ClientStore" style="stroke:#A80036;stroke-width:1.5;" width="149" x="489.5" y="582"/><ellipse cx="526.1" cy="598" fill="#ADD1B2" rx="11" ry="11" style="stroke:#A80036;stroke-width:1.0;"/><path d="M529.0688,603.6406 Q528.4906,603.9375 527.85,604.0781 Q527.2094,604.2344 526.5063,604.2344 Q524.0063,604.2344 522.6781,602.5938 Q521.3656,600.9375 521.3656,597.8125 Q521.3656,594.6875 522.6781,593.0313 Q524.0063,591.375 526.5063,591.375 Q527.2094,591.375 527.85,591.5313 Q528.5063,591.6875 529.0688,591.9844 L529.0688,594.7031 Q528.4438,594.125 527.85,593.8594 Q527.2563,593.5781 526.6313,593.5781 Q525.2875,593.5781 524.6,594.6563 Q523.9125,595.7188 523.9125,597.8125 Q523.9125,599.9063 524.6,600.9844 Q525.2875,602.0469 526.6313,602.0469 Q527.2563,602.0469 527.85,601.7813 Q528.4438,601.5 529.0688,600.9219 L529.0688,603.6406 Z " fill="#000000"/><text fill="#000000" font-family="sans-serif" font-size="12" lengthAdjust="spacing" textLength="69" x="544.9" y="602.1543">ClientStore</text><line style="stroke:#A80036;stroke-width:1.5;" x1="490.5" x2="637.5" y1="614" y2="614"/><line style="stroke:#A80036;stroke-width:1.5;" x1="490.5" x2="637.5" y1="622" y2="622"/><ellipse cx="500.5" cy="633" fill="#84BE84" rx="3" ry="3" style="stroke:#038048;stroke-width:1.0;"/><text fill="#000000" font-family="sans-serif" font-size="11" lengthAdjust="spacing" textLength="123" x="509.5" y="636.2104">getNumberOfClients()</text><!--MD5=[0f6f7964b844a64b0496af0dda7914bd]
class TestStore--><rect codeLine="42" fill="#FEFECE" filter="url(#f6hcludf6gzze)" height="163.2422" id="TestStore" style="stroke:#A80036;stroke-width:1.5;" width="430" x="24" y="531"/><ellipse cx="204.25" cy="547" fill="#ADD1B2" rx="11" ry="11" style="stroke:#A80036;stroke-width:1.0;"/><path d="M207.2188,552.6406 Q206.6406,552.9375 206,553.0781 Q205.3594,553.2344 204.6563,553.2344 Q202.1563,553.2344 200.8281,551.5938 Q199.5156,549.9375 199.5156,546.8125 Q199.5156,543.6875 200.8281,542.0313 Q202.1563,540.375 204.6563,540.375 Q205.3594,540.375 206,540.5313 Q206.6563,540.6875 207.2188,540.9844 L207.2188,543.7031 Q206.5938,543.125 206,542.8594 Q205.4063,542.5781 204.7813,542.5781 Q203.4375,542.5781 202.75,543.6563 Q202.0625,544.7188 202.0625,546.8125 Q202.0625,548.9063 202.75,549.9844 Q203.4375,551.0469 204.7813,551.0469 Q205.4063,551.0469 206,550.7813 Q206.5938,550.5 207.2188,549.9219 L207.2188,552.6406 Z " fill="#000000"/><text fill="#000000" font-family="sans-serif" font-size="12" lengthAdjust="spacing" textLength="61" x="224.75" y="551.1543">TestStore</text><line style="stroke:#A80036;stroke-width:1.5;" x1="25" x2="453" y1="563" y2="563"/><line style="stroke:#A80036;stroke-width:1.5;" x1="25" x2="453" y1="571" y2="571"/><ellipse cx="35" cy="582" fill="#84BE84" rx="3" ry="3" style="stroke:#038048;stroke-width:1.0;"/><text fill="#000000" font-family="sans-serif" font-size="11" lengthAdjust="spacing" textLength="206" x="44" y="585.2104">getNumberOfTests(String testState)</text><ellipse cx="35" cy="594.8047" fill="#84BE84" rx="3" ry="3" style="stroke:#038048;stroke-width:1.0;"/><text fill="#000000" font-family="sans-serif" font-size="11" lengthAdjust="spacing" textLength="313" x="44" y="598.0151">getSequenceList(String dateBeginning, String dateEnd)</text><rect fill="#F24D5C" height="6" style="stroke:#C82930;stroke-width:1.0;" width="6" x="32" y="604.6094"/><text fill="#000000" font-family="sans-serif" font-size="11" lengthAdjust="spacing" textLength="175" x="44" y="610.8198">IntegerToInt(List&lt;Integer&gt; list)</text><rect fill="#F24D5C" height="6" style="stroke:#C82930;stroke-width:1.0;" width="6" x="32" y="617.4141"/><text fill="#000000" font-family="sans-serif" font-size="11" lengthAdjust="spacing" textLength="145" x="44" y="623.6245">addDayToDate(Date date)</text><rect fill="#F24D5C" height="6" style="stroke:#C82930;stroke-width:1.0;" width="6" x="32" y="630.2188"/><text fill="#000000" font-family="sans-serif" font-size="11" lengthAdjust="spacing" textLength="168" x="44" y="636.4292">addMinutesToDate(Date date)</text><ellipse cx="35" cy="646.0234" fill="#84BE84" rx="3" ry="3" style="stroke:#038048;stroke-width:1.0;"/><text fill="#000000" font-family="sans-serif" font-size="11" lengthAdjust="spacing" textLength="404" x="44" y="649.2339">getNumberOfRegisteredTestsDate(Date intervalBegin,Date intervalEnd)</text><ellipse cx="35" cy="658.8281" fill="#84BE84" rx="3" ry="3" style="stroke:#038048;stroke-width:1.0;"/><text fill="#000000" font-family="sans-serif" font-size="11" lengthAdjust="spacing" textLength="393" x="44" y="662.0386">getNumberOfAvailableTestsDate(Date intervalBegin,Date intervalEnd)</text><rect fill="#F24D5C" height="6" style="stroke:#C82930;stroke-width:1.0;" width="6" x="32" y="668.6328"/><text fill="#000000" font-family="sans-serif" font-size="11" lengthAdjust="spacing" textLength="179" x="44" y="674.8433">StringToDate(String stringDate)</text><rect fill="#F24D5C" height="6" style="stroke:#C82930;stroke-width:1.0;" width="6" x="32" y="681.4375"/><text fill="#000000" font-family="sans-serif" font-size="11" lengthAdjust="spacing" textLength="261" x="44" y="687.6479">getNumberOfDays(String dateB, String dateE)</text><!--MD5=[21d5fa1fccb508a8516cd496323303ff]
class StatisticMapper--><rect codeLine="56" fill="#FEFECE" filter="url(#f6hcludf6gzze)" height="86.4141" id="StatisticMapper" style="stroke:#A80036;stroke-width:1.5;" width="368" x="693" y="569.5"/><ellipse cx="823.75" cy="585.5" fill="#ADD1B2" rx="11" ry="11" style="stroke:#A80036;stroke-width:1.0;"/><path d="M826.7188,591.1406 Q826.1406,591.4375 825.5,591.5781 Q824.8594,591.7344 824.1563,591.7344 Q821.6563,591.7344 820.3281,590.0938 Q819.0156,588.4375 819.0156,585.3125 Q819.0156,582.1875 820.3281,580.5313 Q821.6563,578.875 824.1563,578.875 Q824.8594,578.875 825.5,579.0313 Q826.1563,579.1875 826.7188,579.4844 L826.7188,582.2031 Q826.0938,581.625 825.5,581.3594 Q824.9063,581.0781 824.2813,581.0781 Q822.9375,581.0781 822.25,582.1563 Q821.5625,583.2188 821.5625,585.3125 Q821.5625,587.4063 822.25,588.4844 Q822.9375,589.5469 824.2813,589.5469 Q824.9063,589.5469 825.5,589.2813 Q826.0938,589 826.7188,588.4219 L826.7188,591.1406 Z " fill="#000000"/><text fill="#000000" font-family="sans-serif" font-size="12" lengthAdjust="spacing" textLength="98" x="844.25" y="589.6543">StatisticMapper</text><line style="stroke:#A80036;stroke-width:1.5;" x1="694" x2="1060" y1="601.5" y2="601.5"/><text fill="#000000" font-family="sans-serif" font-size="11" lengthAdjust="spacing" textLength="356" x="699" y="615.7104">int numberTestsWaitingDiagnosis, int numberTestsProcessed,</text><line style="stroke:#A80036;stroke-width:1.5;" x1="694" x2="1060" y1="622.3047" y2="622.3047"/><ellipse cx="704" cy="633.3047" fill="#84BE84" rx="3" ry="3" style="stroke:#038048;stroke-width:1.0;"/><text fill="#000000" font-family="sans-serif" font-size="11" lengthAdjust="spacing" textLength="328" x="713" y="636.5151">toDTO(int numberClients, int numberTestsWaitingResults,</text><text fill="#000000" font-family="sans-serif" font-size="11" lengthAdjust="spacing" textLength="85" x="713" y="649.3198">int[] sumArray)</text><!--MD5=[1335998693ce3e0e8f1f31026896dc4d]
class StatisticDTO--><rect codeLine="63" fill="#FEFECE" filter="url(#f6hcludf6gzze)" height="214.4609" id="StatisticDTO" style="stroke:#A80036;stroke-width:1.5;" width="467" x="662.5" y="754"/><ellipse cx="853.75" cy="770" fill="#ADD1B2" rx="11" ry="11" style="stroke:#A80036;stroke-width:1.0;"/><path d="M856.7188,775.6406 Q856.1406,775.9375 855.5,776.0781 Q854.8594,776.2344 854.1563,776.2344 Q851.6563,776.2344 850.3281,774.5938 Q849.0156,772.9375 849.0156,769.8125 Q849.0156,766.6875 850.3281,765.0313 Q851.6563,763.375 854.1563,763.375 Q854.8594,763.375 855.5,763.5313 Q856.1563,763.6875 856.7188,763.9844 L856.7188,766.7031 Q856.0938,766.125 855.5,765.8594 Q854.9063,765.5781 854.2813,765.5781 Q852.9375,765.5781 852.25,766.6563 Q851.5625,767.7188 851.5625,769.8125 Q851.5625,771.9063 852.25,772.9844 Q852.9375,774.0469 854.2813,774.0469 Q854.9063,774.0469 855.5,773.7813 Q856.0938,773.5 856.7188,772.9219 L856.7188,775.6406 Z " fill="#000000"/><text fill="#000000" font-family="sans-serif" font-size="12" lengthAdjust="spacing" textLength="76" x="874.25" y="774.1543">StatisticDTO</text><line style="stroke:#A80036;stroke-width:1.5;" x1="663.5" x2="1128.5" y1="786" y2="786"/><rect fill="none" height="6" style="stroke:#C82930;stroke-width:1.0;" width="6" x="670.5" y="794"/><text fill="#000000" font-family="sans-serif" font-size="11" lengthAdjust="spacing" textLength="83" x="682.5" y="800.2104">numberClients</text><rect fill="none" height="6" style="stroke:#C82930;stroke-width:1.0;" width="6" x="670.5" y="806.8047"/><text fill="#000000" font-family="sans-serif" font-size="11" lengthAdjust="spacing" textLength="158" x="682.5" y="813.0151">numberTestsWaitingResults</text><rect fill="none" height="6" style="stroke:#C82930;stroke-width:1.0;" width="6" x="670.5" y="819.6094"/><text fill="#000000" font-family="sans-serif" font-size="11" lengthAdjust="spacing" textLength="172" x="682.5" y="825.8198">numberTestsWaitingDiagnosis</text><rect fill="none" height="6" style="stroke:#C82930;stroke-width:1.0;" width="6" x="670.5" y="832.4141"/><text fill="#000000" font-family="sans-serif" font-size="11" lengthAdjust="spacing" textLength="136" x="682.5" y="838.6245">numberTestsProcessed</text><rect fill="none" height="6" style="stroke:#C82930;stroke-width:1.0;" width="6" x="670.5" y="845.2188"/><text fill="#000000" font-family="sans-serif" font-size="11" lengthAdjust="spacing" textLength="55" x="682.5" y="851.4292">sumArray</text><line style="stroke:#A80036;stroke-width:1.5;" x1="663.5" x2="1128.5" y1="858.0234" y2="858.0234"/><ellipse cx="673.5" cy="869.0234" fill="#84BE84" rx="3" ry="3" style="stroke:#038048;stroke-width:1.0;"/><text fill="#000000" font-family="sans-serif" font-size="11" lengthAdjust="spacing" textLength="363" x="682.5" y="872.2339">StatisticDTO(int numberClients, int numberTestsWaitingResults,</text><text fill="#000000" font-family="sans-serif" font-size="11" lengthAdjust="spacing" textLength="441" x="682.5" y="885.0386">int numberTestsWaitingDiagnosis, int numberTestsProcessed,int[] sumArray)</text><ellipse cx="673.5" cy="894.6328" fill="#84BE84" rx="3" ry="3" style="stroke:#038048;stroke-width:1.0;"/><text fill="#000000" font-family="sans-serif" font-size="11" lengthAdjust="spacing" textLength="110" x="682.5" y="897.8433">getNumberClients()</text><ellipse cx="673.5" cy="907.4375" fill="#84BE84" rx="3" ry="3" style="stroke:#038048;stroke-width:1.0;"/><text fill="#000000" font-family="sans-serif" font-size="11" lengthAdjust="spacing" textLength="185" x="682.5" y="910.6479">getNumberTestsWaitingResults()</text><ellipse cx="673.5" cy="920.2422" fill="#84BE84" rx="3" ry="3" style="stroke:#038048;stroke-width:1.0;"/><text fill="#000000" font-family="sans-serif" font-size="11" lengthAdjust="spacing" textLength="199" x="682.5" y="923.4526">getNumberTestsWaitingDiagnosis()</text><ellipse cx="673.5" cy="933.0469" fill="#84BE84" rx="3" ry="3" style="stroke:#038048;stroke-width:1.0;"/><text fill="#000000" font-family="sans-serif" font-size="11" lengthAdjust="spacing" textLength="163" x="682.5" y="936.2573">getNumberTestsProcessed()</text><ellipse cx="673.5" cy="945.8516" fill="#84BE84" rx="3" ry="3" style="stroke:#038048;stroke-width:1.0;"/><text fill="#000000" font-family="sans-serif" font-size="11" lengthAdjust="spacing" textLength="82" x="682.5" y="949.062">getSumArray()</text><ellipse cx="673.5" cy="958.6563" fill="#84BE84" rx="3" ry="3" style="stroke:#038048;stroke-width:1.0;"/><text fill="#000000" font-family="sans-serif" font-size="11" lengthAdjust="spacing" textLength="53" x="682.5" y="961.8667">toString()</text><!--MD5=[02655fe311d5bf0e31cca58a2df6e816]
link PerformanceUI to PerformanceController--><path codeLine="84" d="M564,81.3285 C564,96.5639 564,117.6745 564,140.9021 " fill="none" id="PerformanceUI-PerformanceController" style="stroke:#A80036;stroke-width:1.0;"/><!--MD5=[bbd1e29a3ab8f784ac5b7071a8824d9f]
link PerformanceController to TestStore--><path codeLine="85" d="M391.0328,469.1214 C368.294,490.5658 345.8296,511.7515 325.4306,530.9893 " fill="none" id="PerformanceController-TestStore" style="stroke:#A80036;stroke-width:1.0;"/><!--MD5=[f007d9c6bd789e513d2d526668e6c3d5]
link PerformanceController to ClientStore--><path codeLine="86" d="M564,471.3611 C564,513.7726 564,554.9393 564,581.7592 " fill="none" id="PerformanceController-ClientStore" style="stroke:#A80036;stroke-width:1.0;"/><!--MD5=[15e3b5570f4a6853c0d50124d811dab3]
link PerformanceController to StatisticMapper--><path codeLine="87" d="M732.8679,471.3611 C769.971,507.6936 806.1411,543.1126 832.9665,569.381 " fill="none" id="PerformanceController-StatisticMapper" style="stroke:#A80036;stroke-width:1.0;"/><!--MD5=[d649b7762fdfb948512f1fefca636874]
link StatisticMapper to StatisticDTO--><path codeLine="88" d="M880.2879,655.5017 C882.3696,682.7288 885.1601,719.225 887.8115,753.9036 " fill="none" id="StatisticMapper-StatisticDTO" style="stroke:#A80036;stroke-width:1.0;"/><!--MD5=[adb8493a85894161e9a93384efcb28f5]
@startuml
package UI{
 class PerformanceUI {

} 
}

package Controller{
 class PerformanceController {
  -app
  -company
  -clientStore
  -testStore
  -numberClients
  -numberTestsWaitingResults
  -numberTestsWaitingDiagnosis
  -numberTestsProcessed
  -TEST_STATE_SAMPLES_COLLECTED
  -TEST_STATE_SAMPLES_ANALYZED
  -TEST_STATE_PROCESSED
  -sumArray
  -arrayToAnalyze
  -mapper
  -dto
  
  +PerformanceController()
  +getData(String dateBeginning, String dateEnd, int index)
  +getSequenceList(String dateBeginning, String dateEnd)
  +getNumberOfClients()
  +getNumberTests(String testState)
  +getAlgorithm(int index, int[] array )
  +showData()
}
} 

package domain{
 class ClientStore{
  +getNumberOfClients()
  
  
}

class TestStore{
 +getNumberOfTests(String testState)
  +getSequenceList(String dateBeginning, String dateEnd)
  -IntegerToInt(List<Integer> list)
  -addDayToDate(Date date)
  -addMinutesToDate(Date date)
  +getNumberOfRegisteredTestsDate(Date intervalBegin,Date intervalEnd)
  +getNumberOfAvailableTestsDate(Date intervalBegin,Date intervalEnd)
  -StringToDate(String stringDate)
  -getNumberOfDays(String dateB, String dateE)
}  
}

package Mapper&DTO{
  class StatisticMapper{
    +toDTO(int numberClients, int numberTestsWaitingResults,
                              int numberTestsWaitingDiagnosis, int numberTestsProcessed,
                              int[] sumArray)  
  }
  

class StatisticDTO{
  -numberClients
  -numberTestsWaitingResults
  -numberTestsWaitingDiagnosis
  -numberTestsProcessed
  -sumArray
  
  +StatisticDTO(int numberClients, int numberTestsWaitingResults,
    int numberTestsWaitingDiagnosis, int numberTestsProcessed,int[] sumArray)  
  +getNumberClients()
  +getNumberTestsWaitingResults()
  +getNumberTestsWaitingDiagnosis()
  +getNumberTestsProcessed()
  +getSumArray()
  +toString()
  
  }
}



PerformanceUI - - PerformanceController
PerformanceController - - TestStore
PerformanceController - - ClientStore
PerformanceController - - StatisticMapper
StatisticMapper - - StatisticDTO
@enduml

PlantUML version 1.2021.7(Sun May 23 12:40:07 UTC 2021)
(GPL source distribution)
Java Runtime: OpenJDK Runtime Environment
JVM: OpenJDK 64-Bit Server VM
Default Encoding: UTF-8
Language: en
Country: US
--></g></svg>